<svg width="1022" height="340" viewBox="0 0 1022 340" fill="none" xmlns="http://www.w3.org/2000/svg">
<rect x="124" y="134" width="139" height="62" rx="12" fill="#FFD600" stroke="#444B54" stroke-width="6"/>
<path d="M153.758 162.337C153.758 161.921 154.09 161.584 154.5 161.584H157.653C158.063 161.584 158.395 161.921 158.395 162.337V173.248C158.395 173.663 158.063 174 157.653 174H154.5C154.09 174 153.758 173.663 153.758 173.248V162.337Z" fill="black"/>
<path d="M153.758 155.752C153.758 155.337 154.09 155 154.5 155H157.653C158.063 155 158.395 155.337 158.395 155.752V158.95C158.395 159.366 158.063 159.703 157.653 159.703H154.5C154.09 159.703 153.758 159.366 153.758 158.95V155.752Z" fill="black"/>
<path d="M161.363 170.05C161.363 169.634 161.695 169.297 162.105 169.297H165.258C165.668 169.297 166 169.634 166 170.05V173.248C166 173.663 165.668 174 165.258 174H162.105C161.695 174 161.363 173.663 161.363 173.248V170.05Z" fill="black"/>
<path d="M161.363 155.752C161.363 155.337 161.695 155 162.105 155H165.258C165.668 155 166 155.337 166 155.752V166.663C166 167.079 165.668 167.416 165.258 167.416H162.105C161.695 167.416 161.363 167.079 161.363 166.663V155.752Z" fill="black"/>
<path d="M143 167.246C143 167.386 143.039 167.523 143.111 167.642L146.756 173.606C146.891 173.828 147.13 173.962 147.387 173.962H150.876C151.474 173.962 151.827 173.282 151.487 172.783L147.966 167.603C147.693 167.2 147.867 166.646 148.29 166.412C149.099 165.965 149.738 165.376 150.206 164.644C150.847 163.65 151.167 162.504 151.167 161.203C151.167 159.379 150.544 157.89 149.298 156.734C148.069 155.578 146.262 155 143.875 155H143.754C143.345 155 143.014 155.335 143.012 155.75L143 158.881C143 158.893 143.01 158.903 143.022 158.904C143.929 158.931 145.211 159.147 145.692 159.551C146.208 159.966 146.466 160.571 146.466 161.366C146.466 162.142 146.208 162.747 145.692 163.181C145.326 163.488 144.496 163.687 143.72 163.776C143.321 163.822 143 164.154 143 164.561V167.246Z" fill="black"/>
<rect x="185" y="134" width="139" height="62" rx="12" fill="white" stroke="#444B54" stroke-width="6"/>
<path d="M249.256 169.44C249.256 170.912 248.915 172.139 248.232 173.12C247.571 174.08 246.664 174.805 245.512 175.296C244.381 175.765 243.091 176 241.64 176H235.56V153.6H241.32C243.325 153.6 244.936 154.059 246.152 154.976C247.368 155.893 247.976 157.301 247.976 159.2C247.976 160.352 247.645 161.323 246.984 162.112C246.323 162.88 245.416 163.435 244.264 163.776C245.736 164.075 246.931 164.693 247.848 165.632C248.787 166.549 249.256 167.819 249.256 169.44ZM241.32 156H238.28V162.656H241.32C242.451 162.656 243.389 162.368 244.136 161.792C244.883 161.216 245.256 160.405 245.256 159.36C245.256 158.293 244.883 157.472 244.136 156.896C243.389 156.299 242.451 156 241.32 156ZM238.28 173.6H241.64C243.091 173.6 244.264 173.227 245.16 172.48C246.077 171.712 246.536 170.645 246.536 169.28C246.536 167.893 246.077 166.837 245.16 166.112C244.264 165.387 243.091 165.024 241.64 165.024H238.28V173.6ZM251.964 168.64C251.964 167.147 252.294 165.824 252.956 164.672C253.638 163.52 254.556 162.613 255.708 161.952C256.86 161.291 258.15 160.96 259.58 160.96C261.03 160.96 262.321 161.291 263.452 161.952C264.604 162.613 265.51 163.52 266.172 164.672C266.854 165.824 267.196 167.147 267.196 168.64C267.196 170.112 266.854 171.435 266.172 172.608C265.51 173.76 264.604 174.667 263.452 175.328C262.321 175.989 261.03 176.32 259.58 176.32C258.15 176.32 256.86 175.989 255.708 175.328C254.556 174.667 253.638 173.76 252.956 172.608C252.294 171.435 251.964 170.112 251.964 168.64ZM254.556 168.64C254.556 169.664 254.769 170.571 255.196 171.36C255.644 172.149 256.241 172.779 256.988 173.248C257.756 173.696 258.62 173.92 259.58 173.92C260.54 173.92 261.393 173.696 262.14 173.248C262.908 172.779 263.505 172.149 263.932 171.36C264.38 170.571 264.604 169.664 264.604 168.64C264.604 167.616 264.38 166.709 263.932 165.92C263.505 165.109 262.908 164.48 262.14 164.032C261.393 163.584 260.54 163.36 259.58 163.36C258.62 163.36 257.756 163.584 256.988 164.032C256.241 164.48 255.644 165.109 255.196 165.92C254.769 166.709 254.556 167.616 254.556 168.64ZM268.473 161.28H270.873V156.16H273.433V161.28H275.833V163.68H273.433V176H270.873V163.68H268.473V161.28Z" fill="black"/>
<rect x="207" y="23" width="139" height="62" rx="12" fill="#FFD600" stroke="#444B54" stroke-width="6"/>
<path d="M236.758 51.3366C236.758 50.9211 237.09 50.5842 237.5 50.5842H240.653C241.063 50.5842 241.395 50.9211 241.395 51.3366V62.2475C241.395 62.6631 241.063 63 240.653 63H237.5C237.09 63 236.758 62.6631 236.758 62.2475V51.3366Z" fill="black"/>
<path d="M236.758 44.7525C236.758 44.3369 237.09 44 237.5 44H240.653C241.063 44 241.395 44.3369 241.395 44.7525V47.9505C241.395 48.3661 241.063 48.703 240.653 48.703H237.5C237.09 48.703 236.758 48.3661 236.758 47.9505V44.7525Z" fill="black"/>
<path d="M244.363 59.0495C244.363 58.6339 244.695 58.297 245.105 58.297H248.258C248.668 58.297 249 58.6339 249 59.0495V62.2475C249 62.6631 248.668 63 248.258 63H245.105C244.695 63 244.363 62.6631 244.363 62.2475V59.0495Z" fill="black"/>
<path d="M244.363 44.7525C244.363 44.3369 244.695 44 245.105 44H248.258C248.668 44 249 44.3369 249 44.7525V55.6634C249 56.0789 248.668 56.4158 248.258 56.4158H245.105C244.695 56.4158 244.363 56.0789 244.363 55.6634V44.7525Z" fill="black"/>
<path d="M226 56.2459C226 56.386 226.039 56.5233 226.111 56.6424L229.756 62.6063C229.891 62.8277 230.13 62.9624 230.387 62.9624H233.876C234.474 62.9624 234.827 62.282 234.487 61.7828L230.966 56.6029C230.693 56.2003 230.867 55.6465 231.29 55.4125C232.099 54.9654 232.738 54.3758 233.206 53.6437C233.847 52.6505 234.167 51.5037 234.167 50.2034C234.167 48.3794 233.544 46.8895 232.298 45.7337C231.069 44.5779 229.262 44 226.875 44H226.754C226.345 44 226.014 44.3351 226.012 44.7496L226 47.8806C226 47.8932 226.01 47.9035 226.022 47.9039C226.929 47.9314 228.211 48.1471 228.692 48.551C229.208 48.9663 229.466 49.5713 229.466 50.3659C229.466 51.1425 229.208 51.7475 228.692 52.1809C228.326 52.4883 227.496 52.6867 226.72 52.7761C226.321 52.8221 226 53.1535 226 53.5613V56.2459Z" fill="black"/>
<rect x="268" y="23" width="226" height="62" rx="12" fill="white" stroke="#444B54" stroke-width="6"/>
<path d="M300.195 49.864L298.531 65H295.811L298.531 41.48L307.491 57.704L316.451 41.48L319.171 65H316.451L314.787 49.864L307.491 62.92L300.195 49.864ZM322.838 44.2C322.838 43.7093 323.008 43.2933 323.35 42.952C323.712 42.6107 324.128 42.44 324.598 42.44C325.088 42.44 325.504 42.6107 325.846 42.952C326.187 43.2933 326.358 43.7093 326.358 44.2C326.358 44.6693 326.187 45.0853 325.846 45.448C325.504 45.7893 325.088 45.96 324.598 45.96C324.128 45.96 323.712 45.7893 323.35 45.448C323.008 45.0853 322.838 44.6693 322.838 44.2ZM323.318 50.28H325.878V65H323.318V50.28ZM332.302 57.64C332.302 58.664 332.515 59.5707 332.942 60.36C333.39 61.1493 333.987 61.7787 334.734 62.248C335.502 62.696 336.366 62.92 337.326 62.92C338.521 62.92 339.587 62.6533 340.526 62.12C341.465 61.5867 342.105 60.9573 342.446 60.232V63.432C341.934 64.0293 341.198 64.4987 340.238 64.84C339.299 65.16 338.329 65.32 337.326 65.32C335.897 65.32 334.606 64.9893 333.454 64.328C332.302 63.6667 331.385 62.76 330.702 61.608C330.041 60.4347 329.71 59.112 329.71 57.64C329.71 56.1467 330.041 54.824 330.702 53.672C331.385 52.52 332.302 51.6133 333.454 50.952C334.606 50.2907 335.897 49.96 337.326 49.96C338.329 49.96 339.299 50.1307 340.238 50.472C341.198 50.792 341.934 51.2507 342.446 51.848V55.048C342.105 54.3227 341.465 53.6933 340.526 53.16C339.587 52.6267 338.521 52.36 337.326 52.36C336.366 52.36 335.502 52.584 334.734 53.032C333.987 53.48 333.39 54.1093 332.942 54.92C332.515 55.7093 332.302 56.616 332.302 57.64ZM353.439 53.096C353.098 52.84 352.789 52.6587 352.511 52.552C352.234 52.424 351.882 52.36 351.455 52.36C350.495 52.36 349.845 52.712 349.503 53.416C349.162 54.0987 348.991 54.9733 348.991 56.04V65H346.431V50.28H348.991V51.976C349.397 51.3573 349.877 50.8667 350.431 50.504C350.986 50.1413 351.541 49.96 352.095 49.96C352.629 49.96 353.119 50.0347 353.567 50.184C354.037 50.312 354.463 50.5787 354.847 50.984L353.439 53.096ZM355.651 57.64C355.651 56.1467 355.982 54.824 356.643 53.672C357.326 52.52 358.243 51.6133 359.395 50.952C360.547 50.2907 361.838 49.96 363.267 49.96C364.718 49.96 366.009 50.2907 367.139 50.952C368.291 51.6133 369.198 52.52 369.859 53.672C370.542 54.824 370.883 56.1467 370.883 57.64C370.883 59.112 370.542 60.4347 369.859 61.608C369.198 62.76 368.291 63.6667 367.139 64.328C366.009 64.9893 364.718 65.32 363.267 65.32C361.838 65.32 360.547 64.9893 359.395 64.328C358.243 63.6667 357.326 62.76 356.643 61.608C355.982 60.4347 355.651 59.112 355.651 57.64ZM358.243 57.64C358.243 58.664 358.457 59.5707 358.883 60.36C359.331 61.1493 359.929 61.7787 360.675 62.248C361.443 62.696 362.307 62.92 363.267 62.92C364.227 62.92 365.081 62.696 365.827 62.248C366.595 61.7787 367.193 61.1493 367.619 60.36C368.067 59.5707 368.291 58.664 368.291 57.64C368.291 56.616 368.067 55.7093 367.619 54.92C367.193 54.1093 366.595 53.48 365.827 53.032C365.081 52.584 364.227 52.36 363.267 52.36C362.307 52.36 361.443 52.584 360.675 53.032C359.929 53.48 359.331 54.1093 358.883 54.92C358.457 55.7093 358.243 56.616 358.243 57.64ZM375.008 60.488C375.456 61.1707 376 61.7573 376.64 62.248C377.301 62.7387 378.091 62.984 379.008 62.984C379.733 62.984 380.299 62.824 380.704 62.504C381.131 62.1627 381.344 61.704 381.344 61.128C381.344 60.616 381.173 60.1893 380.832 59.848C380.512 59.4853 380.096 59.1867 379.584 58.952C379.072 58.696 378.528 58.4613 377.952 58.248C377.312 57.992 376.661 57.6933 376 57.352C375.36 56.9893 374.816 56.5307 374.368 55.976C373.941 55.4 373.728 54.6853 373.728 53.832C373.728 52.9573 373.952 52.232 374.4 51.656C374.869 51.08 375.467 50.6533 376.192 50.376C376.939 50.0987 377.707 49.96 378.496 49.96C379.669 49.96 380.736 50.2373 381.696 50.792C382.656 51.3467 383.36 52.0293 383.808 52.84L381.76 54.152C381.355 53.5973 380.843 53.1387 380.224 52.776C379.627 52.4133 378.944 52.232 378.176 52.232C377.643 52.232 377.184 52.3493 376.8 52.584C376.416 52.8187 376.224 53.1813 376.224 53.672C376.224 54.2693 376.533 54.76 377.152 55.144C377.792 55.5067 378.507 55.848 379.296 56.168C380.149 56.5093 380.928 56.8827 381.632 57.288C382.336 57.672 382.891 58.1413 383.296 58.696C383.723 59.2507 383.936 59.9653 383.936 60.84C383.936 62.12 383.467 63.1867 382.528 64.04C381.611 64.8933 380.395 65.32 378.88 65.32C377.899 65.32 377.013 65.1493 376.224 64.808C375.435 64.4453 374.763 63.9867 374.208 63.432C373.675 62.8773 373.269 62.312 372.992 61.736L375.008 60.488ZM393.002 65.32C391.637 65.32 390.421 65 389.354 64.36C388.309 63.6987 387.488 62.792 386.89 61.64C386.314 60.488 386.026 59.1547 386.026 57.64C386.026 56.104 386.325 54.76 386.922 53.608C387.541 52.456 388.394 51.56 389.482 50.92C390.592 50.28 391.872 49.96 393.322 49.96C395.477 49.96 397.173 50.632 398.41 51.976C399.648 53.32 400.266 55.1653 400.266 57.512C400.266 57.6613 400.256 57.8213 400.234 57.992C400.234 58.1413 400.234 58.2373 400.234 58.28H388.65C388.757 59.752 389.216 60.8933 390.026 61.704C390.837 62.5147 391.936 62.92 393.322 62.92C395.328 62.92 396.864 62.0347 397.93 60.264L400.01 61.576C398.474 64.072 396.138 65.32 393.002 65.32ZM393.322 52.2C392.064 52.2 391.04 52.5413 390.25 53.224C389.461 53.8853 388.96 54.8453 388.746 56.104H397.482C397.397 54.9307 396.97 53.992 396.202 53.288C395.456 52.5627 394.496 52.2 393.322 52.2ZM410.783 53.096C410.442 52.84 410.132 52.6587 409.855 52.552C409.578 52.424 409.226 52.36 408.799 52.36C407.839 52.36 407.188 52.712 406.847 53.416C406.506 54.0987 406.335 54.9733 406.335 56.04V65H403.775V50.28H406.335V51.976C406.74 51.3573 407.22 50.8667 407.775 50.504C408.33 50.1413 408.884 49.96 409.439 49.96C409.972 49.96 410.463 50.0347 410.911 50.184C411.38 50.312 411.807 50.5787 412.191 50.984L410.783 53.096ZM413.312 50.28H416.193L420.353 60.68L424.513 50.28H427.393L420.353 66.12L413.312 50.28ZM429.806 44.2C429.806 43.7093 429.977 43.2933 430.318 42.952C430.681 42.6107 431.097 42.44 431.566 42.44C432.057 42.44 432.473 42.6107 432.814 42.952C433.156 43.2933 433.326 43.7093 433.326 44.2C433.326 44.6693 433.156 45.0853 432.814 45.448C432.473 45.7893 432.057 45.96 431.566 45.96C431.097 45.96 430.681 45.7893 430.318 45.448C429.977 45.0853 429.806 44.6693 429.806 44.2ZM430.286 50.28H432.846V65H430.286V50.28ZM439.271 57.64C439.271 58.664 439.484 59.5707 439.911 60.36C440.359 61.1493 440.956 61.7787 441.703 62.248C442.471 62.696 443.335 62.92 444.295 62.92C445.489 62.92 446.556 62.6533 447.495 62.12C448.433 61.5867 449.073 60.9573 449.415 60.232V63.432C448.903 64.0293 448.167 64.4987 447.207 64.84C446.268 65.16 445.297 65.32 444.295 65.32C442.865 65.32 441.575 64.9893 440.423 64.328C439.271 63.6667 438.353 62.76 437.671 61.608C437.009 60.4347 436.679 59.112 436.679 57.64C436.679 56.1467 437.009 54.824 437.671 53.672C438.353 52.52 439.271 51.6133 440.423 50.952C441.575 50.2907 442.865 49.96 444.295 49.96C445.297 49.96 446.268 50.1307 447.207 50.472C448.167 50.792 448.903 51.2507 449.415 51.848V55.048C449.073 54.3227 448.433 53.6933 447.495 53.16C446.556 52.6267 445.489 52.36 444.295 52.36C443.335 52.36 442.471 52.584 441.703 53.032C440.956 53.48 440.359 54.1093 439.911 54.92C439.484 55.7093 439.271 56.616 439.271 57.64ZM459.096 65.32C457.731 65.32 456.515 65 455.448 64.36C454.403 63.6987 453.581 62.792 452.984 61.64C452.408 60.488 452.12 59.1547 452.12 57.64C452.12 56.104 452.419 54.76 453.016 53.608C453.635 52.456 454.488 51.56 455.576 50.92C456.685 50.28 457.965 49.96 459.416 49.96C461.571 49.96 463.267 50.632 464.504 51.976C465.741 53.32 466.36 55.1653 466.36 57.512C466.36 57.6613 466.349 57.8213 466.328 57.992C466.328 58.1413 466.328 58.2373 466.328 58.28H454.744C454.851 59.752 455.309 60.8933 456.12 61.704C456.931 62.5147 458.029 62.92 459.416 62.92C461.421 62.92 462.957 62.0347 464.024 60.264L466.104 61.576C464.568 64.072 462.232 65.32 459.096 65.32ZM459.416 52.2C458.157 52.2 457.133 52.5413 456.344 53.224C455.555 53.8853 455.053 54.8453 454.84 56.104H463.576C463.491 54.9307 463.064 53.992 462.296 53.288C461.549 52.5627 460.589 52.2 459.416 52.2Z" fill="black"/>
<rect x="561" y="251" width="139" height="62" rx="12" fill="#FFD600" stroke="#444B54" stroke-width="6"/>
<path d="M590.758 279.337C590.758 278.921 591.09 278.584 591.5 278.584H594.653C595.063 278.584 595.395 278.921 595.395 279.337V290.248C595.395 290.663 595.063 291 594.653 291H591.5C591.09 291 590.758 290.663 590.758 290.248V279.337Z" fill="black"/>
<path d="M590.758 272.752C590.758 272.337 591.09 272 591.5 272H594.653C595.063 272 595.395 272.337 595.395 272.752V275.95C595.395 276.366 595.063 276.703 594.653 276.703H591.5C591.09 276.703 590.758 276.366 590.758 275.95V272.752Z" fill="black"/>
<path d="M598.363 287.05C598.363 286.634 598.695 286.297 599.105 286.297H602.258C602.668 286.297 603 286.634 603 287.05V290.248C603 290.663 602.668 291 602.258 291H599.105C598.695 291 598.363 290.663 598.363 290.248V287.05Z" fill="black"/>
<path d="M598.363 272.752C598.363 272.337 598.695 272 599.105 272H602.258C602.668 272 603 272.337 603 272.752V283.663C603 284.079 602.668 284.416 602.258 284.416H599.105C598.695 284.416 598.363 284.079 598.363 283.663V272.752Z" fill="black"/>
<path d="M580 284.246C580 284.386 580.039 284.523 580.111 284.642L583.756 290.606C583.891 290.828 584.13 290.962 584.387 290.962H587.876C588.474 290.962 588.827 290.282 588.487 289.783L584.966 284.603C584.693 284.2 584.867 283.646 585.29 283.412C586.099 282.965 586.738 282.376 587.206 281.644C587.847 280.65 588.167 279.504 588.167 278.203C588.167 276.379 587.544 274.89 586.298 273.734C585.069 272.578 583.262 272 580.875 272H580.754C580.345 272 580.014 272.335 580.012 272.75L580 275.881C580 275.893 580.01 275.903 580.022 275.904C580.929 275.931 582.211 276.147 582.692 276.551C583.208 276.966 583.466 277.571 583.466 278.366C583.466 279.142 583.208 279.747 582.692 280.181C582.326 280.488 581.496 280.687 580.72 280.776C580.321 280.822 580 281.154 580 281.561V284.246Z" fill="black"/>
<rect x="622" y="251" width="136" height="62" rx="12" fill="white" stroke="#444B54" stroke-width="6"/>
<path d="M680.569 286.44C680.569 287.912 680.227 289.139 679.545 290.12C678.883 291.08 677.977 291.805 676.825 292.296C675.694 292.765 674.403 293 672.953 293H666.873V270.6H672.633C674.638 270.6 676.249 271.059 677.465 271.976C678.681 272.893 679.289 274.301 679.289 276.2C679.289 277.352 678.958 278.323 678.297 279.112C677.635 279.88 676.729 280.435 675.577 280.776C677.049 281.075 678.243 281.693 679.161 282.632C680.099 283.549 680.569 284.819 680.569 286.44ZM672.633 273H669.593V279.656H672.633C673.763 279.656 674.702 279.368 675.449 278.792C676.195 278.216 676.569 277.405 676.569 276.36C676.569 275.293 676.195 274.472 675.449 273.896C674.702 273.299 673.763 273 672.633 273ZM669.593 290.6H672.953C674.403 290.6 675.577 290.227 676.473 289.48C677.39 288.712 677.849 287.645 677.849 286.28C677.849 284.893 677.39 283.837 676.473 283.112C675.577 282.387 674.403 282.024 672.953 282.024H669.593V290.6ZM684.716 270.6H690.796C692.247 270.6 693.538 270.877 694.668 271.432C695.82 271.965 696.727 272.733 697.388 273.736C698.071 274.739 698.412 275.933 698.412 277.32C698.412 278.685 698.071 279.88 697.388 280.904C696.727 281.907 695.82 282.685 694.668 283.24C693.538 283.773 692.247 284.04 690.796 284.04H687.436V293H684.716V270.6ZM690.796 273.16H687.436V281.48H690.796C692.247 281.48 693.42 281.128 694.316 280.424C695.234 279.72 695.692 278.685 695.692 277.32C695.692 275.933 695.234 274.899 694.316 274.216C693.42 273.512 692.247 273.16 690.796 273.16ZM702.248 270.6H713.768V273.16H704.968V279.56H713.448V282.12H704.968V293H702.248V270.6Z" fill="black"/>
<rect x="550" y="23" width="139" height="62" rx="12" fill="#FFD600" stroke="#444B54" stroke-width="6"/>
<path d="M580.758 51.3366C580.758 50.9211 581.09 50.5842 581.5 50.5842H584.653C585.063 50.5842 585.395 50.9211 585.395 51.3366V62.2475C585.395 62.6631 585.063 63 584.653 63H581.5C581.09 63 580.758 62.6631 580.758 62.2475V51.3366Z" fill="black"/>
<path d="M580.758 44.7525C580.758 44.3369 581.09 44 581.5 44H584.653C585.063 44 585.395 44.3369 585.395 44.7525V47.9505C585.395 48.3661 585.063 48.703 584.653 48.703H581.5C581.09 48.703 580.758 48.3661 580.758 47.9505V44.7525Z" fill="black"/>
<path d="M588.363 59.0495C588.363 58.6339 588.695 58.297 589.105 58.297H592.258C592.668 58.297 593 58.6339 593 59.0495V62.2475C593 62.6631 592.668 63 592.258 63H589.105C588.695 63 588.363 62.6631 588.363 62.2475V59.0495Z" fill="black"/>
<path d="M588.363 44.7525C588.363 44.3369 588.695 44 589.105 44H592.258C592.668 44 593 44.3369 593 44.7525V55.6634C593 56.0789 592.668 56.4158 592.258 56.4158H589.105C588.695 56.4158 588.363 56.0789 588.363 55.6634V44.7525Z" fill="black"/>
<path d="M570 56.2459C570 56.386 570.039 56.5233 570.111 56.6424L573.756 62.6063C573.891 62.8277 574.13 62.9624 574.387 62.9624H577.876C578.474 62.9624 578.827 62.282 578.487 61.7828L574.966 56.6029C574.693 56.2003 574.867 55.6465 575.29 55.4125C576.099 54.9654 576.738 54.3758 577.206 53.6437C577.847 52.6505 578.167 51.5037 578.167 50.2034C578.167 48.3794 577.544 46.8895 576.298 45.7337C575.069 44.5779 573.262 44 570.875 44H570.754C570.345 44 570.014 44.3351 570.012 44.7496L570 47.8806C570 47.8932 570.01 47.9035 570.022 47.9039C570.929 47.9314 572.211 48.1471 572.692 48.551C573.208 48.9663 573.466 49.5713 573.466 50.3659C573.466 51.1425 573.208 51.7475 572.692 52.1809C572.326 52.4883 571.496 52.6867 570.72 52.7761C570.321 52.8221 570 53.1535 570 53.5613V56.2459Z" fill="black"/>
<rect x="611" y="23" width="203" height="62" rx="12" fill="white" stroke="#444B54" stroke-width="6"/>
<path d="M650.738 53.8C650.738 55.528 651.122 57.0533 651.89 58.376C652.679 59.6987 653.703 60.7333 654.962 61.48C656.221 62.2267 657.586 62.6 659.058 62.6C660.637 62.6 662.034 62.2907 663.25 61.672C664.466 61.0533 665.469 60.2533 666.258 59.272V62.856C665.319 63.688 664.295 64.3067 663.186 64.712C662.077 65.1173 660.701 65.32 659.058 65.32C657.501 65.32 656.039 65.0427 654.674 64.488C653.33 63.912 652.146 63.112 651.122 62.088C650.098 61.0427 649.298 59.816 648.722 58.408C648.146 57 647.858 55.464 647.858 53.8C647.858 52.136 648.146 50.6 648.722 49.192C649.298 47.784 650.098 46.568 651.122 45.544C652.146 44.4987 653.33 43.6987 654.674 43.144C656.039 42.568 657.501 42.28 659.058 42.28C660.701 42.28 662.077 42.4827 663.186 42.888C664.295 43.2933 665.319 43.912 666.258 44.744V48.328C665.469 47.3253 664.466 46.5253 663.25 45.928C662.034 45.3093 660.637 45 659.058 45C657.586 45 656.221 45.3733 654.962 46.12C653.703 46.8667 652.679 47.9013 651.89 49.224C651.122 50.5253 650.738 52.0507 650.738 53.8ZM669.604 57.64C669.604 56.1467 669.935 54.824 670.596 53.672C671.279 52.52 672.196 51.6133 673.348 50.952C674.5 50.2907 675.791 49.96 677.22 49.96C678.671 49.96 679.962 50.2907 681.092 50.952C682.244 51.6133 683.151 52.52 683.812 53.672C684.495 54.824 684.836 56.1467 684.836 57.64C684.836 59.112 684.495 60.4347 683.812 61.608C683.151 62.76 682.244 63.6667 681.092 64.328C679.962 64.9893 678.671 65.32 677.22 65.32C675.791 65.32 674.5 64.9893 673.348 64.328C672.196 63.6667 671.279 62.76 670.596 61.608C669.935 60.4347 669.604 59.112 669.604 57.64ZM672.196 57.64C672.196 58.664 672.41 59.5707 672.836 60.36C673.284 61.1493 673.882 61.7787 674.628 62.248C675.396 62.696 676.26 62.92 677.22 62.92C678.18 62.92 679.034 62.696 679.78 62.248C680.548 61.7787 681.146 61.1493 681.572 60.36C682.02 59.5707 682.244 58.664 682.244 57.64C682.244 56.616 682.02 55.7093 681.572 54.92C681.146 54.1093 680.548 53.48 679.78 53.032C679.034 52.584 678.18 52.36 677.22 52.36C676.26 52.36 675.396 52.584 674.628 53.032C673.882 53.48 673.284 54.1093 672.836 54.92C672.41 55.7093 672.196 56.616 672.196 57.64ZM697.793 56.04C697.793 53.5867 696.748 52.36 694.657 52.36C693.548 52.36 692.641 52.7013 691.937 53.384C691.254 54.0667 690.913 54.952 690.913 56.04V65H688.353V50.28H690.913V52.584C691.873 50.8347 693.334 49.96 695.297 49.96C696.854 49.96 698.081 50.4827 698.977 51.528C699.894 52.552 700.353 53.9493 700.353 55.72V65H697.793V56.04ZM702.926 50.28H705.326V45.16H707.886V50.28H710.286V52.68H707.886V65H705.326V52.68H702.926V50.28ZM713.621 53.672L712.373 51.784C712.928 51.3787 713.685 50.9733 714.645 50.568C715.626 50.1627 716.8 49.96 718.165 49.96C719.872 49.96 721.258 50.3547 722.325 51.144C723.392 51.912 723.925 53.0107 723.925 54.44V65H721.365V63.016C720.896 63.784 720.192 64.36 719.253 64.744C718.314 65.128 717.397 65.32 716.501 65.32C715.605 65.32 714.762 65.1387 713.973 64.776C713.205 64.392 712.586 63.848 712.117 63.144C711.648 62.44 711.413 61.5867 711.413 60.584C711.413 59.1547 711.914 58.0133 712.917 57.16C713.941 56.2853 715.36 55.848 717.173 55.848C718.154 55.848 718.986 55.9653 719.669 56.2C720.373 56.4133 720.938 56.6587 721.365 56.936V54.792C721.365 53.7893 721.034 53.1067 720.373 52.744C719.733 52.3813 718.954 52.2 718.037 52.2C716.928 52.2 716 52.3813 715.253 52.744C714.506 53.1067 713.962 53.416 713.621 53.672ZM714.005 60.456C714.005 61.3093 714.293 61.9707 714.869 62.44C715.466 62.888 716.234 63.112 717.173 63.112C718.346 63.112 719.338 62.76 720.149 62.056C720.96 61.352 721.365 60.4133 721.365 59.24V58.696C720.768 58.3973 720.16 58.184 719.541 58.056C718.922 57.928 718.272 57.864 717.589 57.864C716.352 57.864 715.445 58.0987 714.869 58.568C714.293 59.016 714.005 59.6453 714.005 60.456ZM728.259 44.2C728.259 43.7093 728.43 43.2933 728.771 42.952C729.134 42.6107 729.55 42.44 730.019 42.44C730.51 42.44 730.926 42.6107 731.267 42.952C731.609 43.2933 731.779 43.7093 731.779 44.2C731.779 44.6693 731.609 45.0853 731.267 45.448C730.926 45.7893 730.51 45.96 730.019 45.96C729.55 45.96 729.134 45.7893 728.771 45.448C728.43 45.0853 728.259 44.6693 728.259 44.2ZM728.739 50.28H731.299V65H728.739V50.28ZM746.012 56.04C746.012 53.5867 744.967 52.36 742.876 52.36C741.767 52.36 740.86 52.7013 740.156 53.384C739.473 54.0667 739.132 54.952 739.132 56.04V65H736.572V50.28H739.132V52.584C740.092 50.8347 741.553 49.96 743.516 49.96C745.073 49.96 746.3 50.4827 747.196 51.528C748.113 52.552 748.572 53.9493 748.572 55.72V65H746.012V56.04ZM759.08 65.32C757.715 65.32 756.499 65 755.432 64.36C754.387 63.6987 753.566 62.792 752.968 61.64C752.392 60.488 752.104 59.1547 752.104 57.64C752.104 56.104 752.403 54.76 753 53.608C753.619 52.456 754.472 51.56 755.56 50.92C756.67 50.28 757.95 49.96 759.4 49.96C761.555 49.96 763.251 50.632 764.488 51.976C765.726 53.32 766.344 55.1653 766.344 57.512C766.344 57.6613 766.334 57.8213 766.312 57.992C766.312 58.1413 766.312 58.2373 766.312 58.28H754.728C754.835 59.752 755.294 60.8933 756.104 61.704C756.915 62.5147 758.014 62.92 759.4 62.92C761.406 62.92 762.942 62.0347 764.008 60.264L766.088 61.576C764.552 64.072 762.216 65.32 759.08 65.32ZM759.4 52.2C758.142 52.2 757.118 52.5413 756.328 53.224C755.539 53.8853 755.038 54.8453 754.824 56.104H763.56C763.475 54.9307 763.048 53.992 762.28 53.288C761.534 52.5627 760.574 52.2 759.4 52.2ZM776.861 53.096C776.52 52.84 776.21 52.6587 775.933 52.552C775.656 52.424 775.304 52.36 774.877 52.36C773.917 52.36 773.266 52.712 772.925 53.416C772.584 54.0987 772.413 54.9733 772.413 56.04V65H769.853V50.28H772.413V51.976C772.818 51.3573 773.298 50.8667 773.853 50.504C774.408 50.1413 774.962 49.96 775.517 49.96C776.05 49.96 776.541 50.0347 776.989 50.184C777.458 50.312 777.885 50.5787 778.269 50.984L776.861 53.096Z" fill="black"/>
<rect x="683" y="134" width="139" height="62" rx="12" fill="#FFD600" stroke="#444B54" stroke-width="6"/>
<path d="M712.758 162.337C712.758 161.921 713.09 161.584 713.5 161.584H716.653C717.063 161.584 717.395 161.921 717.395 162.337V173.248C717.395 173.663 717.063 174 716.653 174H713.5C713.09 174 712.758 173.663 712.758 173.248V162.337Z" fill="black"/>
<path d="M712.758 155.752C712.758 155.337 713.09 155 713.5 155H716.653C717.063 155 717.395 155.337 717.395 155.752V158.95C717.395 159.366 717.063 159.703 716.653 159.703H713.5C713.09 159.703 712.758 159.366 712.758 158.95V155.752Z" fill="black"/>
<path d="M720.363 170.05C720.363 169.634 720.695 169.297 721.105 169.297H724.258C724.668 169.297 725 169.634 725 170.05V173.248C725 173.663 724.668 174 724.258 174H721.105C720.695 174 720.363 173.663 720.363 173.248V170.05Z" fill="black"/>
<path d="M720.363 155.752C720.363 155.337 720.695 155 721.105 155H724.258C724.668 155 725 155.337 725 155.752V166.663C725 167.079 724.668 167.416 724.258 167.416H721.105C720.695 167.416 720.363 167.079 720.363 166.663V155.752Z" fill="black"/>
<path d="M702 167.246C702 167.386 702.039 167.523 702.111 167.642L705.756 173.606C705.891 173.828 706.13 173.962 706.387 173.962H709.876C710.474 173.962 710.827 173.282 710.487 172.783L706.966 167.603C706.693 167.2 706.867 166.646 707.29 166.412C708.099 165.965 708.738 165.376 709.206 164.644C709.847 163.65 710.167 162.504 710.167 161.203C710.167 159.379 709.544 157.89 708.298 156.734C707.069 155.578 705.262 155 702.875 155H702.754C702.345 155 702.014 155.335 702.012 155.75L702 158.881C702 158.893 702.01 158.903 702.022 158.904C702.929 158.931 704.211 159.147 704.692 159.551C705.208 159.966 705.466 160.571 705.466 161.366C705.466 162.142 705.208 162.747 704.692 163.181C704.326 163.488 703.496 163.687 702.72 163.776C702.321 163.822 702 164.154 702 164.561V167.246Z" fill="black"/>
<rect x="744" y="134" width="179" height="62" rx="12" fill="white" stroke="#444B54" stroke-width="6"/>
<path d="M793.392 169.216C794.139 170.581 794.971 171.68 795.888 172.512C796.827 173.344 797.968 173.76 799.312 173.76C800.507 173.76 801.467 173.429 802.192 172.768C802.917 172.107 803.28 171.264 803.28 170.24C803.28 169.237 803.045 168.437 802.576 167.84C802.107 167.243 801.488 166.763 800.72 166.4C799.973 166.016 799.173 165.675 798.32 165.376C797.765 165.184 797.147 164.939 796.464 164.64C795.781 164.32 795.131 163.925 794.512 163.456C793.893 162.965 793.381 162.368 792.976 161.664C792.592 160.96 792.4 160.096 792.4 159.072C792.4 157.963 792.677 156.971 793.232 156.096C793.787 155.221 794.555 154.539 795.536 154.048C796.517 153.536 797.637 153.28 798.896 153.28C800.112 153.28 801.168 153.515 802.064 153.984C802.981 154.432 803.76 155.019 804.4 155.744C805.04 156.448 805.541 157.195 805.904 157.984L803.568 159.328C803.291 158.773 802.939 158.229 802.512 157.696C802.085 157.163 801.563 156.725 800.944 156.384C800.347 156.043 799.611 155.872 798.736 155.872C797.52 155.872 796.635 156.171 796.08 156.768C795.525 157.344 795.248 157.995 795.248 158.72C795.248 159.659 795.621 160.48 796.368 161.184C797.115 161.888 798.469 162.581 800.432 163.264C801.029 163.477 801.659 163.755 802.32 164.096C802.981 164.437 803.589 164.875 804.144 165.408C804.72 165.92 805.189 166.549 805.552 167.296C805.915 168.021 806.096 168.896 806.096 169.92C806.096 171.221 805.765 172.352 805.104 173.312C804.464 174.272 803.621 175.019 802.576 175.552C801.531 176.064 800.411 176.32 799.216 176.32C798 176.32 796.869 176.064 795.824 175.552C794.8 175.019 793.893 174.325 793.104 173.472C792.336 172.597 791.707 171.669 791.216 170.688L793.392 169.216ZM815.627 176.32C814.262 176.32 813.046 176 811.979 175.36C810.934 174.699 810.113 173.792 809.515 172.64C808.939 171.488 808.651 170.155 808.651 168.64C808.651 167.104 808.95 165.76 809.547 164.608C810.166 163.456 811.019 162.56 812.107 161.92C813.217 161.28 814.497 160.96 815.947 160.96C818.102 160.96 819.798 161.632 821.035 162.976C822.273 164.32 822.891 166.165 822.891 168.512C822.891 168.661 822.881 168.821 822.859 168.992C822.859 169.141 822.859 169.237 822.859 169.28H811.275C811.382 170.752 811.841 171.893 812.651 172.704C813.462 173.515 814.561 173.92 815.947 173.92C817.953 173.92 819.489 173.035 820.555 171.264L822.635 172.576C821.099 175.072 818.763 176.32 815.627 176.32ZM815.947 163.2C814.689 163.2 813.665 163.541 812.875 164.224C812.086 164.885 811.585 165.845 811.371 167.104H820.107C820.022 165.931 819.595 164.992 818.827 164.288C818.081 163.563 817.121 163.2 815.947 163.2ZM833.408 164.096C833.067 163.84 832.757 163.659 832.48 163.552C832.203 163.424 831.851 163.36 831.424 163.36C830.464 163.36 829.813 163.712 829.472 164.416C829.131 165.099 828.96 165.973 828.96 167.04V176H826.4V161.28H828.96V162.976C829.365 162.357 829.845 161.867 830.4 161.504C830.955 161.141 831.509 160.96 832.064 160.96C832.597 160.96 833.088 161.035 833.536 161.184C834.005 161.312 834.432 161.579 834.816 161.984L833.408 164.096ZM835.938 161.28H838.818L842.978 171.68L847.138 161.28H850.018L842.978 177.12L835.938 161.28ZM857.659 176.32C856.293 176.32 855.077 176 854.011 175.36C852.965 174.699 852.144 173.792 851.547 172.64C850.971 171.488 850.683 170.155 850.683 168.64C850.683 167.104 850.981 165.76 851.579 164.608C852.197 163.456 853.051 162.56 854.139 161.92C855.248 161.28 856.528 160.96 857.979 160.96C860.133 160.96 861.829 161.632 863.067 162.976C864.304 164.32 864.923 166.165 864.923 168.512C864.923 168.661 864.912 168.821 864.891 168.992C864.891 169.141 864.891 169.237 864.891 169.28H853.307C853.413 170.752 853.872 171.893 854.683 172.704C855.493 173.515 856.592 173.92 857.979 173.92C859.984 173.92 861.52 173.035 862.587 171.264L864.667 172.576C863.131 175.072 860.795 176.32 857.659 176.32ZM857.979 163.2C856.72 163.2 855.696 163.541 854.907 164.224C854.117 164.885 853.616 165.845 853.403 167.104H862.139C862.053 165.931 861.627 164.992 860.859 164.288C860.112 163.563 859.152 163.2 857.979 163.2ZM875.439 164.096C875.098 163.84 874.789 163.659 874.511 163.552C874.234 163.424 873.882 163.36 873.455 163.36C872.495 163.36 871.845 163.712 871.503 164.416C871.162 165.099 870.991 165.973 870.991 167.04V176H868.431V161.28H870.991V162.976C871.397 162.357 871.877 161.867 872.431 161.504C872.986 161.141 873.541 160.96 874.095 160.96C874.629 160.96 875.119 161.035 875.567 161.184C876.037 161.312 876.463 161.579 876.847 161.984L875.439 164.096Z" fill="black"/>
<rect x="23" y="251" width="139" height="62" rx="12" fill="#FFD600" stroke="#444B54" stroke-width="6"/>
<path d="M53.7581 279.337C53.7581 278.921 54.0902 278.584 54.5 278.584H57.6532C58.063 278.584 58.3952 278.921 58.3952 279.337V290.248C58.3952 290.663 58.063 291 57.6532 291H54.5C54.0902 291 53.7581 290.663 53.7581 290.248V279.337Z" fill="black"/>
<path d="M53.7581 272.752C53.7581 272.337 54.0902 272 54.5 272H57.6532C58.063 272 58.3952 272.337 58.3952 272.752V275.95C58.3952 276.366 58.063 276.703 57.6532 276.703H54.5C54.0902 276.703 53.7581 276.366 53.7581 275.95V272.752Z" fill="black"/>
<path d="M61.3629 287.05C61.3629 286.634 61.6951 286.297 62.1048 286.297H65.2581C65.6678 286.297 66 286.634 66 287.05V290.248C66 290.663 65.6678 291 65.2581 291H62.1048C61.6951 291 61.3629 290.663 61.3629 290.248V287.05Z" fill="black"/>
<path d="M61.3629 272.752C61.3629 272.337 61.6951 272 62.1048 272H65.2581C65.6678 272 66 272.337 66 272.752V283.663C66 284.079 65.6678 284.416 65.2581 284.416H62.1048C61.6951 284.416 61.3629 284.079 61.3629 283.663V272.752Z" fill="black"/>
<path d="M43 284.246C43 284.386 43.0386 284.523 43.1113 284.642L46.7562 290.606C46.8915 290.828 47.13 290.962 47.3868 290.962H50.8764C51.4742 290.962 51.8266 290.282 51.4872 289.783L47.9662 284.603C47.6926 284.2 47.8671 283.646 48.2904 283.412C49.0994 282.965 49.7378 282.376 50.2057 281.644C50.8467 280.65 51.1672 279.504 51.1672 278.203C51.1672 276.379 50.544 274.89 49.2975 273.734C48.0689 272.578 46.2615 272 43.8755 272H43.7539C43.3453 272 43.0136 272.335 43.012 272.75L43 275.881C43 275.893 43.0097 275.903 43.022 275.904C43.9293 275.931 45.2106 276.147 45.6917 276.551C46.2081 276.966 46.4663 277.571 46.4663 278.366C46.4663 279.142 46.2081 279.747 45.6917 280.181C45.3255 280.488 44.4957 280.687 43.7202 280.776C43.3208 280.822 43 281.154 43 281.561V284.246Z" fill="black"/>
<rect x="84" y="251" width="122" height="62" rx="12" fill="white" stroke="#444B54" stroke-width="6"/>
<path d="M129.06 270.6H131.78V293H129.06V270.6ZM135.464 285.64C135.464 284.147 135.794 282.824 136.456 281.672C137.138 280.52 138.056 279.613 139.208 278.952C140.36 278.291 141.65 277.96 143.08 277.96C144.53 277.96 145.821 278.291 146.952 278.952C148.104 279.613 149.01 280.52 149.672 281.672C150.354 282.824 150.696 284.147 150.696 285.64C150.696 287.112 150.354 288.435 149.672 289.608C149.01 290.76 148.104 291.667 146.952 292.328C145.821 292.989 144.53 293.32 143.08 293.32C141.65 293.32 140.36 292.989 139.208 292.328C138.056 291.667 137.138 290.76 136.456 289.608C135.794 288.435 135.464 287.112 135.464 285.64ZM138.056 285.64C138.056 286.664 138.269 287.571 138.696 288.36C139.144 289.149 139.741 289.779 140.488 290.248C141.256 290.696 142.12 290.92 143.08 290.92C144.04 290.92 144.893 290.696 145.64 290.248C146.408 289.779 147.005 289.149 147.432 288.36C147.88 287.571 148.104 286.664 148.104 285.64C148.104 284.616 147.88 283.709 147.432 282.92C147.005 282.109 146.408 281.48 145.64 281.032C144.893 280.584 144.04 280.36 143.08 280.36C142.12 280.36 141.256 280.584 140.488 281.032C139.741 281.48 139.144 282.109 138.696 282.92C138.269 283.709 138.056 284.616 138.056 285.64ZM148.945 273.16V270.6H163.185V273.16H157.425V293H154.705V273.16H148.945Z" fill="black"/>
<rect x="814" y="251" width="139" height="62" rx="12" fill="#FFD600" stroke="#444B54" stroke-width="6"/>
<path d="M842.758 279.337C842.758 278.921 843.09 278.584 843.5 278.584H846.653C847.063 278.584 847.395 278.921 847.395 279.337V290.248C847.395 290.663 847.063 291 846.653 291H843.5C843.09 291 842.758 290.663 842.758 290.248V279.337Z" fill="black"/>
<path d="M842.758 272.752C842.758 272.337 843.09 272 843.5 272H846.653C847.063 272 847.395 272.337 847.395 272.752V275.95C847.395 276.366 847.063 276.703 846.653 276.703H843.5C843.09 276.703 842.758 276.366 842.758 275.95V272.752Z" fill="black"/>
<path d="M850.363 287.05C850.363 286.634 850.695 286.297 851.105 286.297H854.258C854.668 286.297 855 286.634 855 287.05V290.248C855 290.663 854.668 291 854.258 291H851.105C850.695 291 850.363 290.663 850.363 290.248V287.05Z" fill="black"/>
<path d="M850.363 272.752C850.363 272.337 850.695 272 851.105 272H854.258C854.668 272 855 272.337 855 272.752V283.663C855 284.079 854.668 284.416 854.258 284.416H851.105C850.695 284.416 850.363 284.079 850.363 283.663V272.752Z" fill="black"/>
<path d="M832 284.246C832 284.386 832.039 284.523 832.111 284.642L835.756 290.606C835.891 290.828 836.13 290.962 836.387 290.962H839.876C840.474 290.962 840.827 290.282 840.487 289.783L836.966 284.603C836.693 284.2 836.867 283.646 837.29 283.412C838.099 282.965 838.738 282.376 839.206 281.644C839.847 280.65 840.167 279.504 840.167 278.203C840.167 276.379 839.544 274.89 838.298 273.734C837.069 272.578 835.262 272 832.875 272H832.754C832.345 272 832.014 272.335 832.012 272.75L832 275.881C832 275.893 832.01 275.903 832.022 275.904C832.929 275.931 834.211 276.147 834.692 276.551C835.208 276.966 835.466 277.571 835.466 278.366C835.466 279.142 835.208 279.747 834.692 280.181C834.326 280.488 833.496 280.687 832.72 280.776C832.321 280.822 832 281.154 832 281.561V284.246Z" fill="black"/>
<rect x="875" y="251" width="122" height="62" rx="12" fill="white" stroke="#444B54" stroke-width="6"/>
<path d="M925.108 293L922.26 286.28H913.236L910.388 293H907.348L917.748 269.48L928.148 293H925.108ZM917.748 275.656L914.324 283.72H921.172L917.748 275.656ZM933.113 300.04H930.553V278.28H933.113V280.808C933.646 279.891 934.339 279.187 935.193 278.696C936.067 278.205 937.049 277.96 938.137 277.96C939.481 277.96 940.697 278.269 941.785 278.888C942.894 279.507 943.779 280.392 944.441 281.544C945.102 282.675 945.433 284.04 945.433 285.64C945.433 287.219 945.102 288.584 944.441 289.736C943.779 290.888 942.894 291.773 941.785 292.392C940.697 293.011 939.481 293.32 938.137 293.32C937.049 293.32 936.067 293.075 935.193 292.584C934.339 292.093 933.646 291.389 933.113 290.472V300.04ZM942.841 285.64C942.841 284.509 942.606 283.549 942.137 282.76C941.689 281.971 941.081 281.373 940.313 280.968C939.566 280.563 938.734 280.36 937.817 280.36C937.07 280.36 936.334 280.563 935.609 280.968C934.883 281.373 934.286 281.971 933.817 282.76C933.347 283.549 933.113 284.509 933.113 285.64C933.113 286.771 933.347 287.731 933.817 288.52C934.286 289.309 934.883 289.907 935.609 290.312C936.334 290.717 937.07 290.92 937.817 290.92C938.734 290.92 939.566 290.717 940.313 290.312C941.081 289.907 941.689 289.309 942.137 288.52C942.606 287.731 942.841 286.771 942.841 285.64ZM951.363 300.04H948.803V278.28H951.363V280.808C951.896 279.891 952.589 279.187 953.443 278.696C954.317 278.205 955.299 277.96 956.387 277.96C957.731 277.96 958.947 278.269 960.035 278.888C961.144 279.507 962.029 280.392 962.691 281.544C963.352 282.675 963.683 284.04 963.683 285.64C963.683 287.219 963.352 288.584 962.691 289.736C962.029 290.888 961.144 291.773 960.035 292.392C958.947 293.011 957.731 293.32 956.387 293.32C955.299 293.32 954.317 293.075 953.443 292.584C952.589 292.093 951.896 291.389 951.363 290.472V300.04ZM961.091 285.64C961.091 284.509 960.856 283.549 960.387 282.76C959.939 281.971 959.331 281.373 958.563 280.968C957.816 280.563 956.984 280.36 956.067 280.36C955.32 280.36 954.584 280.563 953.859 280.968C953.133 281.373 952.536 281.971 952.067 282.76C951.597 283.549 951.363 284.509 951.363 285.64C951.363 286.771 951.597 287.731 952.067 288.52C952.536 289.309 953.133 289.907 953.859 290.312C954.584 290.717 955.32 290.92 956.067 290.92C956.984 290.92 957.816 290.717 958.563 290.312C959.331 289.907 959.939 289.309 960.387 288.52C960.856 287.731 961.091 286.771 961.091 285.64Z" fill="black"/>
<rect x="369" y="134" width="139" height="62" rx="12" fill="#FFD600" stroke="#444B54" stroke-width="6"/>
<path d="M398.758 162.337C398.758 161.921 399.09 161.584 399.5 161.584H402.653C403.063 161.584 403.395 161.921 403.395 162.337V173.248C403.395 173.663 403.063 174 402.653 174H399.5C399.09 174 398.758 173.663 398.758 173.248V162.337Z" fill="black"/>
<path d="M398.758 155.752C398.758 155.337 399.09 155 399.5 155H402.653C403.063 155 403.395 155.337 403.395 155.752V158.95C403.395 159.366 403.063 159.703 402.653 159.703H399.5C399.09 159.703 398.758 159.366 398.758 158.95V155.752Z" fill="black"/>
<path d="M406.363 170.05C406.363 169.634 406.695 169.297 407.105 169.297H410.258C410.668 169.297 411 169.634 411 170.05V173.248C411 173.663 410.668 174 410.258 174H407.105C406.695 174 406.363 173.663 406.363 173.248V170.05Z" fill="black"/>
<path d="M406.363 155.752C406.363 155.337 406.695 155 407.105 155H410.258C410.668 155 411 155.337 411 155.752V166.663C411 167.079 410.668 167.416 410.258 167.416H407.105C406.695 167.416 406.363 167.079 406.363 166.663V155.752Z" fill="black"/>
<path d="M388 167.246C388 167.386 388.039 167.523 388.111 167.642L391.756 173.606C391.891 173.828 392.13 173.962 392.387 173.962H395.876C396.474 173.962 396.827 173.282 396.487 172.783L392.966 167.603C392.693 167.2 392.867 166.646 393.29 166.412C394.099 165.965 394.738 165.376 395.206 164.644C395.847 163.65 396.167 162.504 396.167 161.203C396.167 159.379 395.544 157.89 394.298 156.734C393.069 155.578 391.262 155 388.875 155H388.754C388.345 155 388.014 155.335 388.012 155.75L388 158.881C388 158.893 388.01 158.903 388.022 158.904C388.929 158.931 390.211 159.147 390.692 159.551C391.208 159.966 391.466 160.571 391.466 161.366C391.466 162.142 391.208 162.747 390.692 163.181C390.326 163.488 389.496 163.687 388.72 163.776C388.321 163.822 388 164.154 388 164.561V167.246Z" fill="black"/>
<rect x="430" y="134" width="208" height="62" rx="12" fill="white" stroke="#444B54" stroke-width="6"/>
<path d="M459.238 164.8C459.238 166.528 459.622 168.053 460.39 169.376C461.179 170.699 462.203 171.733 463.462 172.48C464.721 173.227 466.086 173.6 467.558 173.6C469.137 173.6 470.534 173.291 471.75 172.672C472.966 172.053 473.969 171.253 474.758 170.272V173.856C473.819 174.688 472.795 175.307 471.686 175.712C470.577 176.117 469.201 176.32 467.558 176.32C466.001 176.32 464.539 176.043 463.174 175.488C461.83 174.912 460.646 174.112 459.622 173.088C458.598 172.043 457.798 170.816 457.222 169.408C456.646 168 456.358 166.464 456.358 164.8C456.358 163.136 456.646 161.6 457.222 160.192C457.798 158.784 458.598 157.568 459.622 156.544C460.646 155.499 461.83 154.699 463.174 154.144C464.539 153.568 466.001 153.28 467.558 153.28C469.201 153.28 470.577 153.483 471.686 153.888C472.795 154.293 473.819 154.912 474.758 155.744V159.328C473.969 158.325 472.966 157.525 471.75 156.928C470.534 156.309 469.137 156 467.558 156C466.086 156 464.721 156.373 463.462 157.12C462.203 157.867 461.179 158.901 460.39 160.224C459.622 161.525 459.238 163.051 459.238 164.8ZM478.104 168.64C478.104 167.147 478.435 165.824 479.096 164.672C479.779 163.52 480.696 162.613 481.848 161.952C483 161.291 484.291 160.96 485.72 160.96C487.171 160.96 488.462 161.291 489.592 161.952C490.744 162.613 491.651 163.52 492.312 164.672C492.995 165.824 493.336 167.147 493.336 168.64C493.336 170.112 492.995 171.435 492.312 172.608C491.651 173.76 490.744 174.667 489.592 175.328C488.462 175.989 487.171 176.32 485.72 176.32C484.291 176.32 483 175.989 481.848 175.328C480.696 174.667 479.779 173.76 479.096 172.608C478.435 171.435 478.104 170.112 478.104 168.64ZM480.696 168.64C480.696 169.664 480.91 170.571 481.336 171.36C481.784 172.149 482.382 172.779 483.128 173.248C483.896 173.696 484.76 173.92 485.72 173.92C486.68 173.92 487.534 173.696 488.28 173.248C489.048 172.779 489.646 172.149 490.072 171.36C490.52 170.571 490.744 169.664 490.744 168.64C490.744 167.616 490.52 166.709 490.072 165.92C489.646 165.109 489.048 164.48 488.28 164.032C487.534 163.584 486.68 163.36 485.72 163.36C484.76 163.36 483.896 163.584 483.128 164.032C482.382 164.48 481.784 165.109 481.336 165.92C480.91 166.709 480.696 167.616 480.696 168.64ZM517.013 166.72V176H514.453V167.04C514.453 165.781 514.218 164.853 513.749 164.256C513.301 163.659 512.597 163.36 511.637 163.36C510.592 163.36 509.76 163.691 509.141 164.352C508.522 164.992 508.213 165.888 508.213 167.04V176H505.653V167.04C505.653 165.781 505.418 164.853 504.949 164.256C504.501 163.659 503.797 163.36 502.837 163.36C501.792 163.36 500.96 163.691 500.341 164.352C499.722 164.992 499.413 165.888 499.413 167.04V176H496.853V161.28H499.413V163.424C500.288 161.781 501.642 160.96 503.477 160.96C504.501 160.96 505.376 161.205 506.101 161.696C506.848 162.165 507.392 162.837 507.733 163.712C508.757 161.877 510.272 160.96 512.277 160.96C513.792 160.96 514.954 161.461 515.765 162.464C516.597 163.467 517.013 164.885 517.013 166.72ZM524.222 183.04H521.662V161.28H524.222V163.808C524.755 162.891 525.449 162.187 526.302 161.696C527.177 161.205 528.158 160.96 529.246 160.96C530.59 160.96 531.806 161.269 532.894 161.888C534.003 162.507 534.889 163.392 535.55 164.544C536.211 165.675 536.542 167.04 536.542 168.64C536.542 170.219 536.211 171.584 535.55 172.736C534.889 173.888 534.003 174.773 532.894 175.392C531.806 176.011 530.59 176.32 529.246 176.32C528.158 176.32 527.177 176.075 526.302 175.584C525.449 175.093 524.755 174.389 524.222 173.472V183.04ZM533.95 168.64C533.95 167.509 533.715 166.549 533.246 165.76C532.798 164.971 532.19 164.373 531.422 163.968C530.675 163.563 529.843 163.36 528.926 163.36C528.179 163.36 527.443 163.563 526.718 163.968C525.993 164.373 525.395 164.971 524.926 165.76C524.457 166.549 524.222 167.509 524.222 168.64C524.222 169.771 524.457 170.731 524.926 171.52C525.395 172.309 525.993 172.907 526.718 173.312C527.443 173.717 528.179 173.92 528.926 173.92C529.843 173.92 530.675 173.717 531.422 173.312C532.19 172.907 532.798 172.309 533.246 171.52C533.715 170.731 533.95 169.771 533.95 168.64ZM538.792 168.64C538.792 167.147 539.123 165.824 539.784 164.672C540.467 163.52 541.384 162.613 542.536 161.952C543.688 161.291 544.979 160.96 546.408 160.96C547.859 160.96 549.149 161.291 550.28 161.952C551.432 162.613 552.339 163.52 553 164.672C553.683 165.824 554.024 167.147 554.024 168.64C554.024 170.112 553.683 171.435 553 172.608C552.339 173.76 551.432 174.667 550.28 175.328C549.149 175.989 547.859 176.32 546.408 176.32C544.979 176.32 543.688 175.989 542.536 175.328C541.384 174.667 540.467 173.76 539.784 172.608C539.123 171.435 538.792 170.112 538.792 168.64ZM541.384 168.64C541.384 169.664 541.597 170.571 542.024 171.36C542.472 172.149 543.069 172.779 543.816 173.248C544.584 173.696 545.448 173.92 546.408 173.92C547.368 173.92 548.221 173.696 548.968 173.248C549.736 172.779 550.333 172.149 550.76 171.36C551.208 170.571 551.432 169.664 551.432 168.64C551.432 167.616 551.208 166.709 550.76 165.92C550.333 165.109 549.736 164.48 548.968 164.032C548.221 163.584 547.368 163.36 546.408 163.36C545.448 163.36 544.584 163.584 543.816 164.032C543.069 164.48 542.472 165.109 542.024 165.92C541.597 166.709 541.384 167.616 541.384 168.64ZM566.981 167.04C566.981 164.587 565.935 163.36 563.845 163.36C562.735 163.36 561.829 163.701 561.125 164.384C560.442 165.067 560.101 165.952 560.101 167.04V176H557.541V161.28H560.101V163.584C561.061 161.835 562.522 160.96 564.485 160.96C566.042 160.96 567.269 161.483 568.165 162.528C569.082 163.552 569.541 164.949 569.541 166.72V176H566.981V167.04ZM580.049 176.32C578.684 176.32 577.468 176 576.401 175.36C575.356 174.699 574.534 173.792 573.937 172.64C573.361 171.488 573.073 170.155 573.073 168.64C573.073 167.104 573.372 165.76 573.969 164.608C574.588 163.456 575.441 162.56 576.529 161.92C577.638 161.28 578.918 160.96 580.369 160.96C582.524 160.96 584.22 161.632 585.457 162.976C586.694 164.32 587.313 166.165 587.313 168.512C587.313 168.661 587.302 168.821 587.281 168.992C587.281 169.141 587.281 169.237 587.281 169.28H575.697C575.804 170.752 576.262 171.893 577.073 172.704C577.884 173.515 578.982 173.92 580.369 173.92C582.374 173.92 583.91 173.035 584.977 171.264L587.057 172.576C585.521 175.072 583.185 176.32 580.049 176.32ZM580.369 163.2C579.11 163.2 578.086 163.541 577.297 164.224C576.508 164.885 576.006 165.845 575.793 167.104H584.529C584.444 165.931 584.017 164.992 583.249 164.288C582.502 163.563 581.542 163.2 580.369 163.2ZM600.262 167.04C600.262 164.587 599.217 163.36 597.126 163.36C596.017 163.36 595.11 163.701 594.406 164.384C593.723 165.067 593.382 165.952 593.382 167.04V176H590.822V161.28H593.382V163.584C594.342 161.835 595.803 160.96 597.766 160.96C599.323 160.96 600.55 161.483 601.446 162.528C602.363 163.552 602.822 164.949 602.822 166.72V176H600.262V167.04ZM605.394 161.28H607.794V156.16H610.354V161.28H612.754V163.68H610.354V176H607.794V163.68H605.394V161.28Z" fill="black"/>
<rect x="262" y="251" width="139" height="62" rx="12" fill="#FFD600" stroke="#444B54" stroke-width="6"/>
<path d="M291.758 279.337C291.758 278.921 292.09 278.584 292.5 278.584H295.653C296.063 278.584 296.395 278.921 296.395 279.337V290.248C296.395 290.663 296.063 291 295.653 291H292.5C292.09 291 291.758 290.663 291.758 290.248V279.337Z" fill="black"/>
<path d="M291.758 272.752C291.758 272.337 292.09 272 292.5 272H295.653C296.063 272 296.395 272.337 296.395 272.752V275.95C296.395 276.366 296.063 276.703 295.653 276.703H292.5C292.09 276.703 291.758 276.366 291.758 275.95V272.752Z" fill="black"/>
<path d="M299.363 287.05C299.363 286.634 299.695 286.297 300.105 286.297H303.258C303.668 286.297 304 286.634 304 287.05V290.248C304 290.663 303.668 291 303.258 291H300.105C299.695 291 299.363 290.663 299.363 290.248V287.05Z" fill="black"/>
<path d="M299.363 272.752C299.363 272.337 299.695 272 300.105 272H303.258C303.668 272 304 272.337 304 272.752V283.663C304 284.079 303.668 284.416 303.258 284.416H300.105C299.695 284.416 299.363 284.079 299.363 283.663V272.752Z" fill="black"/>
<path d="M281 284.246C281 284.386 281.039 284.523 281.111 284.642L284.756 290.606C284.891 290.828 285.13 290.962 285.387 290.962H288.876C289.474 290.962 289.827 290.282 289.487 289.783L285.966 284.603C285.693 284.2 285.867 283.646 286.29 283.412C287.099 282.965 287.738 282.376 288.206 281.644C288.847 280.65 289.167 279.504 289.167 278.203C289.167 276.379 288.544 274.89 287.298 273.734C286.069 272.578 284.262 272 281.875 272H281.754C281.345 272 281.014 272.335 281.012 272.75L281 275.881C281 275.893 281.01 275.903 281.022 275.904C281.929 275.931 283.211 276.147 283.692 276.551C284.208 276.966 284.466 277.571 284.466 278.366C284.466 279.142 284.208 279.747 283.692 280.181C283.326 280.488 282.496 280.687 281.72 280.776C281.321 280.822 281 281.154 281 281.561V284.246Z" fill="black"/>
<rect x="323" y="251" width="180" height="62" rx="12" fill="white" stroke="#444B54" stroke-width="6"/>
<path d="M364.816 281.8C364.816 283.528 365.2 285.053 365.968 286.376C366.758 287.699 367.782 288.733 369.04 289.48C370.299 290.227 371.664 290.6 373.136 290.6C374.715 290.6 376.112 290.291 377.328 289.672C378.544 289.053 379.547 288.253 380.336 287.272V290.856C379.398 291.688 378.374 292.307 377.264 292.712C376.155 293.117 374.779 293.32 373.136 293.32C371.579 293.32 370.118 293.043 368.752 292.488C367.408 291.912 366.224 291.112 365.2 290.088C364.176 289.043 363.376 287.816 362.8 286.408C362.224 285 361.936 283.464 361.936 281.8C361.936 280.136 362.224 278.6 362.8 277.192C363.376 275.784 364.176 274.568 365.2 273.544C366.224 272.499 367.408 271.699 368.752 271.144C370.118 270.568 371.579 270.28 373.136 270.28C374.779 270.28 376.155 270.483 377.264 270.888C378.374 271.293 379.398 271.912 380.336 272.744V276.328C379.547 275.325 378.544 274.525 377.328 273.928C376.112 273.309 374.715 273 373.136 273C371.664 273 370.299 273.373 369.04 274.12C367.782 274.867 366.758 275.901 365.968 277.224C365.2 278.525 364.816 280.051 364.816 281.8ZM391.97 281.096C391.629 280.84 391.32 280.659 391.043 280.552C390.765 280.424 390.413 280.36 389.987 280.36C389.027 280.36 388.376 280.712 388.035 281.416C387.693 282.099 387.523 282.973 387.523 284.04V293H384.963V278.28H387.523V279.976C387.928 279.357 388.408 278.867 388.963 278.504C389.517 278.141 390.072 277.96 390.627 277.96C391.16 277.96 391.651 278.035 392.099 278.184C392.568 278.312 392.995 278.579 393.379 278.984L391.97 281.096ZM396.699 281.672L395.451 279.784C396.006 279.379 396.763 278.973 397.723 278.568C398.705 278.163 399.878 277.96 401.243 277.96C402.95 277.96 404.337 278.355 405.403 279.144C406.47 279.912 407.003 281.011 407.003 282.44V293H404.443V291.016C403.974 291.784 403.27 292.36 402.331 292.744C401.393 293.128 400.475 293.32 399.579 293.32C398.683 293.32 397.841 293.139 397.051 292.776C396.283 292.392 395.665 291.848 395.195 291.144C394.726 290.44 394.491 289.587 394.491 288.584C394.491 287.155 394.993 286.013 395.995 285.16C397.019 284.285 398.438 283.848 400.251 283.848C401.233 283.848 402.065 283.965 402.747 284.2C403.451 284.413 404.017 284.659 404.443 284.936V282.792C404.443 281.789 404.113 281.107 403.451 280.744C402.811 280.381 402.033 280.2 401.115 280.2C400.006 280.2 399.078 280.381 398.331 280.744C397.585 281.107 397.041 281.416 396.699 281.672ZM397.083 288.456C397.083 289.309 397.371 289.971 397.947 290.44C398.545 290.888 399.313 291.112 400.251 291.112C401.425 291.112 402.417 290.76 403.227 290.056C404.038 289.352 404.443 288.413 404.443 287.24V286.696C403.846 286.397 403.238 286.184 402.619 286.056C402.001 285.928 401.35 285.864 400.667 285.864C399.43 285.864 398.523 286.099 397.947 286.568C397.371 287.016 397.083 287.645 397.083 288.456ZM408.941 278.28H411.821L415.501 287.848L419.501 277.16L423.789 287.912L427.501 278.28H430.381L423.981 294.12L419.533 283.4L415.341 294.12L408.941 278.28ZM432.931 268.04H435.491V293H432.931V268.04ZM446.002 293.32C444.637 293.32 443.421 293 442.354 292.36C441.309 291.699 440.488 290.792 439.89 289.64C439.314 288.488 439.026 287.155 439.026 285.64C439.026 284.104 439.325 282.76 439.922 281.608C440.541 280.456 441.394 279.56 442.482 278.92C443.592 278.28 444.872 277.96 446.322 277.96C448.477 277.96 450.173 278.632 451.41 279.976C452.648 281.32 453.266 283.165 453.266 285.512C453.266 285.661 453.256 285.821 453.234 285.992C453.234 286.141 453.234 286.237 453.234 286.28H441.65C441.757 287.752 442.216 288.893 443.026 289.704C443.837 290.515 444.936 290.92 446.322 290.92C448.328 290.92 449.864 290.035 450.93 288.264L453.01 289.576C451.474 292.072 449.138 293.32 446.002 293.32ZM446.322 280.2C445.064 280.2 444.04 280.541 443.25 281.224C442.461 281.885 441.96 282.845 441.746 284.104H450.482C450.397 282.931 449.97 281.992 449.202 281.288C448.456 280.563 447.496 280.2 446.322 280.2ZM463.783 281.096C463.442 280.84 463.132 280.659 462.855 280.552C462.578 280.424 462.226 280.36 461.799 280.36C460.839 280.36 460.188 280.712 459.847 281.416C459.506 282.099 459.335 282.973 459.335 284.04V293H456.775V278.28H459.335V279.976C459.74 279.357 460.22 278.867 460.775 278.504C461.33 278.141 461.884 277.96 462.439 277.96C462.972 277.96 463.463 278.035 463.911 278.184C464.38 278.312 464.807 278.579 465.191 278.984L463.783 281.096Z" fill="black"/>
</svg>
