<svg width="826" height="386" viewBox="0 0 826 386" fill="none" xmlns="http://www.w3.org/2000/svg">
<path d="M99.0069 365.96H100.087V361.88C100.087 360.568 100.367 359.6 100.927 358.976C101.487 358.352 102.271 358.04 103.279 358.04C103.791 358.04 104.223 358.144 104.575 358.352C104.943 358.544 105.215 358.76 105.391 359L104.335 360.584C104.175 360.312 103.983 360.144 103.759 360.08C103.551 360 103.351 359.96 103.159 359.96C102.807 359.96 102.527 360.12 102.319 360.44C102.111 360.76 102.007 361.32 102.007 362.12V365.96H104.527V367.76H102.007V377H100.087V367.76H99.0069V365.96ZM107.29 368.504L106.354 367.088C106.77 366.784 107.338 366.48 108.058 366.176C108.794 365.872 109.674 365.72 110.698 365.72C111.978 365.72 113.018 366.016 113.818 366.608C114.618 367.184 115.018 368.008 115.018 369.08V377H113.098V375.512C112.746 376.088 112.218 376.52 111.514 376.808C110.81 377.096 110.122 377.24 109.45 377.24C108.778 377.24 108.146 377.104 107.554 376.832C106.978 376.544 106.514 376.136 106.162 375.608C105.81 375.08 105.634 374.44 105.634 373.688C105.634 372.616 106.01 371.76 106.762 371.12C107.53 370.464 108.594 370.136 109.954 370.136C110.69 370.136 111.314 370.224 111.826 370.4C112.354 370.56 112.778 370.744 113.098 370.952V369.344C113.098 368.592 112.85 368.08 112.354 367.808C111.874 367.536 111.29 367.4 110.602 367.4C109.77 367.4 109.074 367.536 108.514 367.808C107.954 368.08 107.546 368.312 107.29 368.504ZM107.578 373.592C107.578 374.232 107.794 374.728 108.226 375.08C108.674 375.416 109.25 375.584 109.954 375.584C110.834 375.584 111.578 375.32 112.186 374.792C112.794 374.264 113.098 373.56 113.098 372.68V372.272C112.65 372.048 112.194 371.888 111.73 371.792C111.266 371.696 110.778 371.648 110.266 371.648C109.338 371.648 108.658 371.824 108.226 372.176C107.794 372.512 107.578 372.984 107.578 373.592ZM119.133 371.48C119.133 372.248 119.293 372.928 119.613 373.52C119.949 374.112 120.397 374.584 120.957 374.936C121.533 375.272 122.181 375.44 122.901 375.44C123.797 375.44 124.597 375.24 125.301 374.84C126.005 374.44 126.485 373.968 126.741 373.424V375.824C126.357 376.272 125.805 376.624 125.085 376.88C124.381 377.12 123.653 377.24 122.901 377.24C121.829 377.24 120.861 376.992 119.997 376.496C119.133 376 118.445 375.32 117.933 374.456C117.437 373.576 117.189 372.584 117.189 371.48C117.189 370.36 117.437 369.368 117.933 368.504C118.445 367.64 119.133 366.96 119.997 366.464C120.861 365.968 121.829 365.72 122.901 365.72C123.653 365.72 124.381 365.848 125.085 366.104C125.805 366.344 126.357 366.688 126.741 367.136V369.536C126.485 368.992 126.005 368.52 125.301 368.12C124.597 367.72 123.797 367.52 122.901 367.52C122.181 367.52 121.533 367.688 120.957 368.024C120.397 368.36 119.949 368.832 119.613 369.44C119.293 370.032 119.133 370.712 119.133 371.48ZM134.002 377.24C132.978 377.24 132.066 377 131.266 376.52C130.482 376.024 129.866 375.344 129.418 374.48C128.986 373.616 128.77 372.616 128.77 371.48C128.77 370.328 128.994 369.32 129.442 368.456C129.906 367.592 130.546 366.92 131.362 366.44C132.194 365.96 133.154 365.72 134.242 365.72C135.858 365.72 137.13 366.224 138.058 367.232C138.986 368.24 139.45 369.624 139.45 371.384C139.45 371.496 139.442 371.616 139.426 371.744C139.426 371.856 139.426 371.928 139.426 371.96H130.738C130.818 373.064 131.162 373.92 131.77 374.528C132.378 375.136 133.202 375.44 134.242 375.44C135.746 375.44 136.898 374.776 137.698 373.448L139.258 374.432C138.106 376.304 136.354 377.24 134.002 377.24ZM134.242 367.4C133.298 367.4 132.53 367.656 131.938 368.168C131.346 368.664 130.97 369.384 130.81 370.328H137.362C137.298 369.448 136.978 368.744 136.402 368.216C135.842 367.672 135.122 367.4 134.242 367.4ZM142.081 358.28H144.001V377H142.081V358.28ZM151.885 377.24C150.861 377.24 149.949 377 149.149 376.52C148.365 376.024 147.749 375.344 147.301 374.48C146.869 373.616 146.653 372.616 146.653 371.48C146.653 370.328 146.877 369.32 147.325 368.456C147.789 367.592 148.429 366.92 149.245 366.44C150.077 365.96 151.037 365.72 152.125 365.72C153.741 365.72 155.013 366.224 155.941 367.232C156.869 368.24 157.333 369.624 157.333 371.384C157.333 371.496 157.325 371.616 157.309 371.744C157.309 371.856 157.309 371.928 157.309 371.96H148.621C148.701 373.064 149.045 373.92 149.653 374.528C150.261 375.136 151.085 375.44 152.125 375.44C153.629 375.44 154.781 374.776 155.581 373.448L157.141 374.432C155.989 376.304 154.237 377.24 151.885 377.24ZM152.125 367.4C151.181 367.4 150.413 367.656 149.821 368.168C149.229 368.664 148.853 369.384 148.693 370.328H155.245C155.181 369.448 154.861 368.744 154.285 368.216C153.725 367.672 153.005 367.4 152.125 367.4ZM160.42 373.616C160.756 374.128 161.164 374.568 161.644 374.936C162.14 375.304 162.732 375.488 163.42 375.488C163.964 375.488 164.388 375.368 164.692 375.128C165.012 374.872 165.172 374.528 165.172 374.096C165.172 373.712 165.044 373.392 164.788 373.136C164.548 372.864 164.236 372.64 163.852 372.464C163.468 372.272 163.06 372.096 162.628 371.936C162.148 371.744 161.66 371.52 161.164 371.264C160.684 370.992 160.276 370.648 159.94 370.232C159.62 369.8 159.46 369.264 159.46 368.624C159.46 367.968 159.628 367.424 159.964 366.992C160.316 366.56 160.764 366.24 161.308 366.032C161.868 365.824 162.444 365.72 163.036 365.72C163.916 365.72 164.716 365.928 165.436 366.344C166.156 366.76 166.684 367.272 167.02 367.88L165.484 368.864C165.18 368.448 164.796 368.104 164.332 367.832C163.884 367.56 163.372 367.424 162.796 367.424C162.396 367.424 162.052 367.512 161.764 367.688C161.476 367.864 161.332 368.136 161.332 368.504C161.332 368.952 161.564 369.32 162.028 369.608C162.508 369.88 163.044 370.136 163.636 370.376C164.276 370.632 164.86 370.912 165.388 371.216C165.916 371.504 166.332 371.856 166.636 372.272C166.956 372.688 167.116 373.224 167.116 373.88C167.116 374.84 166.764 375.64 166.06 376.28C165.372 376.92 164.46 377.24 163.324 377.24C162.588 377.24 161.924 377.112 161.332 376.856C160.74 376.584 160.236 376.24 159.82 375.824C159.42 375.408 159.116 374.984 158.908 374.552L160.42 373.616ZM170.1 373.616C170.436 374.128 170.844 374.568 171.324 374.936C171.82 375.304 172.412 375.488 173.1 375.488C173.644 375.488 174.068 375.368 174.372 375.128C174.692 374.872 174.852 374.528 174.852 374.096C174.852 373.712 174.724 373.392 174.468 373.136C174.228 372.864 173.916 372.64 173.532 372.464C173.148 372.272 172.74 372.096 172.308 371.936C171.828 371.744 171.34 371.52 170.844 371.264C170.364 370.992 169.956 370.648 169.62 370.232C169.3 369.8 169.14 369.264 169.14 368.624C169.14 367.968 169.308 367.424 169.644 366.992C169.996 366.56 170.444 366.24 170.988 366.032C171.548 365.824 172.124 365.72 172.716 365.72C173.596 365.72 174.396 365.928 175.116 366.344C175.836 366.76 176.364 367.272 176.7 367.88L175.164 368.864C174.86 368.448 174.476 368.104 174.012 367.832C173.564 367.56 173.052 367.424 172.476 367.424C172.076 367.424 171.732 367.512 171.444 367.688C171.156 367.864 171.012 368.136 171.012 368.504C171.012 368.952 171.244 369.32 171.708 369.608C172.188 369.88 172.724 370.136 173.316 370.376C173.956 370.632 174.54 370.912 175.068 371.216C175.596 371.504 176.012 371.856 176.316 372.272C176.636 372.688 176.796 373.224 176.796 373.88C176.796 374.84 176.444 375.64 175.74 376.28C175.052 376.92 174.14 377.24 173.004 377.24C172.268 377.24 171.604 377.112 171.012 376.856C170.42 376.584 169.916 376.24 169.5 375.824C169.1 375.408 168.796 374.984 168.588 374.552L170.1 373.616ZM197.559 371.48C197.559 372.664 197.311 373.688 196.815 374.552C196.319 375.416 195.655 376.08 194.823 376.544C194.007 377.008 193.095 377.24 192.087 377.24C191.271 377.24 190.535 377.056 189.879 376.688C189.239 376.32 188.719 375.792 188.319 375.104V377H186.399V358.28H188.319V367.856C188.719 367.168 189.239 366.64 189.879 366.272C190.535 365.904 191.271 365.72 192.087 365.72C193.095 365.72 194.007 365.952 194.823 366.416C195.655 366.88 196.319 367.544 196.815 368.408C197.311 369.256 197.559 370.28 197.559 371.48ZM195.615 371.48C195.615 370.632 195.439 369.912 195.087 369.32C194.751 368.728 194.295 368.28 193.719 367.976C193.159 367.672 192.535 367.52 191.847 367.52C191.287 367.52 190.735 367.672 190.191 367.976C189.647 368.28 189.199 368.728 188.847 369.32C188.495 369.912 188.319 370.632 188.319 371.48C188.319 372.328 188.495 373.048 188.847 373.64C189.199 374.232 189.647 374.68 190.191 374.984C190.735 375.288 191.287 375.44 191.847 375.44C192.535 375.44 193.159 375.288 193.719 374.984C194.295 374.68 194.751 374.232 195.087 373.64C195.439 373.048 195.615 372.328 195.615 371.48ZM199.246 371.48C199.246 370.36 199.494 369.368 199.99 368.504C200.502 367.64 201.19 366.96 202.054 366.464C202.918 365.968 203.886 365.72 204.958 365.72C206.046 365.72 207.014 365.968 207.862 366.464C208.726 366.96 209.406 367.64 209.902 368.504C210.414 369.368 210.67 370.36 210.67 371.48C210.67 372.584 210.414 373.576 209.902 374.456C209.406 375.32 208.726 376 207.862 376.496C207.014 376.992 206.046 377.24 204.958 377.24C203.886 377.24 202.918 376.992 202.054 376.496C201.19 376 200.502 375.32 199.99 374.456C199.494 373.576 199.246 372.584 199.246 371.48ZM201.19 371.48C201.19 372.248 201.35 372.928 201.67 373.52C202.006 374.112 202.454 374.584 203.014 374.936C203.59 375.272 204.238 375.44 204.958 375.44C205.678 375.44 206.318 375.272 206.878 374.936C207.454 374.584 207.902 374.112 208.222 373.52C208.558 372.928 208.726 372.248 208.726 371.48C208.726 370.712 208.558 370.032 208.222 369.44C207.902 368.832 207.454 368.36 206.878 368.024C206.318 367.688 205.678 367.52 204.958 367.52C204.238 367.52 203.59 367.688 203.014 368.024C202.454 368.36 202.006 368.832 201.67 369.44C201.35 370.032 201.19 370.712 201.19 371.48ZM211.628 365.96H213.428V362.12H215.348V365.96H217.148V367.76H215.348V377H213.428V367.76H211.628V365.96ZM219.529 373.616C219.865 374.128 220.273 374.568 220.753 374.936C221.249 375.304 221.841 375.488 222.529 375.488C223.073 375.488 223.497 375.368 223.801 375.128C224.121 374.872 224.281 374.528 224.281 374.096C224.281 373.712 224.153 373.392 223.897 373.136C223.657 372.864 223.345 372.64 222.961 372.464C222.577 372.272 222.169 372.096 221.737 371.936C221.257 371.744 220.769 371.52 220.273 371.264C219.793 370.992 219.385 370.648 219.049 370.232C218.729 369.8 218.569 369.264 218.569 368.624C218.569 367.968 218.737 367.424 219.073 366.992C219.425 366.56 219.873 366.24 220.417 366.032C220.977 365.824 221.553 365.72 222.145 365.72C223.025 365.72 223.825 365.928 224.545 366.344C225.265 366.76 225.793 367.272 226.129 367.88L224.593 368.864C224.289 368.448 223.905 368.104 223.441 367.832C222.993 367.56 222.481 367.424 221.905 367.424C221.505 367.424 221.161 367.512 220.873 367.688C220.585 367.864 220.441 368.136 220.441 368.504C220.441 368.952 220.673 369.32 221.137 369.608C221.617 369.88 222.153 370.136 222.745 370.376C223.385 370.632 223.969 370.912 224.497 371.216C225.025 371.504 225.441 371.856 225.745 372.272C226.065 372.688 226.225 373.224 226.225 373.88C226.225 374.84 225.873 375.64 225.169 376.28C224.481 376.92 223.569 377.24 222.433 377.24C221.697 377.24 221.033 377.112 220.441 376.856C219.849 376.584 219.345 376.24 218.929 375.824C218.529 375.408 218.225 374.984 218.017 374.552L219.529 373.616Z" fill="black"/>
<path d="M127.09 193.06C128.654 193.06 129.921 191.792 129.921 190.229C129.921 188.665 128.654 187.398 127.09 187.398C125.526 187.398 124.259 188.665 124.259 190.229C124.259 191.792 125.526 193.06 127.09 193.06Z" fill="#444B54"/>
<path d="M136.301 193.06C137.865 193.06 139.132 191.792 139.132 190.229C139.132 188.665 137.865 187.398 136.301 187.398C134.737 187.398 133.47 188.665 133.47 190.229C133.47 191.792 134.737 193.06 136.301 193.06Z" fill="#444B54"/>
<path d="M128.358 174C140.32 174 150.159 182.989 151.575 194.598C152.205 196.823 148.917 200.318 147.469 197.358C147.469 186.599 138.48 177.822 127.579 178.247C117.245 178.672 109.247 187.449 109.247 197.854V204.507C109.247 205.781 108.044 206.843 106.699 206.56C105.708 206.347 105 205.427 105 204.365L105.142 194.598C106.557 182.989 116.396 174 128.358 174Z" fill="#444B54"/>
<path d="M65.0901 187.06C66.6537 187.06 67.9213 185.792 67.9213 184.229C67.9213 182.665 66.6537 181.398 65.0901 181.398C63.5264 181.398 62.2588 182.665 62.2588 184.229C62.2588 185.792 63.5264 187.06 65.0901 187.06Z" fill="#444B54"/>
<path d="M74.301 187.06C75.8647 187.06 77.1323 185.792 77.1323 184.229C77.1323 182.665 75.8647 181.398 74.301 181.398C72.7373 181.398 71.4697 182.665 71.4697 184.229C71.4697 185.792 72.7373 187.06 74.301 187.06Z" fill="#444B54"/>
<path d="M66.358 168C78.3202 168 88.1589 176.989 89.5745 188.598C90.2047 190.823 86.917 194.318 85.4692 191.358C85.4692 180.599 76.4799 171.822 65.5794 172.247C55.2453 172.672 47.2469 181.449 47.2469 191.854V198.507C47.2469 199.781 46.0436 200.843 44.6988 200.56C43.7078 200.347 43 199.427 43 198.365L43.1416 188.598C44.5572 176.989 54.3959 168 66.358 168Z" fill="#444B54"/>
<path d="M189.09 187.06C190.654 187.06 191.921 185.792 191.921 184.229C191.921 182.665 190.654 181.398 189.09 181.398C187.526 181.398 186.259 182.665 186.259 184.229C186.259 185.792 187.526 187.06 189.09 187.06Z" fill="#444B54"/>
<path d="M198.301 187.06C199.865 187.06 201.132 185.792 201.132 184.229C201.132 182.665 199.865 181.398 198.301 181.398C196.737 181.398 195.47 182.665 195.47 184.229C195.47 185.792 196.737 187.06 198.301 187.06Z" fill="#444B54"/>
<path d="M190.358 168C202.32 168 212.159 176.989 213.575 188.598C214.205 190.823 210.917 194.318 209.469 191.358C209.469 180.599 200.48 171.822 189.579 172.247C179.245 172.672 171.247 181.449 171.247 191.854V198.507C171.247 199.781 170.044 200.843 168.699 200.56C167.708 200.347 167 199.427 167 198.365L167.142 188.598C168.557 176.989 178.396 168 190.358 168Z" fill="#444B54"/>
<path d="M249.09 200.06C250.654 200.06 251.921 198.792 251.921 197.229C251.921 195.665 250.654 194.398 249.09 194.398C247.526 194.398 246.259 195.665 246.259 197.229C246.259 198.792 247.526 200.06 249.09 200.06Z" fill="#444B54"/>
<path d="M258.301 200.06C259.865 200.06 261.132 198.792 261.132 197.229C261.132 195.665 259.865 194.398 258.301 194.398C256.737 194.398 255.47 195.665 255.47 197.229C255.47 198.792 256.737 200.06 258.301 200.06Z" fill="#444B54"/>
<path d="M250.358 181C262.32 181 272.159 189.989 273.575 201.598C274.205 203.823 270.917 207.318 269.469 204.358C269.469 193.599 260.48 184.822 249.579 185.247C239.245 185.672 231.247 194.449 231.247 204.854V211.507C231.247 212.781 230.044 213.843 228.699 213.56C227.708 213.347 227 212.427 227 211.365L227.142 201.598C228.557 189.989 238.396 181 250.358 181Z" fill="#444B54"/>
<path d="M84.0901 237.06C85.6537 237.06 86.9213 235.792 86.9213 234.229C86.9213 232.665 85.6537 231.398 84.0901 231.398C82.5264 231.398 81.2588 232.665 81.2588 234.229C81.2588 235.792 82.5264 237.06 84.0901 237.06Z" fill="#444B54"/>
<path d="M93.301 237.06C94.8647 237.06 96.1323 235.792 96.1323 234.229C96.1323 232.665 94.8647 231.398 93.301 231.398C91.7373 231.398 90.4697 232.665 90.4697 234.229C90.4697 235.792 91.7373 237.06 93.301 237.06Z" fill="#444B54"/>
<path d="M85.358 218C97.3202 218 107.159 226.989 108.575 238.598C109.205 240.823 105.917 244.318 104.469 241.358C104.469 230.599 95.4799 221.822 84.5794 222.247C74.2453 222.672 66.2469 231.449 66.2469 241.854V248.507C66.2469 249.781 65.0436 250.843 63.6988 250.56C62.7078 250.347 62 249.427 62 248.365L62.1416 238.598C63.5572 226.989 73.3959 218 85.358 218Z" fill="#444B54"/>
<path d="M158.09 237.06C159.654 237.06 160.921 235.792 160.921 234.229C160.921 232.665 159.654 231.398 158.09 231.398C156.526 231.398 155.259 232.665 155.259 234.229C155.259 235.792 156.526 237.06 158.09 237.06Z" fill="#444B54"/>
<path d="M167.301 237.06C168.865 237.06 170.132 235.792 170.132 234.229C170.132 232.665 168.865 231.398 167.301 231.398C165.737 231.398 164.47 232.665 164.47 234.229C164.47 235.792 165.737 237.06 167.301 237.06Z" fill="#444B54"/>
<path d="M159.358 218C171.32 218 181.159 226.989 182.575 238.598C183.205 240.823 179.917 244.318 178.469 241.358C178.469 230.599 169.48 221.822 158.579 222.247C148.245 222.672 140.247 231.449 140.247 241.854V248.507C140.247 249.781 139.044 250.843 137.699 250.56C136.708 250.347 136 249.427 136 248.365L136.142 238.598C137.557 226.989 147.396 218 159.358 218Z" fill="#444B54"/>
<path d="M224.09 240.06C225.654 240.06 226.921 238.792 226.921 237.229C226.921 235.665 225.654 234.398 224.09 234.398C222.526 234.398 221.259 235.665 221.259 237.229C221.259 238.792 222.526 240.06 224.09 240.06Z" fill="#444B54"/>
<path d="M233.301 240.06C234.865 240.06 236.132 238.792 236.132 237.229C236.132 235.665 234.865 234.398 233.301 234.398C231.737 234.398 230.47 235.665 230.47 237.229C230.47 238.792 231.737 240.06 233.301 240.06Z" fill="#444B54"/>
<path d="M225.358 221C237.32 221 247.159 229.989 248.575 241.598C249.205 243.823 245.917 247.318 244.469 244.358C244.469 233.599 235.48 224.822 224.579 225.247C214.245 225.672 206.247 234.449 206.247 244.854V251.507C206.247 252.781 205.044 253.843 203.699 253.56C202.708 253.347 202 252.427 202 251.365L202.142 241.598C203.557 229.989 213.396 221 225.358 221Z" fill="#444B54"/>
<path d="M256.09 280.06C257.654 280.06 258.921 278.792 258.921 277.229C258.921 275.665 257.654 274.398 256.09 274.398C254.526 274.398 253.259 275.665 253.259 277.229C253.259 278.792 254.526 280.06 256.09 280.06Z" fill="#444B54"/>
<path d="M265.301 280.06C266.865 280.06 268.132 278.792 268.132 277.229C268.132 275.665 266.865 274.398 265.301 274.398C263.737 274.398 262.47 275.665 262.47 277.229C262.47 278.792 263.737 280.06 265.301 280.06Z" fill="#444B54"/>
<path d="M257.358 261C269.32 261 279.159 269.989 280.575 281.598C281.205 283.823 277.917 287.318 276.469 284.358C276.469 273.599 267.48 264.822 256.579 265.247C246.245 265.672 238.247 274.449 238.247 284.854V291.507C238.247 292.781 237.044 293.843 235.699 293.56C234.708 293.347 234 292.427 234 291.365L234.142 281.598C235.557 269.989 245.396 261 257.358 261Z" fill="#444B54"/>
<path d="M188.09 286.06C189.654 286.06 190.921 284.792 190.921 283.229C190.921 281.665 189.654 280.398 188.09 280.398C186.526 280.398 185.259 281.665 185.259 283.229C185.259 284.792 186.526 286.06 188.09 286.06Z" fill="#444B54"/>
<path d="M197.301 286.06C198.865 286.06 200.132 284.792 200.132 283.229C200.132 281.665 198.865 280.398 197.301 280.398C195.737 280.398 194.47 281.665 194.47 283.229C194.47 284.792 195.737 286.06 197.301 286.06Z" fill="#444B54"/>
<path d="M189.358 267C201.32 267 211.159 275.989 212.575 287.598C213.205 289.823 209.917 293.318 208.469 290.358C208.469 279.599 199.48 270.822 188.579 271.247C178.245 271.672 170.247 280.449 170.247 290.854V297.507C170.247 298.781 169.044 299.843 167.699 299.56C166.708 299.347 166 298.427 166 297.365L166.142 287.598C167.557 275.989 177.396 267 189.358 267Z" fill="#444B54"/>
<path d="M118.09 280.06C119.654 280.06 120.921 278.792 120.921 277.229C120.921 275.665 119.654 274.398 118.09 274.398C116.526 274.398 115.259 275.665 115.259 277.229C115.259 278.792 116.526 280.06 118.09 280.06Z" fill="#444B54"/>
<path d="M127.301 280.06C128.865 280.06 130.132 278.792 130.132 277.229C130.132 275.665 128.865 274.398 127.301 274.398C125.737 274.398 124.47 275.665 124.47 277.229C124.47 278.792 125.737 280.06 127.301 280.06Z" fill="#444B54"/>
<path d="M119.358 261C131.32 261 141.159 269.989 142.575 281.598C143.205 283.823 139.917 287.318 138.469 284.358C138.469 273.599 129.48 264.822 118.579 265.247C108.245 265.672 100.247 274.449 100.247 284.854V291.507C100.247 292.781 99.0436 293.843 97.6988 293.56C96.7078 293.347 96 292.427 96 291.365L96.1416 281.598C97.5572 269.989 107.396 261 119.358 261Z" fill="#444B54"/>
<path d="M59.0901 286.06C60.6537 286.06 61.9213 284.792 61.9213 283.229C61.9213 281.665 60.6537 280.398 59.0901 280.398C57.5264 280.398 56.2588 281.665 56.2588 283.229C56.2588 284.792 57.5264 286.06 59.0901 286.06Z" fill="#444B54"/>
<path d="M68.301 286.06C69.8647 286.06 71.1323 284.792 71.1323 283.229C71.1323 281.665 69.8647 280.398 68.301 280.398C66.7373 280.398 65.4697 281.665 65.4697 283.229C65.4697 284.792 66.7373 286.06 68.301 286.06Z" fill="#444B54"/>
<path d="M60.358 267C72.3202 267 82.1589 275.989 83.5745 287.598C84.2047 289.823 80.917 293.318 79.4692 290.358C79.4692 279.599 70.4799 270.822 59.5794 271.247C49.2453 271.672 41.2469 280.449 41.2469 290.854V297.507C41.2469 298.781 40.0436 299.843 38.6988 299.56C37.7078 299.347 37 298.427 37 297.365L37.1416 287.598C38.5572 275.989 48.3959 267 60.358 267Z" fill="#444B54"/>
<path d="M254.267 126C173.714 150.367 -32.3109 106.523 6.91451 259.138C28.3148 342.401 56.9747 345.019 162.912 320.516C223.369 306.532 331.324 349.488 319.831 247.834C309.477 156.258 221.024 141.156 152.613 156.563" stroke="#C4C4C4" stroke-width="3" stroke-linecap="round"/>
<path d="M337.063 75.48C337.063 76.664 336.815 77.688 336.319 78.552C335.823 79.416 335.159 80.08 334.327 80.544C333.511 81.008 332.599 81.24 331.591 81.24C330.775 81.24 330.039 81.056 329.383 80.688C328.743 80.32 328.223 79.792 327.823 79.104V81H325.903V62.28H327.823V71.856C328.223 71.168 328.743 70.64 329.383 70.272C330.039 69.904 330.775 69.72 331.591 69.72C332.599 69.72 333.511 69.952 334.327 70.416C335.159 70.88 335.823 71.544 336.319 72.408C336.815 73.256 337.063 74.28 337.063 75.48ZM335.119 75.48C335.119 74.632 334.943 73.912 334.591 73.32C334.255 72.728 333.799 72.28 333.223 71.976C332.663 71.672 332.039 71.52 331.351 71.52C330.791 71.52 330.239 71.672 329.695 71.976C329.151 72.28 328.703 72.728 328.351 73.32C327.999 73.912 327.823 74.632 327.823 75.48C327.823 76.328 327.999 77.048 328.351 77.64C328.703 78.232 329.151 78.68 329.695 78.984C330.239 79.288 330.791 79.44 331.351 79.44C332.039 79.44 332.663 79.288 333.223 78.984C333.799 78.68 334.255 78.232 334.591 77.64C334.943 77.048 335.119 76.328 335.119 75.48ZM338.75 75.48C338.75 74.36 338.998 73.368 339.494 72.504C340.006 71.64 340.694 70.96 341.558 70.464C342.422 69.968 343.39 69.72 344.462 69.72C345.55 69.72 346.518 69.968 347.366 70.464C348.23 70.96 348.91 71.64 349.406 72.504C349.918 73.368 350.174 74.36 350.174 75.48C350.174 76.584 349.918 77.576 349.406 78.456C348.91 79.32 348.23 80 347.366 80.496C346.518 80.992 345.55 81.24 344.462 81.24C343.39 81.24 342.422 80.992 341.558 80.496C340.694 80 340.006 79.32 339.494 78.456C338.998 77.576 338.75 76.584 338.75 75.48ZM340.694 75.48C340.694 76.248 340.854 76.928 341.174 77.52C341.51 78.112 341.958 78.584 342.518 78.936C343.094 79.272 343.742 79.44 344.462 79.44C345.182 79.44 345.822 79.272 346.382 78.936C346.958 78.584 347.406 78.112 347.726 77.52C348.062 76.928 348.23 76.248 348.23 75.48C348.23 74.712 348.062 74.032 347.726 73.44C347.406 72.832 346.958 72.36 346.382 72.024C345.822 71.688 345.182 71.52 344.462 71.52C343.742 71.52 343.094 71.688 342.518 72.024C341.958 72.36 341.51 72.832 341.174 73.44C340.854 74.032 340.694 74.712 340.694 75.48ZM351.132 69.96H352.932V66.12H354.852V69.96H356.652V71.76H354.852V81H352.932V71.76H351.132V69.96Z" fill="black"/>
<path d="M481.056 69.072C480.8 68.88 480.568 68.744 480.36 68.664C480.152 68.568 479.888 68.52 479.568 68.52C478.848 68.52 478.36 68.784 478.104 69.312C477.848 69.824 477.72 70.48 477.72 71.28V78H475.8V66.96H477.72V68.232C478.024 67.768 478.384 67.4 478.8 67.128C479.216 66.856 479.632 66.72 480.048 66.72C480.448 66.72 480.816 66.776 481.152 66.888C481.504 66.984 481.824 67.184 482.112 67.488L481.056 69.072ZM484.027 62.4C484.027 62.032 484.155 61.72 484.411 61.464C484.683 61.208 484.995 61.08 485.347 61.08C485.715 61.08 486.027 61.208 486.283 61.464C486.539 61.72 486.667 62.032 486.667 62.4C486.667 62.752 486.539 63.064 486.283 63.336C486.027 63.592 485.715 63.72 485.347 63.72C484.995 63.72 484.683 63.592 484.411 63.336C484.155 63.064 484.027 62.752 484.027 62.4ZM484.387 66.96H486.307V78H484.387V66.96ZM490.261 59.28H492.181V78H490.261V59.28ZM495.792 59.28H497.712V78H495.792V59.28ZM506.579 69.072C506.323 68.88 506.091 68.744 505.883 68.664C505.675 68.568 505.411 68.52 505.091 68.52C504.371 68.52 503.883 68.784 503.627 69.312C503.371 69.824 503.243 70.48 503.243 71.28V78H501.323V66.96H503.243V68.232C503.547 67.768 503.907 67.4 504.323 67.128C504.739 66.856 505.155 66.72 505.571 66.72C505.971 66.72 506.339 66.776 506.675 66.888C507.027 66.984 507.347 67.184 507.635 67.488L506.579 69.072ZM510.126 69.504L509.19 68.088C509.606 67.784 510.174 67.48 510.894 67.176C511.63 66.872 512.51 66.72 513.534 66.72C514.814 66.72 515.854 67.016 516.654 67.608C517.454 68.184 517.854 69.008 517.854 70.08V78H515.934V76.512C515.582 77.088 515.054 77.52 514.35 77.808C513.646 78.096 512.958 78.24 512.286 78.24C511.614 78.24 510.982 78.104 510.39 77.832C509.814 77.544 509.35 77.136 508.998 76.608C508.646 76.08 508.47 75.44 508.47 74.688C508.47 73.616 508.846 72.76 509.598 72.12C510.366 71.464 511.43 71.136 512.79 71.136C513.526 71.136 514.15 71.224 514.662 71.4C515.19 71.56 515.614 71.744 515.934 71.952V70.344C515.934 69.592 515.686 69.08 515.19 68.808C514.71 68.536 514.126 68.4 513.438 68.4C512.606 68.4 511.91 68.536 511.35 68.808C510.79 69.08 510.382 69.312 510.126 69.504ZM510.414 74.592C510.414 75.232 510.63 75.728 511.062 76.08C511.51 76.416 512.086 76.584 512.79 76.584C513.67 76.584 514.414 76.32 515.022 75.792C515.63 75.264 515.934 74.56 515.934 73.68V73.272C515.486 73.048 515.03 72.888 514.566 72.792C514.102 72.696 513.614 72.648 513.102 72.648C512.174 72.648 511.494 72.824 511.062 73.176C510.63 73.512 510.414 73.984 510.414 74.592ZM519.425 66.96H521.225V63.12H523.145V66.96H524.945V68.76H523.145V78H521.225V68.76H519.425V66.96ZM531.142 78.24C530.118 78.24 529.206 78 528.406 77.52C527.622 77.024 527.006 76.344 526.558 75.48C526.126 74.616 525.91 73.616 525.91 72.48C525.91 71.328 526.134 70.32 526.582 69.456C527.046 68.592 527.686 67.92 528.502 67.44C529.334 66.96 530.294 66.72 531.382 66.72C532.998 66.72 534.27 67.224 535.198 68.232C536.126 69.24 536.59 70.624 536.59 72.384C536.59 72.496 536.582 72.616 536.566 72.744C536.566 72.856 536.566 72.928 536.566 72.96H527.878C527.958 74.064 528.302 74.92 528.91 75.528C529.518 76.136 530.342 76.44 531.382 76.44C532.886 76.44 534.038 75.776 534.838 74.448L536.398 75.432C535.246 77.304 533.494 78.24 531.142 78.24ZM531.382 68.4C530.438 68.4 529.67 68.656 529.078 69.168C528.486 69.664 528.11 70.384 527.95 71.328H534.502C534.438 70.448 534.118 69.744 533.542 69.216C532.982 68.672 532.262 68.4 531.382 68.4Z" fill="black"/>
<path d="M505.909 41.0329C500.459 41.0329 496 36.5737 496 31.1235C496 29.9202 496.92 29 498.123 29H513.695C514.899 29 515.819 29.9202 515.819 31.1235C515.819 36.5737 511.36 41.0329 505.909 41.0329Z" fill="#444B54"/>
<path d="M511.997 38.9095C510.793 36.786 508.458 35.3704 505.91 35.3704C503.361 35.3704 501.026 36.786 499.822 38.9095C501.521 40.2543 503.644 41.0329 505.91 41.0329C508.175 41.0329 510.369 40.2543 511.997 38.9095Z" fill="#EE5055"/>
<path d="M270 36L253.035 39.4927L264.542 52.4382L270 36ZM225.997 77.1211L260.907 46.09L258.913 43.8478L224.003 74.8789L225.997 77.1211Z" fill="black"/>
<path d="M606 83L600.991 66.4195L589.137 79.0474L606 83ZM555.973 38.0936L595.131 74.8537L597.184 72.6665L558.027 35.9064L555.973 38.0936Z" fill="black"/>
<path d="M422.064 30.088H429.84V21.976H435.456V30.088H443.28V35.464H435.456V43.672H429.84V35.464H422.064V30.088Z" fill="black"/>
<path d="M341.09 35.0601C342.654 35.0601 343.921 33.7925 343.921 32.2288C343.921 30.6652 342.654 29.3976 341.09 29.3976C339.526 29.3976 338.259 30.6652 338.259 32.2288C338.259 33.7925 339.526 35.0601 341.09 35.0601Z" fill="#444B54"/>
<path d="M350.301 35.0601C351.865 35.0601 353.132 33.7925 353.132 32.2288C353.132 30.6652 351.865 29.3976 350.301 29.3976C348.737 29.3976 347.47 30.6652 347.47 32.2288C347.47 33.7925 348.737 35.0601 350.301 35.0601Z" fill="#444B54"/>
<path d="M342.358 16C354.32 16 364.159 24.9893 365.575 36.5975C366.205 38.8229 362.917 42.3183 361.469 39.358C361.469 28.5992 352.48 19.8222 341.579 20.2469C331.245 20.6716 323.247 29.4486 323.247 39.8535V46.507C323.247 47.7811 322.044 48.8428 320.699 48.5597C319.708 48.3473 319 47.4272 319 46.3654L319.142 36.5975C320.557 24.9893 330.396 16 342.358 16Z" fill="#444B54"/>
<path d="M733.564 257.977C735.128 257.977 736.395 256.709 736.395 255.145C736.395 253.582 735.128 252.314 733.564 252.314C732.001 252.314 730.733 253.582 730.733 255.145C730.733 256.709 732.001 257.977 733.564 257.977Z" fill="#EE5055"/>
<path d="M742.775 257.977C744.339 257.977 745.606 256.709 745.606 255.145C745.606 253.582 744.339 252.314 742.775 252.314C741.211 252.314 739.944 253.582 739.944 255.145C739.944 256.709 741.211 257.977 742.775 257.977Z" fill="#EE5055"/>
<path d="M734.832 238.917C746.794 238.917 756.633 247.906 758.049 259.514C758.679 261.739 755.391 265.235 753.943 262.275C753.943 251.516 744.954 242.739 734.054 243.163C723.719 243.588 715.721 252.365 715.721 262.77V269.424C715.721 270.698 714.518 271.759 713.173 271.476C712.182 271.264 711.474 270.344 711.474 269.282L711.616 259.514C713.031 247.906 722.87 238.917 734.832 238.917Z" fill="#444B54"/>
<path d="M739.136 274.563C733.685 274.563 729.226 270.103 729.226 264.653C729.226 263.45 730.146 262.53 731.35 262.53H746.922C748.125 262.53 749.045 263.45 749.045 264.653C749.045 270.103 744.586 274.563 739.136 274.563Z" fill="#444B54"/>
<path d="M745.223 272.439C744.02 270.316 741.684 268.9 739.136 268.9C736.587 268.9 734.252 270.316 733.048 272.439C734.747 273.784 736.871 274.563 739.136 274.563C741.401 274.563 743.595 273.784 745.223 272.439Z" fill="#EE5055"/>
<path d="M738.873 235.567C725.519 172.371 805.341 173.677 790.002 160.477C776.785 149.103 669.875 150.316 592.681 157.405" stroke="#C4C4C4" stroke-width="3" stroke-linecap="round"/>
<path d="M591.288 357.96H593.088V354.12H595.008V357.96H596.808V359.76H595.008V369H593.088V359.76H591.288V357.96ZM605.814 362.28C605.814 360.44 605.03 359.52 603.462 359.52C602.63 359.52 601.95 359.784 601.422 360.312C600.91 360.824 600.654 361.48 600.654 362.28V369H598.734V350.28H600.654V359.712C600.99 359.104 601.438 358.624 601.998 358.272C602.574 357.904 603.222 357.72 603.942 357.72C605.078 357.72 605.99 358.088 606.678 358.824C607.382 359.544 607.734 360.616 607.734 362.04V369H605.814V362.28ZM615.615 369.24C614.591 369.24 613.679 369 612.879 368.52C612.095 368.024 611.479 367.344 611.031 366.48C610.599 365.616 610.383 364.616 610.383 363.48C610.383 362.328 610.607 361.32 611.055 360.456C611.519 359.592 612.159 358.92 612.975 358.44C613.807 357.96 614.767 357.72 615.855 357.72C617.471 357.72 618.743 358.224 619.671 359.232C620.599 360.24 621.063 361.624 621.063 363.384C621.063 363.496 621.055 363.616 621.039 363.744C621.039 363.856 621.039 363.928 621.039 363.96H612.351C612.431 365.064 612.775 365.92 613.383 366.528C613.991 367.136 614.815 367.44 615.855 367.44C617.359 367.44 618.511 366.776 619.311 365.448L620.871 366.432C619.719 368.304 617.967 369.24 615.615 369.24ZM615.855 359.4C614.911 359.4 614.143 359.656 613.551 360.168C612.959 360.664 612.583 361.384 612.423 362.328H618.975C618.911 361.448 618.591 360.744 618.015 360.216C617.455 359.672 616.735 359.4 615.855 359.4ZM635.162 369.24C634.138 369.24 633.226 369 632.426 368.52C631.642 368.024 631.026 367.344 630.578 366.48C630.146 365.616 629.93 364.616 629.93 363.48C629.93 362.328 630.154 361.32 630.602 360.456C631.066 359.592 631.706 358.92 632.522 358.44C633.354 357.96 634.314 357.72 635.402 357.72C637.018 357.72 638.29 358.224 639.218 359.232C640.146 360.24 640.61 361.624 640.61 363.384C640.61 363.496 640.602 363.616 640.586 363.744C640.586 363.856 640.586 363.928 640.586 363.96H631.898C631.978 365.064 632.322 365.92 632.93 366.528C633.538 367.136 634.362 367.44 635.402 367.44C636.906 367.44 638.058 366.776 638.858 365.448L640.418 366.432C639.266 368.304 637.514 369.24 635.162 369.24ZM635.402 359.4C634.458 359.4 633.69 359.656 633.098 360.168C632.506 360.664 632.13 361.384 631.97 362.328H638.522C638.458 361.448 638.138 360.744 637.562 360.216C637.002 359.672 636.282 359.4 635.402 359.4ZM651.65 357.96L644.45 374.28H642.29L645.314 367.44L641.09 357.96H643.37L646.466 365.568L649.49 357.96H651.65ZM657.381 369.24C656.357 369.24 655.445 369 654.645 368.52C653.861 368.024 653.245 367.344 652.797 366.48C652.365 365.616 652.149 364.616 652.149 363.48C652.149 362.328 652.373 361.32 652.821 360.456C653.285 359.592 653.925 358.92 654.741 358.44C655.573 357.96 656.533 357.72 657.621 357.72C659.237 357.72 660.509 358.224 661.437 359.232C662.365 360.24 662.829 361.624 662.829 363.384C662.829 363.496 662.821 363.616 662.805 363.744C662.805 363.856 662.805 363.928 662.805 363.96H654.117C654.197 365.064 654.541 365.92 655.149 366.528C655.757 367.136 656.581 367.44 657.621 367.44C659.125 367.44 660.277 366.776 661.077 365.448L662.637 366.432C661.485 368.304 659.733 369.24 657.381 369.24ZM657.621 359.4C656.677 359.4 655.909 359.656 655.317 360.168C654.725 360.664 654.349 361.384 654.189 362.328H660.741C660.677 361.448 660.357 360.744 659.781 360.216C659.221 359.672 658.501 359.4 657.621 359.4ZM663.78 364.2V362.4H668.58V364.2H663.78ZM671.363 363.48C671.363 364.248 671.523 364.928 671.843 365.52C672.179 366.112 672.627 366.584 673.187 366.936C673.763 367.272 674.411 367.44 675.131 367.44C676.027 367.44 676.827 367.24 677.531 366.84C678.235 366.44 678.715 365.968 678.971 365.424V367.824C678.587 368.272 678.035 368.624 677.315 368.88C676.611 369.12 675.883 369.24 675.131 369.24C674.059 369.24 673.091 368.992 672.227 368.496C671.363 368 670.675 367.32 670.163 366.456C669.667 365.576 669.419 364.584 669.419 363.48C669.419 362.36 669.667 361.368 670.163 360.504C670.675 359.64 671.363 358.96 672.227 358.464C673.091 357.968 674.059 357.72 675.131 357.72C675.883 357.72 676.611 357.848 677.315 358.104C678.035 358.344 678.587 358.688 678.971 359.136V361.536C678.715 360.992 678.235 360.52 677.531 360.12C676.827 359.72 676.027 359.52 675.131 359.52C674.411 359.52 673.763 359.688 673.187 360.024C672.627 360.36 672.179 360.832 671.843 361.44C671.523 362.032 671.363 362.712 671.363 363.48ZM682.536 360.504L681.6 359.088C682.016 358.784 682.584 358.48 683.304 358.176C684.04 357.872 684.92 357.72 685.944 357.72C687.224 357.72 688.264 358.016 689.064 358.608C689.864 359.184 690.264 360.008 690.264 361.08V369H688.344V367.512C687.992 368.088 687.464 368.52 686.76 368.808C686.056 369.096 685.368 369.24 684.696 369.24C684.024 369.24 683.392 369.104 682.8 368.832C682.224 368.544 681.76 368.136 681.408 367.608C681.056 367.08 680.88 366.44 680.88 365.688C680.88 364.616 681.256 363.76 682.008 363.12C682.776 362.464 683.84 362.136 685.2 362.136C685.936 362.136 686.56 362.224 687.072 362.4C687.6 362.56 688.024 362.744 688.344 362.952V361.344C688.344 360.592 688.096 360.08 687.6 359.808C687.12 359.536 686.536 359.4 685.848 359.4C685.016 359.4 684.32 359.536 683.76 359.808C683.2 360.08 682.792 360.312 682.536 360.504ZM682.824 365.592C682.824 366.232 683.04 366.728 683.472 367.08C683.92 367.416 684.496 367.584 685.2 367.584C686.08 367.584 686.824 367.32 687.432 366.792C688.04 366.264 688.344 365.56 688.344 364.68V364.272C687.896 364.048 687.44 363.888 686.976 363.792C686.512 363.696 686.024 363.648 685.512 363.648C684.584 363.648 683.904 363.824 683.472 364.176C683.04 364.512 682.824 364.984 682.824 365.592ZM691.835 357.96H693.635V354.12H695.555V357.96H697.355V359.76H695.555V369H693.635V359.76H691.835V357.96ZM700.144 363.48C700.144 364.248 700.304 364.928 700.624 365.52C700.96 366.112 701.408 366.584 701.968 366.936C702.544 367.272 703.192 367.44 703.912 367.44C704.808 367.44 705.608 367.24 706.312 366.84C707.016 366.44 707.496 365.968 707.752 365.424V367.824C707.368 368.272 706.816 368.624 706.096 368.88C705.392 369.12 704.664 369.24 703.912 369.24C702.84 369.24 701.872 368.992 701.008 368.496C700.144 368 699.456 367.32 698.944 366.456C698.448 365.576 698.2 364.584 698.2 363.48C698.2 362.36 698.448 361.368 698.944 360.504C699.456 359.64 700.144 358.96 701.008 358.464C701.872 357.968 702.84 357.72 703.912 357.72C704.664 357.72 705.392 357.848 706.096 358.104C706.816 358.344 707.368 358.688 707.752 359.136V361.536C707.496 360.992 707.016 360.52 706.312 360.12C705.608 359.72 704.808 359.52 703.912 359.52C703.192 359.52 702.544 359.688 701.968 360.024C701.408 360.36 700.96 360.832 700.624 361.44C700.304 362.032 700.144 362.712 700.144 363.48ZM717.821 362.28C717.821 360.44 717.037 359.52 715.469 359.52C714.637 359.52 713.957 359.784 713.429 360.312C712.917 360.824 712.661 361.48 712.661 362.28V369H710.741V350.28H712.661V359.712C712.997 359.104 713.445 358.624 714.005 358.272C714.581 357.904 715.229 357.72 715.949 357.72C717.085 357.72 717.997 358.088 718.685 358.824C719.389 359.544 719.741 360.616 719.741 362.04V369H717.821V362.28ZM723.351 353.4C723.351 353.032 723.479 352.72 723.735 352.464C724.007 352.208 724.319 352.08 724.671 352.08C725.039 352.08 725.351 352.208 725.607 352.464C725.863 352.72 725.991 353.032 725.991 353.4C725.991 353.752 725.863 354.064 725.607 354.336C725.351 354.592 725.039 354.72 724.671 354.72C724.319 354.72 724.007 354.592 723.735 354.336C723.479 354.064 723.351 353.752 723.351 353.4ZM723.711 357.96H725.631V369H723.711V357.96ZM736.665 362.28C736.665 360.44 735.881 359.52 734.313 359.52C733.481 359.52 732.801 359.776 732.273 360.288C731.761 360.8 731.505 361.464 731.505 362.28V369H729.585V357.96H731.505V359.688C732.225 358.376 733.321 357.72 734.793 357.72C735.961 357.72 736.881 358.112 737.553 358.896C738.241 359.664 738.585 360.712 738.585 362.04V369H736.665V362.28ZM741.451 369.72H743.395C743.395 370.248 743.539 370.736 743.827 371.184C744.115 371.648 744.523 372.016 745.051 372.288C745.579 372.576 746.203 372.72 746.923 372.72C747.483 372.72 748.035 372.584 748.579 372.312C749.123 372.04 749.571 371.608 749.923 371.016C750.291 370.44 750.475 369.688 750.475 368.76V367.104C750.075 367.792 749.547 368.32 748.891 368.688C748.251 369.056 747.523 369.24 746.707 369.24C745.715 369.24 744.803 369.008 743.971 368.544C743.139 368.08 742.475 367.416 741.979 366.552C741.483 365.688 741.235 364.664 741.235 363.48C741.235 362.28 741.483 361.256 741.979 360.408C742.475 359.544 743.139 358.88 743.971 358.416C744.803 357.952 745.715 357.72 746.707 357.72C747.523 357.72 748.251 357.904 748.891 358.272C749.547 358.64 750.075 359.168 750.475 359.856V357.96H752.395V368.76C752.395 370.024 752.131 371.08 751.603 371.928C751.075 372.792 750.395 373.44 749.563 373.872C748.731 374.304 747.851 374.52 746.923 374.52C745.851 374.52 744.899 374.32 744.067 373.92C743.251 373.52 742.611 372.952 742.147 372.216C741.683 371.496 741.451 370.664 741.451 369.72ZM743.179 363.48C743.179 364.328 743.347 365.048 743.683 365.64C744.035 366.232 744.499 366.68 745.075 366.984C745.651 367.288 746.275 367.44 746.947 367.44C747.507 367.44 748.059 367.288 748.603 366.984C749.147 366.68 749.595 366.232 749.947 365.64C750.299 365.048 750.475 364.328 750.475 363.48C750.475 362.632 750.299 361.912 749.947 361.32C749.595 360.728 749.147 360.28 748.603 359.976C748.059 359.672 747.507 359.52 746.947 359.52C746.275 359.52 745.651 359.672 745.075 359.976C744.499 360.28 744.035 360.728 743.683 361.32C743.347 361.912 743.179 362.632 743.179 363.48ZM774.117 363.48C774.117 364.664 773.869 365.688 773.373 366.552C772.877 367.416 772.213 368.08 771.381 368.544C770.565 369.008 769.653 369.24 768.645 369.24C767.829 369.24 767.093 369.056 766.437 368.688C765.797 368.32 765.277 367.792 764.877 367.104V369H762.957V350.28H764.877V359.856C765.277 359.168 765.797 358.64 766.437 358.272C767.093 357.904 767.829 357.72 768.645 357.72C769.653 357.72 770.565 357.952 771.381 358.416C772.213 358.88 772.877 359.544 773.373 360.408C773.869 361.256 774.117 362.28 774.117 363.48ZM772.173 363.48C772.173 362.632 771.997 361.912 771.645 361.32C771.309 360.728 770.853 360.28 770.277 359.976C769.717 359.672 769.093 359.52 768.405 359.52C767.845 359.52 767.293 359.672 766.749 359.976C766.205 360.28 765.757 360.728 765.405 361.32C765.053 361.912 764.877 362.632 764.877 363.48C764.877 364.328 765.053 365.048 765.405 365.64C765.757 366.232 766.205 366.68 766.749 366.984C767.293 367.288 767.845 367.44 768.405 367.44C769.093 367.44 769.717 367.288 770.277 366.984C770.853 366.68 771.309 366.232 771.645 365.64C771.997 365.048 772.173 364.328 772.173 363.48ZM775.805 363.48C775.805 362.36 776.053 361.368 776.549 360.504C777.061 359.64 777.749 358.96 778.613 358.464C779.477 357.968 780.445 357.72 781.517 357.72C782.605 357.72 783.573 357.968 784.421 358.464C785.285 358.96 785.965 359.64 786.461 360.504C786.973 361.368 787.229 362.36 787.229 363.48C787.229 364.584 786.973 365.576 786.461 366.456C785.965 367.32 785.285 368 784.421 368.496C783.573 368.992 782.605 369.24 781.517 369.24C780.445 369.24 779.477 368.992 778.613 368.496C777.749 368 777.061 367.32 776.549 366.456C776.053 365.576 775.805 364.584 775.805 363.48ZM777.749 363.48C777.749 364.248 777.909 364.928 778.229 365.52C778.565 366.112 779.013 366.584 779.573 366.936C780.149 367.272 780.797 367.44 781.517 367.44C782.237 367.44 782.877 367.272 783.437 366.936C784.013 366.584 784.461 366.112 784.781 365.52C785.117 364.928 785.285 364.248 785.285 363.48C785.285 362.712 785.117 362.032 784.781 361.44C784.461 360.832 784.013 360.36 783.437 360.024C782.877 359.688 782.237 359.52 781.517 359.52C780.797 359.52 780.149 359.688 779.573 360.024C779.013 360.36 778.565 360.832 778.229 361.44C777.909 362.032 777.749 362.712 777.749 363.48ZM788.186 357.96H789.986V354.12H791.906V357.96H793.706V359.76H791.906V369H789.986V359.76H788.186V357.96Z" fill="black"/>
<path d="M580.09 216.06C581.654 216.06 582.921 214.792 582.921 213.229C582.921 211.665 581.654 210.398 580.09 210.398C578.526 210.398 577.259 211.665 577.259 213.229C577.259 214.792 578.526 216.06 580.09 216.06Z" fill="#444B54"/>
<path d="M589.301 216.06C590.865 216.06 592.132 214.792 592.132 213.229C592.132 211.665 590.865 210.398 589.301 210.398C587.737 210.398 586.47 211.665 586.47 213.229C586.47 214.792 587.737 216.06 589.301 216.06Z" fill="#444B54"/>
<path d="M581.358 197C593.32 197 603.159 205.989 604.575 217.598C605.205 219.823 601.917 223.318 600.469 220.358C600.469 209.599 591.48 200.822 580.579 201.247C570.245 201.672 562.247 210.449 562.247 220.854V227.507C562.247 228.781 561.044 229.843 559.699 229.56C558.708 229.347 558 228.427 558 227.365L558.142 217.598C559.557 205.989 569.396 197 581.358 197Z" fill="#444B54"/>
<path d="M643.09 219.06C644.654 219.06 645.921 217.792 645.921 216.229C645.921 214.665 644.654 213.398 643.09 213.398C641.526 213.398 640.259 214.665 640.259 216.229C640.259 217.792 641.526 219.06 643.09 219.06Z" fill="#444B54"/>
<path d="M652.301 219.06C653.865 219.06 655.132 217.792 655.132 216.229C655.132 214.665 653.865 213.398 652.301 213.398C650.737 213.398 649.47 214.665 649.47 216.229C649.47 217.792 650.737 219.06 652.301 219.06Z" fill="#444B54"/>
<path d="M644.358 200C656.32 200 666.159 208.989 667.575 220.598C668.205 222.823 664.917 226.318 663.469 223.358C663.469 212.599 654.48 203.822 643.579 204.247C633.245 204.672 625.247 213.449 625.247 223.854V230.507C625.247 231.781 624.044 232.843 622.699 232.56C621.708 232.347 621 231.427 621 230.365L621.142 220.598C622.557 208.989 632.396 200 644.358 200Z" fill="#444B54"/>
<path d="M705.09 213.06C706.654 213.06 707.921 211.792 707.921 210.229C707.921 208.665 706.654 207.398 705.09 207.398C703.526 207.398 702.259 208.665 702.259 210.229C702.259 211.792 703.526 213.06 705.09 213.06Z" fill="#444B54"/>
<path d="M714.301 213.06C715.865 213.06 717.132 211.792 717.132 210.229C717.132 208.665 715.865 207.398 714.301 207.398C712.737 207.398 711.47 208.665 711.47 210.229C711.47 211.792 712.737 213.06 714.301 213.06Z" fill="#444B54"/>
<path d="M706.358 194C718.32 194 728.159 202.989 729.575 214.598C730.205 216.823 726.917 220.318 725.469 217.358C725.469 206.599 716.48 197.822 705.579 198.247C695.245 198.672 687.247 207.449 687.247 217.854V224.507C687.247 225.781 686.044 226.843 684.699 226.56C683.708 226.347 683 225.427 683 224.365L683.142 214.598C684.557 202.989 694.396 194 706.358 194Z" fill="#444B54"/>
<path d="M767.09 217.06C768.654 217.06 769.921 215.792 769.921 214.229C769.921 212.665 768.654 211.398 767.09 211.398C765.526 211.398 764.259 212.665 764.259 214.229C764.259 215.792 765.526 217.06 767.09 217.06Z" fill="#444B54"/>
<path d="M776.301 217.06C777.865 217.06 779.132 215.792 779.132 214.229C779.132 212.665 777.865 211.398 776.301 211.398C774.737 211.398 773.47 212.665 773.47 214.229C773.47 215.792 774.737 217.06 776.301 217.06Z" fill="#444B54"/>
<path d="M768.358 198C780.32 198 790.159 206.989 791.575 218.598C792.205 220.823 788.917 224.318 787.469 221.358C787.469 210.599 778.48 201.822 767.579 202.247C757.245 202.672 749.247 211.449 749.247 221.854V228.507C749.247 229.781 748.044 230.843 746.699 230.56C745.708 230.347 745 229.427 745 228.365L745.142 218.598C746.557 206.989 756.396 198 768.358 198Z" fill="#444B54"/>
<path d="M801.09 255.06C802.654 255.06 803.921 253.792 803.921 252.229C803.921 250.665 802.654 249.398 801.09 249.398C799.526 249.398 798.259 250.665 798.259 252.229C798.259 253.792 799.526 255.06 801.09 255.06Z" fill="#444B54"/>
<path d="M810.301 255.06C811.865 255.06 813.132 253.792 813.132 252.229C813.132 250.665 811.865 249.398 810.301 249.398C808.737 249.398 807.47 250.665 807.47 252.229C807.47 253.792 808.737 255.06 810.301 255.06Z" fill="#444B54"/>
<path d="M802.358 236C814.32 236 824.159 244.989 825.575 256.598C826.205 258.823 822.917 262.318 821.469 259.358C821.469 248.599 812.48 239.822 801.579 240.247C791.245 240.672 783.247 249.449 783.247 259.854V266.507C783.247 267.781 782.044 268.843 780.699 268.56C779.708 268.347 779 267.427 779 266.365L779.142 256.598C780.557 244.989 790.396 236 802.358 236Z" fill="#444B54"/>
<path d="M674.09 252.06C675.654 252.06 676.921 250.792 676.921 249.229C676.921 247.665 675.654 246.398 674.09 246.398C672.526 246.398 671.259 247.665 671.259 249.229C671.259 250.792 672.526 252.06 674.09 252.06Z" fill="#444B54"/>
<path d="M683.301 252.06C684.865 252.06 686.132 250.792 686.132 249.229C686.132 247.665 684.865 246.398 683.301 246.398C681.737 246.398 680.47 247.665 680.47 249.229C680.47 250.792 681.737 252.06 683.301 252.06Z" fill="#444B54"/>
<path d="M675.358 233C687.32 233 697.159 241.989 698.575 253.598C699.205 255.823 695.917 259.318 694.469 256.358C694.469 245.599 685.48 236.822 674.579 237.247C664.245 237.672 656.247 246.449 656.247 256.854V263.507C656.247 264.781 655.044 265.843 653.699 265.56C652.708 265.347 652 264.427 652 263.365L652.142 253.598C653.557 241.989 663.396 233 675.358 233Z" fill="#444B54"/>
<path d="M600.09 258.06C601.654 258.06 602.921 256.792 602.921 255.229C602.921 253.665 601.654 252.398 600.09 252.398C598.526 252.398 597.259 253.665 597.259 255.229C597.259 256.792 598.526 258.06 600.09 258.06Z" fill="#444B54"/>
<path d="M609.301 258.06C610.865 258.06 612.132 256.792 612.132 255.229C612.132 253.665 610.865 252.398 609.301 252.398C607.737 252.398 606.47 253.665 606.47 255.229C606.47 256.792 607.737 258.06 609.301 258.06Z" fill="#444B54"/>
<path d="M601.358 239C613.32 239 623.159 247.989 624.575 259.598C625.205 261.823 621.917 265.318 620.469 262.358C620.469 251.599 611.48 242.822 600.579 243.247C590.245 243.672 582.247 252.449 582.247 262.854V269.507C582.247 270.781 581.044 271.843 579.699 271.56C578.708 271.347 578 270.427 578 269.365L578.142 259.598C579.557 247.989 589.396 239 601.358 239Z" fill="#444B54"/>
<path d="M565.09 303.06C566.654 303.06 567.921 301.792 567.921 300.229C567.921 298.665 566.654 297.398 565.09 297.398C563.526 297.398 562.259 298.665 562.259 300.229C562.259 301.792 563.526 303.06 565.09 303.06Z" fill="#444B54"/>
<path d="M574.301 303.06C575.865 303.06 577.132 301.792 577.132 300.229C577.132 298.665 575.865 297.398 574.301 297.398C572.737 297.398 571.47 298.665 571.47 300.229C571.47 301.792 572.737 303.06 574.301 303.06Z" fill="#444B54"/>
<path d="M566.358 284C578.32 284 588.159 292.989 589.575 304.598C590.205 306.823 586.917 310.318 585.469 307.358C585.469 296.599 576.48 287.822 565.579 288.247C555.245 288.672 547.247 297.449 547.247 307.854V314.507C547.247 315.781 546.044 316.843 544.699 316.56C543.708 316.347 543 315.427 543 314.365L543.142 304.598C544.557 292.989 554.396 284 566.358 284Z" fill="#444B54"/>
<path d="M634.09 297.06C635.654 297.06 636.921 295.792 636.921 294.229C636.921 292.665 635.654 291.398 634.09 291.398C632.526 291.398 631.259 292.665 631.259 294.229C631.259 295.792 632.526 297.06 634.09 297.06Z" fill="#444B54"/>
<path d="M643.301 297.06C644.865 297.06 646.132 295.792 646.132 294.229C646.132 292.665 644.865 291.398 643.301 291.398C641.737 291.398 640.47 292.665 640.47 294.229C640.47 295.792 641.737 297.06 643.301 297.06Z" fill="#444B54"/>
<path d="M635.358 278C647.32 278 657.159 286.989 658.575 298.598C659.205 300.823 655.917 304.318 654.469 301.358C654.469 290.599 645.48 281.822 634.579 282.247C624.245 282.672 616.247 291.449 616.247 301.854V308.507C616.247 309.781 615.044 310.843 613.699 310.56C612.708 310.347 612 309.427 612 308.365L612.142 298.598C613.557 286.989 623.396 278 635.358 278Z" fill="#444B54"/>
<path d="M701.09 300.06C702.654 300.06 703.921 298.792 703.921 297.229C703.921 295.665 702.654 294.398 701.09 294.398C699.526 294.398 698.259 295.665 698.259 297.229C698.259 298.792 699.526 300.06 701.09 300.06Z" fill="#444B54"/>
<path d="M710.301 300.06C711.865 300.06 713.132 298.792 713.132 297.229C713.132 295.665 711.865 294.398 710.301 294.398C708.737 294.398 707.47 295.665 707.47 297.229C707.47 298.792 708.737 300.06 710.301 300.06Z" fill="#444B54"/>
<path d="M702.358 281C714.32 281 724.159 289.989 725.575 301.598C726.205 303.823 722.917 307.318 721.469 304.358C721.469 293.599 712.48 284.822 701.579 285.247C691.245 285.672 683.247 294.449 683.247 304.854V311.507C683.247 312.781 682.044 313.843 680.699 313.56C679.708 313.347 679 312.427 679 311.365L679.142 301.598C680.557 289.989 690.396 281 702.358 281Z" fill="#444B54"/>
<path d="M774.09 300.06C775.654 300.06 776.921 298.792 776.921 297.229C776.921 295.665 775.654 294.398 774.09 294.398C772.526 294.398 771.259 295.665 771.259 297.229C771.259 298.792 772.526 300.06 774.09 300.06Z" fill="#444B54"/>
<path d="M783.301 300.06C784.865 300.06 786.132 298.792 786.132 297.229C786.132 295.665 784.865 294.398 783.301 294.398C781.737 294.398 780.47 295.665 780.47 297.229C780.47 298.792 781.737 300.06 783.301 300.06Z" fill="#444B54"/>
<path d="M775.358 281C787.32 281 797.159 289.989 798.575 301.598C799.205 303.823 795.917 307.318 794.469 304.358C794.469 293.599 785.48 284.822 774.579 285.247C764.245 285.672 756.247 294.449 756.247 304.854V311.507C756.247 312.781 755.044 313.843 753.699 313.56C752.708 313.347 752 312.427 752 311.365L752.142 301.598C753.557 289.989 763.396 281 775.358 281Z" fill="#444B54"/>
<path d="M721.748 82.2H723.788V99H721.748V82.2ZM728.351 82.2H730.631L728.231 87.72H726.911L728.351 82.2ZM748.045 92.04V99H746.125V92.28C746.125 91.336 745.949 90.64 745.597 90.192C745.261 89.744 744.733 89.52 744.013 89.52C743.229 89.52 742.605 89.768 742.141 90.264C741.677 90.744 741.445 91.416 741.445 92.28V99H739.525V92.28C739.525 91.336 739.349 90.64 738.997 90.192C738.661 89.744 738.133 89.52 737.413 89.52C736.629 89.52 736.005 89.768 735.541 90.264C735.077 90.744 734.845 91.416 734.845 92.28V99H732.925V87.96H734.845V89.568C735.501 88.336 736.517 87.72 737.893 87.72C738.661 87.72 739.317 87.904 739.861 88.272C740.421 88.624 740.829 89.128 741.085 89.784C741.853 88.408 742.989 87.72 744.493 87.72C745.629 87.72 746.501 88.096 747.109 88.848C747.733 89.6 748.045 90.664 748.045 92.04ZM765.927 92.28C765.927 90.44 765.143 89.52 763.575 89.52C762.743 89.52 762.063 89.784 761.535 90.312C761.023 90.824 760.767 91.48 760.767 92.28V99H758.847V80.28H760.767V89.712C761.103 89.104 761.551 88.624 762.111 88.272C762.687 87.904 763.335 87.72 764.055 87.72C765.191 87.72 766.103 88.088 766.791 88.824C767.495 89.544 767.847 90.616 767.847 92.04V99H765.927V92.28ZM772.032 90.504L771.096 89.088C771.512 88.784 772.08 88.48 772.8 88.176C773.536 87.872 774.416 87.72 775.44 87.72C776.72 87.72 777.76 88.016 778.56 88.608C779.36 89.184 779.76 90.008 779.76 91.08V99H777.84V97.512C777.488 98.088 776.96 98.52 776.256 98.808C775.552 99.096 774.864 99.24 774.192 99.24C773.52 99.24 772.888 99.104 772.296 98.832C771.72 98.544 771.256 98.136 770.904 97.608C770.552 97.08 770.376 96.44 770.376 95.688C770.376 94.616 770.752 93.76 771.504 93.12C772.272 92.464 773.336 92.136 774.696 92.136C775.432 92.136 776.056 92.224 776.568 92.4C777.096 92.56 777.52 92.744 777.84 92.952V91.344C777.84 90.592 777.592 90.08 777.096 89.808C776.616 89.536 776.032 89.4 775.344 89.4C774.512 89.4 773.816 89.536 773.256 89.808C772.696 90.08 772.288 90.312 772.032 90.504ZM772.32 95.592C772.32 96.232 772.536 96.728 772.968 97.08C773.416 97.416 773.992 97.584 774.696 97.584C775.576 97.584 776.32 97.32 776.928 96.792C777.536 96.264 777.84 95.56 777.84 94.68V94.272C777.392 94.048 776.936 93.888 776.472 93.792C776.008 93.696 775.52 93.648 775.008 93.648C774.08 93.648 773.4 93.824 772.968 94.176C772.536 94.512 772.32 94.984 772.32 95.592ZM784.811 104.28H782.891V87.96H784.811V89.856C785.211 89.168 785.731 88.64 786.371 88.272C787.027 87.904 787.763 87.72 788.579 87.72C789.587 87.72 790.499 87.952 791.315 88.416C792.147 88.88 792.811 89.544 793.307 90.408C793.803 91.256 794.051 92.28 794.051 93.48C794.051 94.664 793.803 95.688 793.307 96.552C792.811 97.416 792.147 98.08 791.315 98.544C790.499 99.008 789.587 99.24 788.579 99.24C787.763 99.24 787.027 99.056 786.371 98.688C785.731 98.32 785.211 97.792 784.811 97.104V104.28ZM792.107 93.48C792.107 92.632 791.931 91.912 791.579 91.32C791.243 90.728 790.787 90.28 790.211 89.976C789.651 89.672 789.027 89.52 788.339 89.52C787.779 89.52 787.227 89.672 786.683 89.976C786.139 90.28 785.691 90.728 785.339 91.32C784.987 91.912 784.811 92.632 784.811 93.48C784.811 94.328 784.987 95.048 785.339 95.64C785.691 96.232 786.139 96.68 786.683 96.984C787.227 97.288 787.779 97.44 788.339 97.44C789.027 97.44 789.651 97.288 790.211 96.984C790.787 96.68 791.243 96.232 791.579 95.64C791.931 95.048 792.107 94.328 792.107 93.48ZM798.498 104.28H796.578V87.96H798.498V89.856C798.898 89.168 799.418 88.64 800.058 88.272C800.714 87.904 801.45 87.72 802.266 87.72C803.274 87.72 804.186 87.952 805.002 88.416C805.834 88.88 806.498 89.544 806.994 90.408C807.49 91.256 807.738 92.28 807.738 93.48C807.738 94.664 807.49 95.688 806.994 96.552C806.498 97.416 805.834 98.08 805.002 98.544C804.186 99.008 803.274 99.24 802.266 99.24C801.45 99.24 800.714 99.056 800.058 98.688C799.418 98.32 798.898 97.792 798.498 97.104V104.28ZM805.794 93.48C805.794 92.632 805.618 91.912 805.266 91.32C804.93 90.728 804.474 90.28 803.898 89.976C803.338 89.672 802.714 89.52 802.026 89.52C801.466 89.52 800.914 89.672 800.37 89.976C799.826 90.28 799.378 90.728 799.026 91.32C798.674 91.912 798.498 92.632 798.498 93.48C798.498 94.328 798.674 95.048 799.026 95.64C799.378 96.232 799.826 96.68 800.37 96.984C800.914 97.288 801.466 97.44 802.026 97.44C802.714 97.44 803.338 97.288 803.898 96.984C804.474 96.68 804.93 96.232 805.266 95.64C805.618 95.048 805.794 94.328 805.794 93.48ZM818.794 87.96L811.594 104.28H809.434L812.458 97.44L808.234 87.96H810.514L813.61 95.568L816.634 87.96H818.794ZM821.205 82.2H823.605L823.125 94.2H821.685L821.205 82.2ZM821.085 98.04C821.085 97.672 821.213 97.36 821.469 97.104C821.741 96.848 822.053 96.72 822.405 96.72C822.773 96.72 823.085 96.848 823.341 97.104C823.597 97.36 823.725 97.672 823.725 98.04C823.725 98.392 823.597 98.704 823.341 98.976C823.085 99.232 822.773 99.36 822.405 99.36C822.053 99.36 821.741 99.232 821.469 98.976C821.213 98.704 821.085 98.392 821.085 98.04ZM567.389 117.2H569.429V134H567.389V117.2ZM587.427 127.28C587.427 125.44 586.643 124.52 585.075 124.52C584.243 124.52 583.563 124.784 583.035 125.312C582.523 125.824 582.267 126.48 582.267 127.28V134H580.347V115.28H582.267V124.712C582.603 124.104 583.051 123.624 583.611 123.272C584.187 122.904 584.835 122.72 585.555 122.72C586.691 122.72 587.603 123.088 588.291 123.824C588.995 124.544 589.347 125.616 589.347 127.04V134H587.427V127.28ZM593.532 125.504L592.596 124.088C593.012 123.784 593.58 123.48 594.3 123.176C595.036 122.872 595.916 122.72 596.94 122.72C598.22 122.72 599.26 123.016 600.06 123.608C600.86 124.184 601.26 125.008 601.26 126.08V134H599.34V132.512C598.988 133.088 598.46 133.52 597.756 133.808C597.052 134.096 596.364 134.24 595.692 134.24C595.02 134.24 594.388 134.104 593.796 133.832C593.22 133.544 592.756 133.136 592.404 132.608C592.052 132.08 591.876 131.44 591.876 130.688C591.876 129.616 592.252 128.76 593.004 128.12C593.772 127.464 594.836 127.136 596.196 127.136C596.932 127.136 597.556 127.224 598.068 127.4C598.596 127.56 599.02 127.744 599.34 127.952V126.344C599.34 125.592 599.092 125.08 598.596 124.808C598.116 124.536 597.532 124.4 596.844 124.4C596.012 124.4 595.316 124.536 594.756 124.808C594.196 125.08 593.788 125.312 593.532 125.504ZM593.82 130.592C593.82 131.232 594.036 131.728 594.468 132.08C594.916 132.416 595.492 132.584 596.196 132.584C597.076 132.584 597.82 132.32 598.428 131.792C599.036 131.264 599.34 130.56 599.34 129.68V129.272C598.892 129.048 598.436 128.888 597.972 128.792C597.508 128.696 597.02 128.648 596.508 128.648C595.58 128.648 594.9 128.824 594.468 129.176C594.036 129.512 593.82 129.984 593.82 130.592ZM602.594 122.96H604.754L607.874 130.76L610.994 122.96H613.154L607.874 134.84L602.594 122.96ZM618.885 134.24C617.861 134.24 616.949 134 616.149 133.52C615.365 133.024 614.749 132.344 614.301 131.48C613.869 130.616 613.653 129.616 613.653 128.48C613.653 127.328 613.877 126.32 614.325 125.456C614.789 124.592 615.429 123.92 616.245 123.44C617.077 122.96 618.037 122.72 619.125 122.72C620.741 122.72 622.013 123.224 622.941 124.232C623.869 125.24 624.333 126.624 624.333 128.384C624.333 128.496 624.325 128.616 624.309 128.744C624.309 128.856 624.309 128.928 624.309 128.96H615.621C615.701 130.064 616.045 130.92 616.653 131.528C617.261 132.136 618.085 132.44 619.125 132.44C620.629 132.44 621.781 131.776 622.581 130.448L624.141 131.432C622.989 133.304 621.237 134.24 618.885 134.24ZM619.125 124.4C618.181 124.4 617.413 124.656 616.821 125.168C616.229 125.664 615.853 126.384 615.693 127.328H622.245C622.181 126.448 621.861 125.744 621.285 125.216C620.725 124.672 620.005 124.4 619.125 124.4ZM634.735 125.504L633.799 124.088C634.215 123.784 634.783 123.48 635.503 123.176C636.239 122.872 637.119 122.72 638.143 122.72C639.423 122.72 640.463 123.016 641.263 123.608C642.063 124.184 642.463 125.008 642.463 126.08V134H640.543V132.512C640.191 133.088 639.663 133.52 638.959 133.808C638.255 134.096 637.567 134.24 636.895 134.24C636.223 134.24 635.591 134.104 634.999 133.832C634.423 133.544 633.959 133.136 633.607 132.608C633.255 132.08 633.079 131.44 633.079 130.688C633.079 129.616 633.455 128.76 634.207 128.12C634.975 127.464 636.039 127.136 637.399 127.136C638.135 127.136 638.759 127.224 639.271 127.4C639.799 127.56 640.223 127.744 640.543 127.952V126.344C640.543 125.592 640.295 125.08 639.799 124.808C639.319 124.536 638.735 124.4 638.047 124.4C637.215 124.4 636.519 124.536 635.959 124.808C635.399 125.08 634.991 125.312 634.735 125.504ZM635.023 130.592C635.023 131.232 635.239 131.728 635.671 132.08C636.119 132.416 636.695 132.584 637.399 132.584C638.279 132.584 639.023 132.32 639.631 131.792C640.239 131.264 640.543 130.56 640.543 129.68V129.272C640.095 129.048 639.639 128.888 639.175 128.792C638.711 128.696 638.223 128.648 637.711 128.648C636.783 128.648 636.103 128.824 635.671 129.176C635.239 129.512 635.023 129.984 635.023 130.592ZM651.877 128.48C651.877 127.232 652.125 126.184 652.621 125.336C653.117 124.472 653.765 123.824 654.565 123.392C655.365 122.944 656.213 122.72 657.109 122.72C658.741 122.72 660.005 123.392 660.901 124.736V115.28H664.525V134H660.901V132.224C660.005 133.568 658.741 134.24 657.109 134.24C656.213 134.24 655.365 134.024 654.565 133.592C653.765 133.144 653.117 132.488 652.621 131.624C652.125 130.76 651.877 129.712 651.877 128.48ZM655.693 128.48C655.693 129.344 655.949 130.032 656.461 130.544C656.989 131.056 657.613 131.312 658.333 131.312C658.749 131.312 659.149 131.2 659.533 130.976C659.933 130.752 660.261 130.432 660.517 130.016C660.773 129.584 660.901 129.072 660.901 128.48C660.901 127.872 660.773 127.36 660.517 126.944C660.261 126.528 659.933 126.208 659.533 125.984C659.149 125.76 658.749 125.648 658.333 125.648C657.613 125.648 656.989 125.904 656.461 126.416C655.949 126.928 655.693 127.616 655.693 128.48ZM668.514 126.344L667.29 123.92C667.93 123.616 668.682 123.328 669.546 123.056C670.426 122.784 671.386 122.648 672.426 122.648C673.402 122.648 674.274 122.792 675.042 123.08C675.81 123.352 676.418 123.752 676.866 124.28C677.314 124.808 677.538 125.456 677.538 126.224V134H674.058V132.488C673.722 133.064 673.218 133.504 672.546 133.808C671.89 134.096 671.178 134.24 670.41 134.24C669.706 134.24 669.05 134.112 668.442 133.856C667.85 133.584 667.37 133.184 667.002 132.656C666.65 132.128 666.474 131.488 666.474 130.736C666.474 129.68 666.842 128.848 667.578 128.24C668.33 127.616 669.402 127.304 670.794 127.304C671.466 127.304 672.082 127.376 672.642 127.52C673.202 127.648 673.674 127.808 674.058 128V127.04C674.058 125.952 673.362 125.408 671.97 125.408C671.49 125.408 671.01 125.464 670.53 125.576C670.05 125.688 669.626 125.824 669.258 125.984C668.906 126.128 668.658 126.248 668.514 126.344ZM670.146 130.544C670.146 130.976 670.29 131.312 670.578 131.552C670.882 131.776 671.258 131.888 671.706 131.888C672.298 131.888 672.826 131.712 673.29 131.36C673.754 130.992 674.01 130.448 674.058 129.728C673.402 129.44 672.69 129.296 671.922 129.296C671.282 129.296 670.826 129.408 670.554 129.632C670.282 129.84 670.146 130.144 670.146 130.544ZM680.852 129.992C681.7 130.696 682.42 131.176 683.012 131.432C683.62 131.672 684.116 131.792 684.5 131.792C685.22 131.792 685.58 131.504 685.58 130.928C685.58 130.576 685.412 130.296 685.076 130.088C684.74 129.864 684.124 129.608 683.228 129.32C682.716 129.144 682.22 128.92 681.74 128.648C681.26 128.376 680.868 128.016 680.564 127.568C680.26 127.12 680.108 126.544 680.108 125.84C680.108 124.832 680.5 124.064 681.284 123.536C682.068 122.992 683.052 122.72 684.236 122.72C685.18 122.72 686.044 122.88 686.828 123.2C687.612 123.504 688.324 123.888 688.964 124.352L687.668 126.728C687.22 126.296 686.692 125.936 686.084 125.648C685.492 125.36 684.948 125.216 684.452 125.216C684.132 125.216 683.884 125.28 683.708 125.408C683.548 125.536 683.468 125.704 683.468 125.912C683.468 126.28 683.684 126.552 684.116 126.728C684.564 126.904 685.196 127.152 686.012 127.472C686.588 127.68 687.116 127.92 687.596 128.192C688.076 128.464 688.46 128.808 688.748 129.224C689.052 129.64 689.204 130.192 689.204 130.88C689.204 132.048 688.844 132.936 688.124 133.544C687.404 134.152 686.38 134.456 685.052 134.456C683.852 134.456 682.788 134.264 681.86 133.88C680.932 133.48 680.092 132.984 679.34 132.392L680.852 129.992ZM698.373 127.28C698.373 126.624 698.253 126.128 698.013 125.792C697.773 125.44 697.357 125.264 696.765 125.264C696.189 125.264 695.725 125.44 695.373 125.792C695.021 126.128 694.845 126.624 694.845 127.28V134H691.197V115.28H694.845V124.472C695.149 123.88 695.581 123.416 696.141 123.08C696.701 122.728 697.389 122.552 698.205 122.552C699.581 122.552 700.557 122.912 701.133 123.632C701.709 124.352 701.997 125.392 701.997 126.752V134H698.373V127.28ZM717.462 128.48C717.462 129.712 717.206 130.76 716.694 131.624C716.198 132.488 715.55 133.144 714.75 133.592C713.95 134.024 713.102 134.24 712.206 134.24C710.574 134.24 709.318 133.576 708.438 132.248V134H704.814V115.28H708.438V124.712C709.318 123.384 710.574 122.72 712.206 122.72C713.102 122.72 713.95 122.944 714.75 123.392C715.55 123.824 716.198 124.472 716.694 125.336C717.206 126.184 717.462 127.232 717.462 128.48ZM713.646 128.48C713.646 127.616 713.382 126.928 712.854 126.416C712.342 125.904 711.726 125.648 711.006 125.648C710.606 125.648 710.206 125.76 709.806 125.984C709.406 126.208 709.078 126.528 708.822 126.944C708.566 127.36 708.438 127.872 708.438 128.48C708.438 129.072 708.566 129.584 708.822 130.016C709.078 130.432 709.406 130.752 709.806 130.976C710.206 131.2 710.606 131.312 711.006 131.312C711.726 131.312 712.342 131.056 712.854 130.544C713.382 130.032 713.646 129.344 713.646 128.48ZM718.979 128.48C718.979 127.312 719.251 126.296 719.795 125.432C720.355 124.568 721.107 123.896 722.051 123.416C723.011 122.936 724.091 122.696 725.291 122.696C726.507 122.696 727.587 122.936 728.531 123.416C729.475 123.896 730.219 124.568 730.763 125.432C731.323 126.296 731.603 127.312 731.603 128.48C731.603 129.632 731.323 130.64 730.763 131.504C730.219 132.368 729.475 133.04 728.531 133.52C727.587 134 726.507 134.24 725.291 134.24C724.091 134.24 723.011 134 722.051 133.52C721.107 133.04 720.355 132.368 719.795 131.504C719.251 130.64 718.979 129.632 718.979 128.48ZM722.723 128.48C722.723 129.328 722.971 130 723.467 130.496C723.979 130.992 724.587 131.24 725.291 131.24C725.995 131.24 726.595 130.992 727.091 130.496C727.603 130 727.859 129.328 727.859 128.48C727.859 127.632 727.603 126.96 727.091 126.464C726.595 125.952 725.995 125.696 725.291 125.696C724.587 125.696 723.979 125.952 723.467 126.464C722.971 126.96 722.723 127.632 722.723 128.48ZM734.96 126.344L733.736 123.92C734.376 123.616 735.128 123.328 735.992 123.056C736.872 122.784 737.832 122.648 738.872 122.648C739.848 122.648 740.72 122.792 741.488 123.08C742.256 123.352 742.864 123.752 743.312 124.28C743.76 124.808 743.984 125.456 743.984 126.224V134H740.504V132.488C740.168 133.064 739.664 133.504 738.992 133.808C738.336 134.096 737.624 134.24 736.856 134.24C736.152 134.24 735.496 134.112 734.888 133.856C734.296 133.584 733.816 133.184 733.448 132.656C733.096 132.128 732.92 131.488 732.92 130.736C732.92 129.68 733.288 128.848 734.024 128.24C734.776 127.616 735.848 127.304 737.24 127.304C737.912 127.304 738.528 127.376 739.088 127.52C739.648 127.648 740.12 127.808 740.504 128V127.04C740.504 125.952 739.808 125.408 738.416 125.408C737.936 125.408 737.456 125.464 736.976 125.576C736.496 125.688 736.072 125.824 735.704 125.984C735.352 126.128 735.104 126.248 734.96 126.344ZM736.592 130.544C736.592 130.976 736.736 131.312 737.024 131.552C737.328 131.776 737.704 131.888 738.152 131.888C738.744 131.888 739.272 131.712 739.736 131.36C740.2 130.992 740.456 130.448 740.504 129.728C739.848 129.44 739.136 129.296 738.368 129.296C737.728 129.296 737.272 129.408 737 129.632C736.728 129.84 736.592 130.144 736.592 130.544ZM753.465 126.728C753.273 126.536 753.065 126.384 752.841 126.272C752.633 126.16 752.369 126.104 752.049 126.104C751.521 126.104 751.089 126.312 750.753 126.728C750.433 127.144 750.273 127.752 750.273 128.552V134H746.697V122.96H750.273V124.352C750.625 123.84 751.041 123.44 751.521 123.152C752.017 122.848 752.529 122.696 753.057 122.696C753.457 122.696 753.841 122.784 754.209 122.96C754.577 123.12 754.857 123.336 755.049 123.608L753.465 126.728ZM755.916 128.48C755.916 127.232 756.164 126.184 756.66 125.336C757.156 124.472 757.804 123.824 758.604 123.392C759.404 122.944 760.252 122.72 761.148 122.72C762.78 122.72 764.044 123.392 764.94 124.736V115.28H768.564V134H764.94V132.224C764.044 133.568 762.78 134.24 761.148 134.24C760.252 134.24 759.404 134.024 758.604 133.592C757.804 133.144 757.156 132.488 756.66 131.624C756.164 130.76 755.916 129.712 755.916 128.48ZM759.732 128.48C759.732 129.344 759.988 130.032 760.5 130.544C761.028 131.056 761.652 131.312 762.372 131.312C762.788 131.312 763.188 131.2 763.572 130.976C763.972 130.752 764.3 130.432 764.556 130.016C764.812 129.584 764.94 129.072 764.94 128.48C764.94 127.872 764.812 127.36 764.556 126.944C764.3 126.528 763.972 126.208 763.572 125.984C763.188 125.76 762.788 125.648 762.372 125.648C761.652 125.648 761.028 125.904 760.5 126.416C759.988 126.928 759.732 127.616 759.732 128.48ZM786.013 127.28C786.013 125.44 785.229 124.52 783.661 124.52C782.829 124.52 782.149 124.776 781.621 125.288C781.109 125.8 780.853 126.464 780.853 127.28V134H778.933V122.96H780.853V124.688C781.573 123.376 782.669 122.72 784.141 122.72C785.309 122.72 786.229 123.112 786.901 123.896C787.589 124.664 787.933 125.712 787.933 127.04V134H786.013V127.28ZM790.582 128.48C790.582 127.36 790.83 126.368 791.326 125.504C791.838 124.64 792.526 123.96 793.39 123.464C794.254 122.968 795.222 122.72 796.294 122.72C797.382 122.72 798.35 122.968 799.198 123.464C800.062 123.96 800.742 124.64 801.238 125.504C801.75 126.368 802.006 127.36 802.006 128.48C802.006 129.584 801.75 130.576 801.238 131.456C800.742 132.32 800.062 133 799.198 133.496C798.35 133.992 797.382 134.24 796.294 134.24C795.222 134.24 794.254 133.992 793.39 133.496C792.526 133 791.838 132.32 791.326 131.456C790.83 130.576 790.582 129.584 790.582 128.48ZM792.526 128.48C792.526 129.248 792.686 129.928 793.006 130.52C793.342 131.112 793.79 131.584 794.35 131.936C794.926 132.272 795.574 132.44 796.294 132.44C797.014 132.44 797.654 132.272 798.214 131.936C798.79 131.584 799.238 131.112 799.558 130.52C799.894 129.928 800.062 129.248 800.062 128.48C800.062 127.712 799.894 127.032 799.558 126.44C799.238 125.832 798.79 125.36 798.214 125.024C797.654 124.688 797.014 124.52 796.294 124.52C795.574 124.52 794.926 124.688 794.35 125.024C793.79 125.36 793.342 125.832 793.006 126.44C792.686 127.032 792.526 127.712 792.526 128.48ZM802.612 122.96H804.772L807.532 130.136L810.532 122.12L813.748 130.184L816.532 122.96H818.692L813.892 134.84L810.556 126.8L807.412 134.84L802.612 122.96ZM821.205 117.2H823.605L823.125 129.2H821.685L821.205 117.2ZM821.085 133.04C821.085 132.672 821.213 132.36 821.469 132.104C821.741 131.848 822.053 131.72 822.405 131.72C822.773 131.72 823.085 131.848 823.341 132.104C823.597 132.36 823.725 132.672 823.725 133.04C823.725 133.392 823.597 133.704 823.341 133.976C823.085 134.232 822.773 134.36 822.405 134.36C822.053 134.36 821.741 134.232 821.469 133.976C821.213 133.704 821.085 133.392 821.085 133.04Z" fill="#EE5055"/>
</svg>
