<svg width="196" height="196" viewBox="0 0 196 196" fill="none" xmlns="http://www.w3.org/2000/svg">
<g filter="url(#filter0_d)">
<rect x="5" y="4" width="182" height="182" rx="6" fill="#F7F6F6"/>
</g>
<path d="M41.2111 42.8C41.2111 44.1653 41.5098 45.3387 42.1071 46.32C42.7258 47.3013 43.5471 48.0587 44.5711 48.592C45.5951 49.104 46.7045 49.36 47.8991 49.36C49.4778 49.36 50.8005 49.0613 51.8671 48.464C52.9551 47.8667 53.8618 47.1733 54.5871 46.384V52.272C53.6911 52.9547 52.7098 53.4987 51.6431 53.904C50.5765 54.3093 49.2218 54.512 47.5791 54.512C45.1898 54.512 43.0671 54.0213 41.2111 53.04C39.3551 52.0587 37.9045 50.6933 36.8591 48.944C35.8138 47.1733 35.2911 45.1253 35.2911 42.8C35.2911 40.4747 35.8138 38.4373 36.8591 36.688C37.9045 34.9173 39.3551 33.5413 41.2111 32.56C43.0671 31.5787 45.1898 31.088 47.5791 31.088C49.2218 31.088 50.5765 31.2907 51.6431 31.696C52.7098 32.1013 53.6911 32.6453 54.5871 33.328V39.216C53.8618 38.4053 52.9551 37.712 51.8671 37.136C50.8005 36.5387 49.4778 36.24 47.8991 36.24C46.7045 36.24 45.5951 36.5067 44.5711 37.04C43.5471 37.552 42.7258 38.2987 42.1071 39.28C41.5098 40.24 41.2111 41.4133 41.2111 42.8ZM57.6334 46.64C57.6334 45.0827 57.996 43.728 58.7214 42.576C59.468 41.424 60.4707 40.528 61.7294 39.888C63.0094 39.248 64.4494 38.928 66.0494 38.928C67.6707 38.928 69.1107 39.248 70.3694 39.888C71.628 40.528 72.62 41.424 73.3454 42.576C74.092 43.728 74.4654 45.0827 74.4654 46.64C74.4654 48.176 74.092 49.52 73.3454 50.672C72.62 51.824 71.628 52.72 70.3694 53.36C69.1107 54 67.6707 54.32 66.0494 54.32C64.4494 54.32 63.0094 54 61.7294 53.36C60.4707 52.72 59.468 51.824 58.7214 50.672C57.996 49.52 57.6334 48.176 57.6334 46.64ZM62.6254 46.64C62.6254 47.7707 62.956 48.6667 63.6174 49.328C64.3 49.9893 65.1107 50.32 66.0494 50.32C66.988 50.32 67.788 49.9893 68.4494 49.328C69.132 48.6667 69.4734 47.7707 69.4734 46.64C69.4734 45.5093 69.132 44.6133 68.4494 43.952C67.788 43.2693 66.988 42.928 66.0494 42.928C65.1107 42.928 64.3 43.2693 63.6174 43.952C62.956 44.6133 62.6254 45.5093 62.6254 46.64ZM86.9091 45.04C86.9091 44.1653 86.7491 43.504 86.4291 43.056C86.1091 42.5867 85.5545 42.352 84.7651 42.352C83.9971 42.352 83.3785 42.5867 82.9091 43.056C82.4398 43.504 82.2051 44.1653 82.2051 45.04V54H77.3411V39.28H82.2051V41.488C82.6318 40.6773 83.2078 40.048 83.9331 39.6C84.6798 39.152 85.5971 38.928 86.6851 38.928C88.5198 38.928 89.8531 39.4187 90.6851 40.4C91.5385 41.3813 91.9651 42.7573 91.9651 44.528V54H86.9091V45.04ZM94.0194 39.28H96.6114V34.16H101.283V39.28H103.875V43.28H101.283V54H96.6114V43.28H94.0194V39.28ZM114.959 44.304C114.703 44.048 114.426 43.8453 114.127 43.696C113.85 43.5467 113.498 43.472 113.071 43.472C112.367 43.472 111.791 43.7493 111.343 44.304C110.916 44.8587 110.703 45.6693 110.703 46.736V54H105.935V39.28H110.703V41.136C111.172 40.4533 111.727 39.92 112.367 39.536C113.028 39.1307 113.711 38.928 114.415 38.928C114.948 38.928 115.46 39.0453 115.951 39.28C116.442 39.4933 116.815 39.7813 117.071 40.144L114.959 44.304ZM117.758 46.64C117.758 45.0827 118.121 43.728 118.846 42.576C119.593 41.424 120.596 40.528 121.854 39.888C123.134 39.248 124.574 38.928 126.174 38.928C127.796 38.928 129.236 39.248 130.494 39.888C131.753 40.528 132.745 41.424 133.47 42.576C134.217 43.728 134.59 45.0827 134.59 46.64C134.59 48.176 134.217 49.52 133.47 50.672C132.745 51.824 131.753 52.72 130.494 53.36C129.236 54 127.796 54.32 126.174 54.32C124.574 54.32 123.134 54 121.854 53.36C120.596 52.72 119.593 51.824 118.846 50.672C118.121 49.52 117.758 48.176 117.758 46.64ZM122.75 46.64C122.75 47.7707 123.081 48.6667 123.742 49.328C124.425 49.9893 125.236 50.32 126.174 50.32C127.113 50.32 127.913 49.9893 128.574 49.328C129.257 48.6667 129.598 47.7707 129.598 46.64C129.598 45.5093 129.257 44.6133 128.574 43.952C127.913 43.2693 127.113 42.928 126.174 42.928C125.236 42.928 124.425 43.2693 123.742 43.952C123.081 44.6133 122.75 45.5093 122.75 46.64ZM137.466 29.04H142.33V54H137.466V29.04ZM146.891 48.656C148.022 49.5947 148.982 50.2347 149.771 50.576C150.582 50.896 151.243 51.056 151.755 51.056C152.715 51.056 153.195 50.672 153.195 49.904C153.195 49.4347 152.971 49.0613 152.523 48.784C152.075 48.4853 151.254 48.144 150.059 47.76C149.376 47.5253 148.715 47.2267 148.075 46.864C147.435 46.5013 146.912 46.0213 146.507 45.424C146.102 44.8267 145.899 44.0587 145.899 43.12C145.899 41.776 146.422 40.752 147.467 40.048C148.512 39.3227 149.824 38.96 151.403 38.96C152.662 38.96 153.814 39.1733 154.859 39.6C155.904 40.0053 156.854 40.5173 157.707 41.136L155.979 44.304C155.382 43.728 154.678 43.248 153.867 42.864C153.078 42.48 152.352 42.288 151.691 42.288C151.264 42.288 150.934 42.3733 150.699 42.544C150.486 42.7147 150.379 42.9387 150.379 43.216C150.379 43.7067 150.667 44.0693 151.243 44.304C151.84 44.5387 152.683 44.8693 153.771 45.296C154.539 45.5733 155.243 45.8933 155.883 46.256C156.523 46.6187 157.035 47.0773 157.419 47.632C157.824 48.1867 158.027 48.9227 158.027 49.84C158.027 51.3973 157.547 52.5813 156.587 53.392C155.627 54.2027 154.262 54.608 152.491 54.608C150.891 54.608 149.472 54.352 148.235 53.84C146.998 53.3067 145.878 52.6453 144.875 51.856L146.891 48.656Z" fill="#262728"/>
<rect x="25.5" y="77.5" width="143" height="22" rx="4.5" stroke="#EE5055" stroke-width="3"/>
<path d="M157.732 93C156.962 94.3333 155.038 94.3333 154.268 93L150.804 87C150.034 85.6667 150.996 84 152.536 84L159.464 84C161.004 84 161.966 85.6667 161.196 87L157.732 93Z" fill="#EE5055"/>
<line x1="34" y1="91.5" x2="140" y2="91.5" stroke="#C4C4C4" stroke-width="3"/>
<line x1="84" y1="158.5" x2="111" y2="158.5" stroke="#C4C4C4" stroke-width="3"/>
<rect x="74.5" y="145.5" width="45" height="22" rx="4.5" stroke="#EE5055" stroke-width="3"/>
<line x1="60" y1="129.5" x2="164" y2="129.5" stroke="#C4C4C4" stroke-width="3"/>
<rect x="25.5" y="111.5" width="23" height="22" rx="4.5" stroke="#EE5055" stroke-width="3"/>
<path d="M32 123L35.5 129L42 117" stroke="#EE5055" stroke-width="3" stroke-linecap="round" stroke-linejoin="round"/>
<defs>
<filter id="filter0_d" x="0" y="0" width="196" height="196" filterUnits="userSpaceOnUse" color-interpolation-filters="sRGB">
<feFlood flood-opacity="0" result="BackgroundImageFix"/>
<feColorMatrix in="SourceAlpha" type="matrix" values="0 0 0 0 0 0 0 0 0 0 0 0 0 0 0 0 0 0 127 0" result="hardAlpha"/>
<feOffset dx="2" dy="3"/>
<feGaussianBlur stdDeviation="3.5"/>
<feComposite in2="hardAlpha" operator="out"/>
<feColorMatrix type="matrix" values="0 0 0 0 0 0 0 0 0 0 0 0 0 0 0 0 0 0 0.25 0"/>
<feBlend mode="normal" in2="BackgroundImageFix" result="effect1_dropShadow"/>
<feBlend mode="normal" in="SourceGraphic" in2="effect1_dropShadow" result="shape"/>
</filter>
</defs>
</svg>
