<svg width="266" height="260" viewBox="0 0 266 260" fill="none" xmlns="http://www.w3.org/2000/svg">
<path d="M2 231C21 253 36 261.462 58 253C80 244.538 104 163 155 159" stroke="#C4C4C4" stroke-width="3"/>
<path d="M263.7 160.11C263.7 171.61 254.4 180.91 242.8 180.91C242.6 180.91 240.9 180.91 228.4 180.91C219.7 180.91 205.8 180.91 183.6 180.91H173C159.1 181.21 148 170.11 148 156.71C148 143.21 159.2 132.01 173.3 132.71C185.4 94.9101 240.8 100.21 245.5 139.31C255.9 140.61 263.7 149.41 263.7 160.11Z" fill="#E5E5E5" stroke="#E5E5E5" stroke-width="4" stroke-miterlimit="10"/>
<path d="M245.2 139.41C244.4 139.31 243.6 139.31 242.8 139.31C238.7 139.31 234.8 140.51 231.5 142.61" fill="#E5E5E5"/>
<path d="M245.2 139.41C244.4 139.31 243.6 139.31 242.8 139.31C238.7 139.31 234.8 140.51 231.5 142.61" stroke="#E5E5E5" stroke-width="4" stroke-miterlimit="10" stroke-linecap="round"/>
<path d="M173.3 132.71C172.1 136.31 171.5 140.11 171.5 144.11C171.5 145.71 171.6 147.21 171.8 148.71" fill="#E5E5E5"/>
<path d="M173.3 132.71C172.1 136.31 171.5 140.11 171.5 144.11C171.5 145.71 171.6 147.21 171.8 148.71" stroke="#E5E5E5" stroke-width="4" stroke-miterlimit="10" stroke-linecap="round" stroke-linejoin="round"/>
<path d="M178.001 209.28C178.001 207.44 177.217 206.52 175.649 206.52C174.817 206.52 174.137 206.784 173.609 207.312C173.097 207.824 172.841 208.48 172.841 209.28V216H170.921V197.28H172.841V206.712C173.177 206.104 173.625 205.624 174.185 205.272C174.761 204.904 175.409 204.72 176.129 204.72C177.265 204.72 178.177 205.088 178.865 205.824C179.569 206.544 179.921 207.616 179.921 209.04V216H178.001V209.28ZM184.106 207.504L183.17 206.088C183.586 205.784 184.154 205.48 184.874 205.176C185.61 204.872 186.49 204.72 187.514 204.72C188.794 204.72 189.834 205.016 190.634 205.608C191.434 206.184 191.834 207.008 191.834 208.08V216H189.914V214.512C189.562 215.088 189.034 215.52 188.33 215.808C187.626 216.096 186.938 216.24 186.266 216.24C185.594 216.24 184.962 216.104 184.37 215.832C183.794 215.544 183.33 215.136 182.978 214.608C182.626 214.08 182.45 213.44 182.45 212.688C182.45 211.616 182.826 210.76 183.578 210.12C184.346 209.464 185.41 209.136 186.77 209.136C187.506 209.136 188.13 209.224 188.642 209.4C189.17 209.56 189.594 209.744 189.914 209.952V208.344C189.914 207.592 189.666 207.08 189.17 206.808C188.69 206.536 188.106 206.4 187.418 206.4C186.586 206.4 185.89 206.536 185.33 206.808C184.77 207.08 184.362 207.312 184.106 207.504ZM184.394 212.592C184.394 213.232 184.61 213.728 185.042 214.08C185.49 214.416 186.066 214.584 186.77 214.584C187.65 214.584 188.394 214.32 189.002 213.792C189.61 213.264 189.914 212.56 189.914 211.68V211.272C189.466 211.048 189.01 210.888 188.546 210.792C188.082 210.696 187.594 210.648 187.082 210.648C186.154 210.648 185.474 210.824 185.042 211.176C184.61 211.512 184.394 211.984 184.394 212.592ZM196.885 221.28H194.965V204.96H196.885V206.856C197.285 206.168 197.805 205.64 198.445 205.272C199.101 204.904 199.837 204.72 200.653 204.72C201.661 204.72 202.573 204.952 203.389 205.416C204.221 205.88 204.885 206.544 205.381 207.408C205.877 208.256 206.125 209.28 206.125 210.48C206.125 211.664 205.877 212.688 205.381 213.552C204.885 214.416 204.221 215.08 203.389 215.544C202.573 216.008 201.661 216.24 200.653 216.24C199.837 216.24 199.101 216.056 198.445 215.688C197.805 215.32 197.285 214.792 196.885 214.104V221.28ZM204.181 210.48C204.181 209.632 204.005 208.912 203.653 208.32C203.317 207.728 202.861 207.28 202.285 206.976C201.725 206.672 201.101 206.52 200.413 206.52C199.853 206.52 199.301 206.672 198.757 206.976C198.213 207.28 197.765 207.728 197.413 208.32C197.061 208.912 196.885 209.632 196.885 210.48C196.885 211.328 197.061 212.048 197.413 212.64C197.765 213.232 198.213 213.68 198.757 213.984C199.301 214.288 199.853 214.44 200.413 214.44C201.101 214.44 201.725 214.288 202.285 213.984C202.861 213.68 203.317 213.232 203.653 212.64C204.005 212.048 204.181 211.328 204.181 210.48ZM210.573 221.28H208.653V204.96H210.573V206.856C210.973 206.168 211.493 205.64 212.133 205.272C212.789 204.904 213.525 204.72 214.341 204.72C215.349 204.72 216.261 204.952 217.077 205.416C217.909 205.88 218.573 206.544 219.069 207.408C219.565 208.256 219.813 209.28 219.813 210.48C219.813 211.664 219.565 212.688 219.069 213.552C218.573 214.416 217.909 215.08 217.077 215.544C216.261 216.008 215.349 216.24 214.341 216.24C213.525 216.24 212.789 216.056 212.133 215.688C211.493 215.32 210.973 214.792 210.573 214.104V221.28ZM217.869 210.48C217.869 209.632 217.693 208.912 217.341 208.32C217.005 207.728 216.549 207.28 215.973 206.976C215.413 206.672 214.789 206.52 214.101 206.52C213.541 206.52 212.989 206.672 212.445 206.976C211.901 207.28 211.453 207.728 211.101 208.32C210.749 208.912 210.573 209.632 210.573 210.48C210.573 211.328 210.749 212.048 211.101 212.64C211.453 213.232 211.901 213.68 212.445 213.984C212.989 214.288 213.541 214.44 214.101 214.44C214.789 214.44 215.413 214.288 215.973 213.984C216.549 213.68 217.005 213.232 217.341 212.64C217.693 212.048 217.869 211.328 217.869 210.48ZM230.869 204.96L223.669 221.28H221.509L224.533 214.44L220.309 204.96H222.589L225.685 212.568L228.709 204.96H230.869ZM196.563 245.48C196.563 246.664 196.315 247.688 195.819 248.552C195.323 249.416 194.659 250.08 193.827 250.544C193.011 251.008 192.099 251.24 191.091 251.24C190.275 251.24 189.539 251.056 188.883 250.688C188.243 250.32 187.723 249.792 187.323 249.104V251H185.403V232.28H187.323V241.856C187.723 241.168 188.243 240.64 188.883 240.272C189.539 239.904 190.275 239.72 191.091 239.72C192.099 239.72 193.011 239.952 193.827 240.416C194.659 240.88 195.323 241.544 195.819 242.408C196.315 243.256 196.563 244.28 196.563 245.48ZM194.619 245.48C194.619 244.632 194.443 243.912 194.091 243.32C193.755 242.728 193.299 242.28 192.723 241.976C192.163 241.672 191.539 241.52 190.851 241.52C190.291 241.52 189.739 241.672 189.195 241.976C188.651 242.28 188.203 242.728 187.851 243.32C187.499 243.912 187.323 244.632 187.323 245.48C187.323 246.328 187.499 247.048 187.851 247.64C188.203 248.232 188.651 248.68 189.195 248.984C189.739 249.288 190.291 249.44 190.851 249.44C191.539 249.44 192.163 249.288 192.723 248.984C193.299 248.68 193.755 248.232 194.091 247.64C194.443 247.048 194.619 246.328 194.619 245.48ZM198.25 245.48C198.25 244.36 198.498 243.368 198.994 242.504C199.506 241.64 200.194 240.96 201.058 240.464C201.922 239.968 202.89 239.72 203.962 239.72C205.05 239.72 206.018 239.968 206.866 240.464C207.73 240.96 208.41 241.64 208.906 242.504C209.418 243.368 209.674 244.36 209.674 245.48C209.674 246.584 209.418 247.576 208.906 248.456C208.41 249.32 207.73 250 206.866 250.496C206.018 250.992 205.05 251.24 203.962 251.24C202.89 251.24 201.922 250.992 201.058 250.496C200.194 250 199.506 249.32 198.994 248.456C198.498 247.576 198.25 246.584 198.25 245.48ZM200.194 245.48C200.194 246.248 200.354 246.928 200.674 247.52C201.01 248.112 201.458 248.584 202.018 248.936C202.594 249.272 203.242 249.44 203.962 249.44C204.682 249.44 205.322 249.272 205.882 248.936C206.458 248.584 206.906 248.112 207.226 247.52C207.562 246.928 207.73 246.248 207.73 245.48C207.73 244.712 207.562 244.032 207.226 243.44C206.906 242.832 206.458 242.36 205.882 242.024C205.322 241.688 204.682 241.52 203.962 241.52C203.242 241.52 202.594 241.688 202.018 242.024C201.458 242.36 201.01 242.832 200.674 243.44C200.354 244.032 200.194 244.712 200.194 245.48ZM210.632 239.96H212.432V236.12H214.352V239.96H216.152V241.76H214.352V251H212.432V241.76H210.632V239.96Z" fill="#262728"/>
<path d="M209.564 148.06C208 148.06 206.732 146.793 206.732 145.229C206.732 143.665 208 142.398 209.564 142.398C211.127 142.398 212.395 143.665 212.395 145.229C212.395 146.793 211.127 148.06 209.564 148.06Z" fill="#EE5055"/>
<path d="M200.353 148.06C198.789 148.06 197.522 146.793 197.522 145.229C197.522 143.665 198.789 142.398 200.353 142.398C201.916 142.398 203.184 143.665 203.184 145.229C203.184 146.793 201.916 148.06 200.353 148.06Z" fill="#EE5055"/>
<path d="M208.296 129C196.334 129 186.495 137.989 185.079 149.598C184.449 151.823 187.737 155.318 189.185 152.358C189.185 141.599 198.174 132.822 209.074 133.247C219.409 133.672 227.407 142.449 227.407 152.854V159.507C227.407 160.781 228.61 161.843 229.955 161.56C230.946 161.347 231.654 160.427 231.654 159.365L231.512 149.598C230.097 137.989 220.258 129 208.296 129Z" fill="#444B54"/>
<path d="M203.992 164.646C209.443 164.646 213.902 160.187 213.902 154.737C213.902 153.533 212.982 152.613 211.778 152.613H196.206C195.003 152.613 194.083 153.533 194.083 154.737C194.083 160.187 198.542 164.646 203.992 164.646Z" fill="#444B54"/>
<path d="M197.905 162.523C199.108 160.399 201.444 158.984 203.992 158.984C206.54 158.984 208.876 160.399 210.08 162.523C208.381 163.867 206.257 164.646 203.992 164.646C201.727 164.646 199.533 163.867 197.905 162.523Z" fill="#EE5055"/>
<path d="M151.286 25.5605L155.654 13.2005H157.934L151.334 30.8405L146.294 17.7845L141.254 30.8405L134.654 13.2005H136.934L141.398 25.5605L146.294 12.3605L151.286 25.5605ZM162.33 30.2405C161.306 30.2405 160.394 30.0005 159.594 29.5205C158.81 29.0245 158.194 28.3445 157.746 27.4805C157.314 26.6165 157.098 25.6165 157.098 24.4805C157.098 23.3285 157.322 22.3205 157.77 21.4565C158.234 20.5925 158.874 19.9205 159.69 19.4405C160.522 18.9605 161.482 18.7205 162.57 18.7205C164.186 18.7205 165.458 19.2245 166.386 20.2325C167.314 21.2405 167.778 22.6245 167.778 24.3845C167.778 24.4965 167.77 24.6165 167.754 24.7445C167.754 24.8565 167.754 24.9285 167.754 24.9605H159.066C159.146 26.0645 159.49 26.9205 160.098 27.5285C160.706 28.1365 161.53 28.4405 162.57 28.4405C164.074 28.4405 165.226 27.7765 166.026 26.4485L167.586 27.4325C166.434 29.3045 164.682 30.2405 162.33 30.2405ZM162.57 20.4005C161.626 20.4005 160.858 20.6565 160.266 21.1685C159.674 21.6645 159.298 22.3845 159.138 23.3285H165.69C165.626 22.4485 165.306 21.7445 164.73 21.2165C164.17 20.6725 163.45 20.4005 162.57 20.4005ZM178.181 21.5045L177.245 20.0885C177.661 19.7845 178.229 19.4805 178.949 19.1765C179.685 18.8725 180.565 18.7205 181.589 18.7205C182.869 18.7205 183.909 19.0165 184.709 19.6085C185.509 20.1845 185.909 21.0085 185.909 22.0805V30.0005H183.989V28.5125C183.637 29.0885 183.109 29.5205 182.405 29.8085C181.701 30.0965 181.013 30.2405 180.341 30.2405C179.669 30.2405 179.037 30.1045 178.445 29.8325C177.869 29.5445 177.405 29.1365 177.053 28.6085C176.701 28.0805 176.525 27.4405 176.525 26.6885C176.525 25.6165 176.901 24.7605 177.653 24.1205C178.421 23.4645 179.485 23.1365 180.845 23.1365C181.581 23.1365 182.205 23.2245 182.717 23.4005C183.245 23.5605 183.669 23.7445 183.989 23.9525V22.3445C183.989 21.5925 183.741 21.0805 183.245 20.8085C182.765 20.5365 182.181 20.4005 181.493 20.4005C180.661 20.4005 179.965 20.5365 179.405 20.8085C178.845 21.0805 178.437 21.3125 178.181 21.5045ZM178.469 26.5925C178.469 27.2325 178.685 27.7285 179.117 28.0805C179.565 28.4165 180.141 28.5845 180.845 28.5845C181.725 28.5845 182.469 28.3205 183.077 27.7925C183.685 27.2645 183.989 26.5605 183.989 25.6805V25.2725C183.541 25.0485 183.085 24.8885 182.621 24.7925C182.157 24.6965 181.669 24.6485 181.157 24.6485C180.229 24.6485 179.549 24.8245 179.117 25.1765C178.685 25.5125 178.469 25.9845 178.469 26.5925ZM194.415 21.0725C194.159 20.8805 193.927 20.7445 193.719 20.6645C193.511 20.5685 193.247 20.5205 192.927 20.5205C192.207 20.5205 191.719 20.7845 191.463 21.3125C191.207 21.8245 191.079 22.4805 191.079 23.2805V30.0005H189.159V18.9605H191.079V20.2325C191.383 19.7685 191.743 19.4005 192.159 19.1285C192.575 18.8565 192.991 18.7205 193.407 18.7205C193.807 18.7205 194.175 18.7765 194.511 18.8885C194.863 18.9845 195.183 19.1845 195.471 19.4885L194.415 21.0725ZM201.306 30.2405C200.282 30.2405 199.37 30.0005 198.57 29.5205C197.786 29.0245 197.17 28.3445 196.722 27.4805C196.29 26.6165 196.074 25.6165 196.074 24.4805C196.074 23.3285 196.298 22.3205 196.746 21.4565C197.21 20.5925 197.85 19.9205 198.666 19.4405C199.498 18.9605 200.458 18.7205 201.546 18.7205C203.162 18.7205 204.434 19.2245 205.362 20.2325C206.29 21.2405 206.754 22.6245 206.754 24.3845C206.754 24.4965 206.746 24.6165 206.73 24.7445C206.73 24.8565 206.73 24.9285 206.73 24.9605H198.042C198.122 26.0645 198.466 26.9205 199.074 27.5285C199.682 28.1365 200.506 28.4405 201.546 28.4405C203.05 28.4405 204.202 27.7765 205.002 26.4485L206.562 27.4325C205.41 29.3045 203.658 30.2405 201.306 30.2405ZM201.546 20.4005C200.602 20.4005 199.834 20.6565 199.242 21.1685C198.65 21.6645 198.274 22.3845 198.114 23.3285H204.666C204.602 22.4485 204.282 21.7445 203.706 21.2165C203.146 20.6725 202.426 20.4005 201.546 20.4005ZM109.101 53.9605H110.181V49.8805C110.181 48.5685 110.461 47.6005 111.021 46.9765C111.581 46.3525 112.365 46.0405 113.373 46.0405C113.885 46.0405 114.317 46.1445 114.669 46.3525C115.037 46.5445 115.309 46.7605 115.485 47.0005L114.429 48.5845C114.269 48.3125 114.077 48.1445 113.853 48.0805C113.645 48.0005 113.445 47.9605 113.253 47.9605C112.901 47.9605 112.621 48.1205 112.413 48.4405C112.205 48.7605 112.101 49.3205 112.101 50.1205V53.9605H114.621V55.7605H112.101V65.0005H110.181V55.7605H109.101V53.9605ZM122.064 56.0725C121.808 55.8805 121.576 55.7445 121.368 55.6645C121.16 55.5685 120.896 55.5205 120.576 55.5205C119.856 55.5205 119.368 55.7845 119.112 56.3125C118.856 56.8245 118.728 57.4805 118.728 58.2805V65.0005H116.808V53.9605H118.728V55.2325C119.032 54.7685 119.392 54.4005 119.808 54.1285C120.224 53.8565 120.64 53.7205 121.056 53.7205C121.456 53.7205 121.824 53.7765 122.16 53.8885C122.512 53.9845 122.832 54.1845 123.12 54.4885L122.064 56.0725ZM125.034 49.4005C125.034 49.0325 125.162 48.7205 125.418 48.4645C125.69 48.2085 126.002 48.0805 126.354 48.0805C126.722 48.0805 127.034 48.2085 127.29 48.4645C127.546 48.7205 127.674 49.0325 127.674 49.4005C127.674 49.7525 127.546 50.0645 127.29 50.3365C127.034 50.5925 126.722 50.7205 126.354 50.7205C126.002 50.7205 125.69 50.5925 125.418 50.3365C125.162 50.0645 125.034 49.7525 125.034 49.4005ZM125.394 53.9605H127.314V65.0005H125.394V53.9605ZM135.541 65.2405C134.517 65.2405 133.605 65.0005 132.805 64.5205C132.021 64.0245 131.405 63.3445 130.957 62.4805C130.525 61.6165 130.309 60.6165 130.309 59.4805C130.309 58.3285 130.533 57.3205 130.981 56.4565C131.445 55.5925 132.085 54.9205 132.901 54.4405C133.733 53.9605 134.693 53.7205 135.781 53.7205C137.397 53.7205 138.669 54.2245 139.597 55.2325C140.525 56.2405 140.989 57.6245 140.989 59.3845C140.989 59.4965 140.981 59.6165 140.965 59.7445C140.965 59.8565 140.965 59.9285 140.965 59.9605H132.277C132.357 61.0645 132.701 61.9205 133.309 62.5285C133.917 63.1365 134.741 63.4405 135.781 63.4405C137.285 63.4405 138.437 62.7765 139.237 61.4485L140.797 62.4325C139.645 64.3045 137.893 65.2405 135.541 65.2405ZM135.781 55.4005C134.837 55.4005 134.069 55.6565 133.477 56.1685C132.885 56.6645 132.509 57.3845 132.349 58.3285H138.901C138.837 57.4485 138.517 56.7445 137.941 56.2165C137.381 55.6725 136.661 55.4005 135.781 55.4005ZM150.7 58.2805C150.7 56.4405 149.916 55.5205 148.348 55.5205C147.516 55.5205 146.836 55.7765 146.308 56.2885C145.796 56.8005 145.54 57.4645 145.54 58.2805V65.0005H143.62V53.9605H145.54V55.6885C146.26 54.3765 147.356 53.7205 148.828 53.7205C149.996 53.7205 150.916 54.1125 151.588 54.8965C152.276 55.6645 152.62 56.7125 152.62 58.0405V65.0005H150.7V58.2805ZM155.27 59.4805C155.27 58.2805 155.518 57.2565 156.014 56.4085C156.51 55.5445 157.174 54.8805 158.006 54.4165C158.838 53.9525 159.75 53.7205 160.742 53.7205C161.558 53.7205 162.286 53.9045 162.926 54.2725C163.582 54.6405 164.11 55.1685 164.51 55.8565V46.2805H166.43V65.0005H164.51V63.1045C164.11 63.7925 163.582 64.3205 162.926 64.6885C162.286 65.0565 161.558 65.2405 160.742 65.2405C159.75 65.2405 158.838 65.0085 158.006 64.5445C157.174 64.0805 156.51 63.4165 156.014 62.5525C155.518 61.6885 155.27 60.6645 155.27 59.4805ZM157.214 59.4805C157.214 60.3285 157.382 61.0485 157.718 61.6405C158.07 62.2325 158.534 62.6805 159.11 62.9845C159.686 63.2885 160.31 63.4405 160.982 63.4405C161.542 63.4405 162.094 63.2885 162.638 62.9845C163.182 62.6805 163.63 62.2325 163.982 61.6405C164.334 61.0485 164.51 60.3285 164.51 59.4805C164.51 58.6325 164.334 57.9125 163.982 57.3205C163.63 56.7285 163.182 56.2805 162.638 55.9765C162.094 55.6725 161.542 55.5205 160.982 55.5205C160.31 55.5205 159.686 55.6725 159.11 55.9765C158.534 56.2805 158.07 56.7285 157.718 57.3205C157.382 57.9125 157.214 58.6325 157.214 59.4805ZM170.373 61.6165C170.709 62.1285 171.117 62.5685 171.597 62.9365C172.093 63.3045 172.685 63.4885 173.373 63.4885C173.917 63.4885 174.341 63.3685 174.645 63.1285C174.965 62.8725 175.125 62.5285 175.125 62.0965C175.125 61.7125 174.997 61.3925 174.741 61.1365C174.501 60.8645 174.189 60.6405 173.805 60.4645C173.421 60.2725 173.013 60.0965 172.581 59.9365C172.101 59.7445 171.613 59.5205 171.117 59.2645C170.637 58.9925 170.229 58.6485 169.893 58.2325C169.573 57.8005 169.413 57.2645 169.413 56.6245C169.413 55.9685 169.581 55.4245 169.917 54.9925C170.269 54.5605 170.717 54.2405 171.261 54.0325C171.821 53.8245 172.397 53.7205 172.989 53.7205C173.869 53.7205 174.669 53.9285 175.389 54.3445C176.109 54.7605 176.637 55.2725 176.973 55.8805L175.437 56.8645C175.133 56.4485 174.749 56.1045 174.285 55.8325C173.837 55.5605 173.325 55.4245 172.749 55.4245C172.349 55.4245 172.005 55.5125 171.717 55.6885C171.429 55.8645 171.285 56.1365 171.285 56.5045C171.285 56.9525 171.517 57.3205 171.981 57.6085C172.461 57.8805 172.997 58.1365 173.589 58.3765C174.229 58.6325 174.813 58.9125 175.341 59.2165C175.869 59.5045 176.285 59.8565 176.589 60.2725C176.909 60.6885 177.069 61.2245 177.069 61.8805C177.069 62.8405 176.717 63.6405 176.013 64.2805C175.325 64.9205 174.413 65.2405 173.277 65.2405C172.541 65.2405 171.877 65.1125 171.285 64.8565C170.693 64.5845 170.189 64.2405 169.773 63.8245C169.373 63.4085 169.069 62.9845 168.861 62.5525L170.373 61.6165ZM193.872 58.2805C193.872 56.4405 193.088 55.5205 191.52 55.5205C190.688 55.5205 190.008 55.7765 189.48 56.2885C188.968 56.8005 188.712 57.4645 188.712 58.2805V65.0005H186.792V53.9605H188.712V55.6885C189.432 54.3765 190.528 53.7205 192 53.7205C193.168 53.7205 194.088 54.1125 194.76 54.8965C195.448 55.6645 195.792 56.7125 195.792 58.0405V65.0005H193.872V58.2805ZM198.442 59.4805C198.442 58.3605 198.69 57.3685 199.186 56.5045C199.698 55.6405 200.386 54.9605 201.25 54.4645C202.114 53.9685 203.082 53.7205 204.154 53.7205C205.242 53.7205 206.21 53.9685 207.058 54.4645C207.922 54.9605 208.602 55.6405 209.098 56.5045C209.61 57.3685 209.866 58.3605 209.866 59.4805C209.866 60.5845 209.61 61.5765 209.098 62.4565C208.602 63.3205 207.922 64.0005 207.058 64.4965C206.21 64.9925 205.242 65.2405 204.154 65.2405C203.082 65.2405 202.114 64.9925 201.25 64.4965C200.386 64.0005 199.698 63.3205 199.186 62.4565C198.69 61.5765 198.442 60.5845 198.442 59.4805ZM200.386 59.4805C200.386 60.2485 200.546 60.9285 200.866 61.5205C201.202 62.1125 201.65 62.5845 202.21 62.9365C202.786 63.2725 203.434 63.4405 204.154 63.4405C204.874 63.4405 205.514 63.2725 206.074 62.9365C206.65 62.5845 207.098 62.1125 207.418 61.5205C207.754 60.9285 207.922 60.2485 207.922 59.4805C207.922 58.7125 207.754 58.0325 207.418 57.4405C207.098 56.8325 206.65 56.3605 206.074 56.0245C205.514 55.6885 204.874 55.5205 204.154 55.5205C203.434 55.5205 202.786 55.6885 202.21 56.0245C201.65 56.3605 201.202 56.8325 200.866 57.4405C200.546 58.0325 200.386 58.7125 200.386 59.4805ZM210.472 53.9605H212.632L215.392 61.1365L218.392 53.1205L221.608 61.1845L224.392 53.9605H226.552L221.752 65.8405L218.416 57.8005L215.272 65.8405L210.472 53.9605ZM229.064 48.2005H231.464L230.984 60.2005H229.544L229.064 48.2005ZM228.944 64.0405C228.944 63.6725 229.072 63.3605 229.328 63.1045C229.6 62.8485 229.912 62.7205 230.264 62.7205C230.632 62.7205 230.944 62.8485 231.2 63.1045C231.456 63.3605 231.584 63.6725 231.584 64.0405C231.584 64.3925 231.456 64.7045 231.2 64.9765C230.944 65.2325 230.632 65.3605 230.264 65.3605C229.912 65.3605 229.6 65.2325 229.328 64.9765C229.072 64.7045 228.944 64.3925 228.944 64.0405Z" fill="#262728"/>
<path d="M170.117 120.408L148.617 99.9083C139.617 94.9083 118.117 81.8083 104.117 69.4082C86.6168 53.9082 88.4575 26.9539 98.9575 13.9539C109.458 0.953857 173.958 1.45386 199.458 2.45386C224.958 3.45386 240.298 16.9999 246.798 27.4999C253.298 37.9999 246.617 71.9083 223.617 84.9083C205.217 95.3083 174.283 99.2416 161.117 99.9083L170.117 120.408Z" stroke="#C4C4C4" stroke-width="4" stroke-linecap="round" stroke-dasharray="8 8"/>
</svg>
