<svg width="23" height="23" viewBox="0 0 23 23" fill="none" xmlns="http://www.w3.org/2000/svg">
<path d="M10.5815 2.13274C10.9286 1.32678 12.0714 1.32678 12.4185 2.13274L14.3745 6.67494C14.5193 7.01111 14.8362 7.24133 15.2006 7.27514L20.125 7.73186C20.9987 7.8129 21.3519 8.89971 20.6926 9.47886L16.9772 12.7428C16.7022 12.9844 16.5812 13.3569 16.6616 13.714L17.749 18.5384C17.9419 19.3945 17.0174 20.0662 16.2629 19.6181L12.0106 17.0932C11.6958 16.9063 11.3042 16.9063 10.9894 17.0932L6.73711 19.6181C5.98258 20.0662 5.05808 19.3945 5.25102 18.5384L6.33836 13.714C6.41883 13.3569 6.2978 12.9844 6.02282 12.7428L2.30739 9.47886C1.64813 8.89971 2.00125 7.8129 2.87503 7.73186L7.79937 7.27514C8.16383 7.24133 8.4807 7.01111 8.62547 6.67494L10.5815 2.13274Z" fill="#EE5055"/>
</svg>
