<svg width="1060" height="571" viewBox="0 0 1060 571" fill="none" xmlns="http://www.w3.org/2000/svg">
<rect x="451" y="179" width="151" height="138" rx="12" fill="#FFD600" stroke="#444B54" stroke-width="6"/>
<path d="M475.927 259.6H481.335V274.256C481.335 275.387 481.633 276.304 482.231 277.008C482.828 277.712 483.724 278.064 484.919 278.064C486.113 278.064 487.009 277.712 487.607 277.008C488.225 276.304 488.535 275.387 488.535 274.256V259.6H493.943V274.64C493.943 276.517 493.537 278.075 492.727 279.312C491.937 280.528 490.86 281.435 489.495 282.032C488.129 282.629 486.604 282.928 484.919 282.928C483.233 282.928 481.708 282.629 480.343 282.032C478.999 281.435 477.921 280.528 477.111 279.312C476.321 278.075 475.927 276.517 475.927 274.64V259.6ZM498.524 259.6H504.028V282H498.524V259.6ZM518.368 259.6H523.776V267.76H533.408V259.6H538.816V282H533.408V272.624H523.776V282H518.368V259.6ZM548.132 276.24C548.132 277.093 548.282 277.755 548.58 278.224C548.9 278.693 549.455 278.928 550.244 278.928C551.012 278.928 551.631 278.693 552.1 278.224C552.57 277.755 552.804 277.093 552.804 276.24V267.28H557.668V282H552.804V279.792C552.378 280.581 551.791 281.211 551.044 281.68C550.319 282.128 549.412 282.352 548.324 282.352C546.511 282.352 545.178 281.861 544.324 280.88C543.471 279.877 543.044 278.501 543.044 276.752V267.28H548.132V276.24ZM578.283 274.64C578.283 276.283 577.941 277.68 577.259 278.832C576.597 279.984 575.733 280.859 574.667 281.456C573.6 282.032 572.469 282.32 571.275 282.32C569.099 282.32 567.424 281.435 566.251 279.664V282H561.419V257.04H566.251V269.616C567.424 267.845 569.099 266.96 571.275 266.96C572.469 266.96 573.6 267.259 574.667 267.856C575.733 268.432 576.597 269.296 577.259 270.448C577.941 271.579 578.283 272.976 578.283 274.64ZM573.195 274.64C573.195 273.488 572.843 272.571 572.139 271.888C571.456 271.205 570.635 270.864 569.675 270.864C569.141 270.864 568.608 271.013 568.075 271.312C567.541 271.611 567.104 272.037 566.763 272.592C566.421 273.147 566.251 273.829 566.251 274.64C566.251 275.429 566.421 276.112 566.763 276.688C567.104 277.243 567.541 277.669 568.075 277.968C568.608 278.267 569.141 278.416 569.675 278.416C570.635 278.416 571.456 278.075 572.139 277.392C572.843 276.709 573.195 275.792 573.195 274.64Z" fill="black"/>
<path d="M524.903 215.812C524.903 215.199 525.394 214.703 526 214.703H530.661C531.267 214.703 531.758 215.199 531.758 215.812V231.891C531.758 232.504 531.267 233 530.661 233H526C525.394 233 524.903 232.504 524.903 231.891V215.812Z" fill="black"/>
<path d="M524.903 206.109C524.903 205.496 525.394 205 526 205H530.661C531.267 205 531.758 205.496 531.758 206.109V210.822C531.758 211.434 531.267 211.931 530.661 211.931H526C525.394 211.931 524.903 211.434 524.903 210.822V206.109Z" fill="black"/>
<path d="M536.145 227.178C536.145 226.566 536.636 226.069 537.242 226.069H541.903C542.509 226.069 543 226.566 543 227.178V231.891C543 232.504 542.509 233 541.903 233H537.242C536.636 233 536.145 232.504 536.145 231.891V227.178Z" fill="black"/>
<path d="M536.145 206.109C536.145 205.496 536.636 205 537.242 205H541.903C542.509 205 543 205.496 543 206.109V222.188C543 222.801 542.509 223.297 541.903 223.297H537.242C536.636 223.297 536.145 222.801 536.145 222.188V206.109Z" fill="black"/>
<path d="M509 223.047C509 223.253 509.057 223.455 509.165 223.631L514.553 232.42C514.753 232.746 515.105 232.945 515.485 232.945H520.643C521.527 232.945 522.048 231.942 521.546 231.206L516.341 223.573C515.937 222.979 516.195 222.163 516.821 221.818C518.017 221.159 518.96 220.291 519.652 219.212C520.599 217.748 521.073 216.058 521.073 214.142C521.073 211.454 520.152 209.258 518.309 207.555C516.493 205.852 513.821 205 510.294 205H510.114C509.51 205 509.02 205.494 509.018 206.105L509 210.719C509 210.737 509.014 210.752 509.033 210.753C510.374 210.794 512.268 211.112 512.979 211.707C513.742 212.319 514.124 213.21 514.124 214.381C514.124 215.526 513.742 216.417 512.979 217.056C512.438 217.509 511.211 217.801 510.065 217.933C509.474 218.001 509 218.489 509 219.09V223.047Z" fill="black"/>
<rect x="748" y="27" width="139" height="62" rx="12" fill="#FFD600" stroke="#444B54" stroke-width="6"/>
<path d="M777.758 55.3366C777.758 54.9211 778.09 54.5842 778.5 54.5842H781.653C782.063 54.5842 782.395 54.9211 782.395 55.3366V66.2475C782.395 66.6631 782.063 67 781.653 67H778.5C778.09 67 777.758 66.6631 777.758 66.2475V55.3366Z" fill="black"/>
<path d="M777.758 48.7525C777.758 48.3369 778.09 48 778.5 48H781.653C782.063 48 782.395 48.3369 782.395 48.7525V51.9505C782.395 52.3661 782.063 52.703 781.653 52.703H778.5C778.09 52.703 777.758 52.3661 777.758 51.9505V48.7525Z" fill="black"/>
<path d="M785.363 63.0495C785.363 62.6339 785.695 62.297 786.105 62.297H789.258C789.668 62.297 790 62.6339 790 63.0495V66.2475C790 66.6631 789.668 67 789.258 67H786.105C785.695 67 785.363 66.6631 785.363 66.2475V63.0495Z" fill="black"/>
<path d="M785.363 48.7525C785.363 48.3369 785.695 48 786.105 48H789.258C789.668 48 790 48.3369 790 48.7525V59.6634C790 60.0789 789.668 60.4158 789.258 60.4158H786.105C785.695 60.4158 785.363 60.0789 785.363 59.6634V48.7525Z" fill="black"/>
<path d="M767 60.2459C767 60.386 767.039 60.5233 767.111 60.6424L770.756 66.6063C770.891 66.8277 771.13 66.9624 771.387 66.9624H774.876C775.474 66.9624 775.827 66.282 775.487 65.7828L771.966 60.6029C771.693 60.2003 771.867 59.6465 772.29 59.4125C773.099 58.9654 773.738 58.3758 774.206 57.6437C774.847 56.6505 775.167 55.5037 775.167 54.2034C775.167 52.3794 774.544 50.8895 773.298 49.7337C772.069 48.5779 770.262 48 767.875 48H767.754C767.345 48 767.014 48.3351 767.012 48.7496L767 51.8806C767 51.8932 767.01 51.9035 767.022 51.9039C767.929 51.9314 769.211 52.1471 769.692 52.551C770.208 52.9663 770.466 53.5713 770.466 54.3659C770.466 55.1425 770.208 55.7475 769.692 56.1809C769.326 56.4883 768.496 56.6867 767.72 56.7761C767.321 56.8221 767 57.1535 767 57.5613V60.2459Z" fill="black"/>
<rect x="809" y="27" width="139" height="62" rx="12" fill="white" stroke="#444B54" stroke-width="6"/>
<path d="M873.256 62.44C873.256 63.912 872.915 65.1387 872.232 66.12C871.571 67.08 870.664 67.8053 869.512 68.296C868.381 68.7653 867.091 69 865.64 69H859.56V46.6H865.32C867.325 46.6 868.936 47.0587 870.152 47.976C871.368 48.8933 871.976 50.3013 871.976 52.2C871.976 53.352 871.645 54.3227 870.984 55.112C870.323 55.88 869.416 56.4347 868.264 56.776C869.736 57.0747 870.931 57.6933 871.848 58.632C872.787 59.5493 873.256 60.8187 873.256 62.44ZM865.32 49H862.28V55.656H865.32C866.451 55.656 867.389 55.368 868.136 54.792C868.883 54.216 869.256 53.4053 869.256 52.36C869.256 51.2933 868.883 50.472 868.136 49.896C867.389 49.2987 866.451 49 865.32 49ZM862.28 66.6H865.64C867.091 66.6 868.264 66.2267 869.16 65.48C870.077 64.712 870.536 63.6453 870.536 62.28C870.536 60.8933 870.077 59.8373 869.16 59.112C868.264 58.3867 867.091 58.024 865.64 58.024H862.28V66.6ZM875.964 61.64C875.964 60.1467 876.294 58.824 876.956 57.672C877.638 56.52 878.556 55.6133 879.708 54.952C880.86 54.2907 882.15 53.96 883.58 53.96C885.03 53.96 886.321 54.2907 887.452 54.952C888.604 55.6133 889.51 56.52 890.172 57.672C890.854 58.824 891.196 60.1467 891.196 61.64C891.196 63.112 890.854 64.4347 890.172 65.608C889.51 66.76 888.604 67.6667 887.452 68.328C886.321 68.9893 885.03 69.32 883.58 69.32C882.15 69.32 880.86 68.9893 879.708 68.328C878.556 67.6667 877.638 66.76 876.956 65.608C876.294 64.4347 875.964 63.112 875.964 61.64ZM878.556 61.64C878.556 62.664 878.769 63.5707 879.196 64.36C879.644 65.1493 880.241 65.7787 880.988 66.248C881.756 66.696 882.62 66.92 883.58 66.92C884.54 66.92 885.393 66.696 886.14 66.248C886.908 65.7787 887.505 65.1493 887.932 64.36C888.38 63.5707 888.604 62.664 888.604 61.64C888.604 60.616 888.38 59.7093 887.932 58.92C887.505 58.1093 886.908 57.48 886.14 57.032C885.393 56.584 884.54 56.36 883.58 56.36C882.62 56.36 881.756 56.584 880.988 57.032C880.241 57.48 879.644 58.1093 879.196 58.92C878.769 59.7093 878.556 60.616 878.556 61.64ZM892.473 54.28H894.873V49.16H897.433V54.28H899.833V56.68H897.433V69H894.873V56.68H892.473V54.28Z" fill="black"/>
<rect x="748" y="122" width="139" height="62" rx="12" fill="#FFD600" stroke="#444B54" stroke-width="6"/>
<path d="M777.758 150.337C777.758 149.921 778.09 149.584 778.5 149.584H781.653C782.063 149.584 782.395 149.921 782.395 150.337V161.248C782.395 161.663 782.063 162 781.653 162H778.5C778.09 162 777.758 161.663 777.758 161.248V150.337Z" fill="black"/>
<path d="M777.758 143.752C777.758 143.337 778.09 143 778.5 143H781.653C782.063 143 782.395 143.337 782.395 143.752V146.95C782.395 147.366 782.063 147.703 781.653 147.703H778.5C778.09 147.703 777.758 147.366 777.758 146.95V143.752Z" fill="black"/>
<path d="M785.363 158.05C785.363 157.634 785.695 157.297 786.105 157.297H789.258C789.668 157.297 790 157.634 790 158.05V161.248C790 161.663 789.668 162 789.258 162H786.105C785.695 162 785.363 161.663 785.363 161.248V158.05Z" fill="black"/>
<path d="M785.363 143.752C785.363 143.337 785.695 143 786.105 143H789.258C789.668 143 790 143.337 790 143.752V154.663C790 155.079 789.668 155.416 789.258 155.416H786.105C785.695 155.416 785.363 155.079 785.363 154.663V143.752Z" fill="black"/>
<path d="M767 155.246C767 155.386 767.039 155.523 767.111 155.642L770.756 161.606C770.891 161.828 771.13 161.962 771.387 161.962H774.876C775.474 161.962 775.827 161.282 775.487 160.783L771.966 155.603C771.693 155.2 771.867 154.646 772.29 154.412C773.099 153.965 773.738 153.376 774.206 152.644C774.847 151.65 775.167 150.504 775.167 149.203C775.167 147.379 774.544 145.89 773.298 144.734C772.069 143.578 770.262 143 767.875 143H767.754C767.345 143 767.014 143.335 767.012 143.75L767 146.881C767 146.893 767.01 146.903 767.022 146.904C767.929 146.931 769.211 147.147 769.692 147.551C770.208 147.966 770.466 148.571 770.466 149.366C770.466 150.142 770.208 150.747 769.692 151.181C769.326 151.488 768.496 151.687 767.72 151.776C767.321 151.822 767 152.154 767 152.561V155.246Z" fill="black"/>
<rect x="809" y="122" width="226" height="62" rx="12" fill="white" stroke="#444B54" stroke-width="6"/>
<path d="M841.195 148.864L839.531 164H836.811L839.531 140.48L848.491 156.704L857.451 140.48L860.171 164H857.451L855.787 148.864L848.491 161.92L841.195 148.864ZM863.838 143.2C863.838 142.709 864.008 142.293 864.35 141.952C864.712 141.611 865.128 141.44 865.598 141.44C866.088 141.44 866.504 141.611 866.846 141.952C867.187 142.293 867.358 142.709 867.358 143.2C867.358 143.669 867.187 144.085 866.846 144.448C866.504 144.789 866.088 144.96 865.598 144.96C865.128 144.96 864.712 144.789 864.35 144.448C864.008 144.085 863.838 143.669 863.838 143.2ZM864.318 149.28H866.878V164H864.318V149.28ZM873.302 156.64C873.302 157.664 873.515 158.571 873.942 159.36C874.39 160.149 874.987 160.779 875.734 161.248C876.502 161.696 877.366 161.92 878.326 161.92C879.521 161.92 880.587 161.653 881.526 161.12C882.465 160.587 883.105 159.957 883.446 159.232V162.432C882.934 163.029 882.198 163.499 881.238 163.84C880.299 164.16 879.329 164.32 878.326 164.32C876.897 164.32 875.606 163.989 874.454 163.328C873.302 162.667 872.385 161.76 871.702 160.608C871.041 159.435 870.71 158.112 870.71 156.64C870.71 155.147 871.041 153.824 871.702 152.672C872.385 151.52 873.302 150.613 874.454 149.952C875.606 149.291 876.897 148.96 878.326 148.96C879.329 148.96 880.299 149.131 881.238 149.472C882.198 149.792 882.934 150.251 883.446 150.848V154.048C883.105 153.323 882.465 152.693 881.526 152.16C880.587 151.627 879.521 151.36 878.326 151.36C877.366 151.36 876.502 151.584 875.734 152.032C874.987 152.48 874.39 153.109 873.942 153.92C873.515 154.709 873.302 155.616 873.302 156.64ZM894.439 152.096C894.098 151.84 893.789 151.659 893.511 151.552C893.234 151.424 892.882 151.36 892.455 151.36C891.495 151.36 890.845 151.712 890.503 152.416C890.162 153.099 889.991 153.973 889.991 155.04V164H887.431V149.28H889.991V150.976C890.397 150.357 890.877 149.867 891.431 149.504C891.986 149.141 892.541 148.96 893.095 148.96C893.629 148.96 894.119 149.035 894.567 149.184C895.037 149.312 895.463 149.579 895.847 149.984L894.439 152.096ZM896.651 156.64C896.651 155.147 896.982 153.824 897.643 152.672C898.326 151.52 899.243 150.613 900.395 149.952C901.547 149.291 902.838 148.96 904.267 148.96C905.718 148.96 907.009 149.291 908.139 149.952C909.291 150.613 910.198 151.52 910.859 152.672C911.542 153.824 911.883 155.147 911.883 156.64C911.883 158.112 911.542 159.435 910.859 160.608C910.198 161.76 909.291 162.667 908.139 163.328C907.009 163.989 905.718 164.32 904.267 164.32C902.838 164.32 901.547 163.989 900.395 163.328C899.243 162.667 898.326 161.76 897.643 160.608C896.982 159.435 896.651 158.112 896.651 156.64ZM899.243 156.64C899.243 157.664 899.457 158.571 899.883 159.36C900.331 160.149 900.929 160.779 901.675 161.248C902.443 161.696 903.307 161.92 904.267 161.92C905.227 161.92 906.081 161.696 906.827 161.248C907.595 160.779 908.193 160.149 908.619 159.36C909.067 158.571 909.291 157.664 909.291 156.64C909.291 155.616 909.067 154.709 908.619 153.92C908.193 153.109 907.595 152.48 906.827 152.032C906.081 151.584 905.227 151.36 904.267 151.36C903.307 151.36 902.443 151.584 901.675 152.032C900.929 152.48 900.331 153.109 899.883 153.92C899.457 154.709 899.243 155.616 899.243 156.64ZM916.008 159.488C916.456 160.171 917 160.757 917.64 161.248C918.301 161.739 919.091 161.984 920.008 161.984C920.733 161.984 921.299 161.824 921.704 161.504C922.131 161.163 922.344 160.704 922.344 160.128C922.344 159.616 922.173 159.189 921.832 158.848C921.512 158.485 921.096 158.187 920.584 157.952C920.072 157.696 919.528 157.461 918.952 157.248C918.312 156.992 917.661 156.693 917 156.352C916.36 155.989 915.816 155.531 915.368 154.976C914.941 154.4 914.728 153.685 914.728 152.832C914.728 151.957 914.952 151.232 915.4 150.656C915.869 150.08 916.467 149.653 917.192 149.376C917.939 149.099 918.707 148.96 919.496 148.96C920.669 148.96 921.736 149.237 922.696 149.792C923.656 150.347 924.36 151.029 924.808 151.84L922.76 153.152C922.355 152.597 921.843 152.139 921.224 151.776C920.627 151.413 919.944 151.232 919.176 151.232C918.643 151.232 918.184 151.349 917.8 151.584C917.416 151.819 917.224 152.181 917.224 152.672C917.224 153.269 917.533 153.76 918.152 154.144C918.792 154.507 919.507 154.848 920.296 155.168C921.149 155.509 921.928 155.883 922.632 156.288C923.336 156.672 923.891 157.141 924.296 157.696C924.723 158.251 924.936 158.965 924.936 159.84C924.936 161.12 924.467 162.187 923.528 163.04C922.611 163.893 921.395 164.32 919.88 164.32C918.899 164.32 918.013 164.149 917.224 163.808C916.435 163.445 915.763 162.987 915.208 162.432C914.675 161.877 914.269 161.312 913.992 160.736L916.008 159.488ZM934.002 164.32C932.637 164.32 931.421 164 930.354 163.36C929.309 162.699 928.488 161.792 927.89 160.64C927.314 159.488 927.026 158.155 927.026 156.64C927.026 155.104 927.325 153.76 927.922 152.608C928.541 151.456 929.394 150.56 930.482 149.92C931.592 149.28 932.872 148.96 934.322 148.96C936.477 148.96 938.173 149.632 939.41 150.976C940.648 152.32 941.266 154.165 941.266 156.512C941.266 156.661 941.256 156.821 941.234 156.992C941.234 157.141 941.234 157.237 941.234 157.28H929.65C929.757 158.752 930.216 159.893 931.026 160.704C931.837 161.515 932.936 161.92 934.322 161.92C936.328 161.92 937.864 161.035 938.93 159.264L941.01 160.576C939.474 163.072 937.138 164.32 934.002 164.32ZM934.322 151.2C933.064 151.2 932.04 151.541 931.25 152.224C930.461 152.885 929.96 153.845 929.746 155.104H938.482C938.397 153.931 937.97 152.992 937.202 152.288C936.456 151.563 935.496 151.2 934.322 151.2ZM951.783 152.096C951.442 151.84 951.132 151.659 950.855 151.552C950.578 151.424 950.226 151.36 949.799 151.36C948.839 151.36 948.188 151.712 947.847 152.416C947.506 153.099 947.335 153.973 947.335 155.04V164H944.775V149.28H947.335V150.976C947.74 150.357 948.22 149.867 948.775 149.504C949.33 149.141 949.884 148.96 950.439 148.96C950.972 148.96 951.463 149.035 951.911 149.184C952.38 149.312 952.807 149.579 953.191 149.984L951.783 152.096ZM954.312 149.28H957.193L961.353 159.68L965.513 149.28H968.393L961.353 165.12L954.312 149.28ZM970.806 143.2C970.806 142.709 970.977 142.293 971.318 141.952C971.681 141.611 972.097 141.44 972.566 141.44C973.057 141.44 973.473 141.611 973.814 141.952C974.156 142.293 974.326 142.709 974.326 143.2C974.326 143.669 974.156 144.085 973.814 144.448C973.473 144.789 973.057 144.96 972.566 144.96C972.097 144.96 971.681 144.789 971.318 144.448C970.977 144.085 970.806 143.669 970.806 143.2ZM971.286 149.28H973.846V164H971.286V149.28ZM980.271 156.64C980.271 157.664 980.484 158.571 980.911 159.36C981.359 160.149 981.956 160.779 982.703 161.248C983.471 161.696 984.335 161.92 985.295 161.92C986.489 161.92 987.556 161.653 988.495 161.12C989.433 160.587 990.073 159.957 990.415 159.232V162.432C989.903 163.029 989.167 163.499 988.207 163.84C987.268 164.16 986.297 164.32 985.295 164.32C983.865 164.32 982.575 163.989 981.423 163.328C980.271 162.667 979.353 161.76 978.671 160.608C978.009 159.435 977.679 158.112 977.679 156.64C977.679 155.147 978.009 153.824 978.671 152.672C979.353 151.52 980.271 150.613 981.423 149.952C982.575 149.291 983.865 148.96 985.295 148.96C986.297 148.96 987.268 149.131 988.207 149.472C989.167 149.792 989.903 150.251 990.415 150.848V154.048C990.073 153.323 989.433 152.693 988.495 152.16C987.556 151.627 986.489 151.36 985.295 151.36C984.335 151.36 983.471 151.584 982.703 152.032C981.956 152.48 981.359 153.109 980.911 153.92C980.484 154.709 980.271 155.616 980.271 156.64ZM1000.1 164.32C998.731 164.32 997.515 164 996.448 163.36C995.403 162.699 994.581 161.792 993.984 160.64C993.408 159.488 993.12 158.155 993.12 156.64C993.12 155.104 993.419 153.76 994.016 152.608C994.635 151.456 995.488 150.56 996.576 149.92C997.685 149.28 998.965 148.96 1000.42 148.96C1002.57 148.96 1004.27 149.632 1005.5 150.976C1006.74 152.32 1007.36 154.165 1007.36 156.512C1007.36 156.661 1007.35 156.821 1007.33 156.992C1007.33 157.141 1007.33 157.237 1007.33 157.28H995.744C995.851 158.752 996.309 159.893 997.12 160.704C997.931 161.515 999.029 161.92 1000.42 161.92C1002.42 161.92 1003.96 161.035 1005.02 159.264L1007.1 160.576C1005.57 163.072 1003.23 164.32 1000.1 164.32ZM1000.42 151.2C999.157 151.2 998.133 151.541 997.344 152.224C996.555 152.885 996.053 153.845 995.84 155.104H1004.58C1004.49 153.931 1004.06 152.992 1003.3 152.288C1002.55 151.563 1001.59 151.2 1000.42 151.2Z" fill="black"/>
<rect x="163" y="312" width="139" height="62" rx="12" fill="#FFD600" stroke="#444B54" stroke-width="6"/>
<path d="M265.758 340.337C265.758 339.921 266.09 339.584 266.5 339.584H269.653C270.063 339.584 270.395 339.921 270.395 340.337V351.248C270.395 351.663 270.063 352 269.653 352H266.5C266.09 352 265.758 351.663 265.758 351.248V340.337Z" fill="black"/>
<path d="M265.758 333.752C265.758 333.337 266.09 333 266.5 333H269.653C270.063 333 270.395 333.337 270.395 333.752V336.95C270.395 337.366 270.063 337.703 269.653 337.703H266.5C266.09 337.703 265.758 337.366 265.758 336.95V333.752Z" fill="black"/>
<path d="M273.363 348.05C273.363 347.634 273.695 347.297 274.105 347.297H277.258C277.668 347.297 278 347.634 278 348.05V351.248C278 351.663 277.668 352 277.258 352H274.105C273.695 352 273.363 351.663 273.363 351.248V348.05Z" fill="black"/>
<path d="M273.363 333.752C273.363 333.337 273.695 333 274.105 333H277.258C277.668 333 278 333.337 278 333.752V344.663C278 345.079 277.668 345.416 277.258 345.416H274.105C273.695 345.416 273.363 345.079 273.363 344.663V333.752Z" fill="black"/>
<path d="M255 345.246C255 345.386 255.039 345.523 255.111 345.642L258.756 351.606C258.891 351.828 259.13 351.962 259.387 351.962H262.876C263.474 351.962 263.827 351.282 263.487 350.783L259.966 345.603C259.693 345.2 259.867 344.646 260.29 344.412C261.099 343.965 261.738 343.376 262.206 342.644C262.847 341.65 263.167 340.504 263.167 339.203C263.167 337.379 262.544 335.89 261.298 334.734C260.069 333.578 258.262 333 255.875 333H255.754C255.345 333 255.014 333.335 255.012 333.75L255 336.881C255 336.893 255.01 336.903 255.022 336.904C255.929 336.931 257.211 337.147 257.692 337.551C258.208 337.966 258.466 338.571 258.466 339.366C258.466 340.142 258.208 340.747 257.692 341.181C257.326 341.488 256.496 341.687 255.72 341.776C255.321 341.822 255 342.154 255 342.561V345.246Z" fill="black"/>
<rect x="102" y="312" width="136" height="62" rx="12" fill="white" stroke="#444B54" stroke-width="6"/>
<path d="M160.569 347.44C160.569 348.912 160.227 350.139 159.545 351.12C158.883 352.08 157.977 352.805 156.825 353.296C155.694 353.765 154.403 354 152.953 354H146.873V331.6H152.633C154.638 331.6 156.249 332.059 157.465 332.976C158.681 333.893 159.289 335.301 159.289 337.2C159.289 338.352 158.958 339.323 158.297 340.112C157.635 340.88 156.729 341.435 155.577 341.776C157.049 342.075 158.243 342.693 159.161 343.632C160.099 344.549 160.569 345.819 160.569 347.44ZM152.633 334H149.593V340.656H152.633C153.763 340.656 154.702 340.368 155.449 339.792C156.195 339.216 156.569 338.405 156.569 337.36C156.569 336.293 156.195 335.472 155.449 334.896C154.702 334.299 153.763 334 152.633 334ZM149.593 351.6H152.953C154.403 351.6 155.577 351.227 156.473 350.48C157.39 349.712 157.849 348.645 157.849 347.28C157.849 345.893 157.39 344.837 156.473 344.112C155.577 343.387 154.403 343.024 152.953 343.024H149.593V351.6ZM164.716 331.6H170.796C172.247 331.6 173.538 331.877 174.668 332.432C175.82 332.965 176.727 333.733 177.388 334.736C178.071 335.739 178.412 336.933 178.412 338.32C178.412 339.685 178.071 340.88 177.388 341.904C176.727 342.907 175.82 343.685 174.668 344.24C173.538 344.773 172.247 345.04 170.796 345.04H167.436V354H164.716V331.6ZM170.796 334.16H167.436V342.48H170.796C172.247 342.48 173.42 342.128 174.316 341.424C175.234 340.72 175.692 339.685 175.692 338.32C175.692 336.933 175.234 335.899 174.316 335.216C173.42 334.512 172.247 334.16 170.796 334.16ZM182.248 331.6H193.768V334.16H184.968V340.56H193.448V343.12H184.968V354H182.248V331.6Z" fill="black"/>
<rect x="746" y="312" width="139" height="62" rx="12" fill="#FFD600" stroke="#444B54" stroke-width="6"/>
<path d="M776.758 340.337C776.758 339.921 777.09 339.584 777.5 339.584H780.653C781.063 339.584 781.395 339.921 781.395 340.337V351.248C781.395 351.663 781.063 352 780.653 352H777.5C777.09 352 776.758 351.663 776.758 351.248V340.337Z" fill="black"/>
<path d="M776.758 333.752C776.758 333.337 777.09 333 777.5 333H780.653C781.063 333 781.395 333.337 781.395 333.752V336.95C781.395 337.366 781.063 337.703 780.653 337.703H777.5C777.09 337.703 776.758 337.366 776.758 336.95V333.752Z" fill="black"/>
<path d="M784.363 348.05C784.363 347.634 784.695 347.297 785.105 347.297H788.258C788.668 347.297 789 347.634 789 348.05V351.248C789 351.663 788.668 352 788.258 352H785.105C784.695 352 784.363 351.663 784.363 351.248V348.05Z" fill="black"/>
<path d="M784.363 333.752C784.363 333.337 784.695 333 785.105 333H788.258C788.668 333 789 333.337 789 333.752V344.663C789 345.079 788.668 345.416 788.258 345.416H785.105C784.695 345.416 784.363 345.079 784.363 344.663V333.752Z" fill="black"/>
<path d="M766 345.246C766 345.386 766.039 345.523 766.111 345.642L769.756 351.606C769.891 351.828 770.13 351.962 770.387 351.962H773.876C774.474 351.962 774.827 351.282 774.487 350.783L770.966 345.603C770.693 345.2 770.867 344.646 771.29 344.412C772.099 343.965 772.738 343.376 773.206 342.644C773.847 341.65 774.167 340.504 774.167 339.203C774.167 337.379 773.544 335.89 772.298 334.734C771.069 333.578 769.262 333 766.875 333H766.754C766.345 333 766.014 333.335 766.012 333.75L766 336.881C766 336.893 766.01 336.903 766.022 336.904C766.929 336.931 768.211 337.147 768.692 337.551C769.208 337.966 769.466 338.571 769.466 339.366C769.466 340.142 769.208 340.747 768.692 341.181C768.326 341.488 767.496 341.687 766.72 341.776C766.321 341.822 766 342.154 766 342.561V345.246Z" fill="black"/>
<rect x="807" y="312" width="203" height="62" rx="12" fill="white" stroke="#444B54" stroke-width="6"/>
<path d="M846.738 342.8C846.738 344.528 847.122 346.053 847.89 347.376C848.679 348.699 849.703 349.733 850.962 350.48C852.221 351.227 853.586 351.6 855.058 351.6C856.637 351.6 858.034 351.291 859.25 350.672C860.466 350.053 861.469 349.253 862.258 348.272V351.856C861.319 352.688 860.295 353.307 859.186 353.712C858.077 354.117 856.701 354.32 855.058 354.32C853.501 354.32 852.039 354.043 850.674 353.488C849.33 352.912 848.146 352.112 847.122 351.088C846.098 350.043 845.298 348.816 844.722 347.408C844.146 346 843.858 344.464 843.858 342.8C843.858 341.136 844.146 339.6 844.722 338.192C845.298 336.784 846.098 335.568 847.122 334.544C848.146 333.499 849.33 332.699 850.674 332.144C852.039 331.568 853.501 331.28 855.058 331.28C856.701 331.28 858.077 331.483 859.186 331.888C860.295 332.293 861.319 332.912 862.258 333.744V337.328C861.469 336.325 860.466 335.525 859.25 334.928C858.034 334.309 856.637 334 855.058 334C853.586 334 852.221 334.373 850.962 335.12C849.703 335.867 848.679 336.901 847.89 338.224C847.122 339.525 846.738 341.051 846.738 342.8ZM865.604 346.64C865.604 345.147 865.935 343.824 866.596 342.672C867.279 341.52 868.196 340.613 869.348 339.952C870.5 339.291 871.791 338.96 873.22 338.96C874.671 338.96 875.962 339.291 877.092 339.952C878.244 340.613 879.151 341.52 879.812 342.672C880.495 343.824 880.836 345.147 880.836 346.64C880.836 348.112 880.495 349.435 879.812 350.608C879.151 351.76 878.244 352.667 877.092 353.328C875.962 353.989 874.671 354.32 873.22 354.32C871.791 354.32 870.5 353.989 869.348 353.328C868.196 352.667 867.279 351.76 866.596 350.608C865.935 349.435 865.604 348.112 865.604 346.64ZM868.196 346.64C868.196 347.664 868.41 348.571 868.836 349.36C869.284 350.149 869.882 350.779 870.628 351.248C871.396 351.696 872.26 351.92 873.22 351.92C874.18 351.92 875.034 351.696 875.78 351.248C876.548 350.779 877.146 350.149 877.572 349.36C878.02 348.571 878.244 347.664 878.244 346.64C878.244 345.616 878.02 344.709 877.572 343.92C877.146 343.109 876.548 342.48 875.78 342.032C875.034 341.584 874.18 341.36 873.22 341.36C872.26 341.36 871.396 341.584 870.628 342.032C869.882 342.48 869.284 343.109 868.836 343.92C868.41 344.709 868.196 345.616 868.196 346.64ZM893.793 345.04C893.793 342.587 892.748 341.36 890.657 341.36C889.548 341.36 888.641 341.701 887.937 342.384C887.254 343.067 886.913 343.952 886.913 345.04V354H884.353V339.28H886.913V341.584C887.873 339.835 889.334 338.96 891.297 338.96C892.854 338.96 894.081 339.483 894.977 340.528C895.894 341.552 896.353 342.949 896.353 344.72V354H893.793V345.04ZM898.926 339.28H901.326V334.16H903.886V339.28H906.286V341.68H903.886V354H901.326V341.68H898.926V339.28ZM909.621 342.672L908.373 340.784C908.928 340.379 909.685 339.973 910.645 339.568C911.626 339.163 912.8 338.96 914.165 338.96C915.872 338.96 917.258 339.355 918.325 340.144C919.392 340.912 919.925 342.011 919.925 343.44V354H917.365V352.016C916.896 352.784 916.192 353.36 915.253 353.744C914.314 354.128 913.397 354.32 912.501 354.32C911.605 354.32 910.762 354.139 909.973 353.776C909.205 353.392 908.586 352.848 908.117 352.144C907.648 351.44 907.413 350.587 907.413 349.584C907.413 348.155 907.914 347.013 908.917 346.16C909.941 345.285 911.36 344.848 913.173 344.848C914.154 344.848 914.986 344.965 915.669 345.2C916.373 345.413 916.938 345.659 917.365 345.936V343.792C917.365 342.789 917.034 342.107 916.373 341.744C915.733 341.381 914.954 341.2 914.037 341.2C912.928 341.2 912 341.381 911.253 341.744C910.506 342.107 909.962 342.416 909.621 342.672ZM910.005 349.456C910.005 350.309 910.293 350.971 910.869 351.44C911.466 351.888 912.234 352.112 913.173 352.112C914.346 352.112 915.338 351.76 916.149 351.056C916.96 350.352 917.365 349.413 917.365 348.24V347.696C916.768 347.397 916.16 347.184 915.541 347.056C914.922 346.928 914.272 346.864 913.589 346.864C912.352 346.864 911.445 347.099 910.869 347.568C910.293 348.016 910.005 348.645 910.005 349.456ZM924.259 333.2C924.259 332.709 924.43 332.293 924.771 331.952C925.134 331.611 925.55 331.44 926.019 331.44C926.51 331.44 926.926 331.611 927.267 331.952C927.609 332.293 927.779 332.709 927.779 333.2C927.779 333.669 927.609 334.085 927.267 334.448C926.926 334.789 926.51 334.96 926.019 334.96C925.55 334.96 925.134 334.789 924.771 334.448C924.43 334.085 924.259 333.669 924.259 333.2ZM924.739 339.28H927.299V354H924.739V339.28ZM942.012 345.04C942.012 342.587 940.967 341.36 938.876 341.36C937.767 341.36 936.86 341.701 936.156 342.384C935.473 343.067 935.132 343.952 935.132 345.04V354H932.572V339.28H935.132V341.584C936.092 339.835 937.553 338.96 939.516 338.96C941.073 338.96 942.3 339.483 943.196 340.528C944.113 341.552 944.572 342.949 944.572 344.72V354H942.012V345.04ZM955.08 354.32C953.715 354.32 952.499 354 951.432 353.36C950.387 352.699 949.566 351.792 948.968 350.64C948.392 349.488 948.104 348.155 948.104 346.64C948.104 345.104 948.403 343.76 949 342.608C949.619 341.456 950.472 340.56 951.56 339.92C952.67 339.28 953.95 338.96 955.4 338.96C957.555 338.96 959.251 339.632 960.488 340.976C961.726 342.32 962.344 344.165 962.344 346.512C962.344 346.661 962.334 346.821 962.312 346.992C962.312 347.141 962.312 347.237 962.312 347.28H950.728C950.835 348.752 951.294 349.893 952.104 350.704C952.915 351.515 954.014 351.92 955.4 351.92C957.406 351.92 958.942 351.035 960.008 349.264L962.088 350.576C960.552 353.072 958.216 354.32 955.08 354.32ZM955.4 341.2C954.142 341.2 953.118 341.541 952.328 342.224C951.539 342.885 951.038 343.845 950.824 345.104H959.56C959.475 343.931 959.048 342.992 958.28 342.288C957.534 341.563 956.574 341.2 955.4 341.2ZM972.861 342.096C972.52 341.84 972.21 341.659 971.933 341.552C971.656 341.424 971.304 341.36 970.877 341.36C969.917 341.36 969.266 341.712 968.925 342.416C968.584 343.099 968.413 343.973 968.413 345.04V354H965.853V339.28H968.413V340.976C968.818 340.357 969.298 339.867 969.853 339.504C970.408 339.141 970.962 338.96 971.517 338.96C972.05 338.96 972.541 339.035 972.989 339.184C973.458 339.312 973.885 339.579 974.269 339.984L972.861 342.096Z" fill="black"/>
<rect x="748" y="407" width="139" height="62" rx="12" fill="#FFD600" stroke="#444B54" stroke-width="6"/>
<path d="M778.758 435.337C778.758 434.921 779.09 434.584 779.5 434.584H782.653C783.063 434.584 783.395 434.921 783.395 435.337V446.248C783.395 446.663 783.063 447 782.653 447H779.5C779.09 447 778.758 446.663 778.758 446.248V435.337Z" fill="black"/>
<path d="M778.758 428.752C778.758 428.337 779.09 428 779.5 428H782.653C783.063 428 783.395 428.337 783.395 428.752V431.95C783.395 432.366 783.063 432.703 782.653 432.703H779.5C779.09 432.703 778.758 432.366 778.758 431.95V428.752Z" fill="black"/>
<path d="M786.363 443.05C786.363 442.634 786.695 442.297 787.105 442.297H790.258C790.668 442.297 791 442.634 791 443.05V446.248C791 446.663 790.668 447 790.258 447H787.105C786.695 447 786.363 446.663 786.363 446.248V443.05Z" fill="black"/>
<path d="M786.363 428.752C786.363 428.337 786.695 428 787.105 428H790.258C790.668 428 791 428.337 791 428.752V439.663C791 440.079 790.668 440.416 790.258 440.416H787.105C786.695 440.416 786.363 440.079 786.363 439.663V428.752Z" fill="black"/>
<path d="M768 440.246C768 440.386 768.039 440.523 768.111 440.642L771.756 446.606C771.891 446.828 772.13 446.962 772.387 446.962H775.876C776.474 446.962 776.827 446.282 776.487 445.783L772.966 440.603C772.693 440.2 772.867 439.646 773.29 439.412C774.099 438.965 774.738 438.376 775.206 437.644C775.847 436.65 776.167 435.504 776.167 434.203C776.167 432.379 775.544 430.89 774.298 429.734C773.069 428.578 771.262 428 768.875 428H768.754C768.345 428 768.014 428.335 768.012 428.75L768 431.881C768 431.893 768.01 431.903 768.022 431.904C768.929 431.931 770.211 432.147 770.692 432.551C771.208 432.966 771.466 433.571 771.466 434.366C771.466 435.142 771.208 435.747 770.692 436.181C770.326 436.488 769.496 436.687 768.72 436.776C768.321 436.822 768 437.154 768 437.561V440.246Z" fill="black"/>
<rect x="809" y="407" width="139" height="62" rx="12" fill="white" stroke="#444B54" stroke-width="6"/>
<path d="M859.52 426.6H862.24V450.12L845.28 432.328V449H842.56V425.48L859.52 443.272V426.6ZM865.933 441.64C865.933 440.147 866.263 438.824 866.924 437.672C867.607 436.52 868.525 435.613 869.677 434.952C870.829 434.291 872.119 433.96 873.549 433.96C874.999 433.96 876.29 434.291 877.421 434.952C878.573 435.613 879.479 436.52 880.141 437.672C880.823 438.824 881.165 440.147 881.165 441.64C881.165 443.112 880.823 444.435 880.141 445.608C879.479 446.76 878.573 447.667 877.421 448.328C876.29 448.989 874.999 449.32 873.549 449.32C872.119 449.32 870.829 448.989 869.677 448.328C868.525 447.667 867.607 446.76 866.924 445.608C866.263 444.435 865.933 443.112 865.933 441.64ZM868.525 441.64C868.525 442.664 868.738 443.571 869.165 444.36C869.613 445.149 870.21 445.779 870.957 446.248C871.725 446.696 872.589 446.92 873.549 446.92C874.509 446.92 875.362 446.696 876.109 446.248C876.877 445.779 877.474 445.149 877.901 444.36C878.349 443.571 878.573 442.664 878.573 441.64C878.573 440.616 878.349 439.709 877.901 438.92C877.474 438.109 876.877 437.48 876.109 437.032C875.362 436.584 874.509 436.36 873.549 436.36C872.589 436.36 871.725 436.584 870.957 437.032C870.21 437.48 869.613 438.109 869.165 438.92C868.738 439.709 868.525 440.616 868.525 441.64ZM883.401 441.64C883.401 440.04 883.732 438.675 884.393 437.544C885.055 436.392 885.94 435.507 887.049 434.888C888.159 434.269 889.375 433.96 890.697 433.96C891.785 433.96 892.756 434.205 893.609 434.696C894.484 435.187 895.188 435.891 895.721 436.808V424.04H898.281V449H895.721V446.472C895.188 447.389 894.484 448.093 893.609 448.584C892.756 449.075 891.785 449.32 890.697 449.32C889.375 449.32 888.159 449.011 887.049 448.392C885.94 447.773 885.055 446.888 884.393 445.736C883.732 444.584 883.401 443.219 883.401 441.64ZM885.993 441.64C885.993 442.771 886.217 443.731 886.665 444.52C887.135 445.309 887.753 445.907 888.521 446.312C889.289 446.717 890.121 446.92 891.017 446.92C891.764 446.92 892.5 446.717 893.225 446.312C893.951 445.907 894.548 445.309 895.017 444.52C895.487 443.731 895.721 442.771 895.721 441.64C895.721 440.509 895.487 439.549 895.017 438.76C894.548 437.971 893.951 437.373 893.225 436.968C892.5 436.563 891.764 436.36 891.017 436.36C890.121 436.36 889.289 436.563 888.521 436.968C887.753 437.373 887.135 437.971 886.665 438.76C886.217 439.549 885.993 440.509 885.993 441.64ZM908.627 449.32C907.262 449.32 906.046 449 904.979 448.36C903.934 447.699 903.113 446.792 902.515 445.64C901.939 444.488 901.651 443.155 901.651 441.64C901.651 440.104 901.95 438.76 902.547 437.608C903.166 436.456 904.019 435.56 905.107 434.92C906.217 434.28 907.497 433.96 908.947 433.96C911.102 433.96 912.798 434.632 914.035 435.976C915.273 437.32 915.891 439.165 915.891 441.512C915.891 441.661 915.881 441.821 915.859 441.992C915.859 442.141 915.859 442.237 915.859 442.28H904.275C904.382 443.752 904.841 444.893 905.651 445.704C906.462 446.515 907.561 446.92 908.947 446.92C910.953 446.92 912.489 446.035 913.555 444.264L915.635 445.576C914.099 448.072 911.763 449.32 908.627 449.32ZM908.947 436.2C907.689 436.2 906.665 436.541 905.875 437.224C905.086 437.885 904.585 438.845 904.371 440.104H913.107C913.022 438.931 912.595 437.992 911.827 437.288C911.081 436.563 910.121 436.2 908.947 436.2Z" fill="black"/>
<rect x="748" y="217" width="139" height="62" rx="12" fill="#FFD600" stroke="#444B54" stroke-width="6"/>
<path d="M777.758 245.337C777.758 244.921 778.09 244.584 778.5 244.584H781.653C782.063 244.584 782.395 244.921 782.395 245.337V256.248C782.395 256.663 782.063 257 781.653 257H778.5C778.09 257 777.758 256.663 777.758 256.248V245.337Z" fill="black"/>
<path d="M777.758 238.752C777.758 238.337 778.09 238 778.5 238H781.653C782.063 238 782.395 238.337 782.395 238.752V241.95C782.395 242.366 782.063 242.703 781.653 242.703H778.5C778.09 242.703 777.758 242.366 777.758 241.95V238.752Z" fill="black"/>
<path d="M785.363 253.05C785.363 252.634 785.695 252.297 786.105 252.297H789.258C789.668 252.297 790 252.634 790 253.05V256.248C790 256.663 789.668 257 789.258 257H786.105C785.695 257 785.363 256.663 785.363 256.248V253.05Z" fill="black"/>
<path d="M785.363 238.752C785.363 238.337 785.695 238 786.105 238H789.258C789.668 238 790 238.337 790 238.752V249.663C790 250.079 789.668 250.416 789.258 250.416H786.105C785.695 250.416 785.363 250.079 785.363 249.663V238.752Z" fill="black"/>
<path d="M767 250.246C767 250.386 767.039 250.523 767.111 250.642L770.756 256.606C770.891 256.828 771.13 256.962 771.387 256.962H774.876C775.474 256.962 775.827 256.282 775.487 255.783L771.966 250.603C771.693 250.2 771.867 249.646 772.29 249.412C773.099 248.965 773.738 248.376 774.206 247.644C774.847 246.65 775.167 245.504 775.167 244.203C775.167 242.379 774.544 240.89 773.298 239.734C772.069 238.578 770.262 238 767.875 238H767.754C767.345 238 767.014 238.335 767.012 238.75L767 241.881C767 241.893 767.01 241.903 767.022 241.904C767.929 241.931 769.211 242.147 769.692 242.551C770.208 242.966 770.466 243.571 770.466 244.366C770.466 245.142 770.208 245.747 769.692 246.181C769.326 246.488 768.496 246.687 767.72 246.776C767.321 246.822 767 247.154 767 247.561V250.246Z" fill="black"/>
<rect x="809" y="217" width="179" height="62" rx="12" fill="white" stroke="#444B54" stroke-width="6"/>
<path d="M858.392 252.216C859.139 253.581 859.971 254.68 860.888 255.512C861.827 256.344 862.968 256.76 864.312 256.76C865.507 256.76 866.467 256.429 867.192 255.768C867.917 255.107 868.28 254.264 868.28 253.24C868.28 252.237 868.045 251.437 867.576 250.84C867.107 250.243 866.488 249.763 865.72 249.4C864.973 249.016 864.173 248.675 863.32 248.376C862.765 248.184 862.147 247.939 861.464 247.64C860.781 247.32 860.131 246.925 859.512 246.456C858.893 245.965 858.381 245.368 857.976 244.664C857.592 243.96 857.4 243.096 857.4 242.072C857.4 240.963 857.677 239.971 858.232 239.096C858.787 238.221 859.555 237.539 860.536 237.048C861.517 236.536 862.637 236.28 863.896 236.28C865.112 236.28 866.168 236.515 867.064 236.984C867.981 237.432 868.76 238.019 869.4 238.744C870.04 239.448 870.541 240.195 870.904 240.984L868.568 242.328C868.291 241.773 867.939 241.229 867.512 240.696C867.085 240.163 866.563 239.725 865.944 239.384C865.347 239.043 864.611 238.872 863.736 238.872C862.52 238.872 861.635 239.171 861.08 239.768C860.525 240.344 860.248 240.995 860.248 241.72C860.248 242.659 860.621 243.48 861.368 244.184C862.115 244.888 863.469 245.581 865.432 246.264C866.029 246.477 866.659 246.755 867.32 247.096C867.981 247.437 868.589 247.875 869.144 248.408C869.72 248.92 870.189 249.549 870.552 250.296C870.915 251.021 871.096 251.896 871.096 252.92C871.096 254.221 870.765 255.352 870.104 256.312C869.464 257.272 868.621 258.019 867.576 258.552C866.531 259.064 865.411 259.32 864.216 259.32C863 259.32 861.869 259.064 860.824 258.552C859.8 258.019 858.893 257.325 858.104 256.472C857.336 255.597 856.707 254.669 856.216 253.688L858.392 252.216ZM880.627 259.32C879.262 259.32 878.046 259 876.979 258.36C875.934 257.699 875.113 256.792 874.515 255.64C873.939 254.488 873.651 253.155 873.651 251.64C873.651 250.104 873.95 248.76 874.547 247.608C875.166 246.456 876.019 245.56 877.107 244.92C878.217 244.28 879.497 243.96 880.947 243.96C883.102 243.96 884.798 244.632 886.035 245.976C887.273 247.32 887.891 249.165 887.891 251.512C887.891 251.661 887.881 251.821 887.859 251.992C887.859 252.141 887.859 252.237 887.859 252.28H876.275C876.382 253.752 876.841 254.893 877.651 255.704C878.462 256.515 879.561 256.92 880.947 256.92C882.953 256.92 884.489 256.035 885.555 254.264L887.635 255.576C886.099 258.072 883.763 259.32 880.627 259.32ZM880.947 246.2C879.689 246.2 878.665 246.541 877.875 247.224C877.086 247.885 876.585 248.845 876.371 250.104H885.107C885.022 248.931 884.595 247.992 883.827 247.288C883.081 246.563 882.121 246.2 880.947 246.2ZM898.408 247.096C898.067 246.84 897.757 246.659 897.48 246.552C897.203 246.424 896.851 246.36 896.424 246.36C895.464 246.36 894.813 246.712 894.472 247.416C894.131 248.099 893.96 248.973 893.96 250.04V259H891.4V244.28H893.96V245.976C894.365 245.357 894.845 244.867 895.4 244.504C895.955 244.141 896.509 243.96 897.064 243.96C897.597 243.96 898.088 244.035 898.536 244.184C899.005 244.312 899.432 244.579 899.816 244.984L898.408 247.096ZM900.938 244.28H903.818L907.978 254.68L912.138 244.28H915.018L907.978 260.12L900.938 244.28ZM922.659 259.32C921.293 259.32 920.077 259 919.011 258.36C917.965 257.699 917.144 256.792 916.547 255.64C915.971 254.488 915.683 253.155 915.683 251.64C915.683 250.104 915.981 248.76 916.579 247.608C917.197 246.456 918.051 245.56 919.139 244.92C920.248 244.28 921.528 243.96 922.979 243.96C925.133 243.96 926.829 244.632 928.067 245.976C929.304 247.32 929.923 249.165 929.923 251.512C929.923 251.661 929.912 251.821 929.891 251.992C929.891 252.141 929.891 252.237 929.891 252.28H918.307C918.413 253.752 918.872 254.893 919.683 255.704C920.493 256.515 921.592 256.92 922.979 256.92C924.984 256.92 926.52 256.035 927.587 254.264L929.667 255.576C928.131 258.072 925.795 259.32 922.659 259.32ZM922.979 246.2C921.72 246.2 920.696 246.541 919.907 247.224C919.117 247.885 918.616 248.845 918.403 250.104H927.139C927.053 248.931 926.627 247.992 925.859 247.288C925.112 246.563 924.152 246.2 922.979 246.2ZM940.439 247.096C940.098 246.84 939.789 246.659 939.511 246.552C939.234 246.424 938.882 246.36 938.455 246.36C937.495 246.36 936.845 246.712 936.503 247.416C936.162 248.099 935.991 248.973 935.991 250.04V259H933.431V244.28H935.991V245.976C936.397 245.357 936.877 244.867 937.431 244.504C937.986 244.141 938.541 243.96 939.095 243.96C939.629 243.96 940.119 244.035 940.567 244.184C941.037 244.312 941.463 244.579 941.847 244.984L940.439 247.096Z" fill="black"/>
<rect x="169" y="122" width="139" height="62" rx="12" fill="#FFD600" stroke="#444B54" stroke-width="6"/>
<path d="M271.758 150.337C271.758 149.921 272.09 149.584 272.5 149.584H275.653C276.063 149.584 276.395 149.921 276.395 150.337V161.248C276.395 161.663 276.063 162 275.653 162H272.5C272.09 162 271.758 161.663 271.758 161.248V150.337Z" fill="black"/>
<path d="M271.758 143.752C271.758 143.337 272.09 143 272.5 143H275.653C276.063 143 276.395 143.337 276.395 143.752V146.95C276.395 147.366 276.063 147.703 275.653 147.703H272.5C272.09 147.703 271.758 147.366 271.758 146.95V143.752Z" fill="black"/>
<path d="M279.363 158.05C279.363 157.634 279.695 157.297 280.105 157.297H283.258C283.668 157.297 284 157.634 284 158.05V161.248C284 161.663 283.668 162 283.258 162H280.105C279.695 162 279.363 161.663 279.363 161.248V158.05Z" fill="black"/>
<path d="M279.363 143.752C279.363 143.337 279.695 143 280.105 143H283.258C283.668 143 284 143.337 284 143.752V154.663C284 155.079 283.668 155.416 283.258 155.416H280.105C279.695 155.416 279.363 155.079 279.363 154.663V143.752Z" fill="black"/>
<path d="M261 155.246C261 155.386 261.039 155.523 261.111 155.642L264.756 161.606C264.891 161.828 265.13 161.962 265.387 161.962H268.876C269.474 161.962 269.827 161.282 269.487 160.783L265.966 155.603C265.693 155.2 265.867 154.646 266.29 154.412C267.099 153.965 267.738 153.376 268.206 152.644C268.847 151.65 269.167 150.504 269.167 149.203C269.167 147.379 268.544 145.89 267.298 144.734C266.069 143.578 264.262 143 261.875 143H261.754C261.345 143 261.014 143.335 261.012 143.75L261 146.881C261 146.893 261.01 146.903 261.022 146.904C261.929 146.931 263.211 147.147 263.692 147.551C264.208 147.966 264.466 148.571 264.466 149.366C264.466 150.142 264.208 150.747 263.692 151.181C263.326 151.488 262.496 151.687 261.72 151.776C261.321 151.822 261 152.154 261 152.561V155.246Z" fill="black"/>
<rect x="123" y="122" width="122" height="62" rx="12" fill="white" stroke="#444B54" stroke-width="6"/>
<path d="M168.06 141.6H170.78V164H168.06V141.6ZM174.464 156.64C174.464 155.147 174.794 153.824 175.456 152.672C176.138 151.52 177.056 150.613 178.208 149.952C179.36 149.291 180.65 148.96 182.08 148.96C183.53 148.96 184.821 149.291 185.952 149.952C187.104 150.613 188.01 151.52 188.672 152.672C189.354 153.824 189.696 155.147 189.696 156.64C189.696 158.112 189.354 159.435 188.672 160.608C188.01 161.76 187.104 162.667 185.952 163.328C184.821 163.989 183.53 164.32 182.08 164.32C180.65 164.32 179.36 163.989 178.208 163.328C177.056 162.667 176.138 161.76 175.456 160.608C174.794 159.435 174.464 158.112 174.464 156.64ZM177.056 156.64C177.056 157.664 177.269 158.571 177.696 159.36C178.144 160.149 178.741 160.779 179.488 161.248C180.256 161.696 181.12 161.92 182.08 161.92C183.04 161.92 183.893 161.696 184.64 161.248C185.408 160.779 186.005 160.149 186.432 159.36C186.88 158.571 187.104 157.664 187.104 156.64C187.104 155.616 186.88 154.709 186.432 153.92C186.005 153.109 185.408 152.48 184.64 152.032C183.893 151.584 183.04 151.36 182.08 151.36C181.12 151.36 180.256 151.584 179.488 152.032C178.741 152.48 178.144 153.109 177.696 153.92C177.269 154.709 177.056 155.616 177.056 156.64ZM187.945 144.16V141.6H202.185V144.16H196.425V164H193.705V144.16H187.945Z" fill="black"/>
<rect x="163" y="27" width="139" height="62" rx="12" fill="#FFD600" stroke="#444B54" stroke-width="6"/>
<path d="M265.758 55.3366C265.758 54.9211 266.09 54.5842 266.5 54.5842H269.653C270.063 54.5842 270.395 54.9211 270.395 55.3366V66.2475C270.395 66.6631 270.063 67 269.653 67H266.5C266.09 67 265.758 66.6631 265.758 66.2475V55.3366Z" fill="black"/>
<path d="M265.758 48.7525C265.758 48.3369 266.09 48 266.5 48H269.653C270.063 48 270.395 48.3369 270.395 48.7525V51.9505C270.395 52.3661 270.063 52.703 269.653 52.703H266.5C266.09 52.703 265.758 52.3661 265.758 51.9505V48.7525Z" fill="black"/>
<path d="M273.363 63.0495C273.363 62.6339 273.695 62.297 274.105 62.297H277.258C277.668 62.297 278 62.6339 278 63.0495V66.2475C278 66.6631 277.668 67 277.258 67H274.105C273.695 67 273.363 66.6631 273.363 66.2475V63.0495Z" fill="black"/>
<path d="M273.363 48.7525C273.363 48.3369 273.695 48 274.105 48H277.258C277.668 48 278 48.3369 278 48.7525V59.6634C278 60.0789 277.668 60.4158 277.258 60.4158H274.105C273.695 60.4158 273.363 60.0789 273.363 59.6634V48.7525Z" fill="black"/>
<path d="M255 60.2459C255 60.386 255.039 60.5233 255.111 60.6424L258.756 66.6063C258.891 66.8277 259.13 66.9624 259.387 66.9624H262.876C263.474 66.9624 263.827 66.282 263.487 65.7828L259.966 60.6029C259.693 60.2003 259.867 59.6465 260.29 59.4125C261.099 58.9654 261.738 58.3758 262.206 57.6437C262.847 56.6505 263.167 55.5037 263.167 54.2034C263.167 52.3794 262.544 50.8895 261.298 49.7337C260.069 48.5779 258.262 48 255.875 48H255.754C255.345 48 255.014 48.3351 255.012 48.7496L255 51.8806C255 51.8932 255.01 51.9035 255.022 51.9039C255.929 51.9314 257.211 52.1471 257.692 52.551C258.208 52.9663 258.466 53.5713 258.466 54.3659C258.466 55.1425 258.208 55.7475 257.692 56.1809C257.326 56.4883 256.496 56.6867 255.72 56.7761C255.321 56.8221 255 57.1535 255 57.5613V60.2459Z" fill="black"/>
<rect x="119" y="27" width="122" height="62" rx="12" fill="white" stroke="#444B54" stroke-width="6"/>
<path d="M169.108 69L166.26 62.28H157.236L154.388 69H151.348L161.748 45.48L172.148 69H169.108ZM161.748 51.656L158.324 59.72H165.172L161.748 51.656ZM177.113 76.04H174.553V54.28H177.113V56.808C177.646 55.8907 178.339 55.1867 179.193 54.696C180.067 54.2053 181.049 53.96 182.137 53.96C183.481 53.96 184.697 54.2693 185.785 54.888C186.894 55.5067 187.779 56.392 188.441 57.544C189.102 58.6747 189.433 60.04 189.433 61.64C189.433 63.2187 189.102 64.584 188.441 65.736C187.779 66.888 186.894 67.7733 185.785 68.392C184.697 69.0107 183.481 69.32 182.137 69.32C181.049 69.32 180.067 69.0747 179.193 68.584C178.339 68.0933 177.646 67.3893 177.113 66.472V76.04ZM186.841 61.64C186.841 60.5093 186.606 59.5493 186.137 58.76C185.689 57.9707 185.081 57.3733 184.313 56.968C183.566 56.5627 182.734 56.36 181.817 56.36C181.07 56.36 180.334 56.5627 179.609 56.968C178.883 57.3733 178.286 57.9707 177.817 58.76C177.347 59.5493 177.113 60.5093 177.113 61.64C177.113 62.7707 177.347 63.7307 177.817 64.52C178.286 65.3093 178.883 65.9067 179.609 66.312C180.334 66.7173 181.07 66.92 181.817 66.92C182.734 66.92 183.566 66.7173 184.313 66.312C185.081 65.9067 185.689 65.3093 186.137 64.52C186.606 63.7307 186.841 62.7707 186.841 61.64ZM195.363 76.04H192.803V54.28H195.363V56.808C195.896 55.8907 196.589 55.1867 197.443 54.696C198.317 54.2053 199.299 53.96 200.387 53.96C201.731 53.96 202.947 54.2693 204.035 54.888C205.144 55.5067 206.029 56.392 206.691 57.544C207.352 58.6747 207.683 60.04 207.683 61.64C207.683 63.2187 207.352 64.584 206.691 65.736C206.029 66.888 205.144 67.7733 204.035 68.392C202.947 69.0107 201.731 69.32 200.387 69.32C199.299 69.32 198.317 69.0747 197.443 68.584C196.589 68.0933 195.896 67.3893 195.363 66.472V76.04ZM205.091 61.64C205.091 60.5093 204.856 59.5493 204.387 58.76C203.939 57.9707 203.331 57.3733 202.563 56.968C201.816 56.5627 200.984 56.36 200.067 56.36C199.32 56.36 198.584 56.5627 197.859 56.968C197.133 57.3733 196.536 57.9707 196.067 58.76C195.597 59.5493 195.363 60.5093 195.363 61.64C195.363 62.7707 195.597 63.7307 196.067 64.52C196.536 65.3093 197.133 65.9067 197.859 66.312C198.584 66.7173 199.32 66.92 200.067 66.92C200.984 66.92 201.816 66.7173 202.563 66.312C203.331 65.9067 203.939 65.3093 204.387 64.52C204.856 63.7307 205.091 62.7707 205.091 61.64Z" fill="black"/>
<rect x="159" y="410" width="139" height="62" rx="12" fill="#FFD600" stroke="#444B54" stroke-width="6"/>
<path d="M261.758 438.337C261.758 437.921 262.09 437.584 262.5 437.584H265.653C266.063 437.584 266.395 437.921 266.395 438.337V449.248C266.395 449.663 266.063 450 265.653 450H262.5C262.09 450 261.758 449.663 261.758 449.248V438.337Z" fill="black"/>
<path d="M261.758 431.752C261.758 431.337 262.09 431 262.5 431H265.653C266.063 431 266.395 431.337 266.395 431.752V434.95C266.395 435.366 266.063 435.703 265.653 435.703H262.5C262.09 435.703 261.758 435.366 261.758 434.95V431.752Z" fill="black"/>
<path d="M269.363 446.05C269.363 445.634 269.695 445.297 270.105 445.297H273.258C273.668 445.297 274 445.634 274 446.05V449.248C274 449.663 273.668 450 273.258 450H270.105C269.695 450 269.363 449.663 269.363 449.248V446.05Z" fill="black"/>
<path d="M269.363 431.752C269.363 431.337 269.695 431 270.105 431H273.258C273.668 431 274 431.337 274 431.752V442.663C274 443.079 273.668 443.416 273.258 443.416H270.105C269.695 443.416 269.363 443.079 269.363 442.663V431.752Z" fill="black"/>
<path d="M251 443.246C251 443.386 251.039 443.523 251.111 443.642L254.756 449.606C254.891 449.828 255.13 449.962 255.387 449.962H258.876C259.474 449.962 259.827 449.282 259.487 448.783L255.966 443.603C255.693 443.2 255.867 442.646 256.29 442.412C257.099 441.965 257.738 441.376 258.206 440.644C258.847 439.65 259.167 438.504 259.167 437.203C259.167 435.379 258.544 433.89 257.298 432.734C256.069 431.578 254.262 431 251.875 431H251.754C251.345 431 251.014 431.335 251.012 431.75L251 434.881C251 434.893 251.01 434.903 251.022 434.904C251.929 434.931 253.211 435.147 253.692 435.551C254.208 435.966 254.466 436.571 254.466 437.366C254.466 438.142 254.208 438.747 253.692 439.181C253.326 439.488 252.496 439.687 251.72 439.776C251.321 439.822 251 440.154 251 440.561V443.246Z" fill="black"/>
<rect x="26" y="410" width="208" height="62" rx="12" fill="white" stroke="#444B54" stroke-width="6"/>
<path d="M55.2381 440.8C55.2381 442.528 55.6221 444.053 56.3901 445.376C57.1795 446.699 58.2035 447.733 59.4621 448.48C60.7208 449.227 62.0861 449.6 63.5581 449.6C65.1368 449.6 66.5341 449.291 67.7501 448.672C68.9661 448.053 69.9688 447.253 70.7581 446.272V449.856C69.8195 450.688 68.7955 451.307 67.6861 451.712C66.5768 452.117 65.2008 452.32 63.5581 452.32C62.0008 452.32 60.5395 452.043 59.1741 451.488C57.8301 450.912 56.6461 450.112 55.6221 449.088C54.5981 448.043 53.7981 446.816 53.2221 445.408C52.6461 444 52.3581 442.464 52.3581 440.8C52.3581 439.136 52.6461 437.6 53.2221 436.192C53.7981 434.784 54.5981 433.568 55.6221 432.544C56.6461 431.499 57.8301 430.699 59.1741 430.144C60.5395 429.568 62.0008 429.28 63.5581 429.28C65.2008 429.28 66.5768 429.483 67.6861 429.888C68.7955 430.293 69.8195 430.912 70.7581 431.744V435.328C69.9688 434.325 68.9661 433.525 67.7501 432.928C66.5341 432.309 65.1368 432 63.5581 432C62.0861 432 60.7208 432.373 59.4621 433.12C58.2035 433.867 57.1795 434.901 56.3901 436.224C55.6221 437.525 55.2381 439.051 55.2381 440.8ZM74.1044 444.64C74.1044 443.147 74.435 441.824 75.0964 440.672C75.779 439.52 76.6964 438.613 77.8484 437.952C79.0004 437.291 80.291 436.96 81.7204 436.96C83.171 436.96 84.4617 437.291 85.5924 437.952C86.7444 438.613 87.651 439.52 88.3124 440.672C88.995 441.824 89.3364 443.147 89.3364 444.64C89.3364 446.112 88.995 447.435 88.3124 448.608C87.651 449.76 86.7444 450.667 85.5924 451.328C84.4617 451.989 83.171 452.32 81.7204 452.32C80.291 452.32 79.0004 451.989 77.8484 451.328C76.6964 450.667 75.779 449.76 75.0964 448.608C74.435 447.435 74.1044 446.112 74.1044 444.64ZM76.6964 444.64C76.6964 445.664 76.9097 446.571 77.3364 447.36C77.7844 448.149 78.3817 448.779 79.1284 449.248C79.8964 449.696 80.7604 449.92 81.7204 449.92C82.6804 449.92 83.5337 449.696 84.2804 449.248C85.0484 448.779 85.6457 448.149 86.0724 447.36C86.5204 446.571 86.7444 445.664 86.7444 444.64C86.7444 443.616 86.5204 442.709 86.0724 441.92C85.6457 441.109 85.0484 440.48 84.2804 440.032C83.5337 439.584 82.6804 439.36 81.7204 439.36C80.7604 439.36 79.8964 439.584 79.1284 440.032C78.3817 440.48 77.7844 441.109 77.3364 441.92C76.9097 442.709 76.6964 443.616 76.6964 444.64ZM113.013 442.72V452H110.453V443.04C110.453 441.781 110.218 440.853 109.749 440.256C109.301 439.659 108.597 439.36 107.637 439.36C106.592 439.36 105.76 439.691 105.141 440.352C104.522 440.992 104.213 441.888 104.213 443.04V452H101.653V443.04C101.653 441.781 101.418 440.853 100.949 440.256C100.501 439.659 99.7971 439.36 98.8371 439.36C97.7918 439.36 96.9598 439.691 96.3411 440.352C95.7225 440.992 95.4131 441.888 95.4131 443.04V452H92.8531V437.28H95.4131V439.424C96.2878 437.781 97.6425 436.96 99.4771 436.96C100.501 436.96 101.376 437.205 102.101 437.696C102.848 438.165 103.392 438.837 103.733 439.712C104.757 437.877 106.272 436.96 108.277 436.96C109.792 436.96 110.954 437.461 111.765 438.464C112.597 439.467 113.013 440.885 113.013 442.72ZM120.222 459.04H117.662V437.28H120.222V439.808C120.755 438.891 121.449 438.187 122.302 437.696C123.177 437.205 124.158 436.96 125.246 436.96C126.59 436.96 127.806 437.269 128.894 437.888C130.003 438.507 130.889 439.392 131.55 440.544C132.211 441.675 132.542 443.04 132.542 444.64C132.542 446.219 132.211 447.584 131.55 448.736C130.889 449.888 130.003 450.773 128.894 451.392C127.806 452.011 126.59 452.32 125.246 452.32C124.158 452.32 123.177 452.075 122.302 451.584C121.449 451.093 120.755 450.389 120.222 449.472V459.04ZM129.95 444.64C129.95 443.509 129.715 442.549 129.246 441.76C128.798 440.971 128.19 440.373 127.422 439.968C126.675 439.563 125.843 439.36 124.926 439.36C124.179 439.36 123.443 439.563 122.718 439.968C121.993 440.373 121.395 440.971 120.926 441.76C120.457 442.549 120.222 443.509 120.222 444.64C120.222 445.771 120.457 446.731 120.926 447.52C121.395 448.309 121.993 448.907 122.718 449.312C123.443 449.717 124.179 449.92 124.926 449.92C125.843 449.92 126.675 449.717 127.422 449.312C128.19 448.907 128.798 448.309 129.246 447.52C129.715 446.731 129.95 445.771 129.95 444.64ZM134.792 444.64C134.792 443.147 135.123 441.824 135.784 440.672C136.467 439.52 137.384 438.613 138.536 437.952C139.688 437.291 140.979 436.96 142.408 436.96C143.859 436.96 145.149 437.291 146.28 437.952C147.432 438.613 148.339 439.52 149 440.672C149.683 441.824 150.024 443.147 150.024 444.64C150.024 446.112 149.683 447.435 149 448.608C148.339 449.76 147.432 450.667 146.28 451.328C145.149 451.989 143.859 452.32 142.408 452.32C140.979 452.32 139.688 451.989 138.536 451.328C137.384 450.667 136.467 449.76 135.784 448.608C135.123 447.435 134.792 446.112 134.792 444.64ZM137.384 444.64C137.384 445.664 137.597 446.571 138.024 447.36C138.472 448.149 139.069 448.779 139.816 449.248C140.584 449.696 141.448 449.92 142.408 449.92C143.368 449.92 144.221 449.696 144.968 449.248C145.736 448.779 146.333 448.149 146.76 447.36C147.208 446.571 147.432 445.664 147.432 444.64C147.432 443.616 147.208 442.709 146.76 441.92C146.333 441.109 145.736 440.48 144.968 440.032C144.221 439.584 143.368 439.36 142.408 439.36C141.448 439.36 140.584 439.584 139.816 440.032C139.069 440.48 138.472 441.109 138.024 441.92C137.597 442.709 137.384 443.616 137.384 444.64ZM162.981 443.04C162.981 440.587 161.935 439.36 159.845 439.36C158.735 439.36 157.829 439.701 157.125 440.384C156.442 441.067 156.101 441.952 156.101 443.04V452H153.541V437.28H156.101V439.584C157.061 437.835 158.522 436.96 160.485 436.96C162.042 436.96 163.269 437.483 164.165 438.528C165.082 439.552 165.541 440.949 165.541 442.72V452H162.981V443.04ZM176.049 452.32C174.684 452.32 173.468 452 172.401 451.36C171.356 450.699 170.534 449.792 169.937 448.64C169.361 447.488 169.073 446.155 169.073 444.64C169.073 443.104 169.372 441.76 169.969 440.608C170.588 439.456 171.441 438.56 172.529 437.92C173.638 437.28 174.918 436.96 176.369 436.96C178.524 436.96 180.22 437.632 181.457 438.976C182.694 440.32 183.313 442.165 183.313 444.512C183.313 444.661 183.302 444.821 183.281 444.992C183.281 445.141 183.281 445.237 183.281 445.28H171.697C171.804 446.752 172.262 447.893 173.073 448.704C173.884 449.515 174.982 449.92 176.369 449.92C178.374 449.92 179.91 449.035 180.977 447.264L183.057 448.576C181.521 451.072 179.185 452.32 176.049 452.32ZM176.369 439.2C175.11 439.2 174.086 439.541 173.297 440.224C172.508 440.885 172.006 441.845 171.793 443.104H180.529C180.444 441.931 180.017 440.992 179.249 440.288C178.502 439.563 177.542 439.2 176.369 439.2ZM196.262 443.04C196.262 440.587 195.217 439.36 193.126 439.36C192.017 439.36 191.11 439.701 190.406 440.384C189.723 441.067 189.382 441.952 189.382 443.04V452H186.822V437.28H189.382V439.584C190.342 437.835 191.803 436.96 193.766 436.96C195.323 436.96 196.55 437.483 197.446 438.528C198.363 439.552 198.822 440.949 198.822 442.72V452H196.262V443.04ZM201.394 437.28H203.794V432.16H206.354V437.28H208.754V439.68H206.354V452H203.794V439.68H201.394V437.28Z" fill="black"/>
<rect x="169" y="217" width="139" height="62" rx="12" fill="#FFD600" stroke="#444B54" stroke-width="6"/>
<path d="M271.758 245.337C271.758 244.921 272.09 244.584 272.5 244.584H275.653C276.063 244.584 276.395 244.921 276.395 245.337V256.248C276.395 256.663 276.063 257 275.653 257H272.5C272.09 257 271.758 256.663 271.758 256.248V245.337Z" fill="black"/>
<path d="M271.758 238.752C271.758 238.337 272.09 238 272.5 238H275.653C276.063 238 276.395 238.337 276.395 238.752V241.95C276.395 242.366 276.063 242.703 275.653 242.703H272.5C272.09 242.703 271.758 242.366 271.758 241.95V238.752Z" fill="black"/>
<path d="M279.363 253.05C279.363 252.634 279.695 252.297 280.105 252.297H283.258C283.668 252.297 284 252.634 284 253.05V256.248C284 256.663 283.668 257 283.258 257H280.105C279.695 257 279.363 256.663 279.363 256.248V253.05Z" fill="black"/>
<path d="M279.363 238.752C279.363 238.337 279.695 238 280.105 238H283.258C283.668 238 284 238.337 284 238.752V249.663C284 250.079 283.668 250.416 283.258 250.416H280.105C279.695 250.416 279.363 250.079 279.363 249.663V238.752Z" fill="black"/>
<path d="M261 250.246C261 250.386 261.039 250.523 261.111 250.642L264.756 256.606C264.891 256.828 265.13 256.962 265.387 256.962H268.876C269.474 256.962 269.827 256.282 269.487 255.783L265.966 250.603C265.693 250.2 265.867 249.646 266.29 249.412C267.099 248.965 267.738 248.376 268.206 247.644C268.847 246.65 269.167 245.504 269.167 244.203C269.167 242.379 268.544 240.89 267.298 239.734C266.069 238.578 264.262 238 261.875 238H261.754C261.345 238 261.014 238.335 261.012 238.75L261 241.881C261 241.893 261.01 241.903 261.022 241.904C261.929 241.931 263.211 242.147 263.692 242.551C264.208 242.966 264.466 243.571 264.466 244.366C264.466 245.142 264.208 245.747 263.692 246.181C263.326 246.488 262.496 246.687 261.72 246.776C261.321 246.822 261 247.154 261 247.561V250.246Z" fill="black"/>
<rect x="66" y="217" width="180" height="62" rx="12" fill="white" stroke="#444B54" stroke-width="6"/>
<path d="M107.816 247.8C107.816 249.528 108.2 251.053 108.968 252.376C109.758 253.699 110.782 254.733 112.04 255.48C113.299 256.227 114.664 256.6 116.136 256.6C117.715 256.6 119.112 256.291 120.328 255.672C121.544 255.053 122.547 254.253 123.336 253.272V256.856C122.398 257.688 121.374 258.307 120.264 258.712C119.155 259.117 117.779 259.32 116.136 259.32C114.579 259.32 113.118 259.043 111.752 258.488C110.408 257.912 109.224 257.112 108.2 256.088C107.176 255.043 106.376 253.816 105.8 252.408C105.224 251 104.936 249.464 104.936 247.8C104.936 246.136 105.224 244.6 105.8 243.192C106.376 241.784 107.176 240.568 108.2 239.544C109.224 238.499 110.408 237.699 111.752 237.144C113.118 236.568 114.579 236.28 116.136 236.28C117.779 236.28 119.155 236.483 120.264 236.888C121.374 237.293 122.398 237.912 123.336 238.744V242.328C122.547 241.325 121.544 240.525 120.328 239.928C119.112 239.309 117.715 239 116.136 239C114.664 239 113.299 239.373 112.04 240.12C110.782 240.867 109.758 241.901 108.968 243.224C108.2 244.525 107.816 246.051 107.816 247.8ZM134.97 247.096C134.629 246.84 134.32 246.659 134.043 246.552C133.765 246.424 133.413 246.36 132.987 246.36C132.027 246.36 131.376 246.712 131.035 247.416C130.693 248.099 130.523 248.973 130.523 250.04V259H127.963V244.28H130.523V245.976C130.928 245.357 131.408 244.867 131.963 244.504C132.517 244.141 133.072 243.96 133.627 243.96C134.16 243.96 134.651 244.035 135.099 244.184C135.568 244.312 135.995 244.579 136.379 244.984L134.97 247.096ZM139.699 247.672L138.451 245.784C139.006 245.379 139.763 244.973 140.723 244.568C141.705 244.163 142.878 243.96 144.243 243.96C145.95 243.96 147.337 244.355 148.403 245.144C149.47 245.912 150.003 247.011 150.003 248.44V259H147.443V257.016C146.974 257.784 146.27 258.36 145.331 258.744C144.393 259.128 143.475 259.32 142.579 259.32C141.683 259.32 140.841 259.139 140.051 258.776C139.283 258.392 138.665 257.848 138.195 257.144C137.726 256.44 137.491 255.587 137.491 254.584C137.491 253.155 137.993 252.013 138.995 251.16C140.019 250.285 141.438 249.848 143.251 249.848C144.233 249.848 145.065 249.965 145.747 250.2C146.451 250.413 147.017 250.659 147.443 250.936V248.792C147.443 247.789 147.113 247.107 146.451 246.744C145.811 246.381 145.033 246.2 144.115 246.2C143.006 246.2 142.078 246.381 141.331 246.744C140.585 247.107 140.041 247.416 139.699 247.672ZM140.083 254.456C140.083 255.309 140.371 255.971 140.947 256.44C141.545 256.888 142.313 257.112 143.251 257.112C144.425 257.112 145.417 256.76 146.227 256.056C147.038 255.352 147.443 254.413 147.443 253.24V252.696C146.846 252.397 146.238 252.184 145.619 252.056C145.001 251.928 144.35 251.864 143.667 251.864C142.43 251.864 141.523 252.099 140.947 252.568C140.371 253.016 140.083 253.645 140.083 254.456ZM151.941 244.28H154.821L158.501 253.848L162.501 243.16L166.789 253.912L170.501 244.28H173.381L166.981 260.12L162.533 249.4L158.341 260.12L151.941 244.28ZM175.931 234.04H178.491V259H175.931V234.04ZM189.002 259.32C187.637 259.32 186.421 259 185.354 258.36C184.309 257.699 183.488 256.792 182.89 255.64C182.314 254.488 182.026 253.155 182.026 251.64C182.026 250.104 182.325 248.76 182.922 247.608C183.541 246.456 184.394 245.56 185.482 244.92C186.592 244.28 187.872 243.96 189.322 243.96C191.477 243.96 193.173 244.632 194.41 245.976C195.648 247.32 196.266 249.165 196.266 251.512C196.266 251.661 196.256 251.821 196.234 251.992C196.234 252.141 196.234 252.237 196.234 252.28H184.65C184.757 253.752 185.216 254.893 186.026 255.704C186.837 256.515 187.936 256.92 189.322 256.92C191.328 256.92 192.864 256.035 193.93 254.264L196.01 255.576C194.474 258.072 192.138 259.32 189.002 259.32ZM189.322 246.2C188.064 246.2 187.04 246.541 186.25 247.224C185.461 247.885 184.96 248.845 184.746 250.104H193.482C193.397 248.931 192.97 247.992 192.202 247.288C191.456 246.563 190.496 246.2 189.322 246.2ZM206.783 247.096C206.442 246.84 206.132 246.659 205.855 246.552C205.578 246.424 205.226 246.36 204.799 246.36C203.839 246.36 203.188 246.712 202.847 247.416C202.506 248.099 202.335 248.973 202.335 250.04V259H199.775V244.28H202.335V245.976C202.74 245.357 203.22 244.867 203.775 244.504C204.33 244.141 204.884 243.96 205.439 243.96C205.972 243.96 206.463 244.035 206.911 244.184C207.38 244.312 207.807 244.579 208.191 244.984L206.783 247.096Z" fill="black"/>
<path d="M436 171.5L326 53.5" stroke="#444B54" stroke-width="6" stroke-linecap="round"/>
<path d="M424.5 206L326 151.839" stroke="#444B54" stroke-width="6" stroke-linecap="round"/>
<path d="M423.5 247.584L326 247.584" stroke="#444B54" stroke-width="6" stroke-linecap="round"/>
<path d="M428.5 279.5L326 340.558" stroke="#444B54" stroke-width="6" stroke-linecap="round"/>
<path d="M437.5 320L326 440.558" stroke="#444B54" stroke-width="6" stroke-linecap="round"/>
<path d="M615.5 323L729.5 442" stroke="#444B54" stroke-width="6" stroke-linecap="round"/>
<path d="M612.5 171.5L732.5 57.5" stroke="#444B54" stroke-width="6" stroke-linecap="round"/>
<path d="M625 205L729.5 151" stroke="#444B54" stroke-width="6" stroke-linecap="round"/>
<path d="M627.149 248L732.5 248" stroke="#444B54" stroke-width="6" stroke-linecap="round"/>
<path d="M623 285.279L732.5 339" stroke="#444B54" stroke-width="6" stroke-linecap="round"/>
<path d="M531 346.5L531 560" stroke="#444B54" stroke-width="6" stroke-linecap="round"/>
</svg>
