<svg width="1040" height="340" viewBox="0 0 1040 340" fill="none" xmlns="http://www.w3.org/2000/svg">
<rect x="133" y="134" width="139" height="62" rx="12" fill="#FFD600" stroke="#444B54" stroke-width="6"/>
<path d="M162.758 162.337C162.758 161.921 163.09 161.584 163.5 161.584H166.653C167.063 161.584 167.395 161.921 167.395 162.337V173.248C167.395 173.663 167.063 174 166.653 174H163.5C163.09 174 162.758 173.663 162.758 173.248V162.337Z" fill="black"/>
<path d="M162.758 155.752C162.758 155.337 163.09 155 163.5 155H166.653C167.063 155 167.395 155.337 167.395 155.752V158.95C167.395 159.366 167.063 159.703 166.653 159.703H163.5C163.09 159.703 162.758 159.366 162.758 158.95V155.752Z" fill="black"/>
<path d="M170.363 170.05C170.363 169.634 170.695 169.297 171.105 169.297H174.258C174.668 169.297 175 169.634 175 170.05V173.248C175 173.663 174.668 174 174.258 174H171.105C170.695 174 170.363 173.663 170.363 173.248V170.05Z" fill="black"/>
<path d="M170.363 155.752C170.363 155.337 170.695 155 171.105 155H174.258C174.668 155 175 155.337 175 155.752V166.663C175 167.079 174.668 167.416 174.258 167.416H171.105C170.695 167.416 170.363 167.079 170.363 166.663V155.752Z" fill="black"/>
<path d="M152 167.246C152 167.386 152.039 167.523 152.111 167.642L155.756 173.606C155.891 173.828 156.13 173.962 156.387 173.962H159.876C160.474 173.962 160.827 173.282 160.487 172.783L156.966 167.603C156.693 167.2 156.867 166.646 157.29 166.412C158.099 165.965 158.738 165.376 159.206 164.644C159.847 163.65 160.167 162.504 160.167 161.203C160.167 159.379 159.544 157.89 158.298 156.734C157.069 155.578 155.262 155 152.875 155H152.754C152.345 155 152.014 155.335 152.012 155.75L152 158.881C152 158.893 152.01 158.903 152.022 158.904C152.929 158.931 154.211 159.147 154.692 159.551C155.208 159.966 155.466 160.571 155.466 161.366C155.466 162.142 155.208 162.747 154.692 163.181C154.326 163.488 153.496 163.687 152.72 163.776C152.321 163.822 152 164.154 152 164.561V167.246Z" fill="black"/>
<rect x="194" y="134" width="139" height="62" rx="12" fill="white" stroke="#444B54" stroke-width="6"/>
<path d="M258.256 169.44C258.256 170.912 257.915 172.139 257.232 173.12C256.571 174.08 255.664 174.805 254.512 175.296C253.381 175.765 252.091 176 250.64 176H244.56V153.6H250.32C252.325 153.6 253.936 154.059 255.152 154.976C256.368 155.893 256.976 157.301 256.976 159.2C256.976 160.352 256.645 161.323 255.984 162.112C255.323 162.88 254.416 163.435 253.264 163.776C254.736 164.075 255.931 164.693 256.848 165.632C257.787 166.549 258.256 167.819 258.256 169.44ZM250.32 156H247.28V162.656H250.32C251.451 162.656 252.389 162.368 253.136 161.792C253.883 161.216 254.256 160.405 254.256 159.36C254.256 158.293 253.883 157.472 253.136 156.896C252.389 156.299 251.451 156 250.32 156ZM247.28 173.6H250.64C252.091 173.6 253.264 173.227 254.16 172.48C255.077 171.712 255.536 170.645 255.536 169.28C255.536 167.893 255.077 166.837 254.16 166.112C253.264 165.387 252.091 165.024 250.64 165.024H247.28V173.6ZM260.964 168.64C260.964 167.147 261.294 165.824 261.956 164.672C262.638 163.52 263.556 162.613 264.708 161.952C265.86 161.291 267.15 160.96 268.58 160.96C270.03 160.96 271.321 161.291 272.452 161.952C273.604 162.613 274.51 163.52 275.172 164.672C275.854 165.824 276.196 167.147 276.196 168.64C276.196 170.112 275.854 171.435 275.172 172.608C274.51 173.76 273.604 174.667 272.452 175.328C271.321 175.989 270.03 176.32 268.58 176.32C267.15 176.32 265.86 175.989 264.708 175.328C263.556 174.667 262.638 173.76 261.956 172.608C261.294 171.435 260.964 170.112 260.964 168.64ZM263.556 168.64C263.556 169.664 263.769 170.571 264.196 171.36C264.644 172.149 265.241 172.779 265.988 173.248C266.756 173.696 267.62 173.92 268.58 173.92C269.54 173.92 270.393 173.696 271.14 173.248C271.908 172.779 272.505 172.149 272.932 171.36C273.38 170.571 273.604 169.664 273.604 168.64C273.604 167.616 273.38 166.709 272.932 165.92C272.505 165.109 271.908 164.48 271.14 164.032C270.393 163.584 269.54 163.36 268.58 163.36C267.62 163.36 266.756 163.584 265.988 164.032C265.241 164.48 264.644 165.109 264.196 165.92C263.769 166.709 263.556 167.616 263.556 168.64ZM277.473 161.28H279.873V156.16H282.433V161.28H284.833V163.68H282.433V176H279.873V163.68H277.473V161.28Z" fill="black"/>
<rect x="216" y="23" width="139" height="62" rx="12" fill="#FFD600" stroke="#444B54" stroke-width="6"/>
<path d="M245.758 51.3366C245.758 50.9211 246.09 50.5842 246.5 50.5842H249.653C250.063 50.5842 250.395 50.9211 250.395 51.3366V62.2475C250.395 62.6631 250.063 63 249.653 63H246.5C246.09 63 245.758 62.6631 245.758 62.2475V51.3366Z" fill="black"/>
<path d="M245.758 44.7525C245.758 44.3369 246.09 44 246.5 44H249.653C250.063 44 250.395 44.3369 250.395 44.7525V47.9505C250.395 48.3661 250.063 48.703 249.653 48.703H246.5C246.09 48.703 245.758 48.3661 245.758 47.9505V44.7525Z" fill="black"/>
<path d="M253.363 59.0495C253.363 58.6339 253.695 58.297 254.105 58.297H257.258C257.668 58.297 258 58.6339 258 59.0495V62.2475C258 62.6631 257.668 63 257.258 63H254.105C253.695 63 253.363 62.6631 253.363 62.2475V59.0495Z" fill="black"/>
<path d="M253.363 44.7525C253.363 44.3369 253.695 44 254.105 44H257.258C257.668 44 258 44.3369 258 44.7525V55.6634C258 56.0789 257.668 56.4158 257.258 56.4158H254.105C253.695 56.4158 253.363 56.0789 253.363 55.6634V44.7525Z" fill="black"/>
<path d="M235 56.2459C235 56.386 235.039 56.5233 235.111 56.6424L238.756 62.6063C238.891 62.8277 239.13 62.9624 239.387 62.9624H242.876C243.474 62.9624 243.827 62.282 243.487 61.7828L239.966 56.6029C239.693 56.2003 239.867 55.6465 240.29 55.4125C241.099 54.9654 241.738 54.3758 242.206 53.6437C242.847 52.6505 243.167 51.5037 243.167 50.2034C243.167 48.3794 242.544 46.8895 241.298 45.7337C240.069 44.5779 238.262 44 235.875 44H235.754C235.345 44 235.014 44.3351 235.012 44.7496L235 47.8806C235 47.8932 235.01 47.9035 235.022 47.9039C235.929 47.9314 237.211 48.1471 237.692 48.551C238.208 48.9663 238.466 49.5713 238.466 50.3659C238.466 51.1425 238.208 51.7475 237.692 52.1809C237.326 52.4883 236.496 52.6867 235.72 52.7761C235.321 52.8221 235 53.1535 235 53.5613V56.2459Z" fill="black"/>
<rect x="277" y="23" width="226" height="62" rx="12" fill="white" stroke="#444B54" stroke-width="6"/>
<path d="M309.195 49.864L307.531 65H304.811L307.531 41.48L316.491 57.704L325.451 41.48L328.171 65H325.451L323.787 49.864L316.491 62.92L309.195 49.864ZM331.838 44.2C331.838 43.7093 332.008 43.2933 332.35 42.952C332.712 42.6107 333.128 42.44 333.598 42.44C334.088 42.44 334.504 42.6107 334.846 42.952C335.187 43.2933 335.358 43.7093 335.358 44.2C335.358 44.6693 335.187 45.0853 334.846 45.448C334.504 45.7893 334.088 45.96 333.598 45.96C333.128 45.96 332.712 45.7893 332.35 45.448C332.008 45.0853 331.838 44.6693 331.838 44.2ZM332.318 50.28H334.878V65H332.318V50.28ZM341.302 57.64C341.302 58.664 341.515 59.5707 341.942 60.36C342.39 61.1493 342.987 61.7787 343.734 62.248C344.502 62.696 345.366 62.92 346.326 62.92C347.521 62.92 348.587 62.6533 349.526 62.12C350.465 61.5867 351.105 60.9573 351.446 60.232V63.432C350.934 64.0293 350.198 64.4987 349.238 64.84C348.299 65.16 347.329 65.32 346.326 65.32C344.897 65.32 343.606 64.9893 342.454 64.328C341.302 63.6667 340.385 62.76 339.702 61.608C339.041 60.4347 338.71 59.112 338.71 57.64C338.71 56.1467 339.041 54.824 339.702 53.672C340.385 52.52 341.302 51.6133 342.454 50.952C343.606 50.2907 344.897 49.96 346.326 49.96C347.329 49.96 348.299 50.1307 349.238 50.472C350.198 50.792 350.934 51.2507 351.446 51.848V55.048C351.105 54.3227 350.465 53.6933 349.526 53.16C348.587 52.6267 347.521 52.36 346.326 52.36C345.366 52.36 344.502 52.584 343.734 53.032C342.987 53.48 342.39 54.1093 341.942 54.92C341.515 55.7093 341.302 56.616 341.302 57.64ZM362.439 53.096C362.098 52.84 361.789 52.6587 361.511 52.552C361.234 52.424 360.882 52.36 360.455 52.36C359.495 52.36 358.845 52.712 358.503 53.416C358.162 54.0987 357.991 54.9733 357.991 56.04V65H355.431V50.28H357.991V51.976C358.397 51.3573 358.877 50.8667 359.431 50.504C359.986 50.1413 360.541 49.96 361.095 49.96C361.629 49.96 362.119 50.0347 362.567 50.184C363.037 50.312 363.463 50.5787 363.847 50.984L362.439 53.096ZM364.651 57.64C364.651 56.1467 364.982 54.824 365.643 53.672C366.326 52.52 367.243 51.6133 368.395 50.952C369.547 50.2907 370.838 49.96 372.267 49.96C373.718 49.96 375.009 50.2907 376.139 50.952C377.291 51.6133 378.198 52.52 378.859 53.672C379.542 54.824 379.883 56.1467 379.883 57.64C379.883 59.112 379.542 60.4347 378.859 61.608C378.198 62.76 377.291 63.6667 376.139 64.328C375.009 64.9893 373.718 65.32 372.267 65.32C370.838 65.32 369.547 64.9893 368.395 64.328C367.243 63.6667 366.326 62.76 365.643 61.608C364.982 60.4347 364.651 59.112 364.651 57.64ZM367.243 57.64C367.243 58.664 367.457 59.5707 367.883 60.36C368.331 61.1493 368.929 61.7787 369.675 62.248C370.443 62.696 371.307 62.92 372.267 62.92C373.227 62.92 374.081 62.696 374.827 62.248C375.595 61.7787 376.193 61.1493 376.619 60.36C377.067 59.5707 377.291 58.664 377.291 57.64C377.291 56.616 377.067 55.7093 376.619 54.92C376.193 54.1093 375.595 53.48 374.827 53.032C374.081 52.584 373.227 52.36 372.267 52.36C371.307 52.36 370.443 52.584 369.675 53.032C368.929 53.48 368.331 54.1093 367.883 54.92C367.457 55.7093 367.243 56.616 367.243 57.64ZM384.008 60.488C384.456 61.1707 385 61.7573 385.64 62.248C386.301 62.7387 387.091 62.984 388.008 62.984C388.733 62.984 389.299 62.824 389.704 62.504C390.131 62.1627 390.344 61.704 390.344 61.128C390.344 60.616 390.173 60.1893 389.832 59.848C389.512 59.4853 389.096 59.1867 388.584 58.952C388.072 58.696 387.528 58.4613 386.952 58.248C386.312 57.992 385.661 57.6933 385 57.352C384.36 56.9893 383.816 56.5307 383.368 55.976C382.941 55.4 382.728 54.6853 382.728 53.832C382.728 52.9573 382.952 52.232 383.4 51.656C383.869 51.08 384.467 50.6533 385.192 50.376C385.939 50.0987 386.707 49.96 387.496 49.96C388.669 49.96 389.736 50.2373 390.696 50.792C391.656 51.3467 392.36 52.0293 392.808 52.84L390.76 54.152C390.355 53.5973 389.843 53.1387 389.224 52.776C388.627 52.4133 387.944 52.232 387.176 52.232C386.643 52.232 386.184 52.3493 385.8 52.584C385.416 52.8187 385.224 53.1813 385.224 53.672C385.224 54.2693 385.533 54.76 386.152 55.144C386.792 55.5067 387.507 55.848 388.296 56.168C389.149 56.5093 389.928 56.8827 390.632 57.288C391.336 57.672 391.891 58.1413 392.296 58.696C392.723 59.2507 392.936 59.9653 392.936 60.84C392.936 62.12 392.467 63.1867 391.528 64.04C390.611 64.8933 389.395 65.32 387.88 65.32C386.899 65.32 386.013 65.1493 385.224 64.808C384.435 64.4453 383.763 63.9867 383.208 63.432C382.675 62.8773 382.269 62.312 381.992 61.736L384.008 60.488ZM402.002 65.32C400.637 65.32 399.421 65 398.354 64.36C397.309 63.6987 396.488 62.792 395.89 61.64C395.314 60.488 395.026 59.1547 395.026 57.64C395.026 56.104 395.325 54.76 395.922 53.608C396.541 52.456 397.394 51.56 398.482 50.92C399.592 50.28 400.872 49.96 402.322 49.96C404.477 49.96 406.173 50.632 407.41 51.976C408.648 53.32 409.266 55.1653 409.266 57.512C409.266 57.6613 409.256 57.8213 409.234 57.992C409.234 58.1413 409.234 58.2373 409.234 58.28H397.65C397.757 59.752 398.216 60.8933 399.026 61.704C399.837 62.5147 400.936 62.92 402.322 62.92C404.328 62.92 405.864 62.0347 406.93 60.264L409.01 61.576C407.474 64.072 405.138 65.32 402.002 65.32ZM402.322 52.2C401.064 52.2 400.04 52.5413 399.25 53.224C398.461 53.8853 397.96 54.8453 397.746 56.104H406.482C406.397 54.9307 405.97 53.992 405.202 53.288C404.456 52.5627 403.496 52.2 402.322 52.2ZM419.783 53.096C419.442 52.84 419.132 52.6587 418.855 52.552C418.578 52.424 418.226 52.36 417.799 52.36C416.839 52.36 416.188 52.712 415.847 53.416C415.506 54.0987 415.335 54.9733 415.335 56.04V65H412.775V50.28H415.335V51.976C415.74 51.3573 416.22 50.8667 416.775 50.504C417.33 50.1413 417.884 49.96 418.439 49.96C418.972 49.96 419.463 50.0347 419.911 50.184C420.38 50.312 420.807 50.5787 421.191 50.984L419.783 53.096ZM422.312 50.28H425.193L429.353 60.68L433.513 50.28H436.393L429.353 66.12L422.312 50.28ZM438.806 44.2C438.806 43.7093 438.977 43.2933 439.318 42.952C439.681 42.6107 440.097 42.44 440.566 42.44C441.057 42.44 441.473 42.6107 441.814 42.952C442.156 43.2933 442.326 43.7093 442.326 44.2C442.326 44.6693 442.156 45.0853 441.814 45.448C441.473 45.7893 441.057 45.96 440.566 45.96C440.097 45.96 439.681 45.7893 439.318 45.448C438.977 45.0853 438.806 44.6693 438.806 44.2ZM439.286 50.28H441.846V65H439.286V50.28ZM448.271 57.64C448.271 58.664 448.484 59.5707 448.911 60.36C449.359 61.1493 449.956 61.7787 450.703 62.248C451.471 62.696 452.335 62.92 453.295 62.92C454.489 62.92 455.556 62.6533 456.495 62.12C457.433 61.5867 458.073 60.9573 458.415 60.232V63.432C457.903 64.0293 457.167 64.4987 456.207 64.84C455.268 65.16 454.297 65.32 453.295 65.32C451.865 65.32 450.575 64.9893 449.423 64.328C448.271 63.6667 447.353 62.76 446.671 61.608C446.009 60.4347 445.679 59.112 445.679 57.64C445.679 56.1467 446.009 54.824 446.671 53.672C447.353 52.52 448.271 51.6133 449.423 50.952C450.575 50.2907 451.865 49.96 453.295 49.96C454.297 49.96 455.268 50.1307 456.207 50.472C457.167 50.792 457.903 51.2507 458.415 51.848V55.048C458.073 54.3227 457.433 53.6933 456.495 53.16C455.556 52.6267 454.489 52.36 453.295 52.36C452.335 52.36 451.471 52.584 450.703 53.032C449.956 53.48 449.359 54.1093 448.911 54.92C448.484 55.7093 448.271 56.616 448.271 57.64ZM468.096 65.32C466.731 65.32 465.515 65 464.448 64.36C463.403 63.6987 462.581 62.792 461.984 61.64C461.408 60.488 461.12 59.1547 461.12 57.64C461.12 56.104 461.419 54.76 462.016 53.608C462.635 52.456 463.488 51.56 464.576 50.92C465.685 50.28 466.965 49.96 468.416 49.96C470.571 49.96 472.267 50.632 473.504 51.976C474.741 53.32 475.36 55.1653 475.36 57.512C475.36 57.6613 475.349 57.8213 475.328 57.992C475.328 58.1413 475.328 58.2373 475.328 58.28H463.744C463.851 59.752 464.309 60.8933 465.12 61.704C465.931 62.5147 467.029 62.92 468.416 62.92C470.421 62.92 471.957 62.0347 473.024 60.264L475.104 61.576C473.568 64.072 471.232 65.32 468.096 65.32ZM468.416 52.2C467.157 52.2 466.133 52.5413 465.344 53.224C464.555 53.8853 464.053 54.8453 463.84 56.104H472.576C472.491 54.9307 472.064 53.992 471.296 53.288C470.549 52.5627 469.589 52.2 468.416 52.2Z" fill="black"/>
<rect x="570" y="251" width="139" height="62" rx="12" fill="#FFD600" stroke="#444B54" stroke-width="6"/>
<path d="M599.758 279.337C599.758 278.921 600.09 278.584 600.5 278.584H603.653C604.063 278.584 604.395 278.921 604.395 279.337V290.248C604.395 290.663 604.063 291 603.653 291H600.5C600.09 291 599.758 290.663 599.758 290.248V279.337Z" fill="black"/>
<path d="M599.758 272.752C599.758 272.337 600.09 272 600.5 272H603.653C604.063 272 604.395 272.337 604.395 272.752V275.95C604.395 276.366 604.063 276.703 603.653 276.703H600.5C600.09 276.703 599.758 276.366 599.758 275.95V272.752Z" fill="black"/>
<path d="M607.363 287.05C607.363 286.634 607.695 286.297 608.105 286.297H611.258C611.668 286.297 612 286.634 612 287.05V290.248C612 290.663 611.668 291 611.258 291H608.105C607.695 291 607.363 290.663 607.363 290.248V287.05Z" fill="black"/>
<path d="M607.363 272.752C607.363 272.337 607.695 272 608.105 272H611.258C611.668 272 612 272.337 612 272.752V283.663C612 284.079 611.668 284.416 611.258 284.416H608.105C607.695 284.416 607.363 284.079 607.363 283.663V272.752Z" fill="black"/>
<path d="M589 284.246C589 284.386 589.039 284.523 589.111 284.642L592.756 290.606C592.891 290.828 593.13 290.962 593.387 290.962H596.876C597.474 290.962 597.827 290.282 597.487 289.783L593.966 284.603C593.693 284.2 593.867 283.646 594.29 283.412C595.099 282.965 595.738 282.376 596.206 281.644C596.847 280.65 597.167 279.504 597.167 278.203C597.167 276.379 596.544 274.89 595.298 273.734C594.069 272.578 592.262 272 589.875 272H589.754C589.345 272 589.014 272.335 589.012 272.75L589 275.881C589 275.893 589.01 275.903 589.022 275.904C589.929 275.931 591.211 276.147 591.692 276.551C592.208 276.966 592.466 277.571 592.466 278.366C592.466 279.142 592.208 279.747 591.692 280.181C591.326 280.488 590.496 280.687 589.72 280.776C589.321 280.822 589 281.154 589 281.561V284.246Z" fill="black"/>
<rect x="631" y="251" width="136" height="62" rx="12" fill="white" stroke="#444B54" stroke-width="6"/>
<path d="M689.569 286.44C689.569 287.912 689.227 289.139 688.545 290.12C687.883 291.08 686.977 291.805 685.825 292.296C684.694 292.765 683.403 293 681.953 293H675.873V270.6H681.633C683.638 270.6 685.249 271.059 686.465 271.976C687.681 272.893 688.289 274.301 688.289 276.2C688.289 277.352 687.958 278.323 687.297 279.112C686.635 279.88 685.729 280.435 684.577 280.776C686.049 281.075 687.243 281.693 688.161 282.632C689.099 283.549 689.569 284.819 689.569 286.44ZM681.633 273H678.593V279.656H681.633C682.763 279.656 683.702 279.368 684.449 278.792C685.195 278.216 685.569 277.405 685.569 276.36C685.569 275.293 685.195 274.472 684.449 273.896C683.702 273.299 682.763 273 681.633 273ZM678.593 290.6H681.953C683.403 290.6 684.577 290.227 685.473 289.48C686.39 288.712 686.849 287.645 686.849 286.28C686.849 284.893 686.39 283.837 685.473 283.112C684.577 282.387 683.403 282.024 681.953 282.024H678.593V290.6ZM693.716 270.6H699.796C701.247 270.6 702.538 270.877 703.668 271.432C704.82 271.965 705.727 272.733 706.388 273.736C707.071 274.739 707.412 275.933 707.412 277.32C707.412 278.685 707.071 279.88 706.388 280.904C705.727 281.907 704.82 282.685 703.668 283.24C702.538 283.773 701.247 284.04 699.796 284.04H696.436V293H693.716V270.6ZM699.796 273.16H696.436V281.48H699.796C701.247 281.48 702.42 281.128 703.316 280.424C704.234 279.72 704.692 278.685 704.692 277.32C704.692 275.933 704.234 274.899 703.316 274.216C702.42 273.512 701.247 273.16 699.796 273.16ZM711.248 270.6H722.768V273.16H713.968V279.56H722.448V282.12H713.968V293H711.248V270.6Z" fill="black"/>
<rect x="559" y="23" width="139" height="62" rx="12" fill="#FFD600" stroke="#444B54" stroke-width="6"/>
<path d="M589.758 51.3366C589.758 50.9211 590.09 50.5842 590.5 50.5842H593.653C594.063 50.5842 594.395 50.9211 594.395 51.3366V62.2475C594.395 62.6631 594.063 63 593.653 63H590.5C590.09 63 589.758 62.6631 589.758 62.2475V51.3366Z" fill="black"/>
<path d="M589.758 44.7525C589.758 44.3369 590.09 44 590.5 44H593.653C594.063 44 594.395 44.3369 594.395 44.7525V47.9505C594.395 48.3661 594.063 48.703 593.653 48.703H590.5C590.09 48.703 589.758 48.3661 589.758 47.9505V44.7525Z" fill="black"/>
<path d="M597.363 59.0495C597.363 58.6339 597.695 58.297 598.105 58.297H601.258C601.668 58.297 602 58.6339 602 59.0495V62.2475C602 62.6631 601.668 63 601.258 63H598.105C597.695 63 597.363 62.6631 597.363 62.2475V59.0495Z" fill="black"/>
<path d="M597.363 44.7525C597.363 44.3369 597.695 44 598.105 44H601.258C601.668 44 602 44.3369 602 44.7525V55.6634C602 56.0789 601.668 56.4158 601.258 56.4158H598.105C597.695 56.4158 597.363 56.0789 597.363 55.6634V44.7525Z" fill="black"/>
<path d="M579 56.2459C579 56.386 579.039 56.5233 579.111 56.6424L582.756 62.6063C582.891 62.8277 583.13 62.9624 583.387 62.9624H586.876C587.474 62.9624 587.827 62.282 587.487 61.7828L583.966 56.6029C583.693 56.2003 583.867 55.6465 584.29 55.4125C585.099 54.9654 585.738 54.3758 586.206 53.6437C586.847 52.6505 587.167 51.5037 587.167 50.2034C587.167 48.3794 586.544 46.8895 585.298 45.7337C584.069 44.5779 582.262 44 579.875 44H579.754C579.345 44 579.014 44.3351 579.012 44.7496L579 47.8806C579 47.8932 579.01 47.9035 579.022 47.9039C579.929 47.9314 581.211 48.1471 581.692 48.551C582.208 48.9663 582.466 49.5713 582.466 50.3659C582.466 51.1425 582.208 51.7475 581.692 52.1809C581.326 52.4883 580.496 52.6867 579.72 52.7761C579.321 52.8221 579 53.1535 579 53.5613V56.2459Z" fill="black"/>
<rect x="620" y="23" width="203" height="62" rx="12" fill="white" stroke="#444B54" stroke-width="6"/>
<path d="M659.738 53.8C659.738 55.528 660.122 57.0533 660.89 58.376C661.679 59.6987 662.703 60.7333 663.962 61.48C665.221 62.2267 666.586 62.6 668.058 62.6C669.637 62.6 671.034 62.2907 672.25 61.672C673.466 61.0533 674.469 60.2533 675.258 59.272V62.856C674.319 63.688 673.295 64.3067 672.186 64.712C671.077 65.1173 669.701 65.32 668.058 65.32C666.501 65.32 665.039 65.0427 663.674 64.488C662.33 63.912 661.146 63.112 660.122 62.088C659.098 61.0427 658.298 59.816 657.722 58.408C657.146 57 656.858 55.464 656.858 53.8C656.858 52.136 657.146 50.6 657.722 49.192C658.298 47.784 659.098 46.568 660.122 45.544C661.146 44.4987 662.33 43.6987 663.674 43.144C665.039 42.568 666.501 42.28 668.058 42.28C669.701 42.28 671.077 42.4827 672.186 42.888C673.295 43.2933 674.319 43.912 675.258 44.744V48.328C674.469 47.3253 673.466 46.5253 672.25 45.928C671.034 45.3093 669.637 45 668.058 45C666.586 45 665.221 45.3733 663.962 46.12C662.703 46.8667 661.679 47.9013 660.89 49.224C660.122 50.5253 659.738 52.0507 659.738 53.8ZM678.604 57.64C678.604 56.1467 678.935 54.824 679.596 53.672C680.279 52.52 681.196 51.6133 682.348 50.952C683.5 50.2907 684.791 49.96 686.22 49.96C687.671 49.96 688.962 50.2907 690.092 50.952C691.244 51.6133 692.151 52.52 692.812 53.672C693.495 54.824 693.836 56.1467 693.836 57.64C693.836 59.112 693.495 60.4347 692.812 61.608C692.151 62.76 691.244 63.6667 690.092 64.328C688.962 64.9893 687.671 65.32 686.22 65.32C684.791 65.32 683.5 64.9893 682.348 64.328C681.196 63.6667 680.279 62.76 679.596 61.608C678.935 60.4347 678.604 59.112 678.604 57.64ZM681.196 57.64C681.196 58.664 681.41 59.5707 681.836 60.36C682.284 61.1493 682.882 61.7787 683.628 62.248C684.396 62.696 685.26 62.92 686.22 62.92C687.18 62.92 688.034 62.696 688.78 62.248C689.548 61.7787 690.146 61.1493 690.572 60.36C691.02 59.5707 691.244 58.664 691.244 57.64C691.244 56.616 691.02 55.7093 690.572 54.92C690.146 54.1093 689.548 53.48 688.78 53.032C688.034 52.584 687.18 52.36 686.22 52.36C685.26 52.36 684.396 52.584 683.628 53.032C682.882 53.48 682.284 54.1093 681.836 54.92C681.41 55.7093 681.196 56.616 681.196 57.64ZM706.793 56.04C706.793 53.5867 705.748 52.36 703.657 52.36C702.548 52.36 701.641 52.7013 700.937 53.384C700.254 54.0667 699.913 54.952 699.913 56.04V65H697.353V50.28H699.913V52.584C700.873 50.8347 702.334 49.96 704.297 49.96C705.854 49.96 707.081 50.4827 707.977 51.528C708.894 52.552 709.353 53.9493 709.353 55.72V65H706.793V56.04ZM711.926 50.28H714.326V45.16H716.886V50.28H719.286V52.68H716.886V65H714.326V52.68H711.926V50.28ZM722.621 53.672L721.373 51.784C721.928 51.3787 722.685 50.9733 723.645 50.568C724.626 50.1627 725.8 49.96 727.165 49.96C728.872 49.96 730.258 50.3547 731.325 51.144C732.392 51.912 732.925 53.0107 732.925 54.44V65H730.365V63.016C729.896 63.784 729.192 64.36 728.253 64.744C727.314 65.128 726.397 65.32 725.501 65.32C724.605 65.32 723.762 65.1387 722.973 64.776C722.205 64.392 721.586 63.848 721.117 63.144C720.648 62.44 720.413 61.5867 720.413 60.584C720.413 59.1547 720.914 58.0133 721.917 57.16C722.941 56.2853 724.36 55.848 726.173 55.848C727.154 55.848 727.986 55.9653 728.669 56.2C729.373 56.4133 729.938 56.6587 730.365 56.936V54.792C730.365 53.7893 730.034 53.1067 729.373 52.744C728.733 52.3813 727.954 52.2 727.037 52.2C725.928 52.2 725 52.3813 724.253 52.744C723.506 53.1067 722.962 53.416 722.621 53.672ZM723.005 60.456C723.005 61.3093 723.293 61.9707 723.869 62.44C724.466 62.888 725.234 63.112 726.173 63.112C727.346 63.112 728.338 62.76 729.149 62.056C729.96 61.352 730.365 60.4133 730.365 59.24V58.696C729.768 58.3973 729.16 58.184 728.541 58.056C727.922 57.928 727.272 57.864 726.589 57.864C725.352 57.864 724.445 58.0987 723.869 58.568C723.293 59.016 723.005 59.6453 723.005 60.456ZM737.259 44.2C737.259 43.7093 737.43 43.2933 737.771 42.952C738.134 42.6107 738.55 42.44 739.019 42.44C739.51 42.44 739.926 42.6107 740.267 42.952C740.609 43.2933 740.779 43.7093 740.779 44.2C740.779 44.6693 740.609 45.0853 740.267 45.448C739.926 45.7893 739.51 45.96 739.019 45.96C738.55 45.96 738.134 45.7893 737.771 45.448C737.43 45.0853 737.259 44.6693 737.259 44.2ZM737.739 50.28H740.299V65H737.739V50.28ZM755.012 56.04C755.012 53.5867 753.967 52.36 751.876 52.36C750.767 52.36 749.86 52.7013 749.156 53.384C748.473 54.0667 748.132 54.952 748.132 56.04V65H745.572V50.28H748.132V52.584C749.092 50.8347 750.553 49.96 752.516 49.96C754.073 49.96 755.3 50.4827 756.196 51.528C757.113 52.552 757.572 53.9493 757.572 55.72V65H755.012V56.04ZM768.08 65.32C766.715 65.32 765.499 65 764.432 64.36C763.387 63.6987 762.566 62.792 761.968 61.64C761.392 60.488 761.104 59.1547 761.104 57.64C761.104 56.104 761.403 54.76 762 53.608C762.619 52.456 763.472 51.56 764.56 50.92C765.67 50.28 766.95 49.96 768.4 49.96C770.555 49.96 772.251 50.632 773.488 51.976C774.726 53.32 775.344 55.1653 775.344 57.512C775.344 57.6613 775.334 57.8213 775.312 57.992C775.312 58.1413 775.312 58.2373 775.312 58.28H763.728C763.835 59.752 764.294 60.8933 765.104 61.704C765.915 62.5147 767.014 62.92 768.4 62.92C770.406 62.92 771.942 62.0347 773.008 60.264L775.088 61.576C773.552 64.072 771.216 65.32 768.08 65.32ZM768.4 52.2C767.142 52.2 766.118 52.5413 765.328 53.224C764.539 53.8853 764.038 54.8453 763.824 56.104H772.56C772.475 54.9307 772.048 53.992 771.28 53.288C770.534 52.5627 769.574 52.2 768.4 52.2ZM785.861 53.096C785.52 52.84 785.21 52.6587 784.933 52.552C784.656 52.424 784.304 52.36 783.877 52.36C782.917 52.36 782.266 52.712 781.925 53.416C781.584 54.0987 781.413 54.9733 781.413 56.04V65H778.853V50.28H781.413V51.976C781.818 51.3573 782.298 50.8667 782.853 50.504C783.408 50.1413 783.962 49.96 784.517 49.96C785.05 49.96 785.541 50.0347 785.989 50.184C786.458 50.312 786.885 50.5787 787.269 50.984L785.861 53.096Z" fill="black"/>
<rect x="692" y="134" width="139" height="62" rx="12" fill="#FFD600" stroke="#444B54" stroke-width="6"/>
<path d="M721.758 162.337C721.758 161.921 722.09 161.584 722.5 161.584H725.653C726.063 161.584 726.395 161.921 726.395 162.337V173.248C726.395 173.663 726.063 174 725.653 174H722.5C722.09 174 721.758 173.663 721.758 173.248V162.337Z" fill="black"/>
<path d="M721.758 155.752C721.758 155.337 722.09 155 722.5 155H725.653C726.063 155 726.395 155.337 726.395 155.752V158.95C726.395 159.366 726.063 159.703 725.653 159.703H722.5C722.09 159.703 721.758 159.366 721.758 158.95V155.752Z" fill="black"/>
<path d="M729.363 170.05C729.363 169.634 729.695 169.297 730.105 169.297H733.258C733.668 169.297 734 169.634 734 170.05V173.248C734 173.663 733.668 174 733.258 174H730.105C729.695 174 729.363 173.663 729.363 173.248V170.05Z" fill="black"/>
<path d="M729.363 155.752C729.363 155.337 729.695 155 730.105 155H733.258C733.668 155 734 155.337 734 155.752V166.663C734 167.079 733.668 167.416 733.258 167.416H730.105C729.695 167.416 729.363 167.079 729.363 166.663V155.752Z" fill="black"/>
<path d="M711 167.246C711 167.386 711.039 167.523 711.111 167.642L714.756 173.606C714.891 173.828 715.13 173.962 715.387 173.962H718.876C719.474 173.962 719.827 173.282 719.487 172.783L715.966 167.603C715.693 167.2 715.867 166.646 716.29 166.412C717.099 165.965 717.738 165.376 718.206 164.644C718.847 163.65 719.167 162.504 719.167 161.203C719.167 159.379 718.544 157.89 717.298 156.734C716.069 155.578 714.262 155 711.875 155H711.754C711.345 155 711.014 155.335 711.012 155.75L711 158.881C711 158.893 711.01 158.903 711.022 158.904C711.929 158.931 713.211 159.147 713.692 159.551C714.208 159.966 714.466 160.571 714.466 161.366C714.466 162.142 714.208 162.747 713.692 163.181C713.326 163.488 712.496 163.687 711.72 163.776C711.321 163.822 711 164.154 711 164.561V167.246Z" fill="black"/>
<rect x="753" y="134" width="179" height="62" rx="12" fill="white" stroke="#444B54" stroke-width="6"/>
<path d="M802.392 169.216C803.139 170.581 803.971 171.68 804.888 172.512C805.827 173.344 806.968 173.76 808.312 173.76C809.507 173.76 810.467 173.429 811.192 172.768C811.917 172.107 812.28 171.264 812.28 170.24C812.28 169.237 812.045 168.437 811.576 167.84C811.107 167.243 810.488 166.763 809.72 166.4C808.973 166.016 808.173 165.675 807.32 165.376C806.765 165.184 806.147 164.939 805.464 164.64C804.781 164.32 804.131 163.925 803.512 163.456C802.893 162.965 802.381 162.368 801.976 161.664C801.592 160.96 801.4 160.096 801.4 159.072C801.4 157.963 801.677 156.971 802.232 156.096C802.787 155.221 803.555 154.539 804.536 154.048C805.517 153.536 806.637 153.28 807.896 153.28C809.112 153.28 810.168 153.515 811.064 153.984C811.981 154.432 812.76 155.019 813.4 155.744C814.04 156.448 814.541 157.195 814.904 157.984L812.568 159.328C812.291 158.773 811.939 158.229 811.512 157.696C811.085 157.163 810.563 156.725 809.944 156.384C809.347 156.043 808.611 155.872 807.736 155.872C806.52 155.872 805.635 156.171 805.08 156.768C804.525 157.344 804.248 157.995 804.248 158.72C804.248 159.659 804.621 160.48 805.368 161.184C806.115 161.888 807.469 162.581 809.432 163.264C810.029 163.477 810.659 163.755 811.32 164.096C811.981 164.437 812.589 164.875 813.144 165.408C813.72 165.92 814.189 166.549 814.552 167.296C814.915 168.021 815.096 168.896 815.096 169.92C815.096 171.221 814.765 172.352 814.104 173.312C813.464 174.272 812.621 175.019 811.576 175.552C810.531 176.064 809.411 176.32 808.216 176.32C807 176.32 805.869 176.064 804.824 175.552C803.8 175.019 802.893 174.325 802.104 173.472C801.336 172.597 800.707 171.669 800.216 170.688L802.392 169.216ZM824.627 176.32C823.262 176.32 822.046 176 820.979 175.36C819.934 174.699 819.113 173.792 818.515 172.64C817.939 171.488 817.651 170.155 817.651 168.64C817.651 167.104 817.95 165.76 818.547 164.608C819.166 163.456 820.019 162.56 821.107 161.92C822.217 161.28 823.497 160.96 824.947 160.96C827.102 160.96 828.798 161.632 830.035 162.976C831.273 164.32 831.891 166.165 831.891 168.512C831.891 168.661 831.881 168.821 831.859 168.992C831.859 169.141 831.859 169.237 831.859 169.28H820.275C820.382 170.752 820.841 171.893 821.651 172.704C822.462 173.515 823.561 173.92 824.947 173.92C826.953 173.92 828.489 173.035 829.555 171.264L831.635 172.576C830.099 175.072 827.763 176.32 824.627 176.32ZM824.947 163.2C823.689 163.2 822.665 163.541 821.875 164.224C821.086 164.885 820.585 165.845 820.371 167.104H829.107C829.022 165.931 828.595 164.992 827.827 164.288C827.081 163.563 826.121 163.2 824.947 163.2ZM842.408 164.096C842.067 163.84 841.757 163.659 841.48 163.552C841.203 163.424 840.851 163.36 840.424 163.36C839.464 163.36 838.813 163.712 838.472 164.416C838.131 165.099 837.96 165.973 837.96 167.04V176H835.4V161.28H837.96V162.976C838.365 162.357 838.845 161.867 839.4 161.504C839.955 161.141 840.509 160.96 841.064 160.96C841.597 160.96 842.088 161.035 842.536 161.184C843.005 161.312 843.432 161.579 843.816 161.984L842.408 164.096ZM844.938 161.28H847.818L851.978 171.68L856.138 161.28H859.018L851.978 177.12L844.938 161.28ZM866.659 176.32C865.293 176.32 864.077 176 863.011 175.36C861.965 174.699 861.144 173.792 860.547 172.64C859.971 171.488 859.683 170.155 859.683 168.64C859.683 167.104 859.981 165.76 860.579 164.608C861.197 163.456 862.051 162.56 863.139 161.92C864.248 161.28 865.528 160.96 866.979 160.96C869.133 160.96 870.829 161.632 872.067 162.976C873.304 164.32 873.923 166.165 873.923 168.512C873.923 168.661 873.912 168.821 873.891 168.992C873.891 169.141 873.891 169.237 873.891 169.28H862.307C862.413 170.752 862.872 171.893 863.683 172.704C864.493 173.515 865.592 173.92 866.979 173.92C868.984 173.92 870.52 173.035 871.587 171.264L873.667 172.576C872.131 175.072 869.795 176.32 866.659 176.32ZM866.979 163.2C865.72 163.2 864.696 163.541 863.907 164.224C863.117 164.885 862.616 165.845 862.403 167.104H871.139C871.053 165.931 870.627 164.992 869.859 164.288C869.112 163.563 868.152 163.2 866.979 163.2ZM884.439 164.096C884.098 163.84 883.789 163.659 883.511 163.552C883.234 163.424 882.882 163.36 882.455 163.36C881.495 163.36 880.845 163.712 880.503 164.416C880.162 165.099 879.991 165.973 879.991 167.04V176H877.431V161.28H879.991V162.976C880.397 162.357 880.877 161.867 881.431 161.504C881.986 161.141 882.541 160.96 883.095 160.96C883.629 160.96 884.119 161.035 884.567 161.184C885.037 161.312 885.463 161.579 885.847 161.984L884.439 164.096Z" fill="black"/>
<rect x="32" y="251" width="139" height="62" rx="12" fill="#FFD600" stroke="#444B54" stroke-width="6"/>
<path d="M62.7581 279.337C62.7581 278.921 63.0902 278.584 63.5 278.584H66.6532C67.063 278.584 67.3952 278.921 67.3952 279.337V290.248C67.3952 290.663 67.063 291 66.6532 291H63.5C63.0902 291 62.7581 290.663 62.7581 290.248V279.337Z" fill="black"/>
<path d="M62.7581 272.752C62.7581 272.337 63.0902 272 63.5 272H66.6532C67.063 272 67.3952 272.337 67.3952 272.752V275.95C67.3952 276.366 67.063 276.703 66.6532 276.703H63.5C63.0902 276.703 62.7581 276.366 62.7581 275.95V272.752Z" fill="black"/>
<path d="M70.3629 287.05C70.3629 286.634 70.6951 286.297 71.1048 286.297H74.2581C74.6678 286.297 75 286.634 75 287.05V290.248C75 290.663 74.6678 291 74.2581 291H71.1048C70.6951 291 70.3629 290.663 70.3629 290.248V287.05Z" fill="black"/>
<path d="M70.3629 272.752C70.3629 272.337 70.6951 272 71.1048 272H74.2581C74.6678 272 75 272.337 75 272.752V283.663C75 284.079 74.6678 284.416 74.2581 284.416H71.1048C70.6951 284.416 70.3629 284.079 70.3629 283.663V272.752Z" fill="black"/>
<path d="M52 284.246C52 284.386 52.0386 284.523 52.1113 284.642L55.7562 290.606C55.8915 290.828 56.13 290.962 56.3868 290.962H59.8764C60.4742 290.962 60.8266 290.282 60.4872 289.783L56.9662 284.603C56.6926 284.2 56.8671 283.646 57.2904 283.412C58.0994 282.965 58.7378 282.376 59.2057 281.644C59.8467 280.65 60.1672 279.504 60.1672 278.203C60.1672 276.379 59.544 274.89 58.2975 273.734C57.0689 272.578 55.2615 272 52.8755 272H52.7539C52.3453 272 52.0136 272.335 52.012 272.75L52 275.881C52 275.893 52.0097 275.903 52.022 275.904C52.9293 275.931 54.2106 276.147 54.6917 276.551C55.2081 276.966 55.4663 277.571 55.4663 278.366C55.4663 279.142 55.2081 279.747 54.6917 280.181C54.3255 280.488 53.4957 280.687 52.7202 280.776C52.3208 280.822 52 281.154 52 281.561V284.246Z" fill="black"/>
<rect x="93" y="251" width="122" height="62" rx="12" fill="white" stroke="#444B54" stroke-width="6"/>
<path d="M138.06 270.6H140.78V293H138.06V270.6ZM144.464 285.64C144.464 284.147 144.794 282.824 145.456 281.672C146.138 280.52 147.056 279.613 148.208 278.952C149.36 278.291 150.65 277.96 152.08 277.96C153.53 277.96 154.821 278.291 155.952 278.952C157.104 279.613 158.01 280.52 158.672 281.672C159.354 282.824 159.696 284.147 159.696 285.64C159.696 287.112 159.354 288.435 158.672 289.608C158.01 290.76 157.104 291.667 155.952 292.328C154.821 292.989 153.53 293.32 152.08 293.32C150.65 293.32 149.36 292.989 148.208 292.328C147.056 291.667 146.138 290.76 145.456 289.608C144.794 288.435 144.464 287.112 144.464 285.64ZM147.056 285.64C147.056 286.664 147.269 287.571 147.696 288.36C148.144 289.149 148.741 289.779 149.488 290.248C150.256 290.696 151.12 290.92 152.08 290.92C153.04 290.92 153.893 290.696 154.64 290.248C155.408 289.779 156.005 289.149 156.432 288.36C156.88 287.571 157.104 286.664 157.104 285.64C157.104 284.616 156.88 283.709 156.432 282.92C156.005 282.109 155.408 281.48 154.64 281.032C153.893 280.584 153.04 280.36 152.08 280.36C151.12 280.36 150.256 280.584 149.488 281.032C148.741 281.48 148.144 282.109 147.696 282.92C147.269 283.709 147.056 284.616 147.056 285.64ZM157.945 273.16V270.6H172.185V273.16H166.425V293H163.705V273.16H157.945Z" fill="black"/>
<rect x="823" y="251" width="139" height="62" rx="12" fill="#FFD600" stroke="#444B54" stroke-width="6"/>
<path d="M851.758 279.337C851.758 278.921 852.09 278.584 852.5 278.584H855.653C856.063 278.584 856.395 278.921 856.395 279.337V290.248C856.395 290.663 856.063 291 855.653 291H852.5C852.09 291 851.758 290.663 851.758 290.248V279.337Z" fill="black"/>
<path d="M851.758 272.752C851.758 272.337 852.09 272 852.5 272H855.653C856.063 272 856.395 272.337 856.395 272.752V275.95C856.395 276.366 856.063 276.703 855.653 276.703H852.5C852.09 276.703 851.758 276.366 851.758 275.95V272.752Z" fill="black"/>
<path d="M859.363 287.05C859.363 286.634 859.695 286.297 860.105 286.297H863.258C863.668 286.297 864 286.634 864 287.05V290.248C864 290.663 863.668 291 863.258 291H860.105C859.695 291 859.363 290.663 859.363 290.248V287.05Z" fill="black"/>
<path d="M859.363 272.752C859.363 272.337 859.695 272 860.105 272H863.258C863.668 272 864 272.337 864 272.752V283.663C864 284.079 863.668 284.416 863.258 284.416H860.105C859.695 284.416 859.363 284.079 859.363 283.663V272.752Z" fill="black"/>
<path d="M841 284.246C841 284.386 841.039 284.523 841.111 284.642L844.756 290.606C844.891 290.828 845.13 290.962 845.387 290.962H848.876C849.474 290.962 849.827 290.282 849.487 289.783L845.966 284.603C845.693 284.2 845.867 283.646 846.29 283.412C847.099 282.965 847.738 282.376 848.206 281.644C848.847 280.65 849.167 279.504 849.167 278.203C849.167 276.379 848.544 274.89 847.298 273.734C846.069 272.578 844.262 272 841.875 272H841.754C841.345 272 841.014 272.335 841.012 272.75L841 275.881C841 275.893 841.01 275.903 841.022 275.904C841.929 275.931 843.211 276.147 843.692 276.551C844.208 276.966 844.466 277.571 844.466 278.366C844.466 279.142 844.208 279.747 843.692 280.181C843.326 280.488 842.496 280.687 841.72 280.776C841.321 280.822 841 281.154 841 281.561V284.246Z" fill="black"/>
<rect x="884" y="251" width="122" height="62" rx="12" fill="white" stroke="#444B54" stroke-width="6"/>
<path d="M934.108 293L931.26 286.28H922.236L919.388 293H916.348L926.748 269.48L937.148 293H934.108ZM926.748 275.656L923.324 283.72H930.172L926.748 275.656ZM942.113 300.04H939.553V278.28H942.113V280.808C942.646 279.891 943.339 279.187 944.193 278.696C945.067 278.205 946.049 277.96 947.137 277.96C948.481 277.96 949.697 278.269 950.785 278.888C951.894 279.507 952.779 280.392 953.441 281.544C954.102 282.675 954.433 284.04 954.433 285.64C954.433 287.219 954.102 288.584 953.441 289.736C952.779 290.888 951.894 291.773 950.785 292.392C949.697 293.011 948.481 293.32 947.137 293.32C946.049 293.32 945.067 293.075 944.193 292.584C943.339 292.093 942.646 291.389 942.113 290.472V300.04ZM951.841 285.64C951.841 284.509 951.606 283.549 951.137 282.76C950.689 281.971 950.081 281.373 949.313 280.968C948.566 280.563 947.734 280.36 946.817 280.36C946.07 280.36 945.334 280.563 944.609 280.968C943.883 281.373 943.286 281.971 942.817 282.76C942.347 283.549 942.113 284.509 942.113 285.64C942.113 286.771 942.347 287.731 942.817 288.52C943.286 289.309 943.883 289.907 944.609 290.312C945.334 290.717 946.07 290.92 946.817 290.92C947.734 290.92 948.566 290.717 949.313 290.312C950.081 289.907 950.689 289.309 951.137 288.52C951.606 287.731 951.841 286.771 951.841 285.64ZM960.363 300.04H957.803V278.28H960.363V280.808C960.896 279.891 961.589 279.187 962.443 278.696C963.317 278.205 964.299 277.96 965.387 277.96C966.731 277.96 967.947 278.269 969.035 278.888C970.144 279.507 971.029 280.392 971.691 281.544C972.352 282.675 972.683 284.04 972.683 285.64C972.683 287.219 972.352 288.584 971.691 289.736C971.029 290.888 970.144 291.773 969.035 292.392C967.947 293.011 966.731 293.32 965.387 293.32C964.299 293.32 963.317 293.075 962.443 292.584C961.589 292.093 960.896 291.389 960.363 290.472V300.04ZM970.091 285.64C970.091 284.509 969.856 283.549 969.387 282.76C968.939 281.971 968.331 281.373 967.563 280.968C966.816 280.563 965.984 280.36 965.067 280.36C964.32 280.36 963.584 280.563 962.859 280.968C962.133 281.373 961.536 281.971 961.067 282.76C960.597 283.549 960.363 284.509 960.363 285.64C960.363 286.771 960.597 287.731 961.067 288.52C961.536 289.309 962.133 289.907 962.859 290.312C963.584 290.717 964.32 290.92 965.067 290.92C965.984 290.92 966.816 290.717 967.563 290.312C968.331 289.907 968.939 289.309 969.387 288.52C969.856 287.731 970.091 286.771 970.091 285.64Z" fill="black"/>
<rect x="378" y="134" width="139" height="62" rx="12" fill="#FFD600" stroke="#444B54" stroke-width="6"/>
<path d="M407.758 162.337C407.758 161.921 408.09 161.584 408.5 161.584H411.653C412.063 161.584 412.395 161.921 412.395 162.337V173.248C412.395 173.663 412.063 174 411.653 174H408.5C408.09 174 407.758 173.663 407.758 173.248V162.337Z" fill="black"/>
<path d="M407.758 155.752C407.758 155.337 408.09 155 408.5 155H411.653C412.063 155 412.395 155.337 412.395 155.752V158.95C412.395 159.366 412.063 159.703 411.653 159.703H408.5C408.09 159.703 407.758 159.366 407.758 158.95V155.752Z" fill="black"/>
<path d="M415.363 170.05C415.363 169.634 415.695 169.297 416.105 169.297H419.258C419.668 169.297 420 169.634 420 170.05V173.248C420 173.663 419.668 174 419.258 174H416.105C415.695 174 415.363 173.663 415.363 173.248V170.05Z" fill="black"/>
<path d="M415.363 155.752C415.363 155.337 415.695 155 416.105 155H419.258C419.668 155 420 155.337 420 155.752V166.663C420 167.079 419.668 167.416 419.258 167.416H416.105C415.695 167.416 415.363 167.079 415.363 166.663V155.752Z" fill="black"/>
<path d="M397 167.246C397 167.386 397.039 167.523 397.111 167.642L400.756 173.606C400.891 173.828 401.13 173.962 401.387 173.962H404.876C405.474 173.962 405.827 173.282 405.487 172.783L401.966 167.603C401.693 167.2 401.867 166.646 402.29 166.412C403.099 165.965 403.738 165.376 404.206 164.644C404.847 163.65 405.167 162.504 405.167 161.203C405.167 159.379 404.544 157.89 403.298 156.734C402.069 155.578 400.262 155 397.875 155H397.754C397.345 155 397.014 155.335 397.012 155.75L397 158.881C397 158.893 397.01 158.903 397.022 158.904C397.929 158.931 399.211 159.147 399.692 159.551C400.208 159.966 400.466 160.571 400.466 161.366C400.466 162.142 400.208 162.747 399.692 163.181C399.326 163.488 398.496 163.687 397.72 163.776C397.321 163.822 397 164.154 397 164.561V167.246Z" fill="black"/>
<rect x="439" y="134" width="208" height="62" rx="12" fill="white" stroke="#444B54" stroke-width="6"/>
<path d="M468.238 164.8C468.238 166.528 468.622 168.053 469.39 169.376C470.179 170.699 471.203 171.733 472.462 172.48C473.721 173.227 475.086 173.6 476.558 173.6C478.137 173.6 479.534 173.291 480.75 172.672C481.966 172.053 482.969 171.253 483.758 170.272V173.856C482.819 174.688 481.795 175.307 480.686 175.712C479.577 176.117 478.201 176.32 476.558 176.32C475.001 176.32 473.539 176.043 472.174 175.488C470.83 174.912 469.646 174.112 468.622 173.088C467.598 172.043 466.798 170.816 466.222 169.408C465.646 168 465.358 166.464 465.358 164.8C465.358 163.136 465.646 161.6 466.222 160.192C466.798 158.784 467.598 157.568 468.622 156.544C469.646 155.499 470.83 154.699 472.174 154.144C473.539 153.568 475.001 153.28 476.558 153.28C478.201 153.28 479.577 153.483 480.686 153.888C481.795 154.293 482.819 154.912 483.758 155.744V159.328C482.969 158.325 481.966 157.525 480.75 156.928C479.534 156.309 478.137 156 476.558 156C475.086 156 473.721 156.373 472.462 157.12C471.203 157.867 470.179 158.901 469.39 160.224C468.622 161.525 468.238 163.051 468.238 164.8ZM487.104 168.64C487.104 167.147 487.435 165.824 488.096 164.672C488.779 163.52 489.696 162.613 490.848 161.952C492 161.291 493.291 160.96 494.72 160.96C496.171 160.96 497.462 161.291 498.592 161.952C499.744 162.613 500.651 163.52 501.312 164.672C501.995 165.824 502.336 167.147 502.336 168.64C502.336 170.112 501.995 171.435 501.312 172.608C500.651 173.76 499.744 174.667 498.592 175.328C497.462 175.989 496.171 176.32 494.72 176.32C493.291 176.32 492 175.989 490.848 175.328C489.696 174.667 488.779 173.76 488.096 172.608C487.435 171.435 487.104 170.112 487.104 168.64ZM489.696 168.64C489.696 169.664 489.91 170.571 490.336 171.36C490.784 172.149 491.382 172.779 492.128 173.248C492.896 173.696 493.76 173.92 494.72 173.92C495.68 173.92 496.534 173.696 497.28 173.248C498.048 172.779 498.646 172.149 499.072 171.36C499.52 170.571 499.744 169.664 499.744 168.64C499.744 167.616 499.52 166.709 499.072 165.92C498.646 165.109 498.048 164.48 497.28 164.032C496.534 163.584 495.68 163.36 494.72 163.36C493.76 163.36 492.896 163.584 492.128 164.032C491.382 164.48 490.784 165.109 490.336 165.92C489.91 166.709 489.696 167.616 489.696 168.64ZM526.013 166.72V176H523.453V167.04C523.453 165.781 523.218 164.853 522.749 164.256C522.301 163.659 521.597 163.36 520.637 163.36C519.592 163.36 518.76 163.691 518.141 164.352C517.522 164.992 517.213 165.888 517.213 167.04V176H514.653V167.04C514.653 165.781 514.418 164.853 513.949 164.256C513.501 163.659 512.797 163.36 511.837 163.36C510.792 163.36 509.96 163.691 509.341 164.352C508.722 164.992 508.413 165.888 508.413 167.04V176H505.853V161.28H508.413V163.424C509.288 161.781 510.642 160.96 512.477 160.96C513.501 160.96 514.376 161.205 515.101 161.696C515.848 162.165 516.392 162.837 516.733 163.712C517.757 161.877 519.272 160.96 521.277 160.96C522.792 160.96 523.954 161.461 524.765 162.464C525.597 163.467 526.013 164.885 526.013 166.72ZM533.222 183.04H530.662V161.28H533.222V163.808C533.755 162.891 534.449 162.187 535.302 161.696C536.177 161.205 537.158 160.96 538.246 160.96C539.59 160.96 540.806 161.269 541.894 161.888C543.003 162.507 543.889 163.392 544.55 164.544C545.211 165.675 545.542 167.04 545.542 168.64C545.542 170.219 545.211 171.584 544.55 172.736C543.889 173.888 543.003 174.773 541.894 175.392C540.806 176.011 539.59 176.32 538.246 176.32C537.158 176.32 536.177 176.075 535.302 175.584C534.449 175.093 533.755 174.389 533.222 173.472V183.04ZM542.95 168.64C542.95 167.509 542.715 166.549 542.246 165.76C541.798 164.971 541.19 164.373 540.422 163.968C539.675 163.563 538.843 163.36 537.926 163.36C537.179 163.36 536.443 163.563 535.718 163.968C534.993 164.373 534.395 164.971 533.926 165.76C533.457 166.549 533.222 167.509 533.222 168.64C533.222 169.771 533.457 170.731 533.926 171.52C534.395 172.309 534.993 172.907 535.718 173.312C536.443 173.717 537.179 173.92 537.926 173.92C538.843 173.92 539.675 173.717 540.422 173.312C541.19 172.907 541.798 172.309 542.246 171.52C542.715 170.731 542.95 169.771 542.95 168.64ZM547.792 168.64C547.792 167.147 548.123 165.824 548.784 164.672C549.467 163.52 550.384 162.613 551.536 161.952C552.688 161.291 553.979 160.96 555.408 160.96C556.859 160.96 558.149 161.291 559.28 161.952C560.432 162.613 561.339 163.52 562 164.672C562.683 165.824 563.024 167.147 563.024 168.64C563.024 170.112 562.683 171.435 562 172.608C561.339 173.76 560.432 174.667 559.28 175.328C558.149 175.989 556.859 176.32 555.408 176.32C553.979 176.32 552.688 175.989 551.536 175.328C550.384 174.667 549.467 173.76 548.784 172.608C548.123 171.435 547.792 170.112 547.792 168.64ZM550.384 168.64C550.384 169.664 550.597 170.571 551.024 171.36C551.472 172.149 552.069 172.779 552.816 173.248C553.584 173.696 554.448 173.92 555.408 173.92C556.368 173.92 557.221 173.696 557.968 173.248C558.736 172.779 559.333 172.149 559.76 171.36C560.208 170.571 560.432 169.664 560.432 168.64C560.432 167.616 560.208 166.709 559.76 165.92C559.333 165.109 558.736 164.48 557.968 164.032C557.221 163.584 556.368 163.36 555.408 163.36C554.448 163.36 553.584 163.584 552.816 164.032C552.069 164.48 551.472 165.109 551.024 165.92C550.597 166.709 550.384 167.616 550.384 168.64ZM575.981 167.04C575.981 164.587 574.935 163.36 572.845 163.36C571.735 163.36 570.829 163.701 570.125 164.384C569.442 165.067 569.101 165.952 569.101 167.04V176H566.541V161.28H569.101V163.584C570.061 161.835 571.522 160.96 573.485 160.96C575.042 160.96 576.269 161.483 577.165 162.528C578.082 163.552 578.541 164.949 578.541 166.72V176H575.981V167.04ZM589.049 176.32C587.684 176.32 586.468 176 585.401 175.36C584.356 174.699 583.534 173.792 582.937 172.64C582.361 171.488 582.073 170.155 582.073 168.64C582.073 167.104 582.372 165.76 582.969 164.608C583.588 163.456 584.441 162.56 585.529 161.92C586.638 161.28 587.918 160.96 589.369 160.96C591.524 160.96 593.22 161.632 594.457 162.976C595.694 164.32 596.313 166.165 596.313 168.512C596.313 168.661 596.302 168.821 596.281 168.992C596.281 169.141 596.281 169.237 596.281 169.28H584.697C584.804 170.752 585.262 171.893 586.073 172.704C586.884 173.515 587.982 173.92 589.369 173.92C591.374 173.92 592.91 173.035 593.977 171.264L596.057 172.576C594.521 175.072 592.185 176.32 589.049 176.32ZM589.369 163.2C588.11 163.2 587.086 163.541 586.297 164.224C585.508 164.885 585.006 165.845 584.793 167.104H593.529C593.444 165.931 593.017 164.992 592.249 164.288C591.502 163.563 590.542 163.2 589.369 163.2ZM609.262 167.04C609.262 164.587 608.217 163.36 606.126 163.36C605.017 163.36 604.11 163.701 603.406 164.384C602.723 165.067 602.382 165.952 602.382 167.04V176H599.822V161.28H602.382V163.584C603.342 161.835 604.803 160.96 606.766 160.96C608.323 160.96 609.55 161.483 610.446 162.528C611.363 163.552 611.822 164.949 611.822 166.72V176H609.262V167.04ZM614.394 161.28H616.794V156.16H619.354V161.28H621.754V163.68H619.354V176H616.794V163.68H614.394V161.28Z" fill="black"/>
<rect x="271" y="251" width="139" height="62" rx="12" fill="#FFD600" stroke="#444B54" stroke-width="6"/>
<path d="M300.758 279.337C300.758 278.921 301.09 278.584 301.5 278.584H304.653C305.063 278.584 305.395 278.921 305.395 279.337V290.248C305.395 290.663 305.063 291 304.653 291H301.5C301.09 291 300.758 290.663 300.758 290.248V279.337Z" fill="black"/>
<path d="M300.758 272.752C300.758 272.337 301.09 272 301.5 272H304.653C305.063 272 305.395 272.337 305.395 272.752V275.95C305.395 276.366 305.063 276.703 304.653 276.703H301.5C301.09 276.703 300.758 276.366 300.758 275.95V272.752Z" fill="black"/>
<path d="M308.363 287.05C308.363 286.634 308.695 286.297 309.105 286.297H312.258C312.668 286.297 313 286.634 313 287.05V290.248C313 290.663 312.668 291 312.258 291H309.105C308.695 291 308.363 290.663 308.363 290.248V287.05Z" fill="black"/>
<path d="M308.363 272.752C308.363 272.337 308.695 272 309.105 272H312.258C312.668 272 313 272.337 313 272.752V283.663C313 284.079 312.668 284.416 312.258 284.416H309.105C308.695 284.416 308.363 284.079 308.363 283.663V272.752Z" fill="black"/>
<path d="M290 284.246C290 284.386 290.039 284.523 290.111 284.642L293.756 290.606C293.891 290.828 294.13 290.962 294.387 290.962H297.876C298.474 290.962 298.827 290.282 298.487 289.783L294.966 284.603C294.693 284.2 294.867 283.646 295.29 283.412C296.099 282.965 296.738 282.376 297.206 281.644C297.847 280.65 298.167 279.504 298.167 278.203C298.167 276.379 297.544 274.89 296.298 273.734C295.069 272.578 293.262 272 290.875 272H290.754C290.345 272 290.014 272.335 290.012 272.75L290 275.881C290 275.893 290.01 275.903 290.022 275.904C290.929 275.931 292.211 276.147 292.692 276.551C293.208 276.966 293.466 277.571 293.466 278.366C293.466 279.142 293.208 279.747 292.692 280.181C292.326 280.488 291.496 280.687 290.72 280.776C290.321 280.822 290 281.154 290 281.561V284.246Z" fill="black"/>
<rect x="332" y="251" width="180" height="62" rx="12" fill="white" stroke="#444B54" stroke-width="6"/>
<path d="M373.816 281.8C373.816 283.528 374.2 285.053 374.968 286.376C375.758 287.699 376.782 288.733 378.04 289.48C379.299 290.227 380.664 290.6 382.136 290.6C383.715 290.6 385.112 290.291 386.328 289.672C387.544 289.053 388.547 288.253 389.336 287.272V290.856C388.398 291.688 387.374 292.307 386.264 292.712C385.155 293.117 383.779 293.32 382.136 293.32C380.579 293.32 379.118 293.043 377.752 292.488C376.408 291.912 375.224 291.112 374.2 290.088C373.176 289.043 372.376 287.816 371.8 286.408C371.224 285 370.936 283.464 370.936 281.8C370.936 280.136 371.224 278.6 371.8 277.192C372.376 275.784 373.176 274.568 374.2 273.544C375.224 272.499 376.408 271.699 377.752 271.144C379.118 270.568 380.579 270.28 382.136 270.28C383.779 270.28 385.155 270.483 386.264 270.888C387.374 271.293 388.398 271.912 389.336 272.744V276.328C388.547 275.325 387.544 274.525 386.328 273.928C385.112 273.309 383.715 273 382.136 273C380.664 273 379.299 273.373 378.04 274.12C376.782 274.867 375.758 275.901 374.968 277.224C374.2 278.525 373.816 280.051 373.816 281.8ZM400.97 281.096C400.629 280.84 400.32 280.659 400.043 280.552C399.765 280.424 399.413 280.36 398.987 280.36C398.027 280.36 397.376 280.712 397.035 281.416C396.693 282.099 396.523 282.973 396.523 284.04V293H393.963V278.28H396.523V279.976C396.928 279.357 397.408 278.867 397.963 278.504C398.517 278.141 399.072 277.96 399.627 277.96C400.16 277.96 400.651 278.035 401.099 278.184C401.568 278.312 401.995 278.579 402.379 278.984L400.97 281.096ZM405.699 281.672L404.451 279.784C405.006 279.379 405.763 278.973 406.723 278.568C407.705 278.163 408.878 277.96 410.243 277.96C411.95 277.96 413.337 278.355 414.403 279.144C415.47 279.912 416.003 281.011 416.003 282.44V293H413.443V291.016C412.974 291.784 412.27 292.36 411.331 292.744C410.393 293.128 409.475 293.32 408.579 293.32C407.683 293.32 406.841 293.139 406.051 292.776C405.283 292.392 404.665 291.848 404.195 291.144C403.726 290.44 403.491 289.587 403.491 288.584C403.491 287.155 403.993 286.013 404.995 285.16C406.019 284.285 407.438 283.848 409.251 283.848C410.233 283.848 411.065 283.965 411.747 284.2C412.451 284.413 413.017 284.659 413.443 284.936V282.792C413.443 281.789 413.113 281.107 412.451 280.744C411.811 280.381 411.033 280.2 410.115 280.2C409.006 280.2 408.078 280.381 407.331 280.744C406.585 281.107 406.041 281.416 405.699 281.672ZM406.083 288.456C406.083 289.309 406.371 289.971 406.947 290.44C407.545 290.888 408.313 291.112 409.251 291.112C410.425 291.112 411.417 290.76 412.227 290.056C413.038 289.352 413.443 288.413 413.443 287.24V286.696C412.846 286.397 412.238 286.184 411.619 286.056C411.001 285.928 410.35 285.864 409.667 285.864C408.43 285.864 407.523 286.099 406.947 286.568C406.371 287.016 406.083 287.645 406.083 288.456ZM417.941 278.28H420.821L424.501 287.848L428.501 277.16L432.789 287.912L436.501 278.28H439.381L432.981 294.12L428.533 283.4L424.341 294.12L417.941 278.28ZM441.931 268.04H444.491V293H441.931V268.04ZM455.002 293.32C453.637 293.32 452.421 293 451.354 292.36C450.309 291.699 449.488 290.792 448.89 289.64C448.314 288.488 448.026 287.155 448.026 285.64C448.026 284.104 448.325 282.76 448.922 281.608C449.541 280.456 450.394 279.56 451.482 278.92C452.592 278.28 453.872 277.96 455.322 277.96C457.477 277.96 459.173 278.632 460.41 279.976C461.648 281.32 462.266 283.165 462.266 285.512C462.266 285.661 462.256 285.821 462.234 285.992C462.234 286.141 462.234 286.237 462.234 286.28H450.65C450.757 287.752 451.216 288.893 452.026 289.704C452.837 290.515 453.936 290.92 455.322 290.92C457.328 290.92 458.864 290.035 459.93 288.264L462.01 289.576C460.474 292.072 458.138 293.32 455.002 293.32ZM455.322 280.2C454.064 280.2 453.04 280.541 452.25 281.224C451.461 281.885 450.96 282.845 450.746 284.104H459.482C459.397 282.931 458.97 281.992 458.202 281.288C457.456 280.563 456.496 280.2 455.322 280.2ZM472.783 281.096C472.442 280.84 472.132 280.659 471.855 280.552C471.578 280.424 471.226 280.36 470.799 280.36C469.839 280.36 469.188 280.712 468.847 281.416C468.506 282.099 468.335 282.973 468.335 284.04V293H465.775V278.28H468.335V279.976C468.74 279.357 469.22 278.867 469.775 278.504C470.33 278.141 470.884 277.96 471.439 277.96C471.972 277.96 472.463 278.035 472.911 278.184C473.38 278.312 473.807 278.579 474.191 278.984L472.783 281.096Z" fill="black"/>
</svg>
