<svg width="196" height="196" viewBox="0 0 196 196" fill="none" xmlns="http://www.w3.org/2000/svg">
<g filter="url(#filter0_d)">
<rect x="5" y="4" width="182" height="182" rx="6" fill="#F7F6F6"/>
</g>
<path d="M52.4874 36.464V31.6H70.2154V36.464H64.0714V54H58.6314V36.464H52.4874ZM70.5974 43.792L68.9654 40.56C69.8187 40.1547 70.8214 39.7707 71.9734 39.408C73.1467 39.0453 74.4267 38.864 75.8134 38.864C77.1147 38.864 78.2774 39.056 79.3014 39.44C80.3254 39.8027 81.136 40.336 81.7334 41.04C82.3307 41.744 82.6294 42.608 82.6294 43.632V54H77.9894V51.984C77.5414 52.752 76.8694 53.3387 75.9734 53.744C75.0987 54.128 74.1494 54.32 73.1254 54.32C72.1867 54.32 71.312 54.1493 70.5014 53.808C69.712 53.4453 69.072 52.912 68.5814 52.208C68.112 51.504 67.8774 50.6507 67.8774 49.648C67.8774 48.24 68.368 47.1307 69.3494 46.32C70.352 45.488 71.7814 45.072 73.6374 45.072C74.5334 45.072 75.3547 45.168 76.1014 45.36C76.848 45.5307 77.4774 45.744 77.9894 46V44.72C77.9894 43.2693 77.0614 42.544 75.2054 42.544C74.5654 42.544 73.9254 42.6187 73.2854 42.768C72.6454 42.9173 72.08 43.0987 71.5894 43.312C71.12 43.504 70.7894 43.664 70.5974 43.792ZM72.7734 49.392C72.7734 49.968 72.9654 50.416 73.3494 50.736C73.7547 51.0347 74.256 51.184 74.8534 51.184C75.6427 51.184 76.3467 50.9493 76.9654 50.48C77.584 49.9893 77.9254 49.264 77.9894 48.304C77.1147 47.92 76.1654 47.728 75.1414 47.728C74.288 47.728 73.68 47.8773 73.3174 48.176C72.9547 48.4533 72.7734 48.8587 72.7734 49.392ZM103.079 46.64C103.079 48.2827 102.738 49.68 102.055 50.832C101.394 51.984 100.53 52.8587 99.4634 53.456C98.3967 54.032 97.266 54.32 96.0714 54.32C93.8954 54.32 92.2207 53.4347 91.0474 51.664V54H86.2154V29.04H91.0474V41.616C92.2207 39.8453 93.8954 38.96 96.0714 38.96C97.266 38.96 98.3967 39.2587 99.4634 39.856C100.53 40.432 101.394 41.296 102.055 42.448C102.738 43.5787 103.079 44.976 103.079 46.64ZM97.9914 46.64C97.9914 45.488 97.6394 44.5707 96.9354 43.888C96.2527 43.2053 95.4314 42.864 94.4714 42.864C93.938 42.864 93.4047 43.0133 92.8714 43.312C92.338 43.6107 91.9007 44.0373 91.5594 44.592C91.218 45.1467 91.0474 45.8293 91.0474 46.64C91.0474 47.4293 91.218 48.112 91.5594 48.688C91.9007 49.2427 92.338 49.6693 92.8714 49.968C93.4047 50.2667 93.938 50.416 94.4714 50.416C95.4314 50.416 96.2527 50.0747 96.9354 49.392C97.6394 48.7093 97.9914 47.792 97.9914 46.64ZM105.966 29.04H110.83V54H105.966V29.04ZM122.111 54.32C120.383 54.32 118.89 54.0107 117.631 53.392C116.394 52.752 115.434 51.856 114.751 50.704C114.068 49.552 113.727 48.1973 113.727 46.64C113.727 44.2507 114.463 42.3733 115.935 41.008C117.407 39.6427 119.434 38.96 122.015 38.96C124.554 38.96 126.506 39.6107 127.871 40.912C129.258 42.2133 129.951 44.048 129.951 46.416C129.951 46.6507 129.951 46.8747 129.951 47.088C129.951 47.3013 129.94 47.4933 129.919 47.664H118.687C118.815 48.6667 119.167 49.4453 119.743 50C120.319 50.5547 121.076 50.832 122.015 50.832C123.722 50.832 124.938 50.192 125.663 48.912L130.015 49.968C128.458 52.8693 125.823 54.32 122.111 54.32ZM121.919 42.192C120.17 42.192 119.114 43.12 118.751 44.976H124.767C124.682 44.1227 124.383 43.4507 123.871 42.96C123.38 42.448 122.73 42.192 121.919 42.192ZM133.735 48.656C134.866 49.5947 135.826 50.2347 136.615 50.576C137.426 50.896 138.087 51.056 138.599 51.056C139.559 51.056 140.039 50.672 140.039 49.904C140.039 49.4347 139.815 49.0613 139.367 48.784C138.919 48.4853 138.098 48.144 136.903 47.76C136.22 47.5253 135.559 47.2267 134.919 46.864C134.279 46.5013 133.756 46.0213 133.351 45.424C132.946 44.8267 132.743 44.0587 132.743 43.12C132.743 41.776 133.266 40.752 134.311 40.048C135.356 39.3227 136.668 38.96 138.247 38.96C139.506 38.96 140.658 39.1733 141.703 39.6C142.748 40.0053 143.698 40.5173 144.551 41.136L142.823 44.304C142.226 43.728 141.522 43.248 140.711 42.864C139.922 42.48 139.196 42.288 138.535 42.288C138.108 42.288 137.778 42.3733 137.543 42.544C137.33 42.7147 137.223 42.9387 137.223 43.216C137.223 43.7067 137.511 44.0693 138.087 44.304C138.684 44.5387 139.527 44.8693 140.615 45.296C141.383 45.5733 142.087 45.8933 142.727 46.256C143.367 46.6187 143.879 47.0773 144.263 47.632C144.668 48.1867 144.871 48.9227 144.871 49.84C144.871 51.3973 144.391 52.5813 143.431 53.392C142.471 54.2027 141.106 54.608 139.335 54.608C137.735 54.608 136.316 54.352 135.079 53.84C133.842 53.3067 132.722 52.6453 131.719 51.856L133.735 48.656Z" fill="#262728"/>
<line x1="29" y1="86.5" x2="56" y2="86.5" stroke="#C4C4C4" stroke-width="3"/>
<line x1="68" y1="86.5" x2="99" y2="86.5" stroke="#C4C4C4" stroke-width="3"/>
<line x1="112" y1="86.5" x2="166" y2="86.5" stroke="#C4C4C4" stroke-width="3"/>
<line x1="21" y1="162.5" x2="171" y2="162.5" stroke="#C4C4C4" stroke-width="3"/>
<line x1="21" y1="140.5" x2="171" y2="140.5" stroke="#C4C4C4" stroke-width="3"/>
<line x1="61.5" y1="76" x2="61.5" y2="164" stroke="#C4C4C4" stroke-width="3"/>
<line x1="21" y1="118.5" x2="171" y2="118.5" stroke="#C4C4C4" stroke-width="3"/>
<line x1="105.5" y1="76" x2="105.5" y2="164" stroke="#C4C4C4" stroke-width="3"/>
<line x1="21" y1="74.5" x2="174" y2="74.5" stroke="#EE5055" stroke-width="3"/>
<line x1="172.5" y1="76" x2="172.5" y2="164" stroke="#C4C4C4" stroke-width="3"/>
<line x1="22.5" y1="76" x2="22.5" y2="164" stroke="#C4C4C4" stroke-width="3"/>
<line x1="21" y1="96.5" x2="174" y2="96.5" stroke="#EE5055" stroke-width="3"/>
<defs>
<filter id="filter0_d" x="0" y="0" width="196" height="196" filterUnits="userSpaceOnUse" color-interpolation-filters="sRGB">
<feFlood flood-opacity="0" result="BackgroundImageFix"/>
<feColorMatrix in="SourceAlpha" type="matrix" values="0 0 0 0 0 0 0 0 0 0 0 0 0 0 0 0 0 0 127 0" result="hardAlpha"/>
<feOffset dx="2" dy="3"/>
<feGaussianBlur stdDeviation="3.5"/>
<feComposite in2="hardAlpha" operator="out"/>
<feColorMatrix type="matrix" values="0 0 0 0 0 0 0 0 0 0 0 0 0 0 0 0 0 0 0.25 0"/>
<feBlend mode="normal" in2="BackgroundImageFix" result="effect1_dropShadow"/>
<feBlend mode="normal" in="SourceGraphic" in2="effect1_dropShadow" result="shape"/>
</filter>
</defs>
</svg>
