<svg width="196" height="196" viewBox="0 0 196 196" fill="none" xmlns="http://www.w3.org/2000/svg">
<g filter="url(#filter0_d)">
<rect x="5" y="4" width="182" height="182" rx="6" fill="#F7F6F6"/>
</g>
<line x1="21" y1="162.5" x2="171" y2="162.5" stroke="#C4C4C4" stroke-width="3"/>
<line x1="21" y1="140.5" x2="171" y2="140.5" stroke="#C4C4C4" stroke-width="3"/>
<line x1="21" y1="118.5" x2="171" y2="118.5" stroke="#C4C4C4" stroke-width="3"/>
<line x1="21" y1="96.5" x2="171" y2="96.5" stroke="#C4C4C4" stroke-width="3"/>
<line x1="21" y1="74.5" x2="171" y2="74.5" stroke="#C4C4C4" stroke-width="3"/>
<path d="M22 98H46C49.3137 98 52 100.686 52 104V157.5C52 160.814 54.6863 163.5 58 163.5H86.5C89.8137 163.5 92.5 160.814 92.5 157.5V145C92.5 141.686 95.1863 139 98.5 139H111C114.314 139 117 136.314 117 133V82C117 78.6863 119.686 76 123 76H170.5" stroke="#EE5055" stroke-width="3"/>
<path d="M55.1174 42.8C55.1174 44.1653 55.416 45.3387 56.0134 46.32C56.632 47.3013 57.4534 48.0587 58.4774 48.592C59.5014 49.104 60.6107 49.36 61.8054 49.36C63.384 49.36 64.7067 49.0613 65.7734 48.464C66.8614 47.8667 67.768 47.1733 68.4934 46.384V52.272C67.5974 52.9547 66.616 53.4987 65.5494 53.904C64.4827 54.3093 63.128 54.512 61.4854 54.512C59.096 54.512 56.9734 54.0213 55.1174 53.04C53.2614 52.0587 51.8107 50.6933 50.7654 48.944C49.72 47.1733 49.1974 45.1253 49.1974 42.8C49.1974 40.4747 49.72 38.4373 50.7654 36.688C51.8107 34.9173 53.2614 33.5413 55.1174 32.56C56.9734 31.5787 59.096 31.088 61.4854 31.088C63.128 31.088 64.4827 31.2907 65.5494 31.696C66.616 32.1013 67.5974 32.6453 68.4934 33.328V39.216C67.768 38.4053 66.8614 37.712 65.7734 37.136C64.7067 36.5387 63.384 36.24 61.8054 36.24C60.6107 36.24 59.5014 36.5067 58.4774 37.04C57.4534 37.552 56.632 38.2987 56.0134 39.28C55.416 40.24 55.1174 41.4133 55.1174 42.8ZM81.9716 45.04C81.9716 44.1653 81.8116 43.504 81.4916 43.056C81.1716 42.5867 80.617 42.352 79.8276 42.352C79.0596 42.352 78.441 42.5867 77.9716 43.056C77.5023 43.504 77.2676 44.1653 77.2676 45.04V54H72.4036V29.04H77.2676V41.296C77.673 40.5067 78.249 39.888 78.9956 39.44C79.7423 38.9707 80.6596 38.736 81.7476 38.736C83.5823 38.736 84.8836 39.216 85.6516 40.176C86.4196 41.136 86.8036 42.5227 86.8036 44.336V54H81.9716V45.04ZM92.1911 43.792L90.5591 40.56C91.4125 40.1547 92.4151 39.7707 93.5671 39.408C94.7405 39.0453 96.0205 38.864 97.4071 38.864C98.7085 38.864 99.8711 39.056 100.895 39.44C101.919 39.8027 102.73 40.336 103.327 41.04C103.924 41.744 104.223 42.608 104.223 43.632V54H99.5831V51.984C99.1351 52.752 98.4631 53.3387 97.5671 53.744C96.6925 54.128 95.7431 54.32 94.7191 54.32C93.7805 54.32 92.9058 54.1493 92.0951 53.808C91.3058 53.4453 90.6658 52.912 90.1751 52.208C89.7058 51.504 89.4711 50.6507 89.4711 49.648C89.4711 48.24 89.9618 47.1307 90.9431 46.32C91.9458 45.488 93.3751 45.072 95.2311 45.072C96.1271 45.072 96.9485 45.168 97.6951 45.36C98.4418 45.5307 99.0711 45.744 99.5831 46V44.72C99.5831 43.2693 98.6551 42.544 96.7991 42.544C96.1591 42.544 95.5191 42.6187 94.8791 42.768C94.2391 42.9173 93.6738 43.0987 93.1831 43.312C92.7138 43.504 92.3831 43.664 92.1911 43.792ZM94.3671 49.392C94.3671 49.968 94.5591 50.416 94.9431 50.736C95.3485 51.0347 95.8498 51.184 96.4471 51.184C97.2365 51.184 97.9405 50.9493 98.5591 50.48C99.1778 49.9893 99.5191 49.264 99.5831 48.304C98.7085 47.92 97.7591 47.728 96.7351 47.728C95.8818 47.728 95.2738 47.8773 94.9111 48.176C94.5485 48.4533 94.3671 48.8587 94.3671 49.392ZM116.865 44.304C116.609 44.048 116.332 43.8453 116.033 43.696C115.756 43.5467 115.404 43.472 114.977 43.472C114.273 43.472 113.697 43.7493 113.249 44.304C112.822 44.8587 112.609 45.6693 112.609 46.736V54H107.841V39.28H112.609V41.136C113.078 40.4533 113.633 39.92 114.273 39.536C114.934 39.1307 115.617 38.928 116.321 38.928C116.854 38.928 117.366 39.0453 117.857 39.28C118.348 39.4933 118.721 39.7813 118.977 40.144L116.865 44.304ZM119.269 39.28H121.861V34.16H126.533V39.28H129.125V43.28H126.533V54H121.861V43.28H119.269V39.28ZM131.985 48.656C133.116 49.5947 134.076 50.2347 134.865 50.576C135.676 50.896 136.337 51.056 136.849 51.056C137.809 51.056 138.289 50.672 138.289 49.904C138.289 49.4347 138.065 49.0613 137.617 48.784C137.169 48.4853 136.348 48.144 135.153 47.76C134.47 47.5253 133.809 47.2267 133.169 46.864C132.529 46.5013 132.006 46.0213 131.601 45.424C131.196 44.8267 130.993 44.0587 130.993 43.12C130.993 41.776 131.516 40.752 132.561 40.048C133.606 39.3227 134.918 38.96 136.497 38.96C137.756 38.96 138.908 39.1733 139.953 39.6C140.998 40.0053 141.948 40.5173 142.801 41.136L141.073 44.304C140.476 43.728 139.772 43.248 138.961 42.864C138.172 42.48 137.446 42.288 136.785 42.288C136.358 42.288 136.028 42.3733 135.793 42.544C135.58 42.7147 135.473 42.9387 135.473 43.216C135.473 43.7067 135.761 44.0693 136.337 44.304C136.934 44.5387 137.777 44.8693 138.865 45.296C139.633 45.5733 140.337 45.8933 140.977 46.256C141.617 46.6187 142.129 47.0773 142.513 47.632C142.918 48.1867 143.121 48.9227 143.121 49.84C143.121 51.3973 142.641 52.5813 141.681 53.392C140.721 54.2027 139.356 54.608 137.585 54.608C135.985 54.608 134.566 54.352 133.329 53.84C132.092 53.3067 130.972 52.6453 129.969 51.856L131.985 48.656Z" fill="#262728"/>
<defs>
<filter id="filter0_d" x="0" y="0" width="196" height="196" filterUnits="userSpaceOnUse" color-interpolation-filters="sRGB">
<feFlood flood-opacity="0" result="BackgroundImageFix"/>
<feColorMatrix in="SourceAlpha" type="matrix" values="0 0 0 0 0 0 0 0 0 0 0 0 0 0 0 0 0 0 127 0" result="hardAlpha"/>
<feOffset dx="2" dy="3"/>
<feGaussianBlur stdDeviation="3.5"/>
<feComposite in2="hardAlpha" operator="out"/>
<feColorMatrix type="matrix" values="0 0 0 0 0 0 0 0 0 0 0 0 0 0 0 0 0 0 0.25 0"/>
<feBlend mode="normal" in2="BackgroundImageFix" result="effect1_dropShadow"/>
<feBlend mode="normal" in="SourceGraphic" in2="effect1_dropShadow" result="shape"/>
</filter>
</defs>
</svg>
