<svg width="196" height="196" viewBox="0 0 196 196" fill="none" xmlns="http://www.w3.org/2000/svg">
<g filter="url(#filter0_d)">
<rect x="5" y="4" width="182" height="182" rx="6" fill="#F7F6F6"/>
</g>
<path d="M36.6844 35.3076L37.4928 31.7784C38.4083 32.0115 39.4251 32.3564 40.5432 32.8131C41.6776 33.2834 42.7784 33.9614 43.8454 34.847C44.8467 35.6782 45.6187 36.5685 46.1614 37.518C46.7177 38.451 47.0009 39.3792 47.0109 40.3024C47.0209 41.2256 46.6989 42.0812 46.0449 42.8691L39.423 50.847L35.8527 47.8835L37.1403 46.3323C36.305 46.6371 35.4133 46.6593 34.4649 46.399C33.5467 46.1358 32.6935 45.6772 31.9056 45.0232C31.1833 44.4237 30.6193 43.7338 30.2135 42.9534C29.8378 42.1702 29.6859 41.351 29.758 40.4959C29.8465 39.6545 30.2109 38.848 30.8513 38.0765C31.7506 36.993 32.8367 36.4528 34.1095 36.4558C35.4124 36.456 36.7779 37.0488 38.2061 38.2342C38.8955 38.8064 39.4662 39.4049 39.9181 40.0295C40.3837 40.6377 40.7317 41.2038 40.9621 41.7278L41.7796 40.7428C42.7062 39.6266 42.4553 38.4758 41.0272 37.2904C40.5347 36.8816 39.9946 36.5303 39.4068 36.2365C38.8189 35.9426 38.2681 35.7211 37.7543 35.5719C37.2705 35.4199 36.9139 35.3318 36.6844 35.3076ZM34.7822 41.0065C34.4143 41.4497 34.2759 41.917 34.367 42.4085C34.4881 42.8972 34.7785 43.3323 35.2382 43.7138C35.8455 44.2179 36.5371 44.487 37.3129 44.521C38.1023 44.5386 38.8282 44.1984 39.4906 43.5006C39.0628 42.6465 38.455 41.8925 37.667 41.2385C37.0104 40.6934 36.4472 40.42 35.9774 40.4182C35.5212 40.4 35.1228 40.5961 34.7822 41.0065ZM55.2919 52.3742C55.8505 51.7012 56.1498 51.0901 56.1897 50.541C56.2432 49.9755 55.9663 49.4406 55.3589 48.9365C54.7679 48.446 54.142 48.2314 53.4811 48.2928C52.8339 48.3378 52.2309 48.6968 51.6723 49.3698L45.9497 56.2643L42.207 53.1578L51.6084 41.8311L55.3511 44.9377L53.9409 46.6367C54.7869 46.2854 55.6321 46.169 56.4763 46.2875C57.337 46.4197 58.1859 46.8332 59.0231 47.5281C60.4349 48.6999 61.1474 49.929 61.1609 51.2155C61.1907 52.5156 60.6402 53.8469 59.5093 55.2094L53.4598 62.4978L49.5693 59.2687L55.2919 52.3742ZM60.406 58.6983C61.4687 57.4179 62.6156 56.5539 63.8466 56.1063C65.0913 55.6422 66.3079 55.5292 67.4965 55.7673C68.6988 55.9889 69.7596 56.4812 70.6789 57.2442C72.3532 58.634 73.0778 60.3998 72.8525 62.5417L80.905 52.8402L84.6231 55.9263L68.6816 75.1324L64.9636 72.0463L66.4759 70.2241C64.4122 70.84 62.5431 70.4531 60.8687 69.0633C59.9495 68.3003 59.2634 67.3566 58.8105 66.2321C58.3712 65.0912 58.265 63.8664 58.4919 62.5575C58.7188 61.2487 59.3568 59.9623 60.406 58.6983ZM64.321 61.9479C63.5853 62.8344 63.262 63.7582 63.3513 64.7195C63.457 65.6945 63.8792 66.4885 64.6179 67.1016C65.0447 67.4559 65.5505 67.6816 66.1352 67.7788C66.7363 67.8896 67.3454 67.8406 67.9623 67.6318C68.5928 67.4066 69.1601 66.9903 69.6642 66.3829C70.182 65.7592 70.4867 65.1249 70.5783 64.4801C70.6699 63.8353 70.6059 63.2276 70.3863 62.6572C70.183 62.1004 69.868 61.6448 69.4412 61.2906C68.7025 60.6774 67.8443 60.4087 66.8666 60.4844C65.9053 60.5737 65.0568 61.0615 64.321 61.9479ZM102.26 90.6937L96.2107 97.9821L92.4679 94.8756L98.1905 87.9811C98.7492 87.3081 99.0566 86.7038 99.1129 86.1683C99.1993 85.6301 98.988 85.1497 98.4792 84.7274C97.9867 84.3186 97.4415 84.1572 96.8434 84.243C96.2454 84.3288 95.6603 84.7165 95.088 85.4059L89.3654 92.3004L85.6227 89.1939L91.3453 82.2994C91.9039 81.6264 92.2114 81.0221 92.2677 80.4866C92.3541 79.9484 92.1428 79.468 91.6339 79.0457C91.1415 78.6369 90.5962 78.4755 89.9982 78.5613C89.4002 78.6471 88.815 79.0348 88.2428 79.7242L82.5202 86.6187L78.9252 83.6348L88.3266 72.3082L91.9216 75.2921L90.5318 76.9665C91.3779 76.6152 92.208 76.5002 93.0222 76.6215C93.8501 76.7264 94.6498 77.0991 95.4213 77.7394C96.3077 78.4752 96.8841 79.217 97.1505 79.9649C97.4334 80.7265 97.4226 81.5077 97.1183 82.3086C98.0191 82.0583 98.9095 82.021 99.7894 82.1968C100.669 82.3727 101.495 82.7808 102.267 83.4212C103.58 84.5112 104.186 85.6517 104.084 86.8428C103.999 88.0476 103.391 89.3312 102.26 90.6937ZM103.16 94.185C104.154 92.9867 105.299 92.1759 106.593 91.7528C107.903 91.3432 109.247 91.2942 110.624 91.6056C112.018 91.9306 113.33 92.6041 114.561 93.626C115.809 94.6615 116.712 95.8274 117.272 97.1238C117.832 98.4201 118.023 99.7431 117.845 101.093C117.684 102.456 117.106 103.737 116.112 104.935C115.13 106.117 113.985 106.913 112.675 107.322C111.381 107.746 110.045 107.802 108.668 107.49C107.291 107.179 105.978 106.505 104.731 105.47C103.499 104.448 102.596 103.282 102.02 101.972C101.46 100.676 101.261 99.3457 101.422 97.9824C101.599 96.6327 102.179 95.3669 103.16 94.185ZM107.001 97.3733C106.279 98.2433 105.961 99.144 106.047 100.075C106.15 101.02 106.563 101.792 107.285 102.392C108.008 102.991 108.834 103.248 109.766 103.161C110.713 103.088 111.548 102.617 112.27 101.747C112.992 100.877 113.302 99.9695 113.199 99.0246C113.126 98.077 112.729 97.3034 112.006 96.7039C111.284 96.1044 110.442 95.8493 109.481 95.9385C108.55 96.025 107.723 96.5033 107.001 97.3733ZM126.76 110.738C126.727 110.377 126.643 110.044 126.508 109.739C126.39 109.447 126.167 109.164 125.839 108.892C125.297 108.442 124.677 108.288 123.978 108.428C123.295 108.583 122.613 109.07 121.932 109.891L117.292 115.481L113.624 112.435L123.025 101.109L126.694 104.154L125.508 105.582C126.306 105.356 127.073 105.3 127.811 105.414C128.578 105.524 129.233 105.804 129.775 106.254C130.185 106.594 130.504 107.012 130.732 107.506C130.973 107.983 131.077 108.443 131.042 108.886L126.76 110.738ZM128.968 125.588C127.639 124.484 126.687 123.292 126.114 122.012C125.57 120.73 125.404 119.427 125.615 118.105C125.825 116.782 126.428 115.522 127.422 114.323C128.948 112.485 130.714 111.51 132.718 111.4C134.723 111.29 136.718 112.059 138.705 113.707C140.658 115.329 141.744 117.076 141.964 118.949C142.2 120.836 141.562 122.691 140.049 124.513C139.899 124.694 139.756 124.866 139.62 125.03C139.484 125.194 139.353 125.335 139.227 125.453L130.585 118.279C130.043 119.132 129.816 119.956 129.905 120.751C129.994 121.546 130.4 122.243 131.122 122.842C132.435 123.932 133.78 124.217 135.156 123.695L137.83 127.287C134.778 128.525 131.825 127.958 128.968 125.588ZM136.567 116.133C135.22 115.016 133.815 115.055 132.351 116.252L136.98 120.094C137.459 119.383 137.659 118.675 137.578 117.971C137.527 117.263 137.19 116.651 136.567 116.133ZM137.862 129.726C138.379 129.102 139.036 128.745 139.83 128.656C140.655 128.565 141.404 128.798 142.077 129.357C142.75 129.915 143.117 130.608 143.179 131.436C143.254 132.247 143.033 132.965 142.515 133.588C141.998 134.212 141.333 134.562 140.522 134.637C139.711 134.712 138.969 134.471 138.296 133.912C137.623 133.353 137.249 132.669 137.173 131.857C137.115 131.06 137.344 130.349 137.862 129.726ZM145.797 136.312C146.315 135.688 146.971 135.332 147.766 135.243C148.59 135.151 149.339 135.385 150.012 135.943C150.685 136.502 151.053 137.195 151.114 138.022C151.19 138.833 150.968 139.551 150.451 140.175C149.933 140.798 149.268 141.148 148.457 141.223C147.646 141.299 146.904 141.057 146.231 140.498C145.558 139.94 145.184 139.255 145.109 138.444C145.05 137.646 145.279 136.936 145.797 136.312ZM153.732 142.898C154.25 142.275 154.906 141.918 155.701 141.829C156.525 141.737 157.274 141.971 157.947 142.53C158.62 143.088 158.988 143.781 159.049 144.609C159.125 145.42 158.904 146.137 158.386 146.761C157.868 147.385 157.204 147.734 156.393 147.81C155.581 147.885 154.839 147.643 154.166 147.085C153.493 146.526 153.119 145.841 153.044 145.03C152.985 144.233 153.214 143.522 153.732 142.898Z" fill="#262728"/>
<path d="M23.0165 52L129 139" stroke="#EE5055" stroke-width="3" stroke-linecap="round" stroke-linejoin="round"/>
<g filter="url(#filter1_i)">
<circle cx="162" cy="26" r="11" fill="white"/>
</g>
<path d="M48.5636 147.06C46.9999 147.06 45.7323 145.792 45.7323 144.229C45.7323 142.665 46.9999 141.397 48.5636 141.397C50.1273 141.397 51.3949 142.665 51.3949 144.229C51.3949 145.792 50.1273 147.06 48.5636 147.06Z" fill="#EE5055"/>
<path d="M39.3528 147.06C37.7891 147.06 36.5215 145.792 36.5215 144.229C36.5215 142.665 37.7891 141.397 39.3528 141.397C40.9165 141.397 42.1841 142.665 42.1841 144.229C42.1841 145.792 40.9165 147.06 39.3528 147.06Z" fill="#EE5055"/>
<path d="M47.2958 128C35.3336 128 25.4949 136.989 24.0793 148.598C23.4491 150.823 26.7368 154.318 28.1847 151.358C28.1847 140.599 37.174 131.822 48.0744 132.247C58.4085 132.672 66.4069 141.449 66.4069 151.854V158.507C66.4069 159.781 67.6102 160.843 68.955 160.56C69.946 160.347 70.6538 159.427 70.6538 158.365L70.5122 148.598C69.0966 136.989 59.2579 128 47.2958 128Z" fill="#444B54"/>
<path d="M42.9926 163.646C48.4428 163.646 52.9021 159.187 52.9021 153.737C52.9021 152.533 51.9819 151.613 50.7786 151.613H35.2066C34.0033 151.613 33.0832 152.533 33.0832 153.737C33.0832 159.187 37.5424 163.646 42.9926 163.646Z" fill="#444B54"/>
<path d="M36.9055 161.523C38.1088 159.399 40.4446 157.984 42.9927 157.984C45.5409 157.984 47.8767 159.399 49.08 161.523C47.3812 162.868 45.2577 163.646 42.9927 163.646C40.7277 163.646 38.5335 162.868 36.9055 161.523Z" fill="#EE5055"/>
<defs>
<filter id="filter0_d" x="0" y="0" width="196" height="196" filterUnits="userSpaceOnUse" color-interpolation-filters="sRGB">
<feFlood flood-opacity="0" result="BackgroundImageFix"/>
<feColorMatrix in="SourceAlpha" type="matrix" values="0 0 0 0 0 0 0 0 0 0 0 0 0 0 0 0 0 0 127 0" result="hardAlpha"/>
<feOffset dx="2" dy="3"/>
<feGaussianBlur stdDeviation="3.5"/>
<feComposite in2="hardAlpha" operator="out"/>
<feColorMatrix type="matrix" values="0 0 0 0 0 0 0 0 0 0 0 0 0 0 0 0 0 0 0.25 0"/>
<feBlend mode="normal" in2="BackgroundImageFix" result="effect1_dropShadow"/>
<feBlend mode="normal" in="SourceGraphic" in2="effect1_dropShadow" result="shape"/>
</filter>
<filter id="filter1_i" x="151" y="15" width="25" height="24" filterUnits="userSpaceOnUse" color-interpolation-filters="sRGB">
<feFlood flood-opacity="0" result="BackgroundImageFix"/>
<feBlend mode="normal" in="SourceGraphic" in2="BackgroundImageFix" result="shape"/>
<feColorMatrix in="SourceAlpha" type="matrix" values="0 0 0 0 0 0 0 0 0 0 0 0 0 0 0 0 0 0 127 0" result="hardAlpha"/>
<feMorphology radius="1" operator="dilate" in="SourceAlpha" result="effect1_innerShadow"/>
<feOffset dx="3" dy="2"/>
<feGaussianBlur stdDeviation="2"/>
<feComposite in2="hardAlpha" operator="arithmetic" k2="-1" k3="1"/>
<feColorMatrix type="matrix" values="0 0 0 0 0 0 0 0 0 0 0 0 0 0 0 0 0 0 0.25 0"/>
<feBlend mode="normal" in2="shape" result="effect1_innerShadow"/>
</filter>
</defs>
</svg>
