<svg width="266" height="260" viewBox="0 0 266 260" fill="none" xmlns="http://www.w3.org/2000/svg">
<path d="M2 231C21 253 36 261.462 58 253C80 244.538 104 163 155 159" stroke="#C4C4C4" stroke-width="3"/>
<path d="M263.7 160.11C263.7 171.61 254.4 180.91 242.8 180.91C242.6 180.91 240.9 180.91 228.4 180.91C219.7 180.91 205.8 180.91 183.6 180.91H173C159.1 181.21 148 170.11 148 156.71C148 143.21 159.2 132.01 173.3 132.71C185.4 94.9101 240.8 100.21 245.5 139.31C255.9 140.61 263.7 149.41 263.7 160.11Z" fill="#E5E5E5" stroke="#E5E5E5" stroke-width="4" stroke-miterlimit="10"/>
<path d="M245.2 139.41C244.4 139.31 243.6 139.31 242.8 139.31C238.7 139.31 234.8 140.51 231.5 142.61" fill="#E5E5E5"/>
<path d="M245.2 139.41C244.4 139.31 243.6 139.31 242.8 139.31C238.7 139.31 234.8 140.51 231.5 142.61" stroke="#E5E5E5" stroke-width="4" stroke-miterlimit="10" stroke-linecap="round"/>
<path d="M173.3 132.71C172.1 136.31 171.5 140.11 171.5 144.11C171.5 145.71 171.6 147.21 171.8 148.71" fill="#E5E5E5"/>
<path d="M173.3 132.71C172.1 136.31 171.5 140.11 171.5 144.11C171.5 145.71 171.6 147.21 171.8 148.71" stroke="#E5E5E5" stroke-width="4" stroke-miterlimit="10" stroke-linecap="round" stroke-linejoin="round"/>
<path d="M207.564 153.061C206 153.061 204.732 151.793 204.732 150.229C204.732 148.666 206 147.398 207.564 147.398C209.127 147.398 210.395 148.666 210.395 150.229C210.395 151.793 209.127 153.061 207.564 153.061Z" fill="#EE5055"/>
<path d="M198.353 153.061C196.789 153.061 195.522 151.793 195.522 150.229C195.522 148.666 196.789 147.398 198.353 147.398C199.916 147.398 201.184 148.666 201.184 150.229C201.184 151.793 199.916 153.061 198.353 153.061Z" fill="#EE5055"/>
<path d="M206.296 134C194.334 134 184.495 142.99 183.079 154.598C182.449 156.823 185.737 160.319 187.185 157.359C187.185 146.6 196.174 137.823 207.074 138.247C217.409 138.672 225.407 147.449 225.407 157.854V164.507C225.407 165.782 226.61 166.843 227.955 166.56C228.946 166.348 229.654 165.428 229.654 164.366L229.512 154.598C228.097 142.99 218.258 134 206.296 134Z" fill="#444B54"/>
<path d="M201.993 169.647C207.443 169.647 211.902 165.187 211.902 159.737C211.902 158.534 210.982 157.614 209.779 157.614H194.207C193.003 157.614 192.083 158.534 192.083 159.737C192.083 165.187 196.542 169.647 201.993 169.647Z" fill="#444B54"/>
<path d="M195.905 167.523C197.109 165.4 199.445 163.984 201.993 163.984C204.541 163.984 206.877 165.4 208.08 167.523C206.381 168.868 204.258 169.647 201.993 169.647C199.728 169.647 197.533 168.868 195.905 167.523Z" fill="#EE5055"/>
<path d="M178.501 209.28C178.501 207.44 177.717 206.52 176.149 206.52C175.317 206.52 174.637 206.784 174.109 207.312C173.597 207.824 173.341 208.48 173.341 209.28V216H171.421V197.28H173.341V206.712C173.677 206.104 174.125 205.624 174.685 205.272C175.261 204.904 175.909 204.72 176.629 204.72C177.765 204.72 178.677 205.088 179.365 205.824C180.069 206.544 180.421 207.616 180.421 209.04V216H178.501V209.28ZM184.606 207.504L183.67 206.088C184.086 205.784 184.654 205.48 185.374 205.176C186.11 204.872 186.99 204.72 188.014 204.72C189.294 204.72 190.334 205.016 191.134 205.608C191.934 206.184 192.334 207.008 192.334 208.08V216H190.414V214.512C190.062 215.088 189.534 215.52 188.83 215.808C188.126 216.096 187.438 216.24 186.766 216.24C186.094 216.24 185.462 216.104 184.87 215.832C184.294 215.544 183.83 215.136 183.478 214.608C183.126 214.08 182.95 213.44 182.95 212.688C182.95 211.616 183.326 210.76 184.078 210.12C184.846 209.464 185.91 209.136 187.27 209.136C188.006 209.136 188.63 209.224 189.142 209.4C189.67 209.56 190.094 209.744 190.414 209.952V208.344C190.414 207.592 190.166 207.08 189.67 206.808C189.19 206.536 188.606 206.4 187.918 206.4C187.086 206.4 186.39 206.536 185.83 206.808C185.27 207.08 184.862 207.312 184.606 207.504ZM184.894 212.592C184.894 213.232 185.11 213.728 185.542 214.08C185.99 214.416 186.566 214.584 187.27 214.584C188.15 214.584 188.894 214.32 189.502 213.792C190.11 213.264 190.414 212.56 190.414 211.68V211.272C189.966 211.048 189.51 210.888 189.046 210.792C188.582 210.696 188.094 210.648 187.582 210.648C186.654 210.648 185.974 210.824 185.542 211.176C185.11 211.512 184.894 211.984 184.894 212.592ZM197.385 221.28H195.465V204.96H197.385V206.856C197.785 206.168 198.305 205.64 198.945 205.272C199.601 204.904 200.337 204.72 201.153 204.72C202.161 204.72 203.073 204.952 203.889 205.416C204.721 205.88 205.385 206.544 205.881 207.408C206.377 208.256 206.625 209.28 206.625 210.48C206.625 211.664 206.377 212.688 205.881 213.552C205.385 214.416 204.721 215.08 203.889 215.544C203.073 216.008 202.161 216.24 201.153 216.24C200.337 216.24 199.601 216.056 198.945 215.688C198.305 215.32 197.785 214.792 197.385 214.104V221.28ZM204.681 210.48C204.681 209.632 204.505 208.912 204.153 208.32C203.817 207.728 203.361 207.28 202.785 206.976C202.225 206.672 201.601 206.52 200.913 206.52C200.353 206.52 199.801 206.672 199.257 206.976C198.713 207.28 198.265 207.728 197.913 208.32C197.561 208.912 197.385 209.632 197.385 210.48C197.385 211.328 197.561 212.048 197.913 212.64C198.265 213.232 198.713 213.68 199.257 213.984C199.801 214.288 200.353 214.44 200.913 214.44C201.601 214.44 202.225 214.288 202.785 213.984C203.361 213.68 203.817 213.232 204.153 212.64C204.505 212.048 204.681 211.328 204.681 210.48ZM211.073 221.28H209.153V204.96H211.073V206.856C211.473 206.168 211.993 205.64 212.633 205.272C213.289 204.904 214.025 204.72 214.841 204.72C215.849 204.72 216.761 204.952 217.577 205.416C218.409 205.88 219.073 206.544 219.569 207.408C220.065 208.256 220.313 209.28 220.313 210.48C220.313 211.664 220.065 212.688 219.569 213.552C219.073 214.416 218.409 215.08 217.577 215.544C216.761 216.008 215.849 216.24 214.841 216.24C214.025 216.24 213.289 216.056 212.633 215.688C211.993 215.32 211.473 214.792 211.073 214.104V221.28ZM218.369 210.48C218.369 209.632 218.193 208.912 217.841 208.32C217.505 207.728 217.049 207.28 216.473 206.976C215.913 206.672 215.289 206.52 214.601 206.52C214.041 206.52 213.489 206.672 212.945 206.976C212.401 207.28 211.953 207.728 211.601 208.32C211.249 208.912 211.073 209.632 211.073 210.48C211.073 211.328 211.249 212.048 211.601 212.64C211.953 213.232 212.401 213.68 212.945 213.984C213.489 214.288 214.041 214.44 214.601 214.44C215.289 214.44 215.913 214.288 216.473 213.984C217.049 213.68 217.505 213.232 217.841 212.64C218.193 212.048 218.369 211.328 218.369 210.48ZM231.369 204.96L224.169 221.28H222.009L225.033 214.44L220.809 204.96H223.089L226.185 212.568L229.209 204.96H231.369ZM152.92 244.04V251H151V244.28C151 243.336 150.824 242.64 150.472 242.192C150.136 241.744 149.608 241.52 148.888 241.52C148.104 241.52 147.48 241.768 147.016 242.264C146.552 242.744 146.32 243.416 146.32 244.28V251H144.4V244.28C144.4 243.336 144.224 242.64 143.872 242.192C143.536 241.744 143.008 241.52 142.288 241.52C141.504 241.52 140.88 241.768 140.416 242.264C139.952 242.744 139.72 243.416 139.72 244.28V251H137.8V239.96H139.72V241.568C140.376 240.336 141.392 239.72 142.768 239.72C143.536 239.72 144.192 239.904 144.736 240.272C145.296 240.624 145.704 241.128 145.96 241.784C146.728 240.408 147.864 239.72 149.368 239.72C150.504 239.72 151.376 240.096 151.984 240.848C152.608 241.6 152.92 242.664 152.92 244.04ZM156.527 235.4C156.527 235.032 156.655 234.72 156.911 234.464C157.183 234.208 157.495 234.08 157.847 234.08C158.215 234.08 158.527 234.208 158.783 234.464C159.039 234.72 159.167 235.032 159.167 235.4C159.167 235.752 159.039 236.064 158.783 236.336C158.527 236.592 158.215 236.72 157.847 236.72C157.495 236.72 157.183 236.592 156.911 236.336C156.655 236.064 156.527 235.752 156.527 235.4ZM156.887 239.96H158.807V251H156.887V239.96ZM163.625 245.48C163.625 246.248 163.785 246.928 164.105 247.52C164.441 248.112 164.889 248.584 165.449 248.936C166.025 249.272 166.673 249.44 167.393 249.44C168.289 249.44 169.089 249.24 169.793 248.84C170.497 248.44 170.977 247.968 171.233 247.424V249.824C170.849 250.272 170.297 250.624 169.577 250.88C168.873 251.12 168.145 251.24 167.393 251.24C166.321 251.24 165.353 250.992 164.489 250.496C163.625 250 162.937 249.32 162.425 248.456C161.929 247.576 161.681 246.584 161.681 245.48C161.681 244.36 161.929 243.368 162.425 242.504C162.937 241.64 163.625 240.96 164.489 240.464C165.353 239.968 166.321 239.72 167.393 239.72C168.145 239.72 168.873 239.848 169.577 240.104C170.297 240.344 170.849 240.688 171.233 241.136V243.536C170.977 242.992 170.497 242.52 169.793 242.12C169.089 241.72 168.289 241.52 167.393 241.52C166.673 241.52 166.025 241.688 165.449 242.024C164.889 242.36 164.441 242.832 164.105 243.44C163.785 244.032 163.625 244.712 163.625 245.48ZM179.478 242.072C179.222 241.88 178.99 241.744 178.782 241.664C178.574 241.568 178.31 241.52 177.99 241.52C177.27 241.52 176.782 241.784 176.526 242.312C176.27 242.824 176.142 243.48 176.142 244.28V251H174.222V239.96H176.142V241.232C176.446 240.768 176.806 240.4 177.222 240.128C177.638 239.856 178.054 239.72 178.47 239.72C178.87 239.72 179.238 239.776 179.574 239.888C179.926 239.984 180.246 240.184 180.534 240.488L179.478 242.072ZM181.137 245.48C181.137 244.36 181.385 243.368 181.881 242.504C182.393 241.64 183.081 240.96 183.945 240.464C184.809 239.968 185.777 239.72 186.849 239.72C187.937 239.72 188.905 239.968 189.753 240.464C190.617 240.96 191.297 241.64 191.793 242.504C192.305 243.368 192.561 244.36 192.561 245.48C192.561 246.584 192.305 247.576 191.793 248.456C191.297 249.32 190.617 250 189.753 250.496C188.905 250.992 187.937 251.24 186.849 251.24C185.777 251.24 184.809 250.992 183.945 250.496C183.081 250 182.393 249.32 181.881 248.456C181.385 247.576 181.137 246.584 181.137 245.48ZM183.081 245.48C183.081 246.248 183.241 246.928 183.561 247.52C183.897 248.112 184.345 248.584 184.905 248.936C185.481 249.272 186.129 249.44 186.849 249.44C187.569 249.44 188.209 249.272 188.769 248.936C189.345 248.584 189.793 248.112 190.113 247.52C190.449 246.928 190.617 246.248 190.617 245.48C190.617 244.712 190.449 244.032 190.113 243.44C189.793 242.832 189.345 242.36 188.769 242.024C188.209 241.688 187.569 241.52 186.849 241.52C186.129 241.52 185.481 241.688 184.905 242.024C184.345 242.36 183.897 242.832 183.561 243.44C183.241 244.032 183.081 244.712 183.081 245.48ZM195.654 247.616C195.99 248.128 196.398 248.568 196.878 248.936C197.374 249.304 197.966 249.488 198.654 249.488C199.198 249.488 199.622 249.368 199.926 249.128C200.246 248.872 200.406 248.528 200.406 248.096C200.406 247.712 200.278 247.392 200.022 247.136C199.782 246.864 199.47 246.64 199.086 246.464C198.702 246.272 198.294 246.096 197.862 245.936C197.382 245.744 196.894 245.52 196.398 245.264C195.918 244.992 195.51 244.648 195.174 244.232C194.854 243.8 194.694 243.264 194.694 242.624C194.694 241.968 194.862 241.424 195.198 240.992C195.55 240.56 195.998 240.24 196.542 240.032C197.102 239.824 197.678 239.72 198.27 239.72C199.15 239.72 199.95 239.928 200.67 240.344C201.39 240.76 201.918 241.272 202.254 241.88L200.718 242.864C200.414 242.448 200.03 242.104 199.566 241.832C199.118 241.56 198.606 241.424 198.03 241.424C197.63 241.424 197.286 241.512 196.998 241.688C196.71 241.864 196.566 242.136 196.566 242.504C196.566 242.952 196.798 243.32 197.262 243.608C197.742 243.88 198.278 244.136 198.87 244.376C199.51 244.632 200.094 244.912 200.622 245.216C201.15 245.504 201.566 245.856 201.87 246.272C202.19 246.688 202.35 247.224 202.35 247.88C202.35 248.84 201.998 249.64 201.294 250.28C200.606 250.92 199.694 251.24 198.558 251.24C197.822 251.24 197.158 251.112 196.566 250.856C195.974 250.584 195.47 250.24 195.054 249.824C194.654 249.408 194.35 248.984 194.142 248.552L195.654 247.616ZM209.15 251.24C208.126 251.24 207.214 251 206.414 250.52C205.63 250.024 205.014 249.344 204.566 248.48C204.134 247.616 203.918 246.616 203.918 245.48C203.918 244.328 204.142 243.32 204.59 242.456C205.054 241.592 205.694 240.92 206.51 240.44C207.342 239.96 208.302 239.72 209.39 239.72C211.006 239.72 212.278 240.224 213.206 241.232C214.134 242.24 214.598 243.624 214.598 245.384C214.598 245.496 214.59 245.616 214.574 245.744C214.574 245.856 214.574 245.928 214.574 245.96H205.886C205.966 247.064 206.31 247.92 206.918 248.528C207.526 249.136 208.35 249.44 209.39 249.44C210.894 249.44 212.046 248.776 212.846 247.448L214.406 248.432C213.254 250.304 211.502 251.24 209.15 251.24ZM209.39 241.4C208.446 241.4 207.678 241.656 207.086 242.168C206.494 242.664 206.118 243.384 205.958 244.328H212.51C212.446 243.448 212.126 242.744 211.55 242.216C210.99 241.672 210.27 241.4 209.39 241.4ZM222.486 242.072C222.23 241.88 221.998 241.744 221.79 241.664C221.582 241.568 221.318 241.52 220.998 241.52C220.278 241.52 219.79 241.784 219.534 242.312C219.278 242.824 219.15 243.48 219.15 244.28V251H217.23V239.96H219.15V241.232C219.454 240.768 219.814 240.4 220.23 240.128C220.646 239.856 221.062 239.72 221.478 239.72C221.878 239.72 222.246 239.776 222.582 239.888C222.934 239.984 223.254 240.184 223.542 240.488L222.486 242.072ZM224.383 239.96H226.543L229.663 247.76L232.783 239.96H234.943L229.663 251.84L224.383 239.96ZM236.753 235.4C236.753 235.032 236.881 234.72 237.137 234.464C237.409 234.208 237.721 234.08 238.073 234.08C238.441 234.08 238.753 234.208 239.009 234.464C239.265 234.72 239.393 235.032 239.393 235.4C239.393 235.752 239.265 236.064 239.009 236.336C238.753 236.592 238.441 236.72 238.073 236.72C237.721 236.72 237.409 236.592 237.137 236.336C236.881 236.064 236.753 235.752 236.753 235.4ZM237.113 239.96H239.033V251H237.113V239.96ZM243.852 245.48C243.852 246.248 244.012 246.928 244.332 247.52C244.668 248.112 245.116 248.584 245.676 248.936C246.252 249.272 246.9 249.44 247.62 249.44C248.516 249.44 249.316 249.24 250.02 248.84C250.724 248.44 251.204 247.968 251.46 247.424V249.824C251.076 250.272 250.524 250.624 249.804 250.88C249.1 251.12 248.372 251.24 247.62 251.24C246.548 251.24 245.58 250.992 244.715 250.496C243.852 250 243.164 249.32 242.652 248.456C242.156 247.576 241.908 246.584 241.908 245.48C241.908 244.36 242.156 243.368 242.652 242.504C243.164 241.64 243.852 240.96 244.715 240.464C245.58 239.968 246.548 239.72 247.62 239.72C248.372 239.72 249.1 239.848 249.804 240.104C250.524 240.344 251.076 240.688 251.46 241.136V243.536C251.204 242.992 250.724 242.52 250.02 242.12C249.316 241.72 248.516 241.52 247.62 241.52C246.9 241.52 246.252 241.688 245.676 242.024C245.116 242.36 244.668 242.832 244.332 243.44C244.012 244.032 243.852 244.712 243.852 245.48ZM258.72 251.24C257.696 251.24 256.784 251 255.984 250.52C255.2 250.024 254.584 249.344 254.136 248.48C253.704 247.616 253.488 246.616 253.488 245.48C253.488 244.328 253.712 243.32 254.16 242.456C254.624 241.592 255.264 240.92 256.08 240.44C256.912 239.96 257.872 239.72 258.96 239.72C260.576 239.72 261.848 240.224 262.776 241.232C263.704 242.24 264.168 243.624 264.168 245.384C264.168 245.496 264.16 245.616 264.144 245.744C264.144 245.856 264.144 245.928 264.144 245.96H255.456C255.536 247.064 255.88 247.92 256.488 248.528C257.096 249.136 257.92 249.44 258.96 249.44C260.464 249.44 261.616 248.776 262.416 247.448L263.976 248.432C262.824 250.304 261.072 251.24 258.72 251.24ZM258.96 241.4C258.016 241.4 257.248 241.656 256.656 242.168C256.064 242.664 255.688 243.384 255.528 244.328H262.08C262.016 243.448 261.696 242.744 261.12 242.216C260.56 241.672 259.84 241.4 258.96 241.4Z" fill="#444B54"/>
<path d="M151.286 25.5605L155.654 13.2005H157.934L151.334 30.8405L146.294 17.7845L141.254 30.8405L134.654 13.2005H136.934L141.398 25.5605L146.294 12.3605L151.286 25.5605ZM162.33 30.2405C161.306 30.2405 160.394 30.0005 159.594 29.5205C158.81 29.0245 158.194 28.3445 157.746 27.4805C157.314 26.6165 157.098 25.6165 157.098 24.4805C157.098 23.3285 157.322 22.3205 157.77 21.4565C158.234 20.5925 158.874 19.9205 159.69 19.4405C160.522 18.9605 161.482 18.7205 162.57 18.7205C164.186 18.7205 165.458 19.2245 166.386 20.2325C167.314 21.2405 167.778 22.6245 167.778 24.3845C167.778 24.4965 167.77 24.6165 167.754 24.7445C167.754 24.8565 167.754 24.9285 167.754 24.9605H159.066C159.146 26.0645 159.49 26.9205 160.098 27.5285C160.706 28.1365 161.53 28.4405 162.57 28.4405C164.074 28.4405 165.226 27.7765 166.026 26.4485L167.586 27.4325C166.434 29.3045 164.682 30.2405 162.33 30.2405ZM162.57 20.4005C161.626 20.4005 160.858 20.6565 160.266 21.1685C159.674 21.6645 159.298 22.3845 159.138 23.3285H165.69C165.626 22.4485 165.306 21.7445 164.73 21.2165C164.17 20.6725 163.45 20.4005 162.57 20.4005ZM178.181 21.5045L177.245 20.0885C177.661 19.7845 178.229 19.4805 178.949 19.1765C179.685 18.8725 180.565 18.7205 181.589 18.7205C182.869 18.7205 183.909 19.0165 184.709 19.6085C185.509 20.1845 185.909 21.0085 185.909 22.0805V30.0005H183.989V28.5125C183.637 29.0885 183.109 29.5205 182.405 29.8085C181.701 30.0965 181.013 30.2405 180.341 30.2405C179.669 30.2405 179.037 30.1045 178.445 29.8325C177.869 29.5445 177.405 29.1365 177.053 28.6085C176.701 28.0805 176.525 27.4405 176.525 26.6885C176.525 25.6165 176.901 24.7605 177.653 24.1205C178.421 23.4645 179.485 23.1365 180.845 23.1365C181.581 23.1365 182.205 23.2245 182.717 23.4005C183.245 23.5605 183.669 23.7445 183.989 23.9525V22.3445C183.989 21.5925 183.741 21.0805 183.245 20.8085C182.765 20.5365 182.181 20.4005 181.493 20.4005C180.661 20.4005 179.965 20.5365 179.405 20.8085C178.845 21.0805 178.437 21.3125 178.181 21.5045ZM178.469 26.5925C178.469 27.2325 178.685 27.7285 179.117 28.0805C179.565 28.4165 180.141 28.5845 180.845 28.5845C181.725 28.5845 182.469 28.3205 183.077 27.7925C183.685 27.2645 183.989 26.5605 183.989 25.6805V25.2725C183.541 25.0485 183.085 24.8885 182.621 24.7925C182.157 24.6965 181.669 24.6485 181.157 24.6485C180.229 24.6485 179.549 24.8245 179.117 25.1765C178.685 25.5125 178.469 25.9845 178.469 26.5925ZM194.415 21.0725C194.159 20.8805 193.927 20.7445 193.719 20.6645C193.511 20.5685 193.247 20.5205 192.927 20.5205C192.207 20.5205 191.719 20.7845 191.463 21.3125C191.207 21.8245 191.079 22.4805 191.079 23.2805V30.0005H189.159V18.9605H191.079V20.2325C191.383 19.7685 191.743 19.4005 192.159 19.1285C192.575 18.8565 192.991 18.7205 193.407 18.7205C193.807 18.7205 194.175 18.7765 194.511 18.8885C194.863 18.9845 195.183 19.1845 195.471 19.4885L194.415 21.0725ZM201.306 30.2405C200.282 30.2405 199.37 30.0005 198.57 29.5205C197.786 29.0245 197.17 28.3445 196.722 27.4805C196.29 26.6165 196.074 25.6165 196.074 24.4805C196.074 23.3285 196.298 22.3205 196.746 21.4565C197.21 20.5925 197.85 19.9205 198.666 19.4405C199.498 18.9605 200.458 18.7205 201.546 18.7205C203.162 18.7205 204.434 19.2245 205.362 20.2325C206.29 21.2405 206.754 22.6245 206.754 24.3845C206.754 24.4965 206.746 24.6165 206.73 24.7445C206.73 24.8565 206.73 24.9285 206.73 24.9605H198.042C198.122 26.0645 198.466 26.9205 199.074 27.5285C199.682 28.1365 200.506 28.4405 201.546 28.4405C203.05 28.4405 204.202 27.7765 205.002 26.4485L206.562 27.4325C205.41 29.3045 203.658 30.2405 201.306 30.2405ZM201.546 20.4005C200.602 20.4005 199.834 20.6565 199.242 21.1685C198.65 21.6645 198.274 22.3845 198.114 23.3285H204.666C204.602 22.4485 204.282 21.7445 203.706 21.2165C203.146 20.6725 202.426 20.4005 201.546 20.4005ZM109.101 53.9605H110.181V49.8805C110.181 48.5685 110.461 47.6005 111.021 46.9765C111.581 46.3525 112.365 46.0405 113.373 46.0405C113.885 46.0405 114.317 46.1445 114.669 46.3525C115.037 46.5445 115.309 46.7605 115.485 47.0005L114.429 48.5845C114.269 48.3125 114.077 48.1445 113.853 48.0805C113.645 48.0005 113.445 47.9605 113.253 47.9605C112.901 47.9605 112.621 48.1205 112.413 48.4405C112.205 48.7605 112.101 49.3205 112.101 50.1205V53.9605H114.621V55.7605H112.101V65.0005H110.181V55.7605H109.101V53.9605ZM122.064 56.0725C121.808 55.8805 121.576 55.7445 121.368 55.6645C121.16 55.5685 120.896 55.5205 120.576 55.5205C119.856 55.5205 119.368 55.7845 119.112 56.3125C118.856 56.8245 118.728 57.4805 118.728 58.2805V65.0005H116.808V53.9605H118.728V55.2325C119.032 54.7685 119.392 54.4005 119.808 54.1285C120.224 53.8565 120.64 53.7205 121.056 53.7205C121.456 53.7205 121.824 53.7765 122.16 53.8885C122.512 53.9845 122.832 54.1845 123.12 54.4885L122.064 56.0725ZM125.034 49.4005C125.034 49.0325 125.162 48.7205 125.418 48.4645C125.69 48.2085 126.002 48.0805 126.354 48.0805C126.722 48.0805 127.034 48.2085 127.29 48.4645C127.546 48.7205 127.674 49.0325 127.674 49.4005C127.674 49.7525 127.546 50.0645 127.29 50.3365C127.034 50.5925 126.722 50.7205 126.354 50.7205C126.002 50.7205 125.69 50.5925 125.418 50.3365C125.162 50.0645 125.034 49.7525 125.034 49.4005ZM125.394 53.9605H127.314V65.0005H125.394V53.9605ZM135.541 65.2405C134.517 65.2405 133.605 65.0005 132.805 64.5205C132.021 64.0245 131.405 63.3445 130.957 62.4805C130.525 61.6165 130.309 60.6165 130.309 59.4805C130.309 58.3285 130.533 57.3205 130.981 56.4565C131.445 55.5925 132.085 54.9205 132.901 54.4405C133.733 53.9605 134.693 53.7205 135.781 53.7205C137.397 53.7205 138.669 54.2245 139.597 55.2325C140.525 56.2405 140.989 57.6245 140.989 59.3845C140.989 59.4965 140.981 59.6165 140.965 59.7445C140.965 59.8565 140.965 59.9285 140.965 59.9605H132.277C132.357 61.0645 132.701 61.9205 133.309 62.5285C133.917 63.1365 134.741 63.4405 135.781 63.4405C137.285 63.4405 138.437 62.7765 139.237 61.4485L140.797 62.4325C139.645 64.3045 137.893 65.2405 135.541 65.2405ZM135.781 55.4005C134.837 55.4005 134.069 55.6565 133.477 56.1685C132.885 56.6645 132.509 57.3845 132.349 58.3285H138.901C138.837 57.4485 138.517 56.7445 137.941 56.2165C137.381 55.6725 136.661 55.4005 135.781 55.4005ZM150.7 58.2805C150.7 56.4405 149.916 55.5205 148.348 55.5205C147.516 55.5205 146.836 55.7765 146.308 56.2885C145.796 56.8005 145.54 57.4645 145.54 58.2805V65.0005H143.62V53.9605H145.54V55.6885C146.26 54.3765 147.356 53.7205 148.828 53.7205C149.996 53.7205 150.916 54.1125 151.588 54.8965C152.276 55.6645 152.62 56.7125 152.62 58.0405V65.0005H150.7V58.2805ZM155.27 59.4805C155.27 58.2805 155.518 57.2565 156.014 56.4085C156.51 55.5445 157.174 54.8805 158.006 54.4165C158.838 53.9525 159.75 53.7205 160.742 53.7205C161.558 53.7205 162.286 53.9045 162.926 54.2725C163.582 54.6405 164.11 55.1685 164.51 55.8565V46.2805H166.43V65.0005H164.51V63.1045C164.11 63.7925 163.582 64.3205 162.926 64.6885C162.286 65.0565 161.558 65.2405 160.742 65.2405C159.75 65.2405 158.838 65.0085 158.006 64.5445C157.174 64.0805 156.51 63.4165 156.014 62.5525C155.518 61.6885 155.27 60.6645 155.27 59.4805ZM157.214 59.4805C157.214 60.3285 157.382 61.0485 157.718 61.6405C158.07 62.2325 158.534 62.6805 159.11 62.9845C159.686 63.2885 160.31 63.4405 160.982 63.4405C161.542 63.4405 162.094 63.2885 162.638 62.9845C163.182 62.6805 163.63 62.2325 163.982 61.6405C164.334 61.0485 164.51 60.3285 164.51 59.4805C164.51 58.6325 164.334 57.9125 163.982 57.3205C163.63 56.7285 163.182 56.2805 162.638 55.9765C162.094 55.6725 161.542 55.5205 160.982 55.5205C160.31 55.5205 159.686 55.6725 159.11 55.9765C158.534 56.2805 158.07 56.7285 157.718 57.3205C157.382 57.9125 157.214 58.6325 157.214 59.4805ZM170.373 61.6165C170.709 62.1285 171.117 62.5685 171.597 62.9365C172.093 63.3045 172.685 63.4885 173.373 63.4885C173.917 63.4885 174.341 63.3685 174.645 63.1285C174.965 62.8725 175.125 62.5285 175.125 62.0965C175.125 61.7125 174.997 61.3925 174.741 61.1365C174.501 60.8645 174.189 60.6405 173.805 60.4645C173.421 60.2725 173.013 60.0965 172.581 59.9365C172.101 59.7445 171.613 59.5205 171.117 59.2645C170.637 58.9925 170.229 58.6485 169.893 58.2325C169.573 57.8005 169.413 57.2645 169.413 56.6245C169.413 55.9685 169.581 55.4245 169.917 54.9925C170.269 54.5605 170.717 54.2405 171.261 54.0325C171.821 53.8245 172.397 53.7205 172.989 53.7205C173.869 53.7205 174.669 53.9285 175.389 54.3445C176.109 54.7605 176.637 55.2725 176.973 55.8805L175.437 56.8645C175.133 56.4485 174.749 56.1045 174.285 55.8325C173.837 55.5605 173.325 55.4245 172.749 55.4245C172.349 55.4245 172.005 55.5125 171.717 55.6885C171.429 55.8645 171.285 56.1365 171.285 56.5045C171.285 56.9525 171.517 57.3205 171.981 57.6085C172.461 57.8805 172.997 58.1365 173.589 58.3765C174.229 58.6325 174.813 58.9125 175.341 59.2165C175.869 59.5045 176.285 59.8565 176.589 60.2725C176.909 60.6885 177.069 61.2245 177.069 61.8805C177.069 62.8405 176.717 63.6405 176.013 64.2805C175.325 64.9205 174.413 65.2405 173.277 65.2405C172.541 65.2405 171.877 65.1125 171.285 64.8565C170.693 64.5845 170.189 64.2405 169.773 63.8245C169.373 63.4085 169.069 62.9845 168.861 62.5525L170.373 61.6165ZM193.872 58.2805C193.872 56.4405 193.088 55.5205 191.52 55.5205C190.688 55.5205 190.008 55.7765 189.48 56.2885C188.968 56.8005 188.712 57.4645 188.712 58.2805V65.0005H186.792V53.9605H188.712V55.6885C189.432 54.3765 190.528 53.7205 192 53.7205C193.168 53.7205 194.088 54.1125 194.76 54.8965C195.448 55.6645 195.792 56.7125 195.792 58.0405V65.0005H193.872V58.2805ZM198.442 59.4805C198.442 58.3605 198.69 57.3685 199.186 56.5045C199.698 55.6405 200.386 54.9605 201.25 54.4645C202.114 53.9685 203.082 53.7205 204.154 53.7205C205.242 53.7205 206.21 53.9685 207.058 54.4645C207.922 54.9605 208.602 55.6405 209.098 56.5045C209.61 57.3685 209.866 58.3605 209.866 59.4805C209.866 60.5845 209.61 61.5765 209.098 62.4565C208.602 63.3205 207.922 64.0005 207.058 64.4965C206.21 64.9925 205.242 65.2405 204.154 65.2405C203.082 65.2405 202.114 64.9925 201.25 64.4965C200.386 64.0005 199.698 63.3205 199.186 62.4565C198.69 61.5765 198.442 60.5845 198.442 59.4805ZM200.386 59.4805C200.386 60.2485 200.546 60.9285 200.866 61.5205C201.202 62.1125 201.65 62.5845 202.21 62.9365C202.786 63.2725 203.434 63.4405 204.154 63.4405C204.874 63.4405 205.514 63.2725 206.074 62.9365C206.65 62.5845 207.098 62.1125 207.418 61.5205C207.754 60.9285 207.922 60.2485 207.922 59.4805C207.922 58.7125 207.754 58.0325 207.418 57.4405C207.098 56.8325 206.65 56.3605 206.074 56.0245C205.514 55.6885 204.874 55.5205 204.154 55.5205C203.434 55.5205 202.786 55.6885 202.21 56.0245C201.65 56.3605 201.202 56.8325 200.866 57.4405C200.546 58.0325 200.386 58.7125 200.386 59.4805ZM210.472 53.9605H212.632L215.392 61.1365L218.392 53.1205L221.608 61.1845L224.392 53.9605H226.552L221.752 65.8405L218.416 57.8005L215.272 65.8405L210.472 53.9605ZM229.064 48.2005H231.464L230.984 60.2005H229.544L229.064 48.2005ZM228.944 64.0405C228.944 63.6725 229.072 63.3605 229.328 63.1045C229.6 62.8485 229.912 62.7205 230.264 62.7205C230.632 62.7205 230.944 62.8485 231.2 63.1045C231.456 63.3605 231.584 63.6725 231.584 64.0405C231.584 64.3925 231.456 64.7045 231.2 64.9765C230.944 65.2325 230.632 65.3605 230.264 65.3605C229.912 65.3605 229.6 65.2325 229.328 64.9765C229.072 64.7045 228.944 64.3925 228.944 64.0405Z" fill="#444B54"/>
<path d="M170.117 120.408L148.617 99.9083C139.617 94.9083 118.117 81.8083 104.117 69.4082C86.6168 53.9082 88.4575 26.9539 98.9575 13.9539C109.458 0.953857 173.958 1.45386 199.458 2.45386C224.958 3.45386 240.298 16.9999 246.798 27.4999C253.298 37.9999 246.617 71.9083 223.617 84.9083C205.217 95.3083 174.283 99.2416 161.117 99.9083L170.117 120.408Z" stroke="#C4C4C4" stroke-width="4" stroke-linecap="round" stroke-dasharray="8 8"/>
</svg>
