<svg width="295" height="201" viewBox="0 0 295 201" fill="none" xmlns="http://www.w3.org/2000/svg">
<path d="M6.33552 59.2072L8.09147 58.1689L16.6428 72.6297L14.8868 73.6681L6.33552 59.2072ZM10.9304 58.7206L9.95314 57.068L19.1461 51.6318L20.1234 53.2845L16.4049 55.4834L23.9789 68.2915L22.2229 69.3299L14.6489 56.5217L10.9304 58.7206ZM21.6219 50.1678L23.5844 49.0072L24.3283 54.9803L23.1921 55.6522L21.6219 50.1678ZM31.7515 59.7639C32.3013 60.0335 32.8765 60.2046 33.477 60.277C34.0912 60.3413 34.6944 60.1984 35.2866 59.8482C35.7549 59.5713 36.0588 59.2522 36.1983 58.8909C36.3434 58.5076 36.3061 58.1301 36.0862 57.7582C35.8907 57.4277 35.6176 57.2174 35.267 57.1274C34.922 57.0154 34.5394 56.9814 34.1193 57.0254C33.691 57.0555 33.2502 57.1117 32.7969 57.1939C32.286 57.2729 31.752 57.3285 31.1947 57.3606C30.6431 57.3708 30.1168 57.2824 29.6159 57.0954C29.1205 56.8864 28.71 56.5065 28.3842 55.9556C28.0503 55.3909 27.918 54.8371 27.9873 54.2943C28.0704 53.7433 28.2932 53.2398 28.6556 52.7838C29.0317 52.3198 29.4746 51.937 29.9841 51.6357C30.7416 51.1878 31.5361 50.9596 32.3676 50.9512C33.1991 50.9428 33.9142 51.1148 34.5129 51.4671L33.6916 53.0959C33.2182 52.8926 32.7126 52.7919 32.1747 52.794C31.6506 52.7879 31.1407 52.9314 30.6449 53.2246C30.3006 53.4282 30.0493 53.6791 29.891 53.9772C29.7327 54.2752 29.7472 54.5827 29.9345 54.8994C30.1625 55.285 30.5495 55.4837 31.0955 55.4954C31.6471 55.4852 32.2388 55.4328 32.8705 55.338C33.5517 55.2326 34.1969 55.1764 34.8062 55.1693C35.4072 55.1484 35.9445 55.2397 36.4179 55.443C36.9051 55.6382 37.3156 56.0181 37.6495 56.5828C38.1382 57.4091 38.2424 58.2769 37.9622 59.1861C37.6958 60.0872 37.0736 60.8269 36.0958 61.4051C35.4623 61.7797 34.8256 62.0075 34.1857 62.0885C33.5377 62.1557 32.9287 62.1162 32.3589 61.9698C31.8029 61.8154 31.3254 61.6051 30.9265 61.3392L31.7515 59.7639ZM47.0297 35.1431L48.9922 33.9825L49.0408 45.0509L52.7301 51.2897L50.9741 52.3281L47.2971 46.1099L37.6095 40.7136L39.572 39.5531L47.2485 44.0475L47.0297 35.1431ZM53.1592 41.2772C52.5321 40.2167 52.1329 39.133 51.9617 38.0261C51.796 36.8972 51.8482 35.8068 52.1184 34.7548C52.3804 33.6891 52.849 32.7056 53.5243 31.8044C54.1915 30.8894 55.0484 30.1224 56.0951 29.5035C57.1556 28.8764 58.2405 28.495 59.35 28.3594C60.4651 28.2019 61.5527 28.2651 62.6128 28.549C63.6648 28.8192 64.6386 29.3029 65.5342 30.0001C66.4354 30.6754 67.1995 31.5433 67.8266 32.6037C68.4456 33.6504 68.8379 34.7382 69.0036 35.867C69.183 36.9877 69.1417 38.081 68.8797 39.1467C68.6095 40.1987 68.1409 41.1822 67.4737 42.0972C66.8122 42.9903 65.9512 43.7503 64.8907 44.3774C63.8441 44.9964 62.7632 45.3846 61.6481 45.5421C60.5249 45.6859 59.4372 45.6227 58.3853 45.3525C57.3251 45.0686 56.3404 44.5821 55.431 43.893C54.5354 43.1958 53.7782 42.3239 53.1592 41.2772ZM55.0185 40.1777C55.6619 41.2657 56.4701 42.0982 57.4433 42.6752C58.4303 43.244 59.4835 43.532 60.6031 43.5392C61.7226 43.5463 62.8057 43.2404 63.8524 42.6215C64.9128 41.9944 65.7027 41.1927 66.2221 40.2164C66.7553 39.2319 67.0035 38.1743 66.9668 37.0436C66.9439 35.9046 66.6108 34.7912 65.9674 33.7032C65.324 32.6152 64.5088 31.7867 63.5219 31.2179C62.5487 30.6409 61.5023 30.3489 60.3828 30.3417C59.2771 30.3264 58.194 30.6323 57.1335 31.2594C56.0868 31.8784 55.2969 32.6801 54.7637 33.6645C54.2306 34.6489 53.9755 35.7106 53.9984 36.8496C54.0351 37.9803 54.3751 39.0897 55.0185 40.1777ZM65.9275 23.968L67.6835 22.9296L73.425 32.639C74.0114 33.6306 74.7523 34.2706 75.6478 34.5589C76.5432 34.8473 77.5074 34.6861 78.5403 34.0753C79.5733 33.4645 80.1791 32.6973 80.3579 31.7737C80.5367 30.8501 80.3329 29.8925 79.7465 28.9009L74.0049 19.1915L75.7609 18.1531L81.5024 27.8625C82.0644 28.8128 82.3627 29.7888 82.3975 30.7906C82.4379 31.7705 82.2193 32.6897 81.7419 33.5483C81.2644 34.4069 80.523 35.1334 79.5176 35.7279C78.526 36.3143 77.5322 36.6139 76.536 36.6268C75.5536 36.6315 74.6359 36.3841 73.783 35.8847C72.9357 35.3635 72.231 34.6277 71.6691 33.6774L65.9275 23.968Z" fill="#444B54"/>
<path d="M53.5011 150.28C53.5011 148.44 52.7171 147.52 51.1491 147.52C50.3171 147.52 49.6371 147.784 49.1091 148.312C48.5971 148.824 48.3411 149.48 48.3411 150.28V157H46.4211V138.28H48.3411V147.712C48.6771 147.104 49.1251 146.624 49.6851 146.272C50.2611 145.904 50.9091 145.72 51.6291 145.72C52.7651 145.72 53.6771 146.088 54.3651 146.824C55.0691 147.544 55.4211 148.616 55.4211 150.04V157H53.5011V150.28ZM59.6065 148.504L58.6705 147.088C59.0865 146.784 59.6545 146.48 60.3745 146.176C61.1105 145.872 61.9905 145.72 63.0145 145.72C64.2945 145.72 65.3345 146.016 66.1345 146.608C66.9345 147.184 67.3345 148.008 67.3345 149.08V157H65.4145V155.512C65.0625 156.088 64.5345 156.52 63.8305 156.808C63.1265 157.096 62.4385 157.24 61.7665 157.24C61.0945 157.24 60.4625 157.104 59.8705 156.832C59.2945 156.544 58.8305 156.136 58.4785 155.608C58.1265 155.08 57.9505 154.44 57.9505 153.688C57.9505 152.616 58.3265 151.76 59.0785 151.12C59.8465 150.464 60.9105 150.136 62.2705 150.136C63.0065 150.136 63.6305 150.224 64.1425 150.4C64.6705 150.56 65.0945 150.744 65.4145 150.952V149.344C65.4145 148.592 65.1665 148.08 64.6705 147.808C64.1905 147.536 63.6065 147.4 62.9185 147.4C62.0865 147.4 61.3905 147.536 60.8305 147.808C60.2705 148.08 59.8625 148.312 59.6065 148.504ZM59.8945 153.592C59.8945 154.232 60.1105 154.728 60.5425 155.08C60.9905 155.416 61.5665 155.584 62.2705 155.584C63.1505 155.584 63.8945 155.32 64.5025 154.792C65.1105 154.264 65.4145 153.56 65.4145 152.68V152.272C64.9665 152.048 64.5105 151.888 64.0465 151.792C63.5825 151.696 63.0945 151.648 62.5825 151.648C61.6545 151.648 60.9745 151.824 60.5425 152.176C60.1105 152.512 59.8945 152.984 59.8945 153.592ZM72.3852 162.28H70.4652V145.96H72.3852V147.856C72.7852 147.168 73.3052 146.64 73.9452 146.272C74.6012 145.904 75.3372 145.72 76.1532 145.72C77.1612 145.72 78.0732 145.952 78.8892 146.416C79.7212 146.88 80.3852 147.544 80.8812 148.408C81.3772 149.256 81.6252 150.28 81.6252 151.48C81.6252 152.664 81.3772 153.688 80.8812 154.552C80.3852 155.416 79.7212 156.08 78.8892 156.544C78.0732 157.008 77.1612 157.24 76.1532 157.24C75.3372 157.24 74.6012 157.056 73.9452 156.688C73.3052 156.32 72.7852 155.792 72.3852 155.104V162.28ZM79.6812 151.48C79.6812 150.632 79.5052 149.912 79.1532 149.32C78.8172 148.728 78.3612 148.28 77.7852 147.976C77.2252 147.672 76.6012 147.52 75.9132 147.52C75.3532 147.52 74.8012 147.672 74.2572 147.976C73.7132 148.28 73.2652 148.728 72.9132 149.32C72.5612 149.912 72.3852 150.632 72.3852 151.48C72.3852 152.328 72.5612 153.048 72.9132 153.64C73.2652 154.232 73.7132 154.68 74.2572 154.984C74.8012 155.288 75.3532 155.44 75.9132 155.44C76.6012 155.44 77.2252 155.288 77.7852 154.984C78.3612 154.68 78.8172 154.232 79.1532 153.64C79.5052 153.048 79.6812 152.328 79.6812 151.48ZM86.0727 162.28H84.1527V145.96H86.0727V147.856C86.4727 147.168 86.9927 146.64 87.6327 146.272C88.2887 145.904 89.0247 145.72 89.8407 145.72C90.8487 145.72 91.7607 145.952 92.5767 146.416C93.4087 146.88 94.0727 147.544 94.5687 148.408C95.0647 149.256 95.3127 150.28 95.3127 151.48C95.3127 152.664 95.0647 153.688 94.5687 154.552C94.0727 155.416 93.4087 156.08 92.5767 156.544C91.7607 157.008 90.8487 157.24 89.8407 157.24C89.0247 157.24 88.2887 157.056 87.6327 156.688C86.9927 156.32 86.4727 155.792 86.0727 155.104V162.28ZM93.3687 151.48C93.3687 150.632 93.1927 149.912 92.8407 149.32C92.5047 148.728 92.0487 148.28 91.4727 147.976C90.9127 147.672 90.2887 147.52 89.6007 147.52C89.0407 147.52 88.4887 147.672 87.9447 147.976C87.4007 148.28 86.9527 148.728 86.6007 149.32C86.2487 149.912 86.0727 150.632 86.0727 151.48C86.0727 152.328 86.2487 153.048 86.6007 153.64C86.9527 154.232 87.4007 154.68 87.9447 154.984C88.4887 155.288 89.0407 155.44 89.6007 155.44C90.2887 155.44 90.9127 155.288 91.4727 154.984C92.0487 154.68 92.5047 154.232 92.8407 153.64C93.1927 153.048 93.3687 152.328 93.3687 151.48ZM106.369 145.96L99.1686 162.28H97.0086L100.033 155.44L95.8086 145.96H98.0886L101.185 153.568L104.209 145.96H106.369ZM36.3611 192.24C35.3371 192.24 34.4251 192 33.6251 191.52C32.8411 191.024 32.2251 190.344 31.7771 189.48C31.3451 188.616 31.1291 187.616 31.1291 186.48C31.1291 185.328 31.3531 184.32 31.8011 183.456C32.2651 182.592 32.9051 181.92 33.7211 181.44C34.5531 180.96 35.5131 180.72 36.6011 180.72C38.2171 180.72 39.4891 181.224 40.4171 182.232C41.3451 183.24 41.8091 184.624 41.8091 186.384C41.8091 186.496 41.8011 186.616 41.7851 186.744C41.7851 186.856 41.7851 186.928 41.7851 186.96H33.0971C33.1771 188.064 33.5211 188.92 34.1291 189.528C34.7371 190.136 35.5611 190.44 36.6011 190.44C38.1051 190.44 39.2571 189.776 40.0571 188.448L41.6171 189.432C40.4651 191.304 38.7131 192.24 36.3611 192.24ZM36.6011 182.4C35.6571 182.4 34.8891 182.656 34.2971 183.168C33.7051 183.664 33.3291 184.384 33.1691 185.328H39.7211C39.6571 184.448 39.3371 183.744 38.7611 183.216C38.2011 182.672 37.4811 182.4 36.6011 182.4ZM51.5206 185.28C51.5206 183.44 50.7366 182.52 49.1686 182.52C48.3366 182.52 47.6566 182.776 47.1286 183.288C46.6166 183.8 46.3606 184.464 46.3606 185.28V192H44.4406V180.96H46.3606V182.688C47.0806 181.376 48.1766 180.72 49.6486 180.72C50.8166 180.72 51.7366 181.112 52.4086 181.896C53.0966 182.664 53.4406 183.712 53.4406 185.04V192H51.5206V185.28ZM56.306 192.72H58.25C58.25 193.248 58.394 193.736 58.682 194.184C58.97 194.648 59.378 195.016 59.906 195.288C60.434 195.576 61.058 195.72 61.778 195.72C62.338 195.72 62.89 195.584 63.434 195.312C63.978 195.04 64.426 194.608 64.778 194.016C65.146 193.44 65.33 192.688 65.33 191.76V190.104C64.93 190.792 64.402 191.32 63.746 191.688C63.106 192.056 62.378 192.24 61.562 192.24C60.57 192.24 59.658 192.008 58.826 191.544C57.994 191.08 57.33 190.416 56.834 189.552C56.338 188.688 56.09 187.664 56.09 186.48C56.09 185.28 56.338 184.256 56.834 183.408C57.33 182.544 57.994 181.88 58.826 181.416C59.658 180.952 60.57 180.72 61.562 180.72C62.378 180.72 63.106 180.904 63.746 181.272C64.402 181.64 64.93 182.168 65.33 182.856V180.96H67.25V191.76C67.25 193.024 66.986 194.08 66.458 194.928C65.93 195.792 65.25 196.44 64.418 196.872C63.586 197.304 62.706 197.52 61.778 197.52C60.706 197.52 59.754 197.32 58.922 196.92C58.106 196.52 57.466 195.952 57.002 195.216C56.538 194.496 56.306 193.664 56.306 192.72ZM58.034 186.48C58.034 187.328 58.202 188.048 58.538 188.64C58.89 189.232 59.354 189.68 59.93 189.984C60.506 190.288 61.13 190.44 61.802 190.44C62.362 190.44 62.914 190.288 63.458 189.984C64.002 189.68 64.45 189.232 64.802 188.64C65.154 188.048 65.33 187.328 65.33 186.48C65.33 185.632 65.154 184.912 64.802 184.32C64.45 183.728 64.002 183.28 63.458 182.976C62.914 182.672 62.362 182.52 61.802 182.52C61.13 182.52 60.506 182.672 59.93 182.976C59.354 183.28 58.89 183.728 58.538 184.32C58.202 184.912 58.034 185.632 58.034 186.48ZM70.7375 176.4C70.7375 176.032 70.8655 175.72 71.1215 175.464C71.3935 175.208 71.7055 175.08 72.0575 175.08C72.4255 175.08 72.7375 175.208 72.9935 175.464C73.2495 175.72 73.3775 176.032 73.3775 176.4C73.3775 176.752 73.2495 177.064 72.9935 177.336C72.7375 177.592 72.4255 177.72 72.0575 177.72C71.7055 177.72 71.3935 177.592 71.1215 177.336C70.8655 177.064 70.7375 176.752 70.7375 176.4ZM71.0975 180.96H73.0175V192H71.0975V180.96ZM84.0519 185.28C84.0519 183.44 83.2679 182.52 81.6999 182.52C80.8679 182.52 80.1879 182.776 79.6599 183.288C79.1479 183.8 78.8919 184.464 78.8919 185.28V192H76.9719V180.96H78.8919V182.688C79.6119 181.376 80.7079 180.72 82.1799 180.72C83.3479 180.72 84.2679 181.112 84.9399 181.896C85.6279 182.664 85.9719 183.712 85.9719 185.04V192H84.0519V185.28ZM93.8533 192.24C92.8293 192.24 91.9173 192 91.1173 191.52C90.3333 191.024 89.7173 190.344 89.2693 189.48C88.8373 188.616 88.6213 187.616 88.6213 186.48C88.6213 185.328 88.8453 184.32 89.2933 183.456C89.7573 182.592 90.3973 181.92 91.2133 181.44C92.0453 180.96 93.0053 180.72 94.0933 180.72C95.7093 180.72 96.9813 181.224 97.9093 182.232C98.8373 183.24 99.3013 184.624 99.3013 186.384C99.3013 186.496 99.2933 186.616 99.2773 186.744C99.2773 186.856 99.2773 186.928 99.2773 186.96H90.5893C90.6693 188.064 91.0133 188.92 91.6213 189.528C92.2293 190.136 93.0533 190.44 94.0933 190.44C95.5973 190.44 96.7493 189.776 97.5493 188.448L99.1093 189.432C97.9573 191.304 96.2053 192.24 93.8533 192.24ZM94.0933 182.4C93.1493 182.4 92.3813 182.656 91.7893 183.168C91.1973 183.664 90.8213 184.384 90.6613 185.328H97.2133C97.1493 184.448 96.8293 183.744 96.2533 183.216C95.6933 182.672 94.9733 182.4 94.0933 182.4ZM106.205 192.24C105.181 192.24 104.269 192 103.469 191.52C102.685 191.024 102.069 190.344 101.621 189.48C101.189 188.616 100.973 187.616 100.973 186.48C100.973 185.328 101.197 184.32 101.645 183.456C102.109 182.592 102.749 181.92 103.565 181.44C104.397 180.96 105.357 180.72 106.445 180.72C108.061 180.72 109.333 181.224 110.261 182.232C111.189 183.24 111.653 184.624 111.653 186.384C111.653 186.496 111.645 186.616 111.629 186.744C111.629 186.856 111.629 186.928 111.629 186.96H102.941C103.021 188.064 103.365 188.92 103.973 189.528C104.581 190.136 105.405 190.44 106.445 190.44C107.949 190.44 109.101 189.776 109.901 188.448L111.461 189.432C110.309 191.304 108.557 192.24 106.205 192.24ZM106.445 182.4C105.501 182.4 104.733 182.656 104.141 183.168C103.549 183.664 103.173 184.384 103.013 185.328H109.565C109.501 184.448 109.181 183.744 108.605 183.216C108.045 182.672 107.325 182.4 106.445 182.4ZM119.54 183.072C119.284 182.88 119.052 182.744 118.844 182.664C118.636 182.568 118.372 182.52 118.052 182.52C117.332 182.52 116.844 182.784 116.588 183.312C116.332 183.824 116.204 184.48 116.204 185.28V192H114.284V180.96H116.204V182.232C116.508 181.768 116.868 181.4 117.284 181.128C117.7 180.856 118.116 180.72 118.532 180.72C118.932 180.72 119.3 180.776 119.636 180.888C119.988 180.984 120.308 181.184 120.596 181.488L119.54 183.072Z" fill="#444B54"/>
<path d="M60 85.5L54 77" stroke="#444B54" stroke-width="4" stroke-linecap="round"/>
<path d="M75 82.5V72.5" stroke="#444B54" stroke-width="4" stroke-linecap="round"/>
<path d="M72.0902 100.06C73.6538 100.06 74.9214 98.7925 74.9214 97.2289C74.9214 95.6652 73.6538 94.3976 72.0902 94.3976C70.5265 94.3976 69.2589 95.6652 69.2589 97.2289C69.2589 98.7925 70.5265 100.06 72.0902 100.06Z" fill="#EE5055"/>
<path d="M81.301 100.06C82.8646 100.06 84.1323 98.7925 84.1323 97.2289C84.1323 95.6652 82.8646 94.3976 81.301 94.3976C79.7373 94.3976 78.4697 95.6652 78.4697 97.2289C78.4697 98.7925 79.7373 100.06 81.301 100.06Z" fill="#EE5055"/>
<path d="M73.358 81C85.3202 81 95.1589 89.9893 96.5745 101.598C97.2047 103.823 93.917 107.318 92.4691 104.358C92.4691 93.5992 83.4798 84.8222 72.5794 85.2469C62.2453 85.6716 54.2469 94.4486 54.2469 104.854V111.507C54.2469 112.781 53.0436 113.843 51.6988 113.56C50.7078 113.347 50 112.427 50 111.365L50.1415 101.598C51.5572 89.9893 61.3959 81 73.358 81Z" fill="#444B54"/>
<path d="M77.6612 116.646C72.211 116.646 67.7517 112.187 67.7517 106.737C67.7517 105.533 68.6719 104.613 69.8752 104.613H85.4472C86.6505 104.613 87.5706 105.533 87.5706 106.737C87.5706 112.187 83.1114 116.646 77.6612 116.646Z" fill="#444B54"/>
<path d="M83.7483 114.523C82.545 112.399 80.2092 110.984 77.6611 110.984C75.1129 110.984 72.7771 112.399 71.5739 114.523C73.2726 115.867 75.3961 116.646 77.6611 116.646C79.9261 116.646 82.1204 115.867 83.7483 114.523Z" fill="#EE5055"/>
<path d="M111 94L289 19" stroke="#EE5055" stroke-width="4" stroke-linecap="round" stroke-dasharray="8 8"/>
<path d="M104 82L293 2" stroke="#EE5055" stroke-width="4" stroke-linecap="round" stroke-dasharray="8 8"/>
</svg>
