<svg width="842" height="386" viewBox="0 0 842 386" fill="none" xmlns="http://www.w3.org/2000/svg">
<path d="M49.96 365.96H51.04V361.88C51.04 360.568 51.32 359.6 51.88 358.976C52.44 358.352 53.224 358.04 54.232 358.04C54.744 358.04 55.176 358.144 55.528 358.352C55.896 358.544 56.168 358.76 56.344 359L55.288 360.584C55.128 360.312 54.936 360.144 54.712 360.08C54.504 360 54.304 359.96 54.112 359.96C53.76 359.96 53.48 360.12 53.272 360.44C53.064 360.76 52.96 361.32 52.96 362.12V365.96H55.48V367.76H52.96V377H51.04V367.76H49.96V365.96ZM58.2432 368.504L57.3072 367.088C57.7232 366.784 58.2912 366.48 59.0112 366.176C59.7472 365.872 60.6272 365.72 61.6512 365.72C62.9312 365.72 63.9712 366.016 64.7712 366.608C65.5712 367.184 65.9712 368.008 65.9712 369.08V377H64.0512V375.512C63.6992 376.088 63.1712 376.52 62.4672 376.808C61.7632 377.096 61.0752 377.24 60.4032 377.24C59.7312 377.24 59.0992 377.104 58.5072 376.832C57.9312 376.544 57.4672 376.136 57.1152 375.608C56.7632 375.08 56.5872 374.44 56.5872 373.688C56.5872 372.616 56.9632 371.76 57.7152 371.12C58.4832 370.464 59.5472 370.136 60.9072 370.136C61.6432 370.136 62.2672 370.224 62.7792 370.4C63.3072 370.56 63.7312 370.744 64.0512 370.952V369.344C64.0512 368.592 63.8032 368.08 63.3072 367.808C62.8272 367.536 62.2432 367.4 61.5552 367.4C60.7232 367.4 60.0272 367.536 59.4672 367.808C58.9072 368.08 58.4992 368.312 58.2432 368.504ZM58.5312 373.592C58.5312 374.232 58.7472 374.728 59.1792 375.08C59.6272 375.416 60.2032 375.584 60.9072 375.584C61.7872 375.584 62.5312 375.32 63.1392 374.792C63.7472 374.264 64.0512 373.56 64.0512 372.68V372.272C63.6032 372.048 63.1472 371.888 62.6832 371.792C62.2192 371.696 61.7312 371.648 61.2192 371.648C60.2912 371.648 59.6112 371.824 59.1792 372.176C58.7472 372.512 58.5312 372.984 58.5312 373.592ZM70.0859 371.48C70.0859 372.248 70.2459 372.928 70.5659 373.52C70.9019 374.112 71.3499 374.584 71.9099 374.936C72.4859 375.272 73.1339 375.44 73.8539 375.44C74.7499 375.44 75.5499 375.24 76.2539 374.84C76.9579 374.44 77.4379 373.968 77.6939 373.424V375.824C77.3099 376.272 76.7579 376.624 76.0379 376.88C75.3339 377.12 74.6059 377.24 73.8539 377.24C72.7819 377.24 71.8139 376.992 70.9499 376.496C70.0859 376 69.3979 375.32 68.8859 374.456C68.3899 373.576 68.1419 372.584 68.1419 371.48C68.1419 370.36 68.3899 369.368 68.8859 368.504C69.3979 367.64 70.0859 366.96 70.9499 366.464C71.8139 365.968 72.7819 365.72 73.8539 365.72C74.6059 365.72 75.3339 365.848 76.0379 366.104C76.7579 366.344 77.3099 366.688 77.6939 367.136V369.536C77.4379 368.992 76.9579 368.52 76.2539 368.12C75.5499 367.72 74.7499 367.52 73.8539 367.52C73.1339 367.52 72.4859 367.688 71.9099 368.024C71.3499 368.36 70.9019 368.832 70.5659 369.44C70.2459 370.032 70.0859 370.712 70.0859 371.48ZM84.9548 377.24C83.9308 377.24 83.0188 377 82.2188 376.52C81.4348 376.024 80.8188 375.344 80.3708 374.48C79.9388 373.616 79.7228 372.616 79.7228 371.48C79.7228 370.328 79.9468 369.32 80.3948 368.456C80.8588 367.592 81.4988 366.92 82.3148 366.44C83.1468 365.96 84.1068 365.72 85.1948 365.72C86.8108 365.72 88.0828 366.224 89.0108 367.232C89.9388 368.24 90.4028 369.624 90.4028 371.384C90.4028 371.496 90.3948 371.616 90.3788 371.744C90.3788 371.856 90.3788 371.928 90.3788 371.96H81.6908C81.7708 373.064 82.1148 373.92 82.7228 374.528C83.3308 375.136 84.1548 375.44 85.1948 375.44C86.6988 375.44 87.8508 374.776 88.6508 373.448L90.2108 374.432C89.0588 376.304 87.3068 377.24 84.9548 377.24ZM85.1948 367.4C84.2508 367.4 83.4828 367.656 82.8908 368.168C82.2988 368.664 81.9228 369.384 81.7628 370.328H88.3148C88.2508 369.448 87.9308 368.744 87.3548 368.216C86.7948 367.672 86.0748 367.4 85.1948 367.4ZM93.0344 358.28H94.9544V377H93.0344V358.28ZM102.838 377.24C101.814 377.24 100.902 377 100.102 376.52C99.3176 376.024 98.7016 375.344 98.2536 374.48C97.8216 373.616 97.6056 372.616 97.6056 371.48C97.6056 370.328 97.8296 369.32 98.2776 368.456C98.7416 367.592 99.3816 366.92 100.198 366.44C101.03 365.96 101.99 365.72 103.078 365.72C104.694 365.72 105.966 366.224 106.894 367.232C107.822 368.24 108.286 369.624 108.286 371.384C108.286 371.496 108.278 371.616 108.262 371.744C108.262 371.856 108.262 371.928 108.262 371.96H99.5736C99.6536 373.064 99.9976 373.92 100.606 374.528C101.214 375.136 102.038 375.44 103.078 375.44C104.582 375.44 105.734 374.776 106.534 373.448L108.094 374.432C106.942 376.304 105.19 377.24 102.838 377.24ZM103.078 367.4C102.134 367.4 101.366 367.656 100.774 368.168C100.182 368.664 99.8056 369.384 99.6456 370.328H106.198C106.134 369.448 105.814 368.744 105.238 368.216C104.678 367.672 103.958 367.4 103.078 367.4ZM111.373 373.616C111.709 374.128 112.117 374.568 112.597 374.936C113.093 375.304 113.685 375.488 114.373 375.488C114.917 375.488 115.341 375.368 115.645 375.128C115.965 374.872 116.125 374.528 116.125 374.096C116.125 373.712 115.997 373.392 115.741 373.136C115.501 372.864 115.189 372.64 114.805 372.464C114.421 372.272 114.013 372.096 113.581 371.936C113.101 371.744 112.613 371.52 112.117 371.264C111.637 370.992 111.229 370.648 110.893 370.232C110.573 369.8 110.413 369.264 110.413 368.624C110.413 367.968 110.581 367.424 110.917 366.992C111.269 366.56 111.717 366.24 112.261 366.032C112.821 365.824 113.397 365.72 113.989 365.72C114.869 365.72 115.669 365.928 116.389 366.344C117.109 366.76 117.637 367.272 117.973 367.88L116.437 368.864C116.133 368.448 115.749 368.104 115.285 367.832C114.837 367.56 114.325 367.424 113.749 367.424C113.349 367.424 113.005 367.512 112.717 367.688C112.429 367.864 112.285 368.136 112.285 368.504C112.285 368.952 112.517 369.32 112.981 369.608C113.461 369.88 113.997 370.136 114.589 370.376C115.229 370.632 115.813 370.912 116.341 371.216C116.869 371.504 117.285 371.856 117.589 372.272C117.909 372.688 118.069 373.224 118.069 373.88C118.069 374.84 117.717 375.64 117.013 376.28C116.325 376.92 115.413 377.24 114.277 377.24C113.541 377.24 112.877 377.112 112.285 376.856C111.693 376.584 111.189 376.24 110.773 375.824C110.373 375.408 110.069 374.984 109.861 374.552L111.373 373.616ZM121.053 373.616C121.389 374.128 121.797 374.568 122.277 374.936C122.773 375.304 123.365 375.488 124.053 375.488C124.597 375.488 125.021 375.368 125.325 375.128C125.645 374.872 125.805 374.528 125.805 374.096C125.805 373.712 125.677 373.392 125.421 373.136C125.181 372.864 124.869 372.64 124.485 372.464C124.101 372.272 123.693 372.096 123.261 371.936C122.781 371.744 122.293 371.52 121.797 371.264C121.317 370.992 120.909 370.648 120.573 370.232C120.253 369.8 120.093 369.264 120.093 368.624C120.093 367.968 120.261 367.424 120.597 366.992C120.949 366.56 121.397 366.24 121.941 366.032C122.501 365.824 123.077 365.72 123.669 365.72C124.549 365.72 125.349 365.928 126.069 366.344C126.789 366.76 127.317 367.272 127.653 367.88L126.117 368.864C125.813 368.448 125.429 368.104 124.965 367.832C124.517 367.56 124.005 367.424 123.429 367.424C123.029 367.424 122.685 367.512 122.397 367.688C122.109 367.864 121.965 368.136 121.965 368.504C121.965 368.952 122.197 369.32 122.661 369.608C123.141 369.88 123.677 370.136 124.269 370.376C124.909 370.632 125.493 370.912 126.021 371.216C126.549 371.504 126.965 371.856 127.269 372.272C127.589 372.688 127.749 373.224 127.749 373.88C127.749 374.84 127.397 375.64 126.693 376.28C126.005 376.92 125.093 377.24 123.957 377.24C123.221 377.24 122.557 377.112 121.965 376.856C121.373 376.584 120.869 376.24 120.453 375.824C120.053 375.408 119.749 374.984 119.541 374.552L121.053 373.616ZM152.592 370.04V377H150.672V370.28C150.672 369.336 150.496 368.64 150.144 368.192C149.808 367.744 149.28 367.52 148.56 367.52C147.776 367.52 147.152 367.768 146.688 368.264C146.224 368.744 145.992 369.416 145.992 370.28V377H144.072V370.28C144.072 369.336 143.896 368.64 143.544 368.192C143.208 367.744 142.68 367.52 141.96 367.52C141.176 367.52 140.552 367.768 140.088 368.264C139.624 368.744 139.392 369.416 139.392 370.28V377H137.472V365.96H139.392V367.568C140.048 366.336 141.064 365.72 142.44 365.72C143.208 365.72 143.864 365.904 144.408 366.272C144.968 366.624 145.376 367.128 145.632 367.784C146.4 366.408 147.536 365.72 149.04 365.72C150.176 365.72 151.048 366.096 151.656 366.848C152.28 367.6 152.592 368.664 152.592 370.04ZM156.198 361.4C156.198 361.032 156.326 360.72 156.582 360.464C156.854 360.208 157.166 360.08 157.518 360.08C157.886 360.08 158.198 360.208 158.454 360.464C158.71 360.72 158.838 361.032 158.838 361.4C158.838 361.752 158.71 362.064 158.454 362.336C158.198 362.592 157.886 362.72 157.518 362.72C157.166 362.72 156.854 362.592 156.582 362.336C156.326 362.064 156.198 361.752 156.198 361.4ZM156.558 365.96H158.478V377H156.558V365.96ZM163.297 371.48C163.297 372.248 163.457 372.928 163.777 373.52C164.113 374.112 164.561 374.584 165.121 374.936C165.697 375.272 166.345 375.44 167.065 375.44C167.961 375.44 168.761 375.24 169.465 374.84C170.169 374.44 170.649 373.968 170.905 373.424V375.824C170.521 376.272 169.969 376.624 169.249 376.88C168.545 377.12 167.817 377.24 167.065 377.24C165.993 377.24 165.025 376.992 164.161 376.496C163.297 376 162.609 375.32 162.097 374.456C161.601 373.576 161.353 372.584 161.353 371.48C161.353 370.36 161.601 369.368 162.097 368.504C162.609 367.64 163.297 366.96 164.161 366.464C165.025 365.968 165.993 365.72 167.065 365.72C167.817 365.72 168.545 365.848 169.249 366.104C169.969 366.344 170.521 366.688 170.905 367.136V369.536C170.649 368.992 170.169 368.52 169.465 368.12C168.761 367.72 167.961 367.52 167.065 367.52C166.345 367.52 165.697 367.688 165.121 368.024C164.561 368.36 164.113 368.832 163.777 369.44C163.457 370.032 163.297 370.712 163.297 371.48ZM179.15 368.072C178.894 367.88 178.662 367.744 178.454 367.664C178.246 367.568 177.982 367.52 177.662 367.52C176.942 367.52 176.454 367.784 176.198 368.312C175.942 368.824 175.814 369.48 175.814 370.28V377H173.894V365.96H175.814V367.232C176.118 366.768 176.478 366.4 176.894 366.128C177.31 365.856 177.726 365.72 178.142 365.72C178.542 365.72 178.91 365.776 179.246 365.888C179.598 365.984 179.918 366.184 180.206 366.488L179.15 368.072ZM180.809 371.48C180.809 370.36 181.057 369.368 181.553 368.504C182.065 367.64 182.753 366.96 183.617 366.464C184.481 365.968 185.449 365.72 186.521 365.72C187.609 365.72 188.577 365.968 189.425 366.464C190.289 366.96 190.969 367.64 191.465 368.504C191.977 369.368 192.233 370.36 192.233 371.48C192.233 372.584 191.977 373.576 191.465 374.456C190.969 375.32 190.289 376 189.425 376.496C188.577 376.992 187.609 377.24 186.521 377.24C185.449 377.24 184.481 376.992 183.617 376.496C182.753 376 182.065 375.32 181.553 374.456C181.057 373.576 180.809 372.584 180.809 371.48ZM182.753 371.48C182.753 372.248 182.913 372.928 183.233 373.52C183.569 374.112 184.017 374.584 184.577 374.936C185.153 375.272 185.801 375.44 186.521 375.44C187.241 375.44 187.881 375.272 188.441 374.936C189.017 374.584 189.465 374.112 189.785 373.52C190.121 372.928 190.289 372.248 190.289 371.48C190.289 370.712 190.121 370.032 189.785 369.44C189.465 368.832 189.017 368.36 188.441 368.024C187.881 367.688 187.241 367.52 186.521 367.52C185.801 367.52 185.153 367.688 184.577 368.024C184.017 368.36 183.569 368.832 183.233 369.44C182.913 370.032 182.753 370.712 182.753 371.48ZM195.326 373.616C195.662 374.128 196.07 374.568 196.55 374.936C197.046 375.304 197.638 375.488 198.326 375.488C198.87 375.488 199.294 375.368 199.598 375.128C199.918 374.872 200.078 374.528 200.078 374.096C200.078 373.712 199.95 373.392 199.694 373.136C199.454 372.864 199.142 372.64 198.758 372.464C198.374 372.272 197.966 372.096 197.534 371.936C197.054 371.744 196.566 371.52 196.07 371.264C195.59 370.992 195.182 370.648 194.846 370.232C194.526 369.8 194.366 369.264 194.366 368.624C194.366 367.968 194.534 367.424 194.87 366.992C195.222 366.56 195.67 366.24 196.214 366.032C196.774 365.824 197.35 365.72 197.942 365.72C198.822 365.72 199.622 365.928 200.342 366.344C201.062 366.76 201.59 367.272 201.926 367.88L200.39 368.864C200.086 368.448 199.702 368.104 199.238 367.832C198.79 367.56 198.278 367.424 197.702 367.424C197.302 367.424 196.958 367.512 196.67 367.688C196.382 367.864 196.238 368.136 196.238 368.504C196.238 368.952 196.47 369.32 196.934 369.608C197.414 369.88 197.95 370.136 198.542 370.376C199.182 370.632 199.766 370.912 200.294 371.216C200.822 371.504 201.238 371.856 201.542 372.272C201.862 372.688 202.022 373.224 202.022 373.88C202.022 374.84 201.67 375.64 200.966 376.28C200.278 376.92 199.366 377.24 198.23 377.24C197.494 377.24 196.83 377.112 196.238 376.856C195.646 376.584 195.142 376.24 194.726 375.824C194.326 375.408 194.022 374.984 193.814 374.552L195.326 373.616ZM208.822 377.24C207.798 377.24 206.886 377 206.086 376.52C205.302 376.024 204.686 375.344 204.238 374.48C203.806 373.616 203.59 372.616 203.59 371.48C203.59 370.328 203.814 369.32 204.262 368.456C204.726 367.592 205.366 366.92 206.182 366.44C207.014 365.96 207.974 365.72 209.062 365.72C210.678 365.72 211.95 366.224 212.878 367.232C213.806 368.24 214.27 369.624 214.27 371.384C214.27 371.496 214.262 371.616 214.246 371.744C214.246 371.856 214.246 371.928 214.246 371.96H205.558C205.638 373.064 205.982 373.92 206.59 374.528C207.198 375.136 208.022 375.44 209.062 375.44C210.566 375.44 211.718 374.776 212.518 373.448L214.078 374.432C212.926 376.304 211.174 377.24 208.822 377.24ZM209.062 367.4C208.118 367.4 207.35 367.656 206.758 368.168C206.166 368.664 205.79 369.384 205.63 370.328H212.182C212.118 369.448 211.798 368.744 211.222 368.216C210.662 367.672 209.942 367.4 209.062 367.4ZM222.158 368.072C221.902 367.88 221.67 367.744 221.462 367.664C221.254 367.568 220.99 367.52 220.67 367.52C219.95 367.52 219.462 367.784 219.206 368.312C218.95 368.824 218.822 369.48 218.822 370.28V377H216.902V365.96H218.822V367.232C219.126 366.768 219.486 366.4 219.902 366.128C220.318 365.856 220.734 365.72 221.15 365.72C221.55 365.72 221.918 365.776 222.254 365.888C222.606 365.984 222.926 366.184 223.214 366.488L222.158 368.072ZM224.055 365.96H226.215L229.335 373.76L232.455 365.96H234.615L229.335 377.84L224.055 365.96ZM236.425 361.4C236.425 361.032 236.553 360.72 236.809 360.464C237.081 360.208 237.393 360.08 237.745 360.08C238.113 360.08 238.425 360.208 238.681 360.464C238.937 360.72 239.065 361.032 239.065 361.4C239.065 361.752 238.937 362.064 238.681 362.336C238.425 362.592 238.113 362.72 237.745 362.72C237.393 362.72 237.081 362.592 236.809 362.336C236.553 362.064 236.425 361.752 236.425 361.4ZM236.785 365.96H238.705V377H236.785V365.96ZM243.523 371.48C243.523 372.248 243.683 372.928 244.003 373.52C244.339 374.112 244.787 374.584 245.347 374.936C245.923 375.272 246.571 375.44 247.291 375.44C248.187 375.44 248.987 375.24 249.691 374.84C250.395 374.44 250.875 373.968 251.131 373.424V375.824C250.747 376.272 250.195 376.624 249.475 376.88C248.771 377.12 248.043 377.24 247.291 377.24C246.219 377.24 245.251 376.992 244.387 376.496C243.523 376 242.835 375.32 242.323 374.456C241.827 373.576 241.579 372.584 241.579 371.48C241.579 370.36 241.827 369.368 242.323 368.504C242.835 367.64 243.523 366.96 244.387 366.464C245.251 365.968 246.219 365.72 247.291 365.72C248.043 365.72 248.771 365.848 249.475 366.104C250.195 366.344 250.747 366.688 251.131 367.136V369.536C250.875 368.992 250.395 368.52 249.691 368.12C248.987 367.72 248.187 367.52 247.291 367.52C246.571 367.52 245.923 367.688 245.347 368.024C244.787 368.36 244.339 368.832 244.003 369.44C243.683 370.032 243.523 370.712 243.523 371.48ZM258.392 377.24C257.368 377.24 256.456 377 255.656 376.52C254.872 376.024 254.256 375.344 253.808 374.48C253.376 373.616 253.16 372.616 253.16 371.48C253.16 370.328 253.384 369.32 253.832 368.456C254.296 367.592 254.936 366.92 255.752 366.44C256.584 365.96 257.544 365.72 258.632 365.72C260.248 365.72 261.52 366.224 262.448 367.232C263.376 368.24 263.84 369.624 263.84 371.384C263.84 371.496 263.832 371.616 263.816 371.744C263.816 371.856 263.816 371.928 263.816 371.96H255.128C255.208 373.064 255.552 373.92 256.16 374.528C256.768 375.136 257.592 375.44 258.632 375.44C260.136 375.44 261.288 374.776 262.088 373.448L263.648 374.432C262.496 376.304 260.744 377.24 258.392 377.24ZM258.632 367.4C257.688 367.4 256.92 367.656 256.328 368.168C255.736 368.664 255.36 369.384 255.2 370.328H261.752C261.688 369.448 261.368 368.744 260.792 368.216C260.232 367.672 259.512 367.4 258.632 367.4ZM266.928 373.616C267.264 374.128 267.672 374.568 268.152 374.936C268.648 375.304 269.24 375.488 269.928 375.488C270.472 375.488 270.896 375.368 271.2 375.128C271.52 374.872 271.68 374.528 271.68 374.096C271.68 373.712 271.552 373.392 271.296 373.136C271.056 372.864 270.744 372.64 270.36 372.464C269.976 372.272 269.568 372.096 269.136 371.936C268.656 371.744 268.168 371.52 267.672 371.264C267.192 370.992 266.784 370.648 266.448 370.232C266.128 369.8 265.968 369.264 265.968 368.624C265.968 367.968 266.136 367.424 266.472 366.992C266.824 366.56 267.272 366.24 267.816 366.032C268.376 365.824 268.952 365.72 269.544 365.72C270.424 365.72 271.224 365.928 271.944 366.344C272.664 366.76 273.192 367.272 273.528 367.88L271.992 368.864C271.688 368.448 271.304 368.104 270.84 367.832C270.392 367.56 269.88 367.424 269.304 367.424C268.904 367.424 268.56 367.512 268.272 367.688C267.984 367.864 267.84 368.136 267.84 368.504C267.84 368.952 268.072 369.32 268.536 369.608C269.016 369.88 269.552 370.136 270.144 370.376C270.784 370.632 271.368 370.912 271.896 371.216C272.424 371.504 272.84 371.856 273.144 372.272C273.464 372.688 273.624 373.224 273.624 373.88C273.624 374.84 273.272 375.64 272.568 376.28C271.88 376.92 270.968 377.24 269.832 377.24C269.096 377.24 268.432 377.112 267.84 376.856C267.248 376.584 266.744 376.24 266.328 375.824C265.928 375.408 265.624 374.984 265.416 374.552L266.928 373.616Z" fill="black"/>
<path d="M64.5082 186.927C66.0719 186.927 67.3395 185.66 67.3395 184.096C67.3395 182.532 66.0719 181.265 64.5082 181.265C62.9446 181.265 61.677 182.532 61.677 184.096C61.677 185.66 62.9446 186.927 64.5082 186.927Z" fill="#444B54"/>
<path d="M73.719 186.927C75.2827 186.927 76.5503 185.66 76.5503 184.096C76.5503 182.532 75.2827 181.265 73.719 181.265C72.1554 181.265 70.8878 182.532 70.8878 184.096C70.8878 185.66 72.1554 186.927 73.719 186.927Z" fill="#444B54"/>
<path d="M65.776 167.867C77.7382 167.867 87.5769 176.857 88.9925 188.465C89.6227 190.69 86.335 194.186 84.8871 191.225C84.8871 180.466 75.8978 171.69 64.9974 172.114C54.6633 172.539 46.6649 181.316 46.6649 191.721V198.374C46.6649 199.648 45.4616 200.71 44.1168 200.427C43.1258 200.215 42.418 199.294 42.418 198.233L42.5595 188.465C43.9752 176.857 53.8139 167.867 65.776 167.867Z" fill="#444B54"/>
<path d="M126.807 193.124C128.37 193.124 129.638 191.856 129.638 190.292C129.638 188.729 128.37 187.461 126.807 187.461C125.243 187.461 123.976 188.729 123.976 190.292C123.976 191.856 125.243 193.124 126.807 193.124Z" fill="#444B54"/>
<path d="M136.018 193.124C137.581 193.124 138.849 191.856 138.849 190.292C138.849 188.729 137.581 187.461 136.018 187.461C134.454 187.461 133.186 188.729 133.186 190.292C133.186 191.856 134.454 193.124 136.018 193.124Z" fill="#444B54"/>
<path d="M128.075 174.064C140.037 174.064 149.875 183.053 151.291 194.661C151.921 196.887 148.634 200.382 147.186 197.422C147.186 186.663 138.196 177.886 127.296 178.311C116.962 178.735 108.963 187.512 108.963 197.917V204.571C108.963 205.845 107.76 206.906 106.415 206.623C105.424 206.411 104.717 205.491 104.717 204.429L104.858 194.661C106.274 183.053 116.112 174.064 128.075 174.064Z" fill="#444B54"/>
<path d="M189.105 186.927C190.669 186.927 191.937 185.66 191.937 184.096C191.937 182.532 190.669 181.265 189.105 181.265C187.542 181.265 186.274 182.532 186.274 184.096C186.274 185.66 187.542 186.927 189.105 186.927Z" fill="#444B54"/>
<path d="M198.316 186.927C199.88 186.927 201.147 185.66 201.147 184.096C201.147 182.532 199.88 181.265 198.316 181.265C196.752 181.265 195.485 182.532 195.485 184.096C195.485 185.66 196.752 186.927 198.316 186.927Z" fill="#444B54"/>
<path d="M190.373 167.867C202.335 167.867 212.174 176.857 213.59 188.465C214.22 190.69 210.932 194.186 209.484 191.225C209.484 180.466 200.495 171.69 189.595 172.114C179.26 172.539 171.262 181.316 171.262 191.721V198.374C171.262 199.648 170.059 200.71 168.714 200.427C167.723 200.215 167.015 199.294 167.015 198.233L167.157 188.465C168.572 176.857 178.411 167.867 190.373 167.867Z" fill="#444B54"/>
<path d="M248.724 200.325C250.288 200.325 251.556 199.057 251.556 197.494C251.556 195.93 250.288 194.662 248.724 194.662C247.161 194.662 245.893 195.93 245.893 197.494C245.893 199.057 247.161 200.325 248.724 200.325Z" fill="#444B54"/>
<path d="M257.935 200.325C259.499 200.325 260.766 199.057 260.766 197.494C260.766 195.93 259.499 194.662 257.935 194.662C256.371 194.662 255.104 195.93 255.104 197.494C255.104 199.057 256.371 200.325 257.935 200.325Z" fill="#444B54"/>
<path d="M249.992 181.265C261.954 181.265 271.793 190.254 273.209 201.862C273.839 204.088 270.551 207.583 269.103 204.623C269.103 193.864 260.114 185.087 249.214 185.512C238.879 185.936 230.881 194.713 230.881 205.118V211.772C230.881 213.046 229.678 214.108 228.333 213.825C227.342 213.612 226.634 212.692 226.634 211.63L226.776 201.862C228.191 190.254 238.03 181.265 249.992 181.265Z" fill="#444B54"/>
<path d="M83.7671 236.498C85.3308 236.498 86.5984 235.231 86.5984 233.667C86.5984 232.103 85.3308 230.836 83.7671 230.836C82.2035 230.836 80.9359 232.103 80.9359 233.667C80.9359 235.231 82.2035 236.498 83.7671 236.498Z" fill="#444B54"/>
<path d="M92.9779 236.498C94.5416 236.498 95.8092 235.231 95.8092 233.667C95.8092 232.103 94.5416 230.836 92.9779 230.836C91.4143 230.836 90.1467 232.103 90.1467 233.667C90.1467 235.231 91.4143 236.498 92.9779 236.498Z" fill="#444B54"/>
<path d="M85.035 217.438C96.9971 217.438 106.836 226.428 108.251 238.036C108.882 240.261 105.594 243.757 104.146 240.796C104.146 230.037 95.1568 221.26 84.2564 221.685C73.9222 222.11 65.9239 230.887 65.9239 241.292V247.945C65.9239 249.219 64.7206 250.281 63.3757 249.998C62.3848 249.786 61.6769 248.865 61.6769 247.804L61.8185 238.036C63.2341 226.428 73.0728 217.438 85.035 217.438Z" fill="#444B54"/>
<path d="M158.124 236.498C159.687 236.498 160.955 235.231 160.955 233.667C160.955 232.103 159.687 230.836 158.124 230.836C156.56 230.836 155.292 232.103 155.292 233.667C155.292 235.231 156.56 236.498 158.124 236.498Z" fill="#444B54"/>
<path d="M167.334 236.498C168.898 236.498 170.166 235.231 170.166 233.667C170.166 232.103 168.898 230.836 167.334 230.836C165.771 230.836 164.503 232.103 164.503 233.667C164.503 235.231 165.771 236.498 167.334 236.498Z" fill="#444B54"/>
<path d="M159.391 217.438C171.353 217.438 181.192 226.428 182.608 238.036C183.238 240.261 179.95 243.757 178.502 240.796C178.502 230.037 169.513 221.26 158.613 221.685C148.279 222.11 140.28 230.887 140.28 241.292V247.945C140.28 249.219 139.077 250.281 137.732 249.998C136.741 249.786 136.033 248.865 136.033 247.804L136.175 238.036C137.59 226.428 147.429 217.438 159.391 217.438Z" fill="#444B54"/>
<path d="M224.106 239.345C225.67 239.345 226.938 238.078 226.938 236.514C226.938 234.95 225.67 233.683 224.106 233.683C222.543 233.683 221.275 234.95 221.275 236.514C221.275 238.078 222.543 239.345 224.106 239.345Z" fill="#444B54"/>
<path d="M233.317 239.345C234.881 239.345 236.149 238.078 236.149 236.514C236.149 234.95 234.881 233.683 233.317 233.683C231.754 233.683 230.486 234.95 230.486 236.514C230.486 238.078 231.754 239.345 233.317 239.345Z" fill="#444B54"/>
<path d="M225.374 220.285C237.336 220.285 247.175 229.274 248.591 240.883C249.221 243.108 245.933 246.604 244.485 243.643C244.485 232.884 235.496 224.107 224.596 224.532C214.261 224.957 206.263 233.734 206.263 244.139V250.792C206.263 252.066 205.06 253.128 203.715 252.845C202.724 252.633 202.016 251.712 202.016 250.651L202.158 240.883C203.573 229.274 213.412 220.285 225.374 220.285Z" fill="#444B54"/>
<path d="M59.1491 286.069C60.7128 286.069 61.9804 284.802 61.9804 283.238C61.9804 281.674 60.7128 280.407 59.1491 280.407C57.5854 280.407 56.3178 281.674 56.3178 283.238C56.3178 284.802 57.5854 286.069 59.1491 286.069Z" fill="#444B54"/>
<path d="M68.3599 286.069C69.9236 286.069 71.1912 284.802 71.1912 283.238C71.1912 281.674 69.9236 280.407 68.3599 280.407C66.7962 280.407 65.5286 281.674 65.5286 283.238C65.5286 284.802 66.7962 286.069 68.3599 286.069Z" fill="#444B54"/>
<path d="M60.417 267.009C72.3791 267.009 82.2178 275.998 83.6335 287.607C84.2636 289.832 80.9759 293.327 79.5281 290.367C79.5281 279.608 70.5388 270.831 59.6384 271.256C49.3042 271.681 41.3059 280.458 41.3059 290.863V297.516C41.3059 298.79 40.1026 299.852 38.7577 299.569C37.7668 299.356 37.059 298.436 37.059 297.375L37.2005 287.607C38.6162 275.998 48.4549 267.009 60.417 267.009Z" fill="#444B54"/>
<path d="M117.931 279.873C119.495 279.873 120.762 278.605 120.762 277.042C120.762 275.478 119.495 274.21 117.931 274.21C116.367 274.21 115.1 275.478 115.1 277.042C115.1 278.605 116.367 279.873 117.931 279.873Z" fill="#444B54"/>
<path d="M127.142 279.873C128.705 279.873 129.973 278.605 129.973 277.042C129.973 275.478 128.705 274.21 127.142 274.21C125.578 274.21 124.311 275.478 124.311 277.042C124.311 278.605 125.578 279.873 127.142 279.873Z" fill="#444B54"/>
<path d="M119.199 260.813C131.161 260.813 141 269.802 142.415 281.41C143.045 283.636 139.758 287.131 138.31 284.171C138.31 273.412 129.321 264.635 118.42 265.06C108.086 265.484 100.088 274.261 100.088 284.666V291.32C100.088 292.594 98.8843 293.656 97.5394 293.372C96.5485 293.16 95.8407 292.24 95.8407 291.178L95.9822 281.41C97.3979 269.802 107.237 260.813 119.199 260.813Z" fill="#444B54"/>
<path d="M187.933 286.069C189.497 286.069 190.764 284.802 190.764 283.238C190.764 281.674 189.497 280.407 187.933 280.407C186.369 280.407 185.102 281.674 185.102 283.238C185.102 284.802 186.369 286.069 187.933 286.069Z" fill="#444B54"/>
<path d="M197.144 286.069C198.708 286.069 199.975 284.802 199.975 283.238C199.975 281.674 198.708 280.407 197.144 280.407C195.58 280.407 194.313 281.674 194.313 283.238C194.313 284.802 195.58 286.069 197.144 286.069Z" fill="#444B54"/>
<path d="M189.201 267.009C201.163 267.009 211.002 275.998 212.417 287.607C213.048 289.832 209.76 293.327 208.312 290.367C208.312 279.608 199.323 270.831 188.422 271.256C178.088 271.681 170.09 280.458 170.09 290.863V297.516C170.09 298.79 168.886 299.852 167.542 299.569C166.551 299.356 165.843 298.436 165.843 297.375L165.984 287.607C167.4 275.998 177.239 267.009 189.201 267.009Z" fill="#444B54"/>
<path d="M256.763 279.873C258.327 279.873 259.594 278.605 259.594 277.042C259.594 275.478 258.327 274.21 256.763 274.21C255.199 274.21 253.932 275.478 253.932 277.042C253.932 278.605 255.199 279.873 256.763 279.873Z" fill="#444B54"/>
<path d="M265.974 279.873C267.537 279.873 268.805 278.605 268.805 277.042C268.805 275.478 267.537 274.21 265.974 274.21C264.41 274.21 263.143 275.478 263.143 277.042C263.143 278.605 264.41 279.873 265.974 279.873Z" fill="#444B54"/>
<path d="M258.031 260.813C269.993 260.813 279.832 269.802 281.247 281.41C281.877 283.636 278.59 287.131 277.142 284.171C277.142 273.412 268.153 264.635 257.252 265.06C246.918 265.484 238.92 274.261 238.92 284.666V291.32C238.92 292.594 237.716 293.656 236.371 293.372C235.38 293.16 234.673 292.24 234.673 291.178L234.814 281.41C236.23 269.802 246.069 260.813 258.031 260.813Z" fill="#444B54"/>
<path d="M254.267 126C173.714 150.367 -32.3109 106.523 6.91451 259.138C28.3148 342.401 56.9747 345.019 162.912 320.516C223.369 306.532 331.324 349.488 319.831 247.834C309.477 156.258 221.024 141.156 152.613 156.563" stroke="#C4C4C4" stroke-width="3" stroke-linecap="round"/>
<path d="M292.92 74.04V81H291V74.28C291 73.336 290.824 72.64 290.472 72.192C290.136 71.744 289.608 71.52 288.888 71.52C288.104 71.52 287.48 71.768 287.016 72.264C286.552 72.744 286.32 73.416 286.32 74.28V81H284.4V74.28C284.4 73.336 284.224 72.64 283.872 72.192C283.536 71.744 283.008 71.52 282.288 71.52C281.504 71.52 280.88 71.768 280.416 72.264C279.952 72.744 279.72 73.416 279.72 74.28V81H277.8V69.96H279.72V71.568C280.376 70.336 281.392 69.72 282.768 69.72C283.536 69.72 284.192 69.904 284.736 70.272C285.296 70.624 285.704 71.128 285.96 71.784C286.728 70.408 287.864 69.72 289.368 69.72C290.504 69.72 291.376 70.096 291.984 70.848C292.608 71.6 292.92 72.664 292.92 74.04ZM296.527 65.4C296.527 65.032 296.655 64.72 296.911 64.464C297.183 64.208 297.495 64.08 297.847 64.08C298.215 64.08 298.527 64.208 298.783 64.464C299.039 64.72 299.167 65.032 299.167 65.4C299.167 65.752 299.039 66.064 298.783 66.336C298.527 66.592 298.215 66.72 297.847 66.72C297.495 66.72 297.183 66.592 296.911 66.336C296.655 66.064 296.527 65.752 296.527 65.4ZM296.887 69.96H298.807V81H296.887V69.96ZM303.625 75.48C303.625 76.248 303.785 76.928 304.105 77.52C304.441 78.112 304.889 78.584 305.449 78.936C306.025 79.272 306.673 79.44 307.393 79.44C308.289 79.44 309.089 79.24 309.793 78.84C310.497 78.44 310.977 77.968 311.233 77.424V79.824C310.849 80.272 310.297 80.624 309.577 80.88C308.873 81.12 308.145 81.24 307.393 81.24C306.321 81.24 305.353 80.992 304.489 80.496C303.625 80 302.937 79.32 302.425 78.456C301.929 77.576 301.681 76.584 301.681 75.48C301.681 74.36 301.929 73.368 302.425 72.504C302.937 71.64 303.625 70.96 304.489 70.464C305.353 69.968 306.321 69.72 307.393 69.72C308.145 69.72 308.873 69.848 309.577 70.104C310.297 70.344 310.849 70.688 311.233 71.136V73.536C310.977 72.992 310.497 72.52 309.793 72.12C309.089 71.72 308.289 71.52 307.393 71.52C306.673 71.52 306.025 71.688 305.449 72.024C304.889 72.36 304.441 72.832 304.105 73.44C303.785 74.032 303.625 74.712 303.625 75.48ZM319.478 72.072C319.222 71.88 318.99 71.744 318.782 71.664C318.574 71.568 318.31 71.52 317.99 71.52C317.27 71.52 316.782 71.784 316.526 72.312C316.27 72.824 316.142 73.48 316.142 74.28V81H314.222V69.96H316.142V71.232C316.446 70.768 316.806 70.4 317.222 70.128C317.638 69.856 318.054 69.72 318.47 69.72C318.87 69.72 319.238 69.776 319.574 69.888C319.926 69.984 320.246 70.184 320.534 70.488L319.478 72.072ZM321.137 75.48C321.137 74.36 321.385 73.368 321.881 72.504C322.393 71.64 323.081 70.96 323.945 70.464C324.809 69.968 325.777 69.72 326.849 69.72C327.937 69.72 328.905 69.968 329.753 70.464C330.617 70.96 331.297 71.64 331.793 72.504C332.305 73.368 332.561 74.36 332.561 75.48C332.561 76.584 332.305 77.576 331.793 78.456C331.297 79.32 330.617 80 329.753 80.496C328.905 80.992 327.937 81.24 326.849 81.24C325.777 81.24 324.809 80.992 323.945 80.496C323.081 80 322.393 79.32 321.881 78.456C321.385 77.576 321.137 76.584 321.137 75.48ZM323.081 75.48C323.081 76.248 323.241 76.928 323.561 77.52C323.897 78.112 324.345 78.584 324.905 78.936C325.481 79.272 326.129 79.44 326.849 79.44C327.569 79.44 328.209 79.272 328.769 78.936C329.345 78.584 329.793 78.112 330.113 77.52C330.449 76.928 330.617 76.248 330.617 75.48C330.617 74.712 330.449 74.032 330.113 73.44C329.793 72.832 329.345 72.36 328.769 72.024C328.209 71.688 327.569 71.52 326.849 71.52C326.129 71.52 325.481 71.688 324.905 72.024C324.345 72.36 323.897 72.832 323.561 73.44C323.241 74.032 323.081 74.712 323.081 75.48ZM335.654 77.616C335.99 78.128 336.398 78.568 336.878 78.936C337.374 79.304 337.966 79.488 338.654 79.488C339.198 79.488 339.622 79.368 339.926 79.128C340.246 78.872 340.406 78.528 340.406 78.096C340.406 77.712 340.278 77.392 340.022 77.136C339.782 76.864 339.47 76.64 339.086 76.464C338.702 76.272 338.294 76.096 337.862 75.936C337.382 75.744 336.894 75.52 336.398 75.264C335.918 74.992 335.51 74.648 335.174 74.232C334.854 73.8 334.694 73.264 334.694 72.624C334.694 71.968 334.862 71.424 335.198 70.992C335.55 70.56 335.998 70.24 336.542 70.032C337.102 69.824 337.678 69.72 338.27 69.72C339.15 69.72 339.95 69.928 340.67 70.344C341.39 70.76 341.918 71.272 342.254 71.88L340.718 72.864C340.414 72.448 340.03 72.104 339.566 71.832C339.118 71.56 338.606 71.424 338.03 71.424C337.63 71.424 337.286 71.512 336.998 71.688C336.71 71.864 336.566 72.136 336.566 72.504C336.566 72.952 336.798 73.32 337.262 73.608C337.742 73.88 338.278 74.136 338.87 74.376C339.51 74.632 340.094 74.912 340.622 75.216C341.15 75.504 341.566 75.856 341.87 76.272C342.19 76.688 342.35 77.224 342.35 77.88C342.35 78.84 341.998 79.64 341.294 80.28C340.606 80.92 339.694 81.24 338.558 81.24C337.822 81.24 337.158 81.112 336.566 80.856C335.974 80.584 335.47 80.24 335.054 79.824C334.654 79.408 334.35 78.984 334.142 78.552L335.654 77.616ZM349.15 81.24C348.126 81.24 347.214 81 346.414 80.52C345.63 80.024 345.014 79.344 344.566 78.48C344.134 77.616 343.918 76.616 343.918 75.48C343.918 74.328 344.142 73.32 344.59 72.456C345.054 71.592 345.694 70.92 346.51 70.44C347.342 69.96 348.302 69.72 349.39 69.72C351.006 69.72 352.278 70.224 353.206 71.232C354.134 72.24 354.598 73.624 354.598 75.384C354.598 75.496 354.59 75.616 354.574 75.744C354.574 75.856 354.574 75.928 354.574 75.96H345.886C345.966 77.064 346.31 77.92 346.918 78.528C347.526 79.136 348.35 79.44 349.39 79.44C350.894 79.44 352.046 78.776 352.846 77.448L354.406 78.432C353.254 80.304 351.502 81.24 349.15 81.24ZM349.39 71.4C348.446 71.4 347.678 71.656 347.086 72.168C346.494 72.664 346.118 73.384 345.958 74.328H352.51C352.446 73.448 352.126 72.744 351.55 72.216C350.99 71.672 350.27 71.4 349.39 71.4ZM362.486 72.072C362.23 71.88 361.998 71.744 361.79 71.664C361.582 71.568 361.318 71.52 360.998 71.52C360.278 71.52 359.79 71.784 359.534 72.312C359.278 72.824 359.15 73.48 359.15 74.28V81H357.23V69.96H359.15V71.232C359.454 70.768 359.814 70.4 360.23 70.128C360.646 69.856 361.062 69.72 361.478 69.72C361.878 69.72 362.246 69.776 362.582 69.888C362.934 69.984 363.254 70.184 363.542 70.488L362.486 72.072ZM364.383 69.96H366.543L369.663 77.76L372.783 69.96H374.943L369.663 81.84L364.383 69.96ZM376.753 65.4C376.753 65.032 376.881 64.72 377.137 64.464C377.409 64.208 377.721 64.08 378.073 64.08C378.441 64.08 378.753 64.208 379.009 64.464C379.265 64.72 379.393 65.032 379.393 65.4C379.393 65.752 379.265 66.064 379.009 66.336C378.753 66.592 378.441 66.72 378.073 66.72C377.721 66.72 377.409 66.592 377.137 66.336C376.881 66.064 376.753 65.752 376.753 65.4ZM377.113 69.96H379.033V81H377.113V69.96ZM383.852 75.48C383.852 76.248 384.012 76.928 384.332 77.52C384.668 78.112 385.116 78.584 385.676 78.936C386.252 79.272 386.9 79.44 387.62 79.44C388.516 79.44 389.316 79.24 390.02 78.84C390.724 78.44 391.204 77.968 391.46 77.424V79.824C391.076 80.272 390.524 80.624 389.804 80.88C389.1 81.12 388.372 81.24 387.62 81.24C386.548 81.24 385.58 80.992 384.715 80.496C383.852 80 383.164 79.32 382.652 78.456C382.156 77.576 381.908 76.584 381.908 75.48C381.908 74.36 382.156 73.368 382.652 72.504C383.164 71.64 383.852 70.96 384.715 70.464C385.58 69.968 386.548 69.72 387.62 69.72C388.372 69.72 389.1 69.848 389.804 70.104C390.524 70.344 391.076 70.688 391.46 71.136V73.536C391.204 72.992 390.724 72.52 390.02 72.12C389.316 71.72 388.516 71.52 387.62 71.52C386.9 71.52 386.252 71.688 385.676 72.024C385.116 72.36 384.668 72.832 384.332 73.44C384.012 74.032 383.852 74.712 383.852 75.48ZM398.72 81.24C397.696 81.24 396.784 81 395.984 80.52C395.2 80.024 394.584 79.344 394.136 78.48C393.704 77.616 393.488 76.616 393.488 75.48C393.488 74.328 393.712 73.32 394.16 72.456C394.624 71.592 395.264 70.92 396.08 70.44C396.912 69.96 397.872 69.72 398.96 69.72C400.576 69.72 401.848 70.224 402.776 71.232C403.704 72.24 404.168 73.624 404.168 75.384C404.168 75.496 404.16 75.616 404.144 75.744C404.144 75.856 404.144 75.928 404.144 75.96H395.456C395.536 77.064 395.88 77.92 396.488 78.528C397.096 79.136 397.92 79.44 398.96 79.44C400.464 79.44 401.616 78.776 402.416 77.448L403.976 78.432C402.824 80.304 401.072 81.24 398.72 81.24ZM398.96 71.4C398.016 71.4 397.248 71.656 396.656 72.168C396.064 72.664 395.688 73.384 395.528 74.328H402.08C402.016 73.448 401.696 72.744 401.12 72.216C400.56 71.672 399.84 71.4 398.96 71.4Z" fill="black"/>
<path d="M481.056 69.072C480.8 68.88 480.568 68.744 480.36 68.664C480.152 68.568 479.888 68.52 479.568 68.52C478.848 68.52 478.36 68.784 478.104 69.312C477.848 69.824 477.72 70.48 477.72 71.28V78H475.8V66.96H477.72V68.232C478.024 67.768 478.384 67.4 478.8 67.128C479.216 66.856 479.632 66.72 480.048 66.72C480.448 66.72 480.816 66.776 481.152 66.888C481.504 66.984 481.824 67.184 482.112 67.488L481.056 69.072ZM484.027 62.4C484.027 62.032 484.155 61.72 484.411 61.464C484.683 61.208 484.995 61.08 485.347 61.08C485.715 61.08 486.027 61.208 486.283 61.464C486.539 61.72 486.667 62.032 486.667 62.4C486.667 62.752 486.539 63.064 486.283 63.336C486.027 63.592 485.715 63.72 485.347 63.72C484.995 63.72 484.683 63.592 484.411 63.336C484.155 63.064 484.027 62.752 484.027 62.4ZM484.387 66.96H486.307V78H484.387V66.96ZM490.261 59.28H492.181V78H490.261V59.28ZM495.792 59.28H497.712V78H495.792V59.28ZM506.579 69.072C506.323 68.88 506.091 68.744 505.883 68.664C505.675 68.568 505.411 68.52 505.091 68.52C504.371 68.52 503.883 68.784 503.627 69.312C503.371 69.824 503.243 70.48 503.243 71.28V78H501.323V66.96H503.243V68.232C503.547 67.768 503.907 67.4 504.323 67.128C504.739 66.856 505.155 66.72 505.571 66.72C505.971 66.72 506.339 66.776 506.675 66.888C507.027 66.984 507.347 67.184 507.635 67.488L506.579 69.072ZM510.126 69.504L509.19 68.088C509.606 67.784 510.174 67.48 510.894 67.176C511.63 66.872 512.51 66.72 513.534 66.72C514.814 66.72 515.854 67.016 516.654 67.608C517.454 68.184 517.854 69.008 517.854 70.08V78H515.934V76.512C515.582 77.088 515.054 77.52 514.35 77.808C513.646 78.096 512.958 78.24 512.286 78.24C511.614 78.24 510.982 78.104 510.39 77.832C509.814 77.544 509.35 77.136 508.998 76.608C508.646 76.08 508.47 75.44 508.47 74.688C508.47 73.616 508.846 72.76 509.598 72.12C510.366 71.464 511.43 71.136 512.79 71.136C513.526 71.136 514.15 71.224 514.662 71.4C515.19 71.56 515.614 71.744 515.934 71.952V70.344C515.934 69.592 515.686 69.08 515.19 68.808C514.71 68.536 514.126 68.4 513.438 68.4C512.606 68.4 511.91 68.536 511.35 68.808C510.79 69.08 510.382 69.312 510.126 69.504ZM510.414 74.592C510.414 75.232 510.63 75.728 511.062 76.08C511.51 76.416 512.086 76.584 512.79 76.584C513.67 76.584 514.414 76.32 515.022 75.792C515.63 75.264 515.934 74.56 515.934 73.68V73.272C515.486 73.048 515.03 72.888 514.566 72.792C514.102 72.696 513.614 72.648 513.102 72.648C512.174 72.648 511.494 72.824 511.062 73.176C510.63 73.512 510.414 73.984 510.414 74.592ZM519.425 66.96H521.225V63.12H523.145V66.96H524.945V68.76H523.145V78H521.225V68.76H519.425V66.96ZM531.142 78.24C530.118 78.24 529.206 78 528.406 77.52C527.622 77.024 527.006 76.344 526.558 75.48C526.126 74.616 525.91 73.616 525.91 72.48C525.91 71.328 526.134 70.32 526.582 69.456C527.046 68.592 527.686 67.92 528.502 67.44C529.334 66.96 530.294 66.72 531.382 66.72C532.998 66.72 534.27 67.224 535.198 68.232C536.126 69.24 536.59 70.624 536.59 72.384C536.59 72.496 536.582 72.616 536.566 72.744C536.566 72.856 536.566 72.928 536.566 72.96H527.878C527.958 74.064 528.302 74.92 528.91 75.528C529.518 76.136 530.342 76.44 531.382 76.44C532.886 76.44 534.038 75.776 534.838 74.448L536.398 75.432C535.246 77.304 533.494 78.24 531.142 78.24ZM531.382 68.4C530.438 68.4 529.67 68.656 529.078 69.168C528.486 69.664 528.11 70.384 527.95 71.328H534.502C534.438 70.448 534.118 69.744 533.542 69.216C532.982 68.672 532.262 68.4 531.382 68.4Z" fill="black"/>
<path d="M505.909 41.0329C500.459 41.0329 496 36.5737 496 31.1235C496 29.9202 496.92 29 498.123 29H513.695C514.899 29 515.819 29.9202 515.819 31.1235C515.819 36.5737 511.36 41.0329 505.909 41.0329Z" fill="#444B54"/>
<path d="M511.997 38.9095C510.793 36.786 508.458 35.3704 505.909 35.3704C503.361 35.3704 501.025 36.786 499.822 38.9095C501.521 40.2543 503.644 41.0329 505.909 41.0329C508.174 41.0329 510.369 40.2543 511.997 38.9095Z" fill="#EE5055"/>
<path d="M341.09 35.0601C342.654 35.0601 343.922 33.7925 343.922 32.2289C343.922 30.6652 342.654 29.3976 341.09 29.3976C339.527 29.3976 338.259 30.6652 338.259 32.2289C338.259 33.7925 339.527 35.0601 341.09 35.0601Z" fill="#444B54"/>
<path d="M350.301 35.0601C351.865 35.0601 353.132 33.7925 353.132 32.2289C353.132 30.6652 351.865 29.3976 350.301 29.3976C348.737 29.3976 347.47 30.6652 347.47 32.2289C347.47 33.7925 348.737 35.0601 350.301 35.0601Z" fill="#444B54"/>
<path d="M342.358 16C354.32 16 364.159 24.9893 365.575 36.5975C366.205 38.8229 362.917 42.3183 361.469 39.358C361.469 28.5992 352.48 19.8222 341.579 20.2469C331.245 20.6716 323.247 29.4486 323.247 39.8535V46.507C323.247 47.7811 322.044 48.8428 320.699 48.5597C319.708 48.3473 319 47.4272 319 46.3654L319.142 36.5975C320.557 24.9893 330.396 16 342.358 16Z" fill="#444B54"/>
<path d="M270 36L253.035 39.4927L264.542 52.4382L270 36ZM225.997 77.1211L260.907 46.09L258.913 43.8478L224.003 74.8789L225.997 77.1211Z" fill="black"/>
<path d="M606 83L600.991 66.4195L589.137 79.0474L606 83ZM555.973 38.0936L595.131 74.8537L597.184 72.6665L558.027 35.9064L555.973 38.0936Z" fill="black"/>
<path d="M422.064 30.088H429.84V21.976H435.456V30.088H443.28V35.464H435.456V43.672H429.84V35.464H422.064V30.088Z" fill="black"/>
<path d="M580.497 215.774C582.061 215.774 583.329 214.507 583.329 212.943C583.329 211.379 582.061 210.112 580.497 210.112C578.934 210.112 577.666 211.379 577.666 212.943C577.666 214.507 578.934 215.774 580.497 215.774Z" fill="#444B54"/>
<path d="M589.708 215.774C591.272 215.774 592.539 214.507 592.539 212.943C592.539 211.379 591.272 210.112 589.708 210.112C588.144 210.112 586.877 211.379 586.877 212.943C586.877 214.507 588.144 215.774 589.708 215.774Z" fill="#444B54"/>
<path d="M581.765 196.714C593.727 196.714 603.566 205.704 604.982 217.312C605.612 219.537 602.324 223.033 600.876 220.072C600.876 209.313 591.887 200.537 580.987 200.961C570.652 201.386 562.654 210.163 562.654 220.568V227.221C562.654 228.495 561.451 229.557 560.106 229.274C559.115 229.062 558.407 228.141 558.407 227.08L558.549 217.312C559.964 205.704 569.803 196.714 581.765 196.714Z" fill="#444B54"/>
<path d="M642.796 219.124C644.36 219.124 645.627 217.856 645.627 216.292C645.627 214.729 644.36 213.461 642.796 213.461C641.232 213.461 639.965 214.729 639.965 216.292C639.965 217.856 641.232 219.124 642.796 219.124Z" fill="#444B54"/>
<path d="M652.007 219.124C653.57 219.124 654.838 217.856 654.838 216.292C654.838 214.729 653.57 213.461 652.007 213.461C650.443 213.461 649.175 214.729 649.175 216.292C649.175 217.856 650.443 219.124 652.007 219.124Z" fill="#444B54"/>
<path d="M644.064 200.064C656.026 200.064 665.865 209.053 667.28 220.661C667.91 222.887 664.623 226.382 663.175 223.422C663.175 212.663 654.186 203.886 643.285 204.311C632.951 204.735 624.953 213.512 624.953 223.917V230.571C624.953 231.845 623.749 232.906 622.405 232.623C621.414 232.411 620.706 231.491 620.706 230.429L620.847 220.661C622.263 209.053 632.102 200.064 644.064 200.064Z" fill="#444B54"/>
<path d="M705.094 212.76C706.658 212.76 707.926 211.492 707.926 209.929C707.926 208.365 706.658 207.097 705.094 207.097C703.531 207.097 702.263 208.365 702.263 209.929C702.263 211.492 703.531 212.76 705.094 212.76Z" fill="#444B54"/>
<path d="M714.305 212.76C715.869 212.76 717.136 211.492 717.136 209.929C717.136 208.365 715.869 207.097 714.305 207.097C712.742 207.097 711.474 208.365 711.474 209.929C711.474 211.492 712.742 212.76 714.305 212.76Z" fill="#444B54"/>
<path d="M706.362 193.7C718.324 193.7 728.163 202.689 729.579 214.297C730.209 216.523 726.921 220.018 725.473 217.058C725.473 206.299 716.484 197.522 705.584 197.947C695.25 198.371 687.251 207.148 687.251 217.553V224.207C687.251 225.481 686.048 226.543 684.703 226.26C683.712 226.047 683.004 225.127 683.004 224.065L683.146 214.297C684.561 202.689 694.4 193.7 706.362 193.7Z" fill="#444B54"/>
<path d="M767.393 216.277C768.957 216.277 770.225 215.009 770.225 213.446C770.225 211.882 768.957 210.614 767.393 210.614C765.83 210.614 764.562 211.882 764.562 213.446C764.562 215.009 765.83 216.277 767.393 216.277Z" fill="#444B54"/>
<path d="M776.604 216.277C778.168 216.277 779.435 215.009 779.435 213.446C779.435 211.882 778.168 210.614 776.604 210.614C775.04 210.614 773.773 211.882 773.773 213.446C773.773 215.009 775.04 216.277 776.604 216.277Z" fill="#444B54"/>
<path d="M768.661 197.217C780.623 197.217 790.462 206.206 791.877 217.814C792.508 220.04 789.22 223.535 787.772 220.575C787.772 209.816 778.783 201.039 767.882 201.464C757.548 201.888 749.55 210.665 749.55 221.07V227.724C749.55 228.998 748.346 230.06 747.002 229.776C746.011 229.564 745.303 228.644 745.303 227.582L745.444 217.814C746.86 206.206 756.699 197.217 768.661 197.217Z" fill="#444B54"/>
<path d="M599.757 257.977C601.32 257.977 602.588 256.709 602.588 255.145C602.588 253.582 601.32 252.314 599.757 252.314C598.193 252.314 596.925 253.582 596.925 255.145C596.925 256.709 598.193 257.977 599.757 257.977Z" fill="#444B54"/>
<path d="M608.967 257.977C610.531 257.977 611.799 256.709 611.799 255.145C611.799 253.582 610.531 252.314 608.967 252.314C607.404 252.314 606.136 253.582 606.136 255.145C606.136 256.709 607.404 257.977 608.967 257.977Z" fill="#444B54"/>
<path d="M601.024 238.917C612.986 238.917 622.825 247.906 624.241 259.514C624.871 261.739 621.583 265.235 620.135 262.275C620.135 251.516 611.146 242.739 600.246 243.163C589.911 243.588 581.913 252.365 581.913 262.77V269.424C581.913 270.698 580.71 271.759 579.365 271.476C578.374 271.264 577.666 270.344 577.666 269.282L577.808 259.514C579.223 247.906 589.062 238.917 601.024 238.917Z" fill="#444B54"/>
<path d="M674.113 251.78C675.676 251.78 676.944 250.513 676.944 248.949C676.944 247.385 675.676 246.118 674.113 246.118C672.549 246.118 671.281 247.385 671.281 248.949C671.281 250.513 672.549 251.78 674.113 251.78Z" fill="#444B54"/>
<path d="M683.324 251.78C684.887 251.78 686.155 250.513 686.155 248.949C686.155 247.385 684.887 246.118 683.324 246.118C681.76 246.118 680.492 247.385 680.492 248.949C680.492 250.513 681.76 251.78 683.324 251.78Z" fill="#444B54"/>
<path d="M675.38 232.72C687.343 232.72 697.181 241.709 698.597 253.318C699.227 255.543 695.939 259.039 694.492 256.078C694.492 245.319 685.502 236.542 674.602 236.967C664.268 237.392 656.269 246.169 656.269 256.574V263.227C656.269 264.501 655.066 265.563 653.721 265.28C652.73 265.067 652.022 264.147 652.022 263.086L652.164 253.318C653.58 241.709 663.418 232.72 675.38 232.72Z" fill="#444B54"/>
<path d="M801.557 254.627C803.12 254.627 804.388 253.36 804.388 251.796C804.388 250.232 803.12 248.965 801.557 248.965C799.993 248.965 798.726 250.232 798.726 251.796C798.726 253.36 799.993 254.627 801.557 254.627Z" fill="#444B54"/>
<path d="M810.768 254.627C812.331 254.627 813.599 253.36 813.599 251.796C813.599 250.232 812.331 248.965 810.768 248.965C809.204 248.965 807.936 250.232 807.936 251.796C807.936 253.36 809.204 254.627 810.768 254.627Z" fill="#444B54"/>
<path d="M802.825 235.567C814.787 235.567 824.625 244.556 826.041 256.165C826.671 258.39 823.384 261.885 821.936 258.925C821.936 248.166 812.946 239.389 802.046 239.814C791.712 240.239 783.713 249.016 783.713 259.421V266.074C783.713 267.348 782.51 268.41 781.165 268.127C780.174 267.914 779.467 266.994 779.467 265.933L779.608 256.165C781.024 244.556 790.862 235.567 802.825 235.567Z" fill="#444B54"/>
<path d="M633.92 296.829C635.484 296.829 636.751 295.562 636.751 293.998C636.751 292.435 635.484 291.167 633.92 291.167C632.356 291.167 631.089 292.435 631.089 293.998C631.089 295.562 632.356 296.829 633.92 296.829Z" fill="#444B54"/>
<path d="M643.131 296.829C644.695 296.829 645.962 295.562 645.962 293.998C645.962 292.435 644.695 291.167 643.131 291.167C641.567 291.167 640.3 292.435 640.3 293.998C640.3 295.562 641.567 296.829 643.131 296.829Z" fill="#444B54"/>
<path d="M635.188 277.769C647.15 277.769 656.989 286.759 658.404 298.367C659.035 300.592 655.747 304.088 654.299 301.127C654.299 290.369 645.31 281.592 634.409 282.016C624.075 282.441 616.077 291.218 616.077 301.623V308.276C616.077 309.55 614.873 310.612 613.529 310.329C612.538 310.117 611.83 309.197 611.83 308.135L611.971 298.367C613.387 286.759 623.226 277.769 635.188 277.769Z" fill="#444B54"/>
<path d="M565.09 303.026C566.654 303.026 567.922 301.758 567.922 300.195C567.922 298.631 566.654 297.363 565.09 297.363C563.527 297.363 562.259 298.631 562.259 300.195C562.259 301.758 563.527 303.026 565.09 303.026Z" fill="#444B54"/>
<path d="M574.301 303.026C575.865 303.026 577.132 301.758 577.132 300.195C577.132 298.631 575.865 297.363 574.301 297.363C572.737 297.363 571.47 298.631 571.47 300.195C571.47 301.758 572.737 303.026 574.301 303.026Z" fill="#444B54"/>
<path d="M566.358 283.966C578.32 283.966 588.159 292.955 589.575 304.563C590.205 306.789 586.917 310.284 585.469 307.324C585.469 296.565 576.48 287.788 565.579 288.213C555.245 288.637 547.247 297.414 547.247 307.819V314.473C547.247 315.747 546.044 316.809 544.699 316.525C543.708 316.313 543 315.393 543 314.331L543.142 304.563C544.557 292.955 554.396 283.966 566.358 283.966Z" fill="#444B54"/>
<path d="M701.075 300.179C702.639 300.179 703.906 298.911 703.906 297.348C703.906 295.784 702.639 294.516 701.075 294.516C699.512 294.516 698.244 295.784 698.244 297.348C698.244 298.911 699.512 300.179 701.075 300.179Z" fill="#444B54"/>
<path d="M710.286 300.179C711.85 300.179 713.117 298.911 713.117 297.348C713.117 295.784 711.85 294.516 710.286 294.516C708.722 294.516 707.455 295.784 707.455 297.348C707.455 298.911 708.722 300.179 710.286 300.179Z" fill="#444B54"/>
<path d="M702.343 281.119C714.305 281.119 724.144 290.108 725.56 301.716C726.19 303.942 722.902 307.437 721.454 304.477C721.454 293.718 712.465 284.941 701.564 285.366C691.23 285.79 683.232 294.567 683.232 304.972V311.626C683.232 312.9 682.029 313.962 680.684 313.678C679.693 313.466 678.985 312.546 678.985 311.484L679.127 301.716C680.542 290.108 690.381 281.119 702.343 281.119Z" fill="#444B54"/>
<path d="M774.092 300.179C775.655 300.179 776.923 298.911 776.923 297.348C776.923 295.784 775.655 294.516 774.092 294.516C772.528 294.516 771.26 295.784 771.26 297.348C771.26 298.911 772.528 300.179 774.092 300.179Z" fill="#444B54"/>
<path d="M783.303 300.179C784.866 300.179 786.134 298.911 786.134 297.348C786.134 295.784 784.866 294.516 783.303 294.516C781.739 294.516 780.471 295.784 780.471 297.348C780.471 298.911 781.739 300.179 783.303 300.179Z" fill="#444B54"/>
<path d="M775.36 281.119C787.322 281.119 797.161 290.108 798.576 301.716C799.206 303.942 795.919 307.437 794.471 304.477C794.471 293.718 785.482 284.941 774.581 285.366C764.247 285.79 756.249 294.567 756.249 304.972V311.626C756.249 312.9 755.045 313.962 753.7 313.678C752.709 313.466 752.002 312.546 752.002 311.484L752.143 301.716C753.559 290.108 763.398 281.119 775.36 281.119Z" fill="#444B54"/>
<path d="M733.564 257.977C735.128 257.977 736.396 256.709 736.396 255.145C736.396 253.582 735.128 252.314 733.564 252.314C732.001 252.314 730.733 253.582 730.733 255.145C730.733 256.709 732.001 257.977 733.564 257.977Z" fill="#EE5055"/>
<path d="M742.775 257.977C744.339 257.977 745.606 256.709 745.606 255.145C745.606 253.582 744.339 252.314 742.775 252.314C741.211 252.314 739.944 253.582 739.944 255.145C739.944 256.709 741.211 257.977 742.775 257.977Z" fill="#EE5055"/>
<path d="M734.832 238.917C746.794 238.917 756.633 247.906 758.049 259.514C758.679 261.739 755.391 265.235 753.943 262.275C753.943 251.516 744.954 242.739 734.053 243.163C723.719 243.588 715.721 252.365 715.721 262.77V269.424C715.721 270.698 714.518 271.759 713.173 271.476C712.182 271.264 711.474 270.344 711.474 269.282L711.616 259.514C713.031 247.906 722.87 238.917 734.832 238.917Z" fill="#444B54"/>
<path d="M739.135 274.563C733.685 274.563 729.226 270.103 729.226 264.653C729.226 263.45 730.146 262.53 731.349 262.53H746.921C748.125 262.53 749.045 263.45 749.045 264.653C749.045 270.103 744.586 274.563 739.135 274.563Z" fill="#444B54"/>
<path d="M745.222 272.439C744.019 270.316 741.683 268.9 739.135 268.9C736.587 268.9 734.251 270.316 733.048 272.439C734.747 273.784 736.87 274.563 739.135 274.563C741.4 274.563 743.594 273.784 745.222 272.439Z" fill="#EE5055"/>
<path d="M738.873 235.567C725.519 172.371 805.341 173.677 790.002 160.477C776.785 149.103 669.875 150.316 592.68 157.405" stroke="#C4C4C4" stroke-width="3" stroke-linecap="round"/>
<path d="M542.12 357.96H543.92V354.12H545.84V357.96H547.64V359.76H545.84V369H543.92V359.76H542.12V357.96ZM556.646 362.28C556.646 360.44 555.862 359.52 554.294 359.52C553.462 359.52 552.782 359.784 552.254 360.312C551.742 360.824 551.486 361.48 551.486 362.28V369H549.566V350.28H551.486V359.712C551.822 359.104 552.27 358.624 552.83 358.272C553.406 357.904 554.054 357.72 554.774 357.72C555.91 357.72 556.822 358.088 557.51 358.824C558.214 359.544 558.566 360.616 558.566 362.04V369H556.646V362.28ZM566.447 369.24C565.423 369.24 564.511 369 563.711 368.52C562.927 368.024 562.311 367.344 561.863 366.48C561.431 365.616 561.215 364.616 561.215 363.48C561.215 362.328 561.439 361.32 561.887 360.456C562.351 359.592 562.991 358.92 563.807 358.44C564.639 357.96 565.599 357.72 566.687 357.72C568.303 357.72 569.575 358.224 570.503 359.232C571.431 360.24 571.895 361.624 571.895 363.384C571.895 363.496 571.887 363.616 571.871 363.744C571.871 363.856 571.871 363.928 571.871 363.96H563.183C563.263 365.064 563.607 365.92 564.215 366.528C564.823 367.136 565.647 367.44 566.687 367.44C568.191 367.44 569.343 366.776 570.143 365.448L571.703 366.432C570.551 368.304 568.799 369.24 566.447 369.24ZM566.687 359.4C565.743 359.4 564.975 359.656 564.383 360.168C563.791 360.664 563.415 361.384 563.255 362.328H569.807C569.743 361.448 569.423 360.744 568.847 360.216C568.287 359.672 567.567 359.4 566.687 359.4ZM585.994 369.24C584.97 369.24 584.058 369 583.258 368.52C582.474 368.024 581.858 367.344 581.41 366.48C580.978 365.616 580.762 364.616 580.762 363.48C580.762 362.328 580.986 361.32 581.434 360.456C581.898 359.592 582.538 358.92 583.354 358.44C584.186 357.96 585.146 357.72 586.234 357.72C587.85 357.72 589.122 358.224 590.05 359.232C590.978 360.24 591.442 361.624 591.442 363.384C591.442 363.496 591.434 363.616 591.418 363.744C591.418 363.856 591.418 363.928 591.418 363.96H582.73C582.81 365.064 583.154 365.92 583.762 366.528C584.37 367.136 585.194 367.44 586.234 367.44C587.738 367.44 588.89 366.776 589.69 365.448L591.25 366.432C590.098 368.304 588.346 369.24 585.994 369.24ZM586.234 359.4C585.29 359.4 584.522 359.656 583.93 360.168C583.338 360.664 582.962 361.384 582.802 362.328H589.354C589.29 361.448 588.97 360.744 588.394 360.216C587.834 359.672 587.114 359.4 586.234 359.4ZM602.482 357.96L595.282 374.28H593.122L596.146 367.44L591.922 357.96H594.202L597.298 365.568L600.322 357.96H602.482ZM608.213 369.24C607.189 369.24 606.277 369 605.477 368.52C604.693 368.024 604.077 367.344 603.629 366.48C603.197 365.616 602.981 364.616 602.981 363.48C602.981 362.328 603.205 361.32 603.653 360.456C604.117 359.592 604.757 358.92 605.573 358.44C606.405 357.96 607.365 357.72 608.453 357.72C610.069 357.72 611.341 358.224 612.269 359.232C613.197 360.24 613.661 361.624 613.661 363.384C613.661 363.496 613.653 363.616 613.637 363.744C613.637 363.856 613.637 363.928 613.637 363.96H604.949C605.029 365.064 605.373 365.92 605.981 366.528C606.589 367.136 607.413 367.44 608.453 367.44C609.957 367.44 611.109 366.776 611.909 365.448L613.469 366.432C612.317 368.304 610.565 369.24 608.213 369.24ZM608.453 359.4C607.509 359.4 606.741 359.656 606.149 360.168C605.557 360.664 605.181 361.384 605.021 362.328H611.573C611.509 361.448 611.189 360.744 610.613 360.216C610.053 359.672 609.333 359.4 608.453 359.4ZM614.612 364.2V362.4H619.412V364.2H614.612ZM622.195 363.48C622.195 364.248 622.355 364.928 622.675 365.52C623.011 366.112 623.459 366.584 624.019 366.936C624.595 367.272 625.243 367.44 625.963 367.44C626.859 367.44 627.659 367.24 628.363 366.84C629.067 366.44 629.547 365.968 629.803 365.424V367.824C629.419 368.272 628.867 368.624 628.147 368.88C627.443 369.12 626.715 369.24 625.963 369.24C624.891 369.24 623.923 368.992 623.059 368.496C622.195 368 621.507 367.32 620.995 366.456C620.499 365.576 620.251 364.584 620.251 363.48C620.251 362.36 620.499 361.368 620.995 360.504C621.507 359.64 622.195 358.96 623.059 358.464C623.923 357.968 624.891 357.72 625.963 357.72C626.715 357.72 627.443 357.848 628.147 358.104C628.867 358.344 629.419 358.688 629.803 359.136V361.536C629.547 360.992 629.067 360.52 628.363 360.12C627.659 359.72 626.859 359.52 625.963 359.52C625.243 359.52 624.595 359.688 624.019 360.024C623.459 360.36 623.011 360.832 622.675 361.44C622.355 362.032 622.195 362.712 622.195 363.48ZM633.368 360.504L632.432 359.088C632.848 358.784 633.416 358.48 634.136 358.176C634.872 357.872 635.752 357.72 636.776 357.72C638.056 357.72 639.096 358.016 639.896 358.608C640.696 359.184 641.096 360.008 641.096 361.08V369H639.176V367.512C638.824 368.088 638.296 368.52 637.592 368.808C636.888 369.096 636.2 369.24 635.528 369.24C634.856 369.24 634.224 369.104 633.632 368.832C633.056 368.544 632.592 368.136 632.24 367.608C631.888 367.08 631.712 366.44 631.712 365.688C631.712 364.616 632.088 363.76 632.84 363.12C633.608 362.464 634.672 362.136 636.032 362.136C636.768 362.136 637.392 362.224 637.904 362.4C638.432 362.56 638.856 362.744 639.176 362.952V361.344C639.176 360.592 638.928 360.08 638.432 359.808C637.952 359.536 637.368 359.4 636.68 359.4C635.848 359.4 635.152 359.536 634.592 359.808C634.032 360.08 633.624 360.312 633.368 360.504ZM633.656 365.592C633.656 366.232 633.872 366.728 634.304 367.08C634.752 367.416 635.328 367.584 636.032 367.584C636.912 367.584 637.656 367.32 638.264 366.792C638.872 366.264 639.176 365.56 639.176 364.68V364.272C638.728 364.048 638.272 363.888 637.808 363.792C637.344 363.696 636.856 363.648 636.344 363.648C635.416 363.648 634.736 363.824 634.304 364.176C633.872 364.512 633.656 364.984 633.656 365.592ZM642.667 357.96H644.467V354.12H646.387V357.96H648.187V359.76H646.387V369H644.467V359.76H642.667V357.96ZM650.977 363.48C650.977 364.248 651.137 364.928 651.457 365.52C651.793 366.112 652.241 366.584 652.801 366.936C653.377 367.272 654.025 367.44 654.745 367.44C655.641 367.44 656.441 367.24 657.145 366.84C657.849 366.44 658.329 365.968 658.585 365.424V367.824C658.201 368.272 657.649 368.624 656.929 368.88C656.225 369.12 655.497 369.24 654.745 369.24C653.673 369.24 652.705 368.992 651.84 368.496C650.977 368 650.289 367.32 649.777 366.456C649.281 365.576 649.033 364.584 649.033 363.48C649.033 362.36 649.281 361.368 649.777 360.504C650.289 359.64 650.977 358.96 651.84 358.464C652.705 357.968 653.673 357.72 654.745 357.72C655.497 357.72 656.225 357.848 656.929 358.104C657.649 358.344 658.201 358.688 658.585 359.136V361.536C658.329 360.992 657.849 360.52 657.145 360.12C656.441 359.72 655.641 359.52 654.745 359.52C654.025 359.52 653.377 359.688 652.801 360.024C652.241 360.36 651.793 360.832 651.457 361.44C651.137 362.032 650.977 362.712 650.977 363.48ZM668.653 362.28C668.653 360.44 667.869 359.52 666.301 359.52C665.469 359.52 664.789 359.784 664.261 360.312C663.749 360.824 663.493 361.48 663.493 362.28V369H661.573V350.28H663.493V359.712C663.829 359.104 664.277 358.624 664.837 358.272C665.413 357.904 666.061 357.72 666.781 357.72C667.917 357.72 668.829 358.088 669.517 358.824C670.221 359.544 670.573 360.616 670.573 362.04V369H668.653V362.28ZM674.183 353.4C674.183 353.032 674.311 352.72 674.567 352.464C674.839 352.208 675.151 352.08 675.503 352.08C675.871 352.08 676.183 352.208 676.439 352.464C676.695 352.72 676.823 353.032 676.823 353.4C676.823 353.752 676.695 354.064 676.439 354.336C676.183 354.592 675.871 354.72 675.503 354.72C675.151 354.72 674.839 354.592 674.567 354.336C674.311 354.064 674.183 353.752 674.183 353.4ZM674.543 357.96H676.463V369H674.543V357.96ZM687.497 362.28C687.497 360.44 686.713 359.52 685.145 359.52C684.313 359.52 683.633 359.776 683.105 360.288C682.593 360.8 682.337 361.464 682.337 362.28V369H680.417V357.96H682.337V359.688C683.057 358.376 684.153 357.72 685.625 357.72C686.793 357.72 687.713 358.112 688.385 358.896C689.073 359.664 689.417 360.712 689.417 362.04V369H687.497V362.28ZM692.283 369.72H694.227C694.227 370.248 694.371 370.736 694.659 371.184C694.947 371.648 695.355 372.016 695.883 372.288C696.411 372.576 697.035 372.72 697.755 372.72C698.315 372.72 698.867 372.584 699.411 372.312C699.955 372.04 700.403 371.608 700.755 371.016C701.123 370.44 701.307 369.688 701.307 368.76V367.104C700.907 367.792 700.379 368.32 699.723 368.688C699.083 369.056 698.355 369.24 697.539 369.24C696.547 369.24 695.635 369.008 694.803 368.544C693.971 368.08 693.307 367.416 692.811 366.552C692.315 365.688 692.067 364.664 692.067 363.48C692.067 362.28 692.315 361.256 692.811 360.408C693.307 359.544 693.971 358.88 694.803 358.416C695.635 357.952 696.547 357.72 697.539 357.72C698.355 357.72 699.083 357.904 699.723 358.272C700.379 358.64 700.907 359.168 701.307 359.856V357.96H703.227V368.76C703.227 370.024 702.963 371.08 702.435 371.928C701.907 372.792 701.227 373.44 700.395 373.872C699.563 374.304 698.683 374.52 697.755 374.52C696.683 374.52 695.731 374.32 694.899 373.92C694.083 373.52 693.443 372.952 692.979 372.216C692.515 371.496 692.283 370.664 692.283 369.72ZM694.011 363.48C694.011 364.328 694.179 365.048 694.515 365.64C694.867 366.232 695.331 366.68 695.907 366.984C696.483 367.288 697.107 367.44 697.779 367.44C698.339 367.44 698.891 367.288 699.435 366.984C699.979 366.68 700.427 366.232 700.779 365.64C701.131 365.048 701.307 364.328 701.307 363.48C701.307 362.632 701.131 361.912 700.779 361.32C700.427 360.728 699.979 360.28 699.435 359.976C698.891 359.672 698.339 359.52 697.779 359.52C697.107 359.52 696.483 359.672 695.907 359.976C695.331 360.28 694.867 360.728 694.515 361.32C694.179 361.912 694.011 362.632 694.011 363.48ZM729.029 362.04V369H727.109V362.28C727.109 361.336 726.933 360.64 726.581 360.192C726.245 359.744 725.717 359.52 724.997 359.52C724.213 359.52 723.589 359.768 723.125 360.264C722.661 360.744 722.429 361.416 722.429 362.28V369H720.509V362.28C720.509 361.336 720.333 360.64 719.981 360.192C719.645 359.744 719.117 359.52 718.397 359.52C717.613 359.52 716.989 359.768 716.525 360.264C716.061 360.744 715.829 361.416 715.829 362.28V369H713.909V357.96H715.829V359.568C716.485 358.336 717.501 357.72 718.877 357.72C719.645 357.72 720.301 357.904 720.845 358.272C721.405 358.624 721.813 359.128 722.069 359.784C722.837 358.408 723.973 357.72 725.477 357.72C726.613 357.72 727.485 358.096 728.093 358.848C728.717 359.6 729.029 360.664 729.029 362.04ZM732.636 353.4C732.636 353.032 732.764 352.72 733.02 352.464C733.292 352.208 733.604 352.08 733.956 352.08C734.324 352.08 734.636 352.208 734.892 352.464C735.148 352.72 735.276 353.032 735.276 353.4C735.276 353.752 735.148 354.064 734.892 354.336C734.636 354.592 734.324 354.72 733.956 354.72C733.604 354.72 733.292 354.592 733.02 354.336C732.764 354.064 732.636 353.752 732.636 353.4ZM732.996 357.96H734.916V369H732.996V357.96ZM739.734 363.48C739.734 364.248 739.894 364.928 740.214 365.52C740.55 366.112 740.998 366.584 741.558 366.936C742.134 367.272 742.782 367.44 743.502 367.44C744.398 367.44 745.198 367.24 745.902 366.84C746.606 366.44 747.086 365.968 747.342 365.424V367.824C746.958 368.272 746.406 368.624 745.686 368.88C744.982 369.12 744.254 369.24 743.502 369.24C742.43 369.24 741.462 368.992 740.598 368.496C739.734 368 739.046 367.32 738.534 366.456C738.038 365.576 737.79 364.584 737.79 363.48C737.79 362.36 738.038 361.368 738.534 360.504C739.046 359.64 739.734 358.96 740.598 358.464C741.462 357.968 742.43 357.72 743.502 357.72C744.254 357.72 744.982 357.848 745.686 358.104C746.406 358.344 746.958 358.688 747.342 359.136V361.536C747.086 360.992 746.606 360.52 745.902 360.12C745.198 359.72 744.398 359.52 743.502 359.52C742.782 359.52 742.134 359.688 741.558 360.024C740.998 360.36 740.55 360.832 740.214 361.44C739.894 362.032 739.734 362.712 739.734 363.48ZM755.587 360.072C755.331 359.88 755.099 359.744 754.891 359.664C754.683 359.568 754.419 359.52 754.099 359.52C753.379 359.52 752.891 359.784 752.635 360.312C752.379 360.824 752.251 361.48 752.251 362.28V369H750.331V357.96H752.251V359.232C752.555 358.768 752.915 358.4 753.331 358.128C753.747 357.856 754.163 357.72 754.579 357.72C754.979 357.72 755.347 357.776 755.683 357.888C756.035 357.984 756.355 358.184 756.643 358.488L755.587 360.072ZM757.246 363.48C757.246 362.36 757.494 361.368 757.99 360.504C758.502 359.64 759.19 358.96 760.054 358.464C760.918 357.968 761.886 357.72 762.958 357.72C764.046 357.72 765.014 357.968 765.862 358.464C766.726 358.96 767.406 359.64 767.902 360.504C768.414 361.368 768.67 362.36 768.67 363.48C768.67 364.584 768.414 365.576 767.902 366.456C767.406 367.32 766.726 368 765.862 368.496C765.014 368.992 764.046 369.24 762.958 369.24C761.886 369.24 760.918 368.992 760.054 368.496C759.19 368 758.502 367.32 757.99 366.456C757.494 365.576 757.246 364.584 757.246 363.48ZM759.19 363.48C759.19 364.248 759.35 364.928 759.67 365.52C760.006 366.112 760.454 366.584 761.014 366.936C761.59 367.272 762.238 367.44 762.958 367.44C763.678 367.44 764.318 367.272 764.878 366.936C765.454 366.584 765.902 366.112 766.222 365.52C766.558 364.928 766.726 364.248 766.726 363.48C766.726 362.712 766.558 362.032 766.222 361.44C765.902 360.832 765.454 360.36 764.878 360.024C764.318 359.688 763.678 359.52 762.958 359.52C762.238 359.52 761.59 359.688 761.014 360.024C760.454 360.36 760.006 360.832 759.67 361.44C759.35 362.032 759.19 362.712 759.19 363.48ZM771.764 365.616C772.1 366.128 772.508 366.568 772.988 366.936C773.484 367.304 774.076 367.488 774.764 367.488C775.308 367.488 775.732 367.368 776.036 367.128C776.356 366.872 776.516 366.528 776.516 366.096C776.516 365.712 776.388 365.392 776.132 365.136C775.892 364.864 775.58 364.64 775.196 364.464C774.812 364.272 774.404 364.096 773.972 363.936C773.492 363.744 773.004 363.52 772.508 363.264C772.028 362.992 771.62 362.648 771.284 362.232C770.964 361.8 770.804 361.264 770.804 360.624C770.804 359.968 770.972 359.424 771.308 358.992C771.66 358.56 772.108 358.24 772.652 358.032C773.212 357.824 773.788 357.72 774.38 357.72C775.26 357.72 776.06 357.928 776.78 358.344C777.5 358.76 778.028 359.272 778.364 359.88L776.828 360.864C776.524 360.448 776.14 360.104 775.676 359.832C775.228 359.56 774.716 359.424 774.14 359.424C773.74 359.424 773.396 359.512 773.108 359.688C772.82 359.864 772.676 360.136 772.676 360.504C772.676 360.952 772.908 361.32 773.372 361.608C773.852 361.88 774.388 362.136 774.98 362.376C775.62 362.632 776.204 362.912 776.732 363.216C777.26 363.504 777.676 363.856 777.98 364.272C778.3 364.688 778.46 365.224 778.46 365.88C778.46 366.84 778.108 367.64 777.404 368.28C776.716 368.92 775.804 369.24 774.668 369.24C773.932 369.24 773.268 369.112 772.676 368.856C772.084 368.584 771.58 368.24 771.164 367.824C770.764 367.408 770.46 366.984 770.252 366.552L771.764 365.616ZM785.26 369.24C784.236 369.24 783.324 369 782.524 368.52C781.74 368.024 781.124 367.344 780.676 366.48C780.244 365.616 780.028 364.616 780.028 363.48C780.028 362.328 780.252 361.32 780.7 360.456C781.164 359.592 781.804 358.92 782.62 358.44C783.452 357.96 784.412 357.72 785.5 357.72C787.116 357.72 788.388 358.224 789.316 359.232C790.244 360.24 790.708 361.624 790.708 363.384C790.708 363.496 790.7 363.616 790.684 363.744C790.684 363.856 790.684 363.928 790.684 363.96H781.996C782.076 365.064 782.42 365.92 783.028 366.528C783.636 367.136 784.46 367.44 785.5 367.44C787.004 367.44 788.156 366.776 788.956 365.448L790.516 366.432C789.364 368.304 787.612 369.24 785.26 369.24ZM785.5 359.4C784.556 359.4 783.788 359.656 783.196 360.168C782.604 360.664 782.228 361.384 782.068 362.328H788.62C788.556 361.448 788.236 360.744 787.66 360.216C787.1 359.672 786.38 359.4 785.5 359.4ZM798.595 360.072C798.339 359.88 798.107 359.744 797.899 359.664C797.691 359.568 797.427 359.52 797.107 359.52C796.387 359.52 795.899 359.784 795.643 360.312C795.387 360.824 795.259 361.48 795.259 362.28V369H793.339V357.96H795.259V359.232C795.563 358.768 795.923 358.4 796.339 358.128C796.755 357.856 797.171 357.72 797.587 357.72C797.987 357.72 798.355 357.776 798.691 357.888C799.043 357.984 799.363 358.184 799.651 358.488L798.595 360.072ZM800.492 357.96H802.652L805.772 365.76L808.892 357.96H811.052L805.772 369.84L800.492 357.96ZM812.863 353.4C812.863 353.032 812.991 352.72 813.247 352.464C813.519 352.208 813.831 352.08 814.183 352.08C814.551 352.08 814.863 352.208 815.119 352.464C815.375 352.72 815.503 353.032 815.503 353.4C815.503 353.752 815.375 354.064 815.119 354.336C814.863 354.592 814.551 354.72 814.183 354.72C813.831 354.72 813.519 354.592 813.247 354.336C812.991 354.064 812.863 353.752 812.863 353.4ZM813.223 357.96H815.143V369H813.223V357.96ZM819.961 363.48C819.961 364.248 820.121 364.928 820.441 365.52C820.777 366.112 821.225 366.584 821.785 366.936C822.361 367.272 823.009 367.44 823.729 367.44C824.625 367.44 825.425 367.24 826.129 366.84C826.833 366.44 827.313 365.968 827.569 365.424V367.824C827.185 368.272 826.633 368.624 825.913 368.88C825.209 369.12 824.481 369.24 823.729 369.24C822.657 369.24 821.689 368.992 820.825 368.496C819.961 368 819.273 367.32 818.761 366.456C818.265 365.576 818.017 364.584 818.017 363.48C818.017 362.36 818.265 361.368 818.761 360.504C819.273 359.64 819.961 358.96 820.825 358.464C821.689 357.968 822.657 357.72 823.729 357.72C824.481 357.72 825.209 357.848 825.913 358.104C826.633 358.344 827.185 358.688 827.569 359.136V361.536C827.313 360.992 826.833 360.52 826.129 360.12C825.425 359.72 824.625 359.52 823.729 359.52C823.009 359.52 822.361 359.688 821.785 360.024C821.225 360.36 820.777 360.832 820.441 361.44C820.121 362.032 819.961 362.712 819.961 363.48ZM834.83 369.24C833.806 369.24 832.894 369 832.094 368.52C831.31 368.024 830.694 367.344 830.246 366.48C829.814 365.616 829.598 364.616 829.598 363.48C829.598 362.328 829.822 361.32 830.27 360.456C830.734 359.592 831.374 358.92 832.19 358.44C833.022 357.96 833.982 357.72 835.07 357.72C836.686 357.72 837.958 358.224 838.886 359.232C839.814 360.24 840.278 361.624 840.278 363.384C840.278 363.496 840.27 363.616 840.254 363.744C840.254 363.856 840.254 363.928 840.254 363.96H831.566C831.646 365.064 831.99 365.92 832.598 366.528C833.206 367.136 834.03 367.44 835.07 367.44C836.574 367.44 837.726 366.776 838.526 365.448L840.086 366.432C838.934 368.304 837.182 369.24 834.83 369.24ZM835.07 359.4C834.126 359.4 833.358 359.656 832.766 360.168C832.174 360.664 831.798 361.384 831.638 362.328H838.19C838.126 361.448 837.806 360.744 837.23 360.216C836.67 359.672 835.95 359.4 835.07 359.4Z" fill="black"/>
<path d="M721.748 82.2H723.788V99H721.748V82.2ZM728.351 82.2H730.631L728.231 87.72H726.911L728.351 82.2ZM748.045 92.04V99H746.125V92.28C746.125 91.336 745.949 90.64 745.597 90.192C745.261 89.744 744.733 89.52 744.013 89.52C743.229 89.52 742.605 89.768 742.141 90.264C741.677 90.744 741.445 91.416 741.445 92.28V99H739.525V92.28C739.525 91.336 739.349 90.64 738.997 90.192C738.661 89.744 738.133 89.52 737.413 89.52C736.629 89.52 736.005 89.768 735.541 90.264C735.077 90.744 734.845 91.416 734.845 92.28V99H732.925V87.96H734.845V89.568C735.501 88.336 736.517 87.72 737.893 87.72C738.661 87.72 739.317 87.904 739.861 88.272C740.421 88.624 740.829 89.128 741.085 89.784C741.853 88.408 742.989 87.72 744.493 87.72C745.629 87.72 746.501 88.096 747.109 88.848C747.733 89.6 748.045 90.664 748.045 92.04ZM765.927 92.28C765.927 90.44 765.143 89.52 763.575 89.52C762.743 89.52 762.063 89.784 761.535 90.312C761.023 90.824 760.767 91.48 760.767 92.28V99H758.847V80.28H760.767V89.712C761.103 89.104 761.551 88.624 762.111 88.272C762.687 87.904 763.335 87.72 764.055 87.72C765.191 87.72 766.103 88.088 766.791 88.824C767.495 89.544 767.847 90.616 767.847 92.04V99H765.927V92.28ZM772.032 90.504L771.096 89.088C771.512 88.784 772.08 88.48 772.8 88.176C773.536 87.872 774.416 87.72 775.44 87.72C776.72 87.72 777.76 88.016 778.56 88.608C779.36 89.184 779.76 90.008 779.76 91.08V99H777.84V97.512C777.488 98.088 776.96 98.52 776.256 98.808C775.552 99.096 774.864 99.24 774.192 99.24C773.52 99.24 772.888 99.104 772.296 98.832C771.72 98.544 771.256 98.136 770.904 97.608C770.552 97.08 770.376 96.44 770.376 95.688C770.376 94.616 770.752 93.76 771.504 93.12C772.272 92.464 773.336 92.136 774.696 92.136C775.432 92.136 776.056 92.224 776.568 92.4C777.096 92.56 777.52 92.744 777.84 92.952V91.344C777.84 90.592 777.592 90.08 777.096 89.808C776.616 89.536 776.032 89.4 775.344 89.4C774.512 89.4 773.816 89.536 773.256 89.808C772.696 90.08 772.288 90.312 772.032 90.504ZM772.32 95.592C772.32 96.232 772.536 96.728 772.968 97.08C773.416 97.416 773.992 97.584 774.696 97.584C775.576 97.584 776.32 97.32 776.928 96.792C777.536 96.264 777.84 95.56 777.84 94.68V94.272C777.392 94.048 776.936 93.888 776.472 93.792C776.008 93.696 775.52 93.648 775.008 93.648C774.08 93.648 773.4 93.824 772.968 94.176C772.536 94.512 772.32 94.984 772.32 95.592ZM784.811 104.28H782.891V87.96H784.811V89.856C785.211 89.168 785.731 88.64 786.371 88.272C787.027 87.904 787.763 87.72 788.579 87.72C789.587 87.72 790.499 87.952 791.315 88.416C792.147 88.88 792.811 89.544 793.307 90.408C793.803 91.256 794.051 92.28 794.051 93.48C794.051 94.664 793.803 95.688 793.307 96.552C792.811 97.416 792.147 98.08 791.315 98.544C790.499 99.008 789.587 99.24 788.579 99.24C787.763 99.24 787.027 99.056 786.371 98.688C785.731 98.32 785.211 97.792 784.811 97.104V104.28ZM792.107 93.48C792.107 92.632 791.931 91.912 791.579 91.32C791.243 90.728 790.787 90.28 790.211 89.976C789.651 89.672 789.027 89.52 788.339 89.52C787.779 89.52 787.227 89.672 786.683 89.976C786.139 90.28 785.691 90.728 785.339 91.32C784.987 91.912 784.811 92.632 784.811 93.48C784.811 94.328 784.987 95.048 785.339 95.64C785.691 96.232 786.139 96.68 786.683 96.984C787.227 97.288 787.779 97.44 788.339 97.44C789.027 97.44 789.651 97.288 790.211 96.984C790.787 96.68 791.243 96.232 791.579 95.64C791.931 95.048 792.107 94.328 792.107 93.48ZM798.498 104.28H796.578V87.96H798.498V89.856C798.898 89.168 799.418 88.64 800.058 88.272C800.714 87.904 801.45 87.72 802.266 87.72C803.274 87.72 804.186 87.952 805.002 88.416C805.834 88.88 806.498 89.544 806.994 90.408C807.49 91.256 807.738 92.28 807.738 93.48C807.738 94.664 807.49 95.688 806.994 96.552C806.498 97.416 805.834 98.08 805.002 98.544C804.186 99.008 803.274 99.24 802.266 99.24C801.45 99.24 800.714 99.056 800.058 98.688C799.418 98.32 798.898 97.792 798.498 97.104V104.28ZM805.794 93.48C805.794 92.632 805.618 91.912 805.266 91.32C804.93 90.728 804.474 90.28 803.898 89.976C803.338 89.672 802.714 89.52 802.026 89.52C801.466 89.52 800.914 89.672 800.37 89.976C799.826 90.28 799.378 90.728 799.026 91.32C798.674 91.912 798.498 92.632 798.498 93.48C798.498 94.328 798.674 95.048 799.026 95.64C799.378 96.232 799.826 96.68 800.37 96.984C800.914 97.288 801.466 97.44 802.026 97.44C802.714 97.44 803.338 97.288 803.898 96.984C804.474 96.68 804.93 96.232 805.266 95.64C805.618 95.048 805.794 94.328 805.794 93.48ZM818.794 87.96L811.594 104.28H809.434L812.458 97.44L808.234 87.96H810.514L813.61 95.568L816.634 87.96H818.794ZM821.205 82.2H823.605L823.125 94.2H821.685L821.205 82.2ZM821.085 98.04C821.085 97.672 821.213 97.36 821.469 97.104C821.741 96.848 822.053 96.72 822.405 96.72C822.773 96.72 823.085 96.848 823.341 97.104C823.597 97.36 823.725 97.672 823.725 98.04C823.725 98.392 823.597 98.704 823.341 98.976C823.085 99.232 822.773 99.36 822.405 99.36C822.053 99.36 821.741 99.232 821.469 98.976C821.213 98.704 821.085 98.392 821.085 98.04ZM567.389 117.2H569.429V134H567.389V117.2ZM587.427 127.28C587.427 125.44 586.643 124.52 585.075 124.52C584.243 124.52 583.563 124.784 583.035 125.312C582.523 125.824 582.267 126.48 582.267 127.28V134H580.347V115.28H582.267V124.712C582.603 124.104 583.051 123.624 583.611 123.272C584.187 122.904 584.835 122.72 585.555 122.72C586.691 122.72 587.603 123.088 588.291 123.824C588.995 124.544 589.347 125.616 589.347 127.04V134H587.427V127.28ZM593.532 125.504L592.596 124.088C593.012 123.784 593.58 123.48 594.3 123.176C595.036 122.872 595.916 122.72 596.94 122.72C598.22 122.72 599.26 123.016 600.06 123.608C600.86 124.184 601.26 125.008 601.26 126.08V134H599.34V132.512C598.988 133.088 598.46 133.52 597.756 133.808C597.052 134.096 596.364 134.24 595.692 134.24C595.02 134.24 594.388 134.104 593.796 133.832C593.22 133.544 592.756 133.136 592.404 132.608C592.052 132.08 591.876 131.44 591.876 130.688C591.876 129.616 592.252 128.76 593.004 128.12C593.772 127.464 594.836 127.136 596.196 127.136C596.932 127.136 597.556 127.224 598.068 127.4C598.596 127.56 599.02 127.744 599.34 127.952V126.344C599.34 125.592 599.092 125.08 598.596 124.808C598.116 124.536 597.532 124.4 596.844 124.4C596.012 124.4 595.316 124.536 594.756 124.808C594.196 125.08 593.788 125.312 593.532 125.504ZM593.82 130.592C593.82 131.232 594.036 131.728 594.468 132.08C594.916 132.416 595.492 132.584 596.196 132.584C597.076 132.584 597.82 132.32 598.428 131.792C599.036 131.264 599.34 130.56 599.34 129.68V129.272C598.892 129.048 598.436 128.888 597.972 128.792C597.508 128.696 597.02 128.648 596.508 128.648C595.58 128.648 594.9 128.824 594.468 129.176C594.036 129.512 593.82 129.984 593.82 130.592ZM602.594 122.96H604.754L607.874 130.76L610.994 122.96H613.154L607.874 134.84L602.594 122.96ZM618.885 134.24C617.861 134.24 616.949 134 616.149 133.52C615.365 133.024 614.749 132.344 614.301 131.48C613.869 130.616 613.653 129.616 613.653 128.48C613.653 127.328 613.877 126.32 614.325 125.456C614.789 124.592 615.429 123.92 616.245 123.44C617.077 122.96 618.037 122.72 619.125 122.72C620.741 122.72 622.013 123.224 622.941 124.232C623.869 125.24 624.333 126.624 624.333 128.384C624.333 128.496 624.325 128.616 624.309 128.744C624.309 128.856 624.309 128.928 624.309 128.96H615.621C615.701 130.064 616.045 130.92 616.653 131.528C617.261 132.136 618.085 132.44 619.125 132.44C620.629 132.44 621.781 131.776 622.581 130.448L624.141 131.432C622.989 133.304 621.237 134.24 618.885 134.24ZM619.125 124.4C618.181 124.4 617.413 124.656 616.821 125.168C616.229 125.664 615.853 126.384 615.693 127.328H622.245C622.181 126.448 621.861 125.744 621.285 125.216C620.725 124.672 620.005 124.4 619.125 124.4ZM634.735 125.504L633.799 124.088C634.215 123.784 634.783 123.48 635.503 123.176C636.239 122.872 637.119 122.72 638.143 122.72C639.423 122.72 640.463 123.016 641.263 123.608C642.063 124.184 642.463 125.008 642.463 126.08V134H640.543V132.512C640.191 133.088 639.663 133.52 638.959 133.808C638.255 134.096 637.567 134.24 636.895 134.24C636.223 134.24 635.591 134.104 634.999 133.832C634.423 133.544 633.959 133.136 633.607 132.608C633.255 132.08 633.079 131.44 633.079 130.688C633.079 129.616 633.455 128.76 634.207 128.12C634.975 127.464 636.039 127.136 637.399 127.136C638.135 127.136 638.759 127.224 639.271 127.4C639.799 127.56 640.223 127.744 640.543 127.952V126.344C640.543 125.592 640.295 125.08 639.799 124.808C639.319 124.536 638.735 124.4 638.047 124.4C637.215 124.4 636.519 124.536 635.959 124.808C635.399 125.08 634.991 125.312 634.735 125.504ZM635.023 130.592C635.023 131.232 635.239 131.728 635.671 132.08C636.119 132.416 636.695 132.584 637.399 132.584C638.279 132.584 639.023 132.32 639.631 131.792C640.239 131.264 640.543 130.56 640.543 129.68V129.272C640.095 129.048 639.639 128.888 639.175 128.792C638.711 128.696 638.223 128.648 637.711 128.648C636.783 128.648 636.103 128.824 635.671 129.176C635.239 129.512 635.023 129.984 635.023 130.592ZM651.877 128.48C651.877 127.232 652.125 126.184 652.621 125.336C653.117 124.472 653.765 123.824 654.565 123.392C655.365 122.944 656.213 122.72 657.109 122.72C658.741 122.72 660.005 123.392 660.901 124.736V115.28H664.525V134H660.901V132.224C660.005 133.568 658.741 134.24 657.109 134.24C656.213 134.24 655.365 134.024 654.565 133.592C653.765 133.144 653.117 132.488 652.621 131.624C652.125 130.76 651.877 129.712 651.877 128.48ZM655.693 128.48C655.693 129.344 655.949 130.032 656.461 130.544C656.989 131.056 657.613 131.312 658.333 131.312C658.749 131.312 659.149 131.2 659.533 130.976C659.933 130.752 660.261 130.432 660.517 130.016C660.773 129.584 660.901 129.072 660.901 128.48C660.901 127.872 660.773 127.36 660.517 126.944C660.261 126.528 659.933 126.208 659.533 125.984C659.149 125.76 658.749 125.648 658.333 125.648C657.613 125.648 656.989 125.904 656.461 126.416C655.949 126.928 655.693 127.616 655.693 128.48ZM668.514 126.344L667.29 123.92C667.93 123.616 668.682 123.328 669.546 123.056C670.426 122.784 671.386 122.648 672.426 122.648C673.402 122.648 674.274 122.792 675.042 123.08C675.81 123.352 676.418 123.752 676.866 124.28C677.314 124.808 677.538 125.456 677.538 126.224V134H674.058V132.488C673.722 133.064 673.218 133.504 672.546 133.808C671.89 134.096 671.178 134.24 670.41 134.24C669.706 134.24 669.05 134.112 668.442 133.856C667.85 133.584 667.37 133.184 667.002 132.656C666.65 132.128 666.474 131.488 666.474 130.736C666.474 129.68 666.842 128.848 667.578 128.24C668.33 127.616 669.402 127.304 670.794 127.304C671.466 127.304 672.082 127.376 672.642 127.52C673.202 127.648 673.674 127.808 674.058 128V127.04C674.058 125.952 673.362 125.408 671.97 125.408C671.49 125.408 671.01 125.464 670.53 125.576C670.05 125.688 669.626 125.824 669.258 125.984C668.906 126.128 668.658 126.248 668.514 126.344ZM670.146 130.544C670.146 130.976 670.29 131.312 670.578 131.552C670.882 131.776 671.258 131.888 671.706 131.888C672.298 131.888 672.826 131.712 673.29 131.36C673.754 130.992 674.01 130.448 674.058 129.728C673.402 129.44 672.69 129.296 671.922 129.296C671.282 129.296 670.826 129.408 670.554 129.632C670.282 129.84 670.146 130.144 670.146 130.544ZM680.852 129.992C681.7 130.696 682.42 131.176 683.012 131.432C683.62 131.672 684.116 131.792 684.5 131.792C685.22 131.792 685.58 131.504 685.58 130.928C685.58 130.576 685.412 130.296 685.076 130.088C684.74 129.864 684.124 129.608 683.228 129.32C682.716 129.144 682.22 128.92 681.74 128.648C681.26 128.376 680.868 128.016 680.564 127.568C680.26 127.12 680.108 126.544 680.108 125.84C680.108 124.832 680.5 124.064 681.284 123.536C682.068 122.992 683.052 122.72 684.236 122.72C685.18 122.72 686.044 122.88 686.828 123.2C687.612 123.504 688.324 123.888 688.964 124.352L687.668 126.728C687.22 126.296 686.692 125.936 686.084 125.648C685.492 125.36 684.948 125.216 684.452 125.216C684.132 125.216 683.884 125.28 683.708 125.408C683.548 125.536 683.468 125.704 683.468 125.912C683.468 126.28 683.684 126.552 684.116 126.728C684.564 126.904 685.196 127.152 686.012 127.472C686.588 127.68 687.116 127.92 687.596 128.192C688.076 128.464 688.46 128.808 688.748 129.224C689.052 129.64 689.204 130.192 689.204 130.88C689.204 132.048 688.844 132.936 688.124 133.544C687.404 134.152 686.38 134.456 685.052 134.456C683.852 134.456 682.788 134.264 681.86 133.88C680.932 133.48 680.092 132.984 679.34 132.392L680.852 129.992ZM698.373 127.28C698.373 126.624 698.253 126.128 698.013 125.792C697.773 125.44 697.357 125.264 696.765 125.264C696.189 125.264 695.725 125.44 695.373 125.792C695.021 126.128 694.845 126.624 694.845 127.28V134H691.197V115.28H694.845V124.472C695.149 123.88 695.581 123.416 696.141 123.08C696.701 122.728 697.389 122.552 698.205 122.552C699.581 122.552 700.557 122.912 701.133 123.632C701.709 124.352 701.997 125.392 701.997 126.752V134H698.373V127.28ZM717.462 128.48C717.462 129.712 717.206 130.76 716.694 131.624C716.198 132.488 715.55 133.144 714.75 133.592C713.95 134.024 713.102 134.24 712.206 134.24C710.574 134.24 709.318 133.576 708.438 132.248V134H704.814V115.28H708.438V124.712C709.318 123.384 710.574 122.72 712.206 122.72C713.102 122.72 713.95 122.944 714.75 123.392C715.55 123.824 716.198 124.472 716.694 125.336C717.206 126.184 717.462 127.232 717.462 128.48ZM713.646 128.48C713.646 127.616 713.382 126.928 712.854 126.416C712.342 125.904 711.726 125.648 711.006 125.648C710.606 125.648 710.206 125.76 709.806 125.984C709.406 126.208 709.078 126.528 708.822 126.944C708.566 127.36 708.438 127.872 708.438 128.48C708.438 129.072 708.566 129.584 708.822 130.016C709.078 130.432 709.406 130.752 709.806 130.976C710.206 131.2 710.606 131.312 711.006 131.312C711.726 131.312 712.342 131.056 712.854 130.544C713.382 130.032 713.646 129.344 713.646 128.48ZM718.979 128.48C718.979 127.312 719.251 126.296 719.795 125.432C720.355 124.568 721.107 123.896 722.051 123.416C723.011 122.936 724.091 122.696 725.291 122.696C726.507 122.696 727.587 122.936 728.531 123.416C729.475 123.896 730.219 124.568 730.763 125.432C731.323 126.296 731.603 127.312 731.603 128.48C731.603 129.632 731.323 130.64 730.763 131.504C730.219 132.368 729.475 133.04 728.531 133.52C727.587 134 726.507 134.24 725.291 134.24C724.091 134.24 723.011 134 722.051 133.52C721.107 133.04 720.355 132.368 719.795 131.504C719.251 130.64 718.979 129.632 718.979 128.48ZM722.723 128.48C722.723 129.328 722.971 130 723.467 130.496C723.979 130.992 724.587 131.24 725.291 131.24C725.995 131.24 726.595 130.992 727.091 130.496C727.603 130 727.859 129.328 727.859 128.48C727.859 127.632 727.603 126.96 727.091 126.464C726.595 125.952 725.995 125.696 725.291 125.696C724.587 125.696 723.979 125.952 723.467 126.464C722.971 126.96 722.723 127.632 722.723 128.48ZM734.96 126.344L733.736 123.92C734.376 123.616 735.128 123.328 735.992 123.056C736.872 122.784 737.832 122.648 738.872 122.648C739.848 122.648 740.72 122.792 741.488 123.08C742.256 123.352 742.864 123.752 743.312 124.28C743.76 124.808 743.984 125.456 743.984 126.224V134H740.504V132.488C740.168 133.064 739.664 133.504 738.992 133.808C738.336 134.096 737.624 134.24 736.856 134.24C736.152 134.24 735.496 134.112 734.888 133.856C734.296 133.584 733.816 133.184 733.448 132.656C733.096 132.128 732.92 131.488 732.92 130.736C732.92 129.68 733.288 128.848 734.024 128.24C734.776 127.616 735.848 127.304 737.24 127.304C737.912 127.304 738.528 127.376 739.088 127.52C739.648 127.648 740.12 127.808 740.504 128V127.04C740.504 125.952 739.808 125.408 738.416 125.408C737.936 125.408 737.456 125.464 736.976 125.576C736.496 125.688 736.072 125.824 735.704 125.984C735.352 126.128 735.104 126.248 734.96 126.344ZM736.592 130.544C736.592 130.976 736.736 131.312 737.024 131.552C737.328 131.776 737.704 131.888 738.152 131.888C738.744 131.888 739.272 131.712 739.736 131.36C740.2 130.992 740.456 130.448 740.504 129.728C739.848 129.44 739.136 129.296 738.368 129.296C737.728 129.296 737.272 129.408 737 129.632C736.728 129.84 736.592 130.144 736.592 130.544ZM753.465 126.728C753.273 126.536 753.065 126.384 752.841 126.272C752.633 126.16 752.369 126.104 752.049 126.104C751.521 126.104 751.089 126.312 750.753 126.728C750.433 127.144 750.273 127.752 750.273 128.552V134H746.697V122.96H750.273V124.352C750.625 123.84 751.041 123.44 751.521 123.152C752.017 122.848 752.529 122.696 753.057 122.696C753.457 122.696 753.841 122.784 754.209 122.96C754.577 123.12 754.857 123.336 755.049 123.608L753.465 126.728ZM755.916 128.48C755.916 127.232 756.164 126.184 756.66 125.336C757.156 124.472 757.804 123.824 758.604 123.392C759.404 122.944 760.252 122.72 761.148 122.72C762.78 122.72 764.044 123.392 764.94 124.736V115.28H768.564V134H764.94V132.224C764.044 133.568 762.78 134.24 761.148 134.24C760.252 134.24 759.404 134.024 758.604 133.592C757.804 133.144 757.156 132.488 756.66 131.624C756.164 130.76 755.916 129.712 755.916 128.48ZM759.732 128.48C759.732 129.344 759.988 130.032 760.5 130.544C761.028 131.056 761.652 131.312 762.372 131.312C762.788 131.312 763.188 131.2 763.572 130.976C763.972 130.752 764.3 130.432 764.556 130.016C764.812 129.584 764.94 129.072 764.94 128.48C764.94 127.872 764.812 127.36 764.556 126.944C764.3 126.528 763.972 126.208 763.572 125.984C763.188 125.76 762.788 125.648 762.372 125.648C761.652 125.648 761.028 125.904 760.5 126.416C759.988 126.928 759.732 127.616 759.732 128.48ZM786.013 127.28C786.013 125.44 785.229 124.52 783.661 124.52C782.829 124.52 782.149 124.776 781.621 125.288C781.109 125.8 780.853 126.464 780.853 127.28V134H778.933V122.96H780.853V124.688C781.573 123.376 782.669 122.72 784.141 122.72C785.309 122.72 786.229 123.112 786.901 123.896C787.589 124.664 787.933 125.712 787.933 127.04V134H786.013V127.28ZM790.582 128.48C790.582 127.36 790.83 126.368 791.326 125.504C791.838 124.64 792.526 123.96 793.39 123.464C794.254 122.968 795.222 122.72 796.294 122.72C797.382 122.72 798.35 122.968 799.198 123.464C800.062 123.96 800.742 124.64 801.238 125.504C801.75 126.368 802.006 127.36 802.006 128.48C802.006 129.584 801.75 130.576 801.238 131.456C800.742 132.32 800.062 133 799.198 133.496C798.35 133.992 797.382 134.24 796.294 134.24C795.222 134.24 794.254 133.992 793.39 133.496C792.526 133 791.838 132.32 791.326 131.456C790.83 130.576 790.582 129.584 790.582 128.48ZM792.526 128.48C792.526 129.248 792.686 129.928 793.006 130.52C793.342 131.112 793.79 131.584 794.35 131.936C794.926 132.272 795.574 132.44 796.294 132.44C797.014 132.44 797.654 132.272 798.214 131.936C798.79 131.584 799.238 131.112 799.558 130.52C799.894 129.928 800.062 129.248 800.062 128.48C800.062 127.712 799.894 127.032 799.558 126.44C799.238 125.832 798.79 125.36 798.214 125.024C797.654 124.688 797.014 124.52 796.294 124.52C795.574 124.52 794.926 124.688 794.35 125.024C793.79 125.36 793.342 125.832 793.006 126.44C792.686 127.032 792.526 127.712 792.526 128.48ZM802.612 122.96H804.772L807.532 130.136L810.532 122.12L813.748 130.184L816.532 122.96H818.692L813.892 134.84L810.556 126.8L807.412 134.84L802.612 122.96ZM821.205 117.2H823.605L823.125 129.2H821.685L821.205 117.2ZM821.085 133.04C821.085 132.672 821.213 132.36 821.469 132.104C821.741 131.848 822.053 131.72 822.405 131.72C822.773 131.72 823.085 131.848 823.341 132.104C823.597 132.36 823.725 132.672 823.725 133.04C823.725 133.392 823.597 133.704 823.341 133.976C823.085 134.232 822.773 134.36 822.405 134.36C822.053 134.36 821.741 134.232 821.469 133.976C821.213 133.704 821.085 133.392 821.085 133.04Z" fill="#EE5055"/>
</svg>
