<svg width="751" height="102" viewBox="0 0 751 102" fill="none" xmlns="http://www.w3.org/2000/svg">
<rect x="29" y="21" width="139" height="62" rx="12" fill="white" stroke="#444B54" stroke-width="6"/>
<path d="M93.256 56.44C93.256 57.912 92.9147 59.1387 92.232 60.12C91.5707 61.08 90.664 61.8053 89.512 62.296C88.3813 62.7653 87.0907 63 85.64 63H79.56V40.6H85.32C87.3253 40.6 88.936 41.0587 90.152 41.976C91.368 42.8933 91.976 44.3013 91.976 46.2C91.976 47.352 91.6453 48.3227 90.984 49.112C90.3227 49.88 89.416 50.4347 88.264 50.776C89.736 51.0747 90.9307 51.6933 91.848 52.632C92.7867 53.5493 93.256 54.8187 93.256 56.44ZM85.32 43H82.28V49.656H85.32C86.4507 49.656 87.3893 49.368 88.136 48.792C88.8827 48.216 89.256 47.4053 89.256 46.36C89.256 45.2933 88.8827 44.472 88.136 43.896C87.3893 43.2987 86.4507 43 85.32 43ZM82.28 60.6H85.64C87.0907 60.6 88.264 60.2267 89.16 59.48C90.0773 58.712 90.536 57.6453 90.536 56.28C90.536 54.8933 90.0773 53.8373 89.16 53.112C88.264 52.3867 87.0907 52.024 85.64 52.024H82.28V60.6ZM95.9638 55.64C95.9638 54.1467 96.2944 52.824 96.9557 51.672C97.6384 50.52 98.5558 49.6133 99.7078 48.952C100.86 48.2907 102.15 47.96 103.58 47.96C105.03 47.96 106.321 48.2907 107.452 48.952C108.604 49.6133 109.51 50.52 110.172 51.672C110.854 52.824 111.196 54.1467 111.196 55.64C111.196 57.112 110.854 58.4347 110.172 59.608C109.51 60.76 108.604 61.6667 107.452 62.328C106.321 62.9893 105.03 63.32 103.58 63.32C102.15 63.32 100.86 62.9893 99.7078 62.328C98.5558 61.6667 97.6384 60.76 96.9557 59.608C96.2944 58.4347 95.9638 57.112 95.9638 55.64ZM98.5558 55.64C98.5558 56.664 98.7691 57.5707 99.1958 58.36C99.6438 59.1493 100.241 59.7787 100.988 60.248C101.756 60.696 102.62 60.92 103.58 60.92C104.54 60.92 105.393 60.696 106.14 60.248C106.908 59.7787 107.505 59.1493 107.932 58.36C108.38 57.5707 108.604 56.664 108.604 55.64C108.604 54.616 108.38 53.7093 107.932 52.92C107.505 52.1093 106.908 51.48 106.14 51.032C105.393 50.584 104.54 50.36 103.58 50.36C102.62 50.36 101.756 50.584 100.988 51.032C100.241 51.48 99.6438 52.1093 99.1958 52.92C98.7691 53.7093 98.5558 54.616 98.5558 55.64ZM112.473 48.28H114.873V43.16H117.433V48.28H119.833V50.68H117.433V63H114.873V50.68H112.473V48.28Z" fill="black"/>
<rect x="271" y="21" width="139" height="62" rx="12" fill="#FFD600" stroke="#444B54" stroke-width="6"/>
<path d="M293.841 40.6H299.921C301.372 40.6 302.663 40.8773 303.793 41.432C304.945 41.9653 305.852 42.7333 306.513 43.736C307.196 44.7387 307.537 45.9333 307.537 47.32C307.537 49.0053 307.036 50.4133 306.033 51.544C305.052 52.6533 303.772 53.4 302.193 53.784L308.881 63H305.521L299.281 54.04H296.561V63H293.841V40.6ZM299.921 43H296.561V51.64H299.921C301.372 51.64 302.545 51.2667 303.441 50.52C304.359 49.752 304.817 48.6853 304.817 47.32C304.817 45.9333 304.359 44.8667 303.441 44.12C302.545 43.3733 301.372 43 299.921 43ZM311.588 42.2C311.588 41.7093 311.758 41.2933 312.1 40.952C312.462 40.6107 312.878 40.44 313.348 40.44C313.838 40.44 314.254 40.6107 314.596 40.952C314.937 41.2933 315.108 41.7093 315.108 42.2C315.108 42.6693 314.937 43.0853 314.596 43.448C314.254 43.7893 313.838 43.96 313.348 43.96C312.878 43.96 312.462 43.7893 312.1 43.448C311.758 43.0853 311.588 42.6693 311.588 42.2ZM312.068 48.28H314.628V63H312.068V48.28ZM319.9 38.04H322.46V63H319.9V38.04ZM327.275 38.04H329.835V63H327.275V38.04ZM334.81 40.6H340.89C342.341 40.6 343.631 40.8773 344.762 41.432C345.914 41.9653 346.821 42.7333 347.482 43.736C348.165 44.7387 348.506 45.9333 348.506 47.32C348.506 49.0053 348.005 50.4133 347.002 51.544C346.021 52.6533 344.741 53.4 343.162 53.784L349.85 63H346.49L340.25 54.04H337.53V63H334.81V40.6ZM340.89 43H337.53V51.64H340.89C342.341 51.64 343.514 51.2667 344.41 50.52C345.327 49.752 345.786 48.6853 345.786 47.32C345.786 45.9333 345.327 44.8667 344.41 44.12C343.514 43.3733 342.341 43 340.89 43ZM353.324 51.672L352.076 49.784C352.631 49.3787 353.388 48.9733 354.348 48.568C355.33 48.1627 356.503 47.96 357.868 47.96C359.575 47.96 360.962 48.3547 362.028 49.144C363.095 49.912 363.628 51.0107 363.628 52.44V63H361.068V61.016C360.599 61.784 359.895 62.36 358.956 62.744C358.018 63.128 357.1 63.32 356.204 63.32C355.308 63.32 354.466 63.1387 353.676 62.776C352.908 62.392 352.29 61.848 351.82 61.144C351.351 60.44 351.116 59.5867 351.116 58.584C351.116 57.1547 351.618 56.0133 352.62 55.16C353.644 54.2853 355.063 53.848 356.876 53.848C357.858 53.848 358.69 53.9653 359.372 54.2C360.076 54.4133 360.642 54.6587 361.068 54.936V52.792C361.068 51.7893 360.738 51.1067 360.076 50.744C359.436 50.3813 358.658 50.2 357.74 50.2C356.631 50.2 355.703 50.3813 354.956 50.744C354.21 51.1067 353.666 51.416 353.324 51.672ZM353.708 58.456C353.708 59.3093 353.996 59.9707 354.572 60.44C355.17 60.888 355.938 61.112 356.876 61.112C358.05 61.112 359.042 60.76 359.852 60.056C360.663 59.352 361.068 58.4133 361.068 57.24V56.696C360.471 56.3973 359.863 56.184 359.244 56.056C358.626 55.928 357.975 55.864 357.292 55.864C356.055 55.864 355.148 56.0987 354.572 56.568C353.996 57.016 353.708 57.6453 353.708 58.456ZM365.723 48.28H368.123V43.16H370.683V48.28H373.083V50.68H370.683V63H368.123V50.68H365.723V48.28ZM381.346 63.32C379.981 63.32 378.765 63 377.698 62.36C376.653 61.6987 375.831 60.792 375.234 59.64C374.658 58.488 374.37 57.1547 374.37 55.64C374.37 54.104 374.669 52.76 375.266 51.608C375.885 50.456 376.738 49.56 377.826 48.92C378.935 48.28 380.215 47.96 381.666 47.96C383.821 47.96 385.517 48.632 386.754 49.976C387.991 51.32 388.61 53.1653 388.61 55.512C388.61 55.6613 388.599 55.8213 388.578 55.992C388.578 56.1413 388.578 56.2373 388.578 56.28H376.994C377.101 57.752 377.559 58.8933 378.37 59.704C379.181 60.5147 380.279 60.92 381.666 60.92C383.671 60.92 385.207 60.0347 386.274 58.264L388.354 59.576C386.818 62.072 384.482 63.32 381.346 63.32ZM381.666 50.2C380.407 50.2 379.383 50.5413 378.594 51.224C377.805 51.8853 377.303 52.8453 377.09 54.104H385.826C385.741 52.9307 385.314 51.992 384.546 51.288C383.799 50.5627 382.839 50.2 381.666 50.2Z" fill="black"/>
<rect x="528" y="21" width="139" height="62" rx="12" fill="#FFD600" stroke="#444B54" stroke-width="6"/>
<path d="M558.903 48.8119C558.903 48.1994 559.394 47.703 560 47.703H564.661C565.267 47.703 565.758 48.1994 565.758 48.8119V64.8911C565.758 65.5035 565.267 66 564.661 66H560C559.394 66 558.903 65.5035 558.903 64.8911V48.8119Z" fill="black"/>
<path d="M558.903 39.1089C558.903 38.4965 559.394 38 560 38H564.661C565.267 38 565.758 38.4965 565.758 39.1089V43.8218C565.758 44.4342 565.267 44.9307 564.661 44.9307H560C559.394 44.9307 558.903 44.4342 558.903 43.8218V39.1089Z" fill="black"/>
<path d="M570.145 60.1782C570.145 59.5658 570.636 59.0693 571.242 59.0693H575.903C576.509 59.0693 577 59.5658 577 60.1782V64.8911C577 65.5035 576.509 66 575.903 66H571.242C570.636 66 570.145 65.5035 570.145 64.8911V60.1782Z" fill="black"/>
<path d="M570.145 39.1089C570.145 38.4965 570.636 38 571.242 38H575.903C576.509 38 577 38.4965 577 39.1089V55.1881C577 55.8006 576.509 56.297 575.903 56.297H571.242C570.636 56.297 570.145 55.8006 570.145 55.1881V39.1089Z" fill="black"/>
<path d="M543 56.0466C543 56.2531 543.057 56.4554 543.165 56.6309L548.553 65.4199C548.753 65.7461 549.105 65.9446 549.485 65.9446H554.643C555.527 65.9446 556.048 64.9419 555.546 64.2062L550.341 56.5727C549.937 55.9794 550.195 55.1632 550.821 54.8184C552.017 54.1595 552.96 53.2906 553.652 52.2118C554.599 50.748 555.073 49.0581 555.073 47.1419C555.073 44.4539 554.152 42.2582 552.309 40.5549C550.493 38.8516 547.821 38 544.294 38H544.114C543.51 38 543.02 38.4939 543.018 39.1046L543 43.7188C543 43.7374 543.014 43.7525 543.033 43.753C544.374 43.7936 546.268 44.1115 546.979 44.7067C547.742 45.3188 548.124 46.2104 548.124 47.3814C548.124 48.5258 547.742 49.4173 546.979 50.0561C546.438 50.5091 545.211 50.8015 544.065 50.9332C543.474 51.001 543 51.4894 543 52.0903V56.0466Z" fill="black"/>
<rect x="589" y="21" width="139" height="62" rx="12" fill="white" stroke="#444B54" stroke-width="6"/>
<path d="M653.256 56.44C653.256 57.912 652.915 59.1387 652.232 60.12C651.571 61.08 650.664 61.8053 649.512 62.296C648.381 62.7653 647.091 63 645.64 63H639.56V40.6H645.32C647.325 40.6 648.936 41.0587 650.152 41.976C651.368 42.8933 651.976 44.3013 651.976 46.2C651.976 47.352 651.645 48.3227 650.984 49.112C650.323 49.88 649.416 50.4347 648.264 50.776C649.736 51.0747 650.931 51.6933 651.848 52.632C652.787 53.5493 653.256 54.8187 653.256 56.44ZM645.32 43H642.28V49.656H645.32C646.451 49.656 647.389 49.368 648.136 48.792C648.883 48.216 649.256 47.4053 649.256 46.36C649.256 45.2933 648.883 44.472 648.136 43.896C647.389 43.2987 646.451 43 645.32 43ZM642.28 60.6H645.64C647.091 60.6 648.264 60.2267 649.16 59.48C650.077 58.712 650.536 57.6453 650.536 56.28C650.536 54.8933 650.077 53.8373 649.16 53.112C648.264 52.3867 647.091 52.024 645.64 52.024H642.28V60.6ZM655.964 55.64C655.964 54.1467 656.294 52.824 656.956 51.672C657.638 50.52 658.556 49.6133 659.708 48.952C660.86 48.2907 662.15 47.96 663.58 47.96C665.03 47.96 666.321 48.2907 667.452 48.952C668.604 49.6133 669.51 50.52 670.172 51.672C670.854 52.824 671.196 54.1467 671.196 55.64C671.196 57.112 670.854 58.4347 670.172 59.608C669.51 60.76 668.604 61.6667 667.452 62.328C666.321 62.9893 665.03 63.32 663.58 63.32C662.15 63.32 660.86 62.9893 659.708 62.328C658.556 61.6667 657.638 60.76 656.956 59.608C656.294 58.4347 655.964 57.112 655.964 55.64ZM658.556 55.64C658.556 56.664 658.769 57.5707 659.196 58.36C659.644 59.1493 660.241 59.7787 660.988 60.248C661.756 60.696 662.62 60.92 663.58 60.92C664.54 60.92 665.393 60.696 666.14 60.248C666.908 59.7787 667.505 59.1493 667.932 58.36C668.38 57.5707 668.604 56.664 668.604 55.64C668.604 54.616 668.38 53.7093 667.932 52.92C667.505 52.1093 666.908 51.48 666.14 51.032C665.393 50.584 664.54 50.36 663.58 50.36C662.62 50.36 661.756 50.584 660.988 51.032C660.241 51.48 659.644 52.1093 659.196 52.92C658.769 53.7093 658.556 54.616 658.556 55.64ZM672.473 48.28H674.873V43.16H677.433V48.28H679.833V50.68H677.433V63H674.873V50.68H672.473V48.28Z" fill="black"/>
<path d="M206.064 48.088H213.84V39.976H219.456V48.088H227.28V53.464H219.456V61.672H213.84V53.464H206.064V48.088Z" fill="black"/>
<path d="M453.064 43.48H474.28V48.856H453.064V43.48ZM453.064 52.648H474.28V58.024H453.064V52.648Z" fill="black"/>
</svg>
